  0
SECTION
  2
HEADER
  9
$ACADVER
  1
AC1015
  9
$ACADMAINTVER
 70
     6
  9
$DWGCODEPAGE
  3
ANSI_1252
  9
$INSBASE
 10
0.0
 20
0.0
 30
0.0
  9
$EXTMIN
 10
0.0
 20
0.0
 30
0.0
  9
$EXTMAX
 10
124.388062
 20
103.542503
 30
2.0
  9
$LIMMIN
 10
0.0
 20
0.0
  9
$LIMMAX
 10
420.0
 20
297.0
  9
$ORTHOMODE
 70
     0
  9
$REGENMODE
 70
     1
  9
$FILLMODE
 70
     1
  9
$QTEXTMODE
 70
     0
  9
$MIRRTEXT
 70
     1
  9
$LTSCALE
 40
1.0
  9
$ATTMODE
 70
     1
  9
$TEXTSIZE
 40
2.5
  9
$TRACEWID
 40
1.0
  9
$TEXTSTYLE
  7
Standard
  9
$CLAYER
  8
0
  9
$CELTYPE
  6
ByLayer
  9
$CECOLOR
 62
   256
  9
$CELTSCALE
 40
1.0
  9
$DISPSILH
 70
     0
  9
$DIMSCALE
 40
1.0
  9
$DIMASZ
 40
2.5
  9
$DIMEXO
 40
0.625
  9
$DIMDLI
 40
3.75
  9
$DIMRND
 40
0.0
  9
$DIMDLE
 40
0.0
  9
$DIMEXE
 40
1.25
  9
$DIMTP
 40
0.0
  9
$DIMTM
 40
0.0
  9
$DIMTXT
 40
2.5
  9
$DIMCEN
 40
2.5
  9
$DIMTSZ
 40
0.0
  9
$DIMTOL
 70
     0
  9
$DIMLIM
 70
     0
  9
$DIMTIH
 70
     0
  9
$DIMTOH
 70
     0
  9
$DIMSE1
 70
     0
  9
$DIMSE2
 70
     0
  9
$DIMTAD
 70
     1
  9
$DIMZIN
 70
     8
  9
$DIMBLK
  1

  9
$DIMASO
 70
     1
  9
$DIMSHO
 70
     1
  9
$DIMPOST
  1

  9
$DIMAPOST
  1

  9
$DIMALT
 70
     0
  9
$DIMALTD
 70
     3
  9
$DIMALTF
 40
0.03937
  9
$DIMLFAC
 40
1.0
  9
$DIMTOFL
 70
     1
  9
$DIMTVP
 40
0.0
  9
$DIMTIX
 70
     0
  9
$DIMSOXD
 70
     0
  9
$DIMSAH
 70
     0
  9
$DIMBLK1
  1

  9
$DIMBLK2
  1

  9
$DIMSTYLE
  2

  9
$DIMCLRD
 70
     0
  9
$DIMCLRE
 70
     0
  9
$DIMCLRT
 70
     0
  9
$DIMTFAC
 40
1.0
  9
$DIMGAP
 40
0.625
  9
$DIMJUST
 70
     0
  9
$DIMSD1
 70
     0
  9
$DIMSD2
 70
     0
  9
$DIMTOLJ
 70
     0
  9
$DIMTZIN
 70
     8
  9
$DIMALTZ
 70
     0
  9
$DIMALTTZ
 70
     0
  9
$DIMUPT
 70
     0
  9
$DIMDEC
 70
     2
  9
$DIMTDEC
 70
     2
  9
$DIMALTU
 70
     2
  9
$DIMALTTD
 70
     3
  9
$DIMTXSTY
  7
Standard
  9
$DIMAUNIT
 70
     0
  9
$DIMADEC
 70
     0
  9
$DIMALTRND
 40
0.0
  9
$DIMAZIN
 70
     0
  9
$DIMDSEP
 70
    44
  9
$DIMATFIT
 70
     0
  9
$DIMFRAC
 70
     0
  9
$DIMLDRBLK
  1

  9
$DIMLUNIT
 70
     2
  9
$DIMLWD
 70
    -2
  9
$DIMLWE
 70
    -2
  9
$DIMTMOVE
 70
     0
  9
$LUNITS
 70
     2
  9
$LUPREC
 70
     4
  9
$SKETCHINC
 40
1.0
  9
$FILLETRAD
 40
2.5
  9
$AUNITS
 70
     0
  9
$AUPREC
 70
     0
  9
$MENU
  1
.
  9
$ELEVATION
 40
0.0
  9
$PELEVATION
 40
0.0
  9
$THICKNESS
 40
0.0
  9
$LIMCHECK
 70
     0
  9
$CHAMFERA
 40
2.5
  9
$CHAMFERB
 40
2.5
  9
$CHAMFERC
 40
0.0
  9
$CHAMFERD
 40
0.0
  9
$SKPOLY
 70
     0
  9
$TDCREATE
 40
0.000000000
  9
$TDUCREATE
 40
0.000000000
  9
$TDUPDATE
 40
0.000000000
  9
$TDUUPDATE
 40
0.000000000
  9
$TDINDWG
 40
0.0000000000
  9
$TDUSRTIMER
 40
0.0000000000
  9
$USRTIMER
 70
     1
  9
$ANGBASE
 50
0.0
  9
$ANGDIR
 70
     0
  9
$PDMODE
 70
     0
  9
$PDSIZE
 40
0.0
  9
$PLINEWID
 40
0.0
  9
$SPLFRAME
 70
     0
  9
$SPLINETYPE
 70
     6
  9
$SPLINESEGS
 70
     8
  9
$HANDSEED
  5
2F9
  9
$SURFTAB1
 70
     6
  9
$SURFTAB2
 70
     6
  9
$SURFTYPE
 70
     6
  9
$SURFU
 70
     6
  9
$SURFV
 70
     6
  9
$UCSBASE
  2

  9
$UCSNAME
  2

  9
$UCSORG
 10
0.0
 20
0.0
 30
0.0
  9
$UCSXDIR
 10
1.0
 20
0.0
 30
0.0
  9
$UCSYDIR
 10
0.0
 20
1.0
 30
0.0
  9
$UCSORTHOREF
  2

  9
$UCSORTHOVIEW
 70
     1
  9
$UCSORGTOP
 10
0.0
 20
0.0
 30
0.0
  9
$UCSORGBOTTOM
 10
0.0
 20
0.0
 30
0.0
  9
$UCSORGLEFT
 10
0.0
 20
0.0
 30
0.0
  9
$UCSORGRIGHT
 10
0.0
 20
0.0
 30
0.0
  9
$UCSORGFRONT
 10
0.0
 20
0.0
 30
0.0
  9
$UCSORGBACK
 10
0.0
 20
0.0
 30
0.0
  9
$PUCSBASE
  2

  9
$PUCSNAME
  2

  9
$PUCSORG
 10
0.0
 20
0.0
 30
0.0
  9
$PUCSXDIR
 10
1.0
 20
0.0
 30
0.0
  9
$PUCSYDIR
 10
0.0
 20
1.0
 30
0.0
  9
$PUCSORTHOREF
  2

  9
$PUCSORTHOVIEW
 70
     0
  9
$PUCSORGTOP
 10
0.0
 20
0.0
 30
0.0
  9
$PUCSORGBOTTOM
 10
0.0
 20
0.0
 30
0.0
  9
$PUCSORGLEFT
 10
0.0
 20
0.0
 30
0.0
  9
$PUCSORGRIGHT
 10
0.0
 20
0.0
 30
0.0
  9
$PUCSORGFRONT
 10
0.0
 20
0.0
 30
0.0
  9
$PUCSORGBACK
 10
0.0
 20
0.0
 30
0.0
  9
$USERI1
 70
     0
  9
$USERI2
 70
     0
  9
$USERI3
 70
     0
  9
$USERI4
 70
     0
  9
$USERI5
 70
     0
  9
$USERR1
 40
0.0
  9
$USERR2
 40
0.0
  9
$USERR3
 40
0.0
  9
$USERR4
 40
0.0
  9
$USERR5
 40
0.0
  9
$WORLDVIEW
 70
     1
  9
$SHADEDGE
 70
     3
  9
$SHADEDIF
 70
    70
  9
$TILEMODE
 70
     1
  9
$MAXACTVP
 70
    48
  9
$PINSBASE
 10
0.0
 20
0.0
 30
0.0
  9
$PLIMCHECK
 70
     0
  9
$PEXTMIN
 10
0.0
 20
0.0
 30
0.0
  9
$PEXTMAX
 10
124.388062
 20
103.542503
 30
2.0
  9
$PLIMMIN
 10
0.0
 20
0.0
  9
$PLIMMAX
 10
420.0
 20
297.0
  9
$UNITMODE
 70
     0
  9
$VISRETAIN
 70
     0
  9
$PLINEGEN
 70
     0
  9
$PSLTSCALE
 70
     1
  9
$TREEDEPTH
 70
  3020
  9
$CMLSTYLE
  2
Standard
  9
$CMLJUST
 70
     0
  9
$CMLSCALE
 40
20.0
  9
$PROXYGRAPHICS
 70
     1
  9
$MEASUREMENT
 70
     1
  9
$CELWEIGHT
370
    -1
  9
$ENDCAPS
280
     0
  9
$JOINSTYLE
280
     0
  9
$LWDISPLAY
290
     0
  9
$INSUNITS
 70
     0
  9
$HYPERLINKBASE
  1

  9
$STYLESHEET
  1

  9
$XEDIT
290
     1
  9
$CEPSNTYPE
380
     0
  9
$PSTYLEMODE
290
     0
  9
$FINGERPRINTGUID
  2

  9
$VERSIONGUID
  2

  9
$EXTNAMES
290
     0
  9
$PSVPSCALE
 40
0.0
  0
ENDSEC
  0
SECTION
  2
CLASSES
  0
CLASS
  1
LWPOLYLINE
  2
AcDbPolyline
  3
AutoCAD 2000
 90
        0
280
     0
281
     1
  0
CLASS
  1
IMAGE
  2
AcDbRasterImage
  3
ISM
 90
      127
280
     0
281
     1
  0
CLASS
  1
OLE2FRAME
  2
AcDbOle2Frame
  3
AutoCAD 2000
 90
        0
280
     0
281
     1
  0
CLASS
  1
HATCH
  2
AcDbHatch
  3
AutoCAD 2000
 90
        0
280
     0
281
     1
  0
CLASS
  1
DICTIONARYVAR
  2
AcDbDictionaryVar
  3
AutoCAD 2000
 90
        0
280
     0
281
     0
  0
CLASS
  1
RASTERVARIABLES
  2
AcDbRasterVariables
  3
ISM
 90
        0
280
     0
281
     0
  0
CLASS
  1
IMAGEDEF
  2
AcDbRasterImageDef
  3
ISM
 90
        0
280
     0
281
     0
  0
CLASS
  1
IMAGEDEF_REACTOR
  2
AcDbRasterImageDefReactor
  3
ISM
 90
        1
280
     0
281
     0
  0
CLASS
  1
IDBUFFER
  2
AcDbIdBuffer
  3
AutoCAD 2000
 90
        0
280
     0
281
     0
  0
CLASS
  1
SPATIAL_FILTER
  2
AcDbSpatialFilter
  3
AutoCAD 2000
 90
        0
280
     0
281
     0
  0
CLASS
  1
XRECORD
  2
AcDbXrecord
  3
AutoCAD 2000
 90
        0
280
     0
281
     0
  0
CLASS
  1
SORTENTSTABLE
  2
AcDbSortentsTable
  3
AutoCAD 2000
 90
        0
280
     0
281
     0
  0
CLASS
  1
LAYER_INDEX
  2
AcDbLayerIndex
  3
AutoCAD 2000
 90
        0
280
     0
281
     0
  0
CLASS
  1
SPATIAL_INDEX
  2
AcDbSpatialIndex
  3
AutoCAD 2000
 90
        0
280
     0
281
     0
  0
CLASS
  1
OBJECT_PTR
  2
CAseDLPNTableRecord
  3
"ASE-LPNTableRecord"
 90
        1
280
     0
281
     0
  0
CLASS
  1
LAYOUT
  2
AcDbLayout
  3
AutoCAD 2000
 90
        0
280
     0
281
     0
  0
CLASS
  1
PLOTSETTINGS
  2
AcDbPlotSettings
  3
AutoCAD 2000
 90
        0
280
     0
281
     0
  0
CLASS
  1
ACDBDICTIONARYWDFLT
  2
AcDbDictionaryWithDefault
  3
AutoCAD 2000
 90
        0
280
     0
281
     0
  0
CLASS
  1
ACDBPLACEHOLDER
  2
AcDbPlaceHolder
  3
AutoCAD 2000
 90
        0
280
     0
281
     0
  0
CLASS
  1
VBA_PROJECT
  2
AcDbVbaProject
  3
acadvba
 90
        0
280
     0
281
     0
  0
CLASS
  1
WIPEOUT
  2
AcDbWipeout
  3
WipeOut|AutoCAD Express Tool|expresstools@autodesk.com
 90
      127
280
     0
281
     1
  0
CLASS
  1
WIPEOUTVARIABLES
  2
AcDbWipeoutVariables
  3
WipeOut|AutoCAD Express Tool|expresstools@autodesk.com
 90
        0
280
     0
281
     0
  0
CLASS
  1
RTEXT
  2
RText
  3
RText|AutoCAD Express Tool|expresstools@autodesk.com
 90
        0
280
     0
281
     1
  0
CLASS
  1
ARCALIGNEDTEXT
  2
AcDbArcAlignedText
  3
ATEXT|AutoCAD Express Tool|expresstools@autodesk.com
 90
        0
280
     0
281
     1
  0
ENDSEC
  0
SECTION
  2
TABLES
  0
TABLE
  2
VPORT
  5
7
100
AcDbSymbolTable
 70
     1
  0
VPORT
  5
15
100
AcDbSymbolTableRecord
100
AcDbViewportTableRecord
  2
*ACTIVE
 70
     0
 10
0.0
 20
0.0
 11
1.0
 21
1.0
 12
6.591288
 22
4.579184
 13
0.0
 23
0.0
 14
1.0
 24
1.0
 15
0.0
 25
0.0
 16
0.0
 26
0.0
 36
1.0
 17
0.0
 27
0.0
 37
0.0
 40
9.158369
 41
0.688564
 42
50.0
 43
0.0
 44
0.0
 50
0.0
 51
0.0
 71
     0
 72
   100
 73
     1
 74
     1
 75
     0
 76
     0
 77
     0
 78
     0
281
     0
 65
     0
110
0.0
120
0.0
130
0.0
111
1.0
121
0.0
131
0.0
112
0.0
122
1.0
132
0.0
345
0
346
0
 79
     0
146
0.0
  0
ENDTAB
  0
TABLE
  2
LTYPE
  5
4
100
AcDbSymbolTable
 70
     3
  0
LTYPE
  5
11
100
AcDbSymbolTableRecord
100
AcDbLinetypeTableRecord
  2
ByBlock
 70
    64
  3

 72
    65
 73
     0
 40
0.0
  0
LTYPE
  5
12
100
AcDbSymbolTableRecord
100
AcDbLinetypeTableRecord
  2
ByLayer
 70
    64
  3

 72
    65
 73
     0
 40
0.0
  0
LTYPE
  5
13
100
AcDbSymbolTableRecord
100
AcDbLinetypeTableRecord
  2
Continuous
 70
    64
  3
Solid line
 72
    65
 73
     0
 40
0.0
  0
ENDTAB
  0
TABLE
  2
LAYER
  5
2
100
AcDbSymbolTable
 70
     1
  0
LAYER
  5
14
100
AcDbSymbolTableRecord
100
AcDbLayerTableRecord
  2
0
 70
     0
 62
     7
  6
Continuous
290
     1
370
    -3
390
1D
  0
ENDTAB
  0
TABLE
  2
STYLE
  5
3
100
AcDbSymbolTable
 70
     1
  0
STYLE
  5
17
100
AcDbSymbolTableRecord
100
AcDbTextStyleTableRecord
  2
Standard
 70
     0
 40
0.0
 41
1.0
 50
0.0
 71
     0
 42
0.0
  3
txt
  4

  0
ENDTAB
  0
TABLE
  2
VIEW
  5
5
100
AcDbSymbolTable
 70
     0
  0
ENDTAB
  0
TABLE
  2
UCS
  5
6
100
AcDbSymbolTable
 70
     0
  0
ENDTAB
  0
TABLE
  2
APPID
  5
8
100
AcDbSymbolTable
 70
     1
  0
APPID
  5
16
100
AcDbSymbolTableRecord
100
AcDbRegAppTableRecord
  2
ACAD
 70
     0
  0
ENDTAB
  0
TABLE
  2
DIMSTYLE
  5
9
100
AcDbSymbolTable
 70
     1
100
AcDbDimStyleTable
 71
     0
  0
DIMSTYLE
105
18
100
AcDbSymbolTableRecord
100
AcDbDimStyleTableRecord
  2
Standard
 70
     0
  3

  4

 40
1.0
 41
0.18
 42
0.0625
 43
0.38
 44
0.18
 45
0.0
 46
0.0
 47
0.0
 48
0.0
 71
     0
 72
     0
 73
     1
 74
     1
 75
     0
 76
     0
 77
     0
 78
     0
 79
     0
140
0.18
141
0.09
142
0.0
143
25.4
144
1.0
145
0.0
146
1.0
147
0.09
148
0.0
170
     0
171
     2
172
     0
173
     0
174
     0
175
     0
176
     0
177
     0
178
     0
179
     0
271
     4
272
     4
273
     2
274
     2
275
     0
276
     0
277
     2
278
    46
279
     0
280
     0
281
     0
282
     0
283
     1
284
     0
285
     0
286
     0
288
     0
289
     3
340
17
341
0
342
0
343
0
344
0
371
    -2
372
    -2
  0
ENDTAB
  0
TABLE
  2
BLOCK_RECORD
  5
1
100
AcDbSymbolTable
 70
     0
  0
BLOCK_RECORD
  5
A
100
AcDbSymbolTableRecord
100
AcDbBlockTableRecord
  2
*MODEL_SPACE
340
20
  0
BLOCK_RECORD
  5
B
100
AcDbSymbolTableRecord
100
AcDbBlockTableRecord
  2
*PAPER_SPACE
340
21
  0
ENDTAB
  0
ENDSEC
  0
SECTION
  2
BLOCKS
  0
BLOCK
  5
D
100
AcDbEntity
  8
0
390
0
100
AcDbBlockBegin
  2
*MODEL_SPACE
 70
     0
 10
0.0
 20
0.0
 30
0.0
  3
*MODEL_SPACE
  1

  0
ENDBLK
  5
E
100
AcDbEntity
  8
0
390
0
100
AcDbBlockEnd
  0
BLOCK
  5
F
100
AcDbEntity
 67
     1
  8
0
390
0
100
AcDbBlockBegin
  2
*PAPER_SPACE
 70
     0
 10
0.0
 20
0.0
 30
0.0
  3
*PAPER_SPACE
  1

  0
ENDBLK
  5
10
100
AcDbEntity
 67
     1
  8
0
390
0
100
AcDbBlockEnd
  0
ENDSEC
  0
SECTION
  2
ENTITIES
  0
VIEWPORT
  5
2F8
100
AcDbEntity
 67
     1
  8
0
370
     0
390
0
 62
     0
 48
0.0
100
AcDbViewport
 10
0.0
 20
0.0
 30
0.0
 40
1000.0
 41
1000.0
 68
     1
 69
     1
 12
0.0
 22
0.0
 13
0.0
 23
0.0
 14
1.0
 24
1.0
 15
1.0
 25
1.0
 16
0.0
 26
0.0
 36
1.0
 17
0.0
 27
0.0
 37
0.0
 42
50.0
 43
0.0
 44
0.0
 45
1000.0
 50
0.0
 51
0.0
 72
   100
 90
        0
340
0
  1

281
     0
 71
     0
 74
     1
110
0.0
120
0.0
130
0.0
111
1.0
121
0.0
131
0.0
112
0.0
122
1.0
132
0.0
345
0
346
0
 79
     0
146
0.0
  0
CIRCLE
  5
24
100
AcDbEntity
  8
0
370
    35
390
0
 62
     7
100
AcDbCircle
 10
123.118057
 20
65.188499
 30
0.0
 40
0.508
210
0.0
220
0.0
230
1.0
  0
LINE
  5
25
100
AcDbEntity
  8
0
370
    35
390
0
 62
     7
 48
0.007044
100
AcDbLine
 10
108.67054
 20
102.831299
 30
0.0
 11
108.416542
 21
102.709381
 31
0.0
210
0.0
220
0.0
230
1.0
  0
LINE
  5
26
100
AcDbEntity
  8
0
370
    35
390
0
 62
     7
 48
0.007015
100
AcDbLine
 10
108.416542
 20
102.709381
 30
0.0
 11
108.167618
 21
102.579842
 31
0.0
210
0.0
220
0.0
230
1.0
  0
LINE
  5
27
100
AcDbEntity
  8
0
370
    35
390
0
 62
     7
 48
0.007026
100
AcDbLine
 10
108.167618
 20
102.579842
 30
0.0
 11
107.923782
 21
102.44014
 31
0.0
210
0.0
220
0.0
230
1.0
  0
LINE
  5
28
100
AcDbEntity
  8
0
370
    35
390
0
 62
     7
 48
0.007014
100
AcDbLine
 10
107.923782
 20
102.44014
 30
0.0
 11
107.68502
 21
102.292824
 31
0.0
210
0.0
220
0.0
230
1.0
  0
LINE
  5
29
100
AcDbEntity
  8
0
370
    35
390
0
 62
     7
 48
0.007045
100
AcDbLine
 10
107.68502
 20
102.292824
 30
0.0
 11
107.45134
 21
102.135345
 31
0.0
210
0.0
220
0.0
230
1.0
  0
LINE
  5
2A
100
AcDbEntity
  8
0
370
    35
390
0
 62
     7
 48
0.007013
100
AcDbLine
 10
107.45134
 20
102.135345
 30
0.0
 11
107.22274
 21
101.972778
 31
0.0
210
0.0
220
0.0
230
1.0
  0
LINE
  5
2B
100
AcDbEntity
  8
0
370
    35
390
0
 62
     7
 48
0.007012
100
AcDbLine
 10
107.22274
 20
101.972778
 30
0.0
 11
107.001762
 21
101.800064
 31
0.0
210
0.0
220
0.0
230
1.0
  0
LINE
  5
2C
100
AcDbEntity
  8
0
370
    35
390
0
 62
     7
 48
0.007033
100
AcDbLine
 10
107.001762
 20
101.800064
 30
0.0
 11
106.785858
 21
101.61972
 31
0.0
210
0.0
220
0.0
230
1.0
  0
LINE
  5
2D
100
AcDbEntity
  8
0
370
    35
390
0
 62
     7
 48
0.007014
100
AcDbLine
 10
106.785858
 20
101.61972
 30
0.0
 11
106.577576
 21
101.431763
 31
0.0
210
0.0
220
0.0
230
1.0
  0
LINE
  5
2E
100
AcDbEntity
  8
0
370
    35
390
0
 62
     7
 48
0.007051
100
AcDbLine
 10
106.577576
 20
101.431763
 30
0.0
 11
106.374382
 21
101.236183
 31
0.0
210
0.0
220
0.0
230
1.0
  0
LINE
  5
2F
100
AcDbEntity
  8
0
370
    35
390
0
 62
     7
 48
0.007051
100
AcDbLine
 10
106.374382
 20
101.236183
 30
0.0
 11
106.178802
 21
101.032982
 31
0.0
210
0.0
220
0.0
230
1.0
  0
LINE
  5
30
100
AcDbEntity
  8
0
370
    35
390
0
 62
     7
 48
0.007014
100
AcDbLine
 10
106.178802
 20
101.032982
 30
0.0
 11
105.990837
 21
100.824699
 31
0.0
210
0.0
220
0.0
230
1.0
  0
LINE
  5
31
100
AcDbEntity
  8
0
370
    35
390
0
 62
     7
 48
0.007033
100
AcDbLine
 10
105.990837
 20
100.824699
 30
0.0
 11
105.810501
 21
100.608803
 31
0.0
210
0.0
220
0.0
230
1.0
  0
LINE
  5
32
100
AcDbEntity
  8
0
370
    35
390
0
 62
     7
 48
0.007012
100
AcDbLine
 10
105.810501
 20
100.608803
 30
0.0
 11
105.637779
 21
100.387817
 31
0.0
210
0.0
220
0.0
230
1.0
  0
LINE
  5
33
100
AcDbEntity
  8
0
370
    35
390
0
 62
     7
 48
0.007012
100
AcDbLine
 10
105.637779
 20
100.387817
 30
0.0
 11
105.47522
 21
100.159225
 31
0.0
210
0.0
220
0.0
230
1.0
  0
LINE
  5
34
100
AcDbEntity
  8
0
370
    35
390
0
 62
     7
 48
0.007045
100
AcDbLine
 10
105.47522
 20
100.159225
 30
0.0
 11
105.317741
 21
99.925545
 31
0.0
210
0.0
220
0.0
230
1.0
  0
LINE
  5
35
100
AcDbEntity
  8
0
370
    35
390
0
 62
     7
 48
0.007014
100
AcDbLine
 10
105.317741
 20
99.925545
 30
0.0
 11
105.170418
 21
99.686783
 31
0.0
210
0.0
220
0.0
230
1.0
  0
LINE
  5
36
100
AcDbEntity
  8
0
370
    35
390
0
 62
     7
 48
0.007026
100
AcDbLine
 10
105.170418
 20
99.686783
 30
0.0
 11
105.030716
 21
99.44294
 31
0.0
210
0.0
220
0.0
230
1.0
  0
LINE
  5
37
100
AcDbEntity
  8
0
370
    35
390
0
 62
     7
 48
0.007015
100
AcDbLine
 10
105.030716
 20
99.44294
 30
0.0
 11
104.901176
 21
99.194023
 31
0.0
210
0.0
220
0.0
230
1.0
  0
LINE
  5
38
100
AcDbEntity
  8
0
370
    35
390
0
 62
     7
 48
0.007044
100
AcDbLine
 10
104.901176
 20
99.194023
 30
0.0
 11
104.779259
 21
98.940018
 31
0.0
210
0.0
220
0.0
230
1.0
  0
LINE
  5
39
100
AcDbEntity
  8
0
370
    35
390
0
 62
     7
 48
0.007054
100
AcDbLine
 10
104.779259
 20
98.940018
 30
0.0
 11
104.667496
 21
98.680939
 31
0.0
210
0.0
220
0.0
230
1.0
  0
LINE
  5
3A
100
AcDbEntity
  8
0
370
    35
390
0
 62
     7
 48
0.00704
100
AcDbLine
 10
104.667496
 20
98.680939
 30
0.0
 11
104.563362
 21
98.419319
 31
0.0
210
0.0
220
0.0
230
1.0
  0
LINE
  5
3B
100
AcDbEntity
  8
0
370
    35
390
0
 62
     7
 48
0.006988
100
AcDbLine
 10
104.563362
 20
98.419319
 30
0.0
 11
104.471916
 21
98.155167
 31
0.0
210
0.0
220
0.0
230
1.0
  0
LINE
  5
3C
100
AcDbEntity
  8
0
370
    35
390
0
 62
     7
 48
0.00705
100
AcDbLine
 10
104.471916
 20
98.155167
 30
0.0
 11
104.3881
 21
97.885925
 31
0.0
210
0.0
220
0.0
230
1.0
  0
LINE
  5
3D
100
AcDbEntity
  8
0
370
    35
390
0
 62
     7
 48
0.006995
100
AcDbLine
 10
104.3881
 20
97.885925
 30
0.0
 11
104.311897
 21
97.616684
 31
0.0
210
0.0
220
0.0
230
1.0
  0
LINE
  5
3E
100
AcDbEntity
  8
0
370
    35
390
0
 62
     7
 48
0.007039
100
AcDbLine
 10
104.311897
 20
97.616684
 30
0.0
 11
104.248398
 21
97.342361
 31
0.0
210
0.0
220
0.0
230
1.0
  0
LINE
  5
3F
100
AcDbEntity
  8
0
370
    35
390
0
 62
     7
 48
0.007061
100
AcDbLine
 10
104.248398
 20
97.342361
 30
0.0
 11
104.19252
 21
97.065506
 31
0.0
210
0.0
220
0.0
230
1.0
  0
LINE
  5
40
100
AcDbEntity
  8
0
370
    35
390
0
 62
     7
 48
0.007005
100
AcDbLine
 10
104.19252
 20
97.065506
 30
0.0
 11
104.149338
 21
96.788643
 31
0.0
210
0.0
220
0.0
230
1.0
  0
LINE
  5
41
100
AcDbEntity
  8
0
370
    35
390
0
 62
     7
 48
0.007041
100
AcDbLine
 10
104.149338
 20
96.788643
 30
0.0
 11
104.113777
 21
96.509239
 31
0.0
210
0.0
220
0.0
230
1.0
  0
LINE
  5
42
100
AcDbEntity
  8
0
370
    35
390
0
 62
     7
 48
0.007014
100
AcDbLine
 10
104.113777
 20
96.509239
 30
0.0
 11
104.088379
 21
96.229843
 31
0.0
210
0.0
220
0.0
230
1.0
  0
LINE
  5
43
100
AcDbEntity
  8
0
370
    35
390
0
 62
     7
 48
0.006995
100
AcDbLine
 10
104.088379
 20
96.229843
 30
0.0
 11
104.073143
 21
95.950439
 31
0.0
210
0.0
220
0.0
230
1.0
  0
LINE
  5
44
100
AcDbEntity
  8
0
370
    35
390
0
 62
     7
 48
0.00705
100
AcDbLine
 10
104.073143
 20
95.950439
 30
0.0
 11
104.068062
 21
95.668503
 31
0.0
210
0.0
220
0.0
230
1.0
  0
LINE
  5
45
100
AcDbEntity
  8
0
370
    35
390
0
 62
     7
100
AcDbLine
 10
104.068062
 20
66.331505
 30
0.0
 11
104.068062
 21
95.668503
 31
0.0
210
0.0
220
0.0
230
1.0
  0
LINE
  5
46
100
AcDbEntity
  8
0
370
    35
390
0
 62
     7
 48
0.00705
100
AcDbLine
 10
104.068062
 20
66.331505
 30
0.0
 11
104.073143
 21
66.049561
 31
0.0
210
0.0
220
0.0
230
1.0
  0
LINE
  5
47
100
AcDbEntity
  8
0
370
    35
390
0
 62
     7
 48
0.006995
100
AcDbLine
 10
104.073143
 20
66.049561
 30
0.0
 11
104.088379
 21
65.770164
 31
0.0
210
0.0
220
0.0
230
1.0
  0
LINE
  5
48
100
AcDbEntity
  8
0
370
    35
390
0
 62
     7
 48
0.007014
100
AcDbLine
 10
104.088379
 20
65.770164
 30
0.0
 11
104.113777
 21
65.490761
 31
0.0
210
0.0
220
0.0
230
1.0
  0
LINE
  5
49
100
AcDbEntity
  8
0
370
    35
390
0
 62
     7
 48
0.007041
100
AcDbLine
 10
104.113777
 20
65.490761
 30
0.0
 11
104.149338
 21
65.211365
 31
0.0
210
0.0
220
0.0
230
1.0
  0
LINE
  5
4A
100
AcDbEntity
  8
0
370
    35
390
0
 62
     7
 48
0.007005
100
AcDbLine
 10
104.149338
 20
65.211365
 30
0.0
 11
104.19252
 21
64.934502
 31
0.0
210
0.0
220
0.0
230
1.0
  0
LINE
  5
4B
100
AcDbEntity
  8
0
370
    35
390
0
 62
     7
 48
0.007061
100
AcDbLine
 10
104.19252
 20
64.934502
 30
0.0
 11
104.248398
 21
64.657639
 31
0.0
210
0.0
220
0.0
230
1.0
  0
LINE
  5
4C
100
AcDbEntity
  8
0
370
    35
390
0
 62
     7
 48
0.007039
100
AcDbLine
 10
104.248398
 20
64.657639
 30
0.0
 11
104.311897
 21
64.383324
 31
0.0
210
0.0
220
0.0
230
1.0
  0
LINE
  5
4D
100
AcDbEntity
  8
0
370
    35
390
0
 62
     7
 48
0.006995
100
AcDbLine
 10
104.311897
 20
64.383324
 30
0.0
 11
104.3881
 21
64.114082
 31
0.0
210
0.0
220
0.0
230
1.0
  0
LINE
  5
4E
100
AcDbEntity
  8
0
370
    35
390
0
 62
     7
 48
0.00705
100
AcDbLine
 10
104.3881
 20
64.114082
 30
0.0
 11
104.471916
 21
63.844841
 31
0.0
210
0.0
220
0.0
230
1.0
  0
LINE
  5
4F
100
AcDbEntity
  8
0
370
    35
390
0
 62
     7
 48
0.006989
100
AcDbLine
 10
104.471916
 20
63.844841
 30
0.0
 11
104.563362
 21
63.580681
 31
0.0
210
0.0
220
0.0
230
1.0
  0
LINE
  5
50
100
AcDbEntity
  8
0
370
    35
390
0
 62
     7
 48
0.00704
100
AcDbLine
 10
104.563362
 20
63.580681
 30
0.0
 11
104.667496
 21
63.319061
 31
0.0
210
0.0
220
0.0
230
1.0
  0
LINE
  5
51
100
AcDbEntity
  8
0
370
    35
390
0
 62
     7
 48
0.007054
100
AcDbLine
 10
104.667496
 20
63.319061
 30
0.0
 11
104.779259
 21
63.059982
 31
0.0
210
0.0
220
0.0
230
1.0
  0
LINE
  5
52
100
AcDbEntity
  8
0
370
    35
390
0
 62
     7
 48
0.007044
100
AcDbLine
 10
104.779259
 20
63.059982
 30
0.0
 11
104.901176
 21
62.805981
 31
0.0
210
0.0
220
0.0
230
1.0
  0
LINE
  5
53
100
AcDbEntity
  8
0
370
    35
390
0
 62
     7
 48
0.007015
100
AcDbLine
 10
104.901176
 20
62.805981
 30
0.0
 11
105.030716
 21
62.55706
 31
0.0
210
0.0
220
0.0
230
1.0
  0
LINE
  5
54
100
AcDbEntity
  8
0
370
    35
390
0
 62
     7
 48
0.007026
100
AcDbLine
 10
105.030716
 20
62.55706
 30
0.0
 11
105.170418
 21
62.313221
 31
0.0
210
0.0
220
0.0
230
1.0
  0
LINE
  5
55
100
AcDbEntity
  8
0
370
    35
390
0
 62
     7
 48
0.007014
100
AcDbLine
 10
105.170418
 20
62.313221
 30
0.0
 11
105.317741
 21
62.074463
 31
0.0
210
0.0
220
0.0
230
1.0
  0
LINE
  5
56
100
AcDbEntity
  8
0
370
    35
390
0
 62
     7
 48
0.007045
100
AcDbLine
 10
105.317741
 20
62.074463
 30
0.0
 11
105.47522
 21
61.840782
 31
0.0
210
0.0
220
0.0
230
1.0
  0
LINE
  5
57
100
AcDbEntity
  8
0
370
    35
390
0
 62
     7
 48
0.007013
100
AcDbLine
 10
105.47522
 20
61.840782
 30
0.0
 11
105.637779
 21
61.612183
 31
0.0
210
0.0
220
0.0
230
1.0
  0
LINE
  5
58
100
AcDbEntity
  8
0
370
    35
390
0
 62
     7
 48
0.007012
100
AcDbLine
 10
105.637779
 20
61.612183
 30
0.0
 11
105.810501
 21
61.391201
 31
0.0
210
0.0
220
0.0
230
1.0
  0
LINE
  5
59
100
AcDbEntity
  8
0
370
    35
390
0
 62
     7
 48
0.007033
100
AcDbLine
 10
105.810501
 20
61.391201
 30
0.0
 11
105.990837
 21
61.175301
 31
0.0
210
0.0
220
0.0
230
1.0
  0
LINE
  5
5A
100
AcDbEntity
  8
0
370
    35
390
0
 62
     7
 48
0.007014
100
AcDbLine
 10
105.990837
 20
61.175301
 30
0.0
 11
106.178802
 21
60.967022
 31
0.0
210
0.0
220
0.0
230
1.0
  0
LINE
  5
5B
100
AcDbEntity
  8
0
370
    35
390
0
 62
     7
 48
0.007051
100
AcDbLine
 10
106.178802
 20
60.967022
 30
0.0
 11
106.374382
 21
60.763821
 31
0.0
210
0.0
220
0.0
230
1.0
  0
LINE
  5
5C
100
AcDbEntity
  8
0
370
    35
390
0
 62
     7
 48
0.007051
100
AcDbLine
 10
106.374382
 20
60.763821
 30
0.0
 11
106.577576
 21
60.568241
 31
0.0
210
0.0
220
0.0
230
1.0
  0
LINE
  5
5D
100
AcDbEntity
  8
0
370
    35
390
0
 62
     7
 48
0.007014
100
AcDbLine
 10
106.577576
 20
60.568241
 30
0.0
 11
106.785858
 21
60.380283
 31
0.0
210
0.0
220
0.0
230
1.0
  0
LINE
  5
5E
100
AcDbEntity
  8
0
370
    35
390
0
 62
     7
 48
0.007033
100
AcDbLine
 10
106.785858
 20
60.380283
 30
0.0
 11
107.001762
 21
60.199944
 31
0.0
210
0.0
220
0.0
230
1.0
  0
LINE
  5
5F
100
AcDbEntity
  8
0
370
    35
390
0
 62
     7
 48
0.007012
100
AcDbLine
 10
107.001762
 20
60.199944
 30
0.0
 11
107.22274
 21
60.027222
 31
0.0
210
0.0
220
0.0
230
1.0
  0
LINE
  5
60
100
AcDbEntity
  8
0
370
    35
390
0
 62
     7
 48
0.007013
100
AcDbLine
 10
107.22274
 20
60.027222
 30
0.0
 11
107.45134
 21
59.864662
 31
0.0
210
0.0
220
0.0
230
1.0
  0
LINE
  5
61
100
AcDbEntity
  8
0
370
    35
390
0
 62
     7
 48
0.007045
100
AcDbLine
 10
107.45134
 20
59.864662
 30
0.0
 11
107.68502
 21
59.707184
 31
0.0
210
0.0
220
0.0
230
1.0
  0
LINE
  5
62
100
AcDbEntity
  8
0
370
    35
390
0
 62
     7
 48
0.007014
100
AcDbLine
 10
107.68502
 20
59.707184
 30
0.0
 11
107.923782
 21
59.55986
 31
0.0
210
0.0
220
0.0
230
1.0
  0
LINE
  5
63
100
AcDbEntity
  8
0
370
    35
390
0
 62
     7
 48
0.007025
100
AcDbLine
 10
107.923782
 20
59.55986
 30
0.0
 11
108.167618
 21
59.420162
 31
0.0
210
0.0
220
0.0
230
1.0
  0
LINE
  5
64
100
AcDbEntity
  8
0
370
    35
390
0
 62
     7
 48
0.007015
100
AcDbLine
 10
108.167618
 20
59.420162
 30
0.0
 11
108.416542
 21
59.290623
 31
0.0
210
0.0
220
0.0
230
1.0
  0
LINE
  5
65
100
AcDbEntity
  8
0
370
    35
390
0
 62
     7
 48
0.007044
100
AcDbLine
 10
108.416542
 20
59.290623
 30
0.0
 11
108.67054
 21
59.168701
 31
0.0
210
0.0
220
0.0
230
1.0
  0
LINE
  5
66
100
AcDbEntity
  8
0
370
    35
390
0
 62
     7
 48
0.007054
100
AcDbLine
 10
108.67054
 20
59.168701
 30
0.0
 11
108.929619
 21
59.056942
 31
0.0
210
0.0
220
0.0
230
1.0
  0
LINE
  5
67
100
AcDbEntity
  8
0
370
    35
390
0
 62
     7
 48
0.00704
100
AcDbLine
 10
108.929619
 20
59.056942
 30
0.0
 11
109.191238
 21
58.952805
 31
0.0
210
0.0
220
0.0
230
1.0
  0
LINE
  5
68
100
AcDbEntity
  8
0
370
    35
390
0
 62
     7
 48
0.006988
100
AcDbLine
 10
109.191238
 20
58.952805
 30
0.0
 11
109.455399
 21
58.861362
 31
0.0
210
0.0
220
0.0
230
1.0
  0
LINE
  5
69
100
AcDbEntity
  8
0
370
    35
390
0
 62
     7
 48
0.00705
100
AcDbLine
 10
109.455399
 20
58.861362
 30
0.0
 11
109.72464
 21
58.777542
 31
0.0
210
0.0
220
0.0
230
1.0
  0
LINE
  5
6A
100
AcDbEntity
  8
0
370
    35
390
0
 62
     7
 48
0.006995
100
AcDbLine
 10
109.72464
 20
58.777542
 30
0.0
 11
109.993881
 21
58.70134
 31
0.0
210
0.0
220
0.0
230
1.0
  0
LINE
  5
6B
100
AcDbEntity
  8
0
370
    35
390
0
 62
     7
 48
0.007039
100
AcDbLine
 10
109.993881
 20
58.70134
 30
0.0
 11
110.268196
 21
58.63784
 31
0.0
210
0.0
220
0.0
230
1.0
  0
LINE
  5
6C
100
AcDbEntity
  8
0
370
    35
390
0
 62
     7
 48
0.007061
100
AcDbLine
 10
110.268196
 20
58.63784
 30
0.0
 11
110.545059
 21
58.581963
 31
0.0
210
0.0
220
0.0
230
1.0
  0
LINE
  5
6D
100
AcDbEntity
  8
0
370
    35
390
0
 62
     7
 48
0.007005
100
AcDbLine
 10
110.545059
 20
58.581963
 30
0.0
 11
110.821922
 21
58.53878
 31
0.0
210
0.0
220
0.0
230
1.0
  0
LINE
  5
6E
100
AcDbEntity
  8
0
370
    35
390
0
 62
     7
 48
0.007041
100
AcDbLine
 10
110.821922
 20
58.53878
 30
0.0
 11
111.101318
 21
58.50322
 31
0.0
210
0.0
220
0.0
230
1.0
  0
LINE
  5
6F
100
AcDbEntity
  8
0
370
    35
390
0
 62
     7
 48
0.007014
100
AcDbLine
 10
111.101318
 20
58.50322
 30
0.0
 11
111.380722
 21
58.477821
 31
0.0
210
0.0
220
0.0
230
1.0
  0
LINE
  5
70
100
AcDbEntity
  8
0
370
    35
390
0
 62
     7
 48
0.006995
100
AcDbLine
 10
111.380722
 20
58.477821
 30
0.0
 11
111.660118
 21
58.462582
 31
0.0
210
0.0
220
0.0
230
1.0
  0
LINE
  5
71
100
AcDbEntity
  8
0
370
    35
390
0
 62
     7
 48
0.00705
100
AcDbLine
 10
111.660118
 20
58.462582
 30
0.0
 11
111.942062
 21
58.457504
 31
0.0
210
0.0
220
0.0
230
1.0
  0
LINE
  5
72
100
AcDbEntity
  8
0
370
    35
390
0
 62
     7
 48
0.1143
100
AcDbLine
 10
116.514061
 20
58.457504
 30
0.0
 11
111.942062
 21
58.457504
 31
0.0
210
0.0
220
0.0
230
1.0
  0
LINE
  5
73
100
AcDbEntity
  8
0
370
    35
390
0
 62
     7
 48
0.00705
100
AcDbLine
 10
116.514061
 20
58.457504
 30
0.0
 11
116.795998
 21
58.462582
 31
0.0
210
0.0
220
0.0
230
1.0
  0
LINE
  5
74
100
AcDbEntity
  8
0
370
    35
390
0
 62
     7
 48
0.006995
100
AcDbLine
 10
116.795998
 20
58.462582
 30
0.0
 11
117.075401
 21
58.477821
 31
0.0
210
0.0
220
0.0
230
1.0
  0
LINE
  5
75
100
AcDbEntity
  8
0
370
    35
390
0
 62
     7
 48
0.007014
100
AcDbLine
 10
117.075401
 20
58.477821
 30
0.0
 11
117.354797
 21
58.50322
 31
0.0
210
0.0
220
0.0
230
1.0
  0
LINE
  5
76
100
AcDbEntity
  8
0
370
    35
390
0
 62
     7
 48
0.007041
100
AcDbLine
 10
117.354797
 20
58.50322
 30
0.0
 11
117.634201
 21
58.53878
 31
0.0
210
0.0
220
0.0
230
1.0
  0
LINE
  5
77
100
AcDbEntity
  8
0
370
    35
390
0
 62
     7
 48
0.007005
100
AcDbLine
 10
117.634201
 20
58.53878
 30
0.0
 11
117.911057
 21
58.581963
 31
0.0
210
0.0
220
0.0
230
1.0
  0
LINE
  5
78
100
AcDbEntity
  8
0
370
    35
390
0
 62
     7
 48
0.007061
100
AcDbLine
 10
117.911057
 20
58.581963
 30
0.0
 11
118.18792
 21
58.63784
 31
0.0
210
0.0
220
0.0
230
1.0
  0
LINE
  5
79
100
AcDbEntity
  8
0
370
    35
390
0
 62
     7
 48
0.007039
100
AcDbLine
 10
118.18792
 20
58.63784
 30
0.0
 11
118.462242
 21
58.70134
 31
0.0
210
0.0
220
0.0
230
1.0
  0
LINE
  5
7A
100
AcDbEntity
  8
0
370
    35
390
0
 62
     7
 48
0.006995
100
AcDbLine
 10
118.462242
 20
58.70134
 30
0.0
 11
118.731476
 21
58.777542
 31
0.0
210
0.0
220
0.0
230
1.0
  0
LINE
  5
7B
100
AcDbEntity
  8
0
370
    35
390
0
 62
     7
 48
0.00705
100
AcDbLine
 10
118.731476
 20
58.777542
 30
0.0
 11
119.000717
 21
58.861362
 31
0.0
210
0.0
220
0.0
230
1.0
  0
LINE
  5
7C
100
AcDbEntity
  8
0
370
    35
390
0
 62
     7
 48
0.006988
100
AcDbLine
 10
119.000717
 20
58.861362
 30
0.0
 11
119.264877
 21
58.952805
 31
0.0
210
0.0
220
0.0
230
1.0
  0
LINE
  5
7D
100
AcDbEntity
  8
0
370
    35
390
0
 62
     7
 48
0.00704
100
AcDbLine
 10
119.264877
 20
58.952805
 30
0.0
 11
119.526497
 21
59.056942
 31
0.0
210
0.0
220
0.0
230
1.0
  0
LINE
  5
7E
100
AcDbEntity
  8
0
370
    35
390
0
 62
     7
 48
0.007054
100
AcDbLine
 10
119.526497
 20
59.056942
 30
0.0
 11
119.785583
 21
59.168701
 31
0.0
210
0.0
220
0.0
230
1.0
  0
LINE
  5
7F
100
AcDbEntity
  8
0
370
    35
390
0
 62
     7
 48
0.007044
100
AcDbLine
 10
119.785583
 20
59.168701
 30
0.0
 11
120.039581
 21
59.290623
 31
0.0
210
0.0
220
0.0
230
1.0
  0
LINE
  5
80
100
AcDbEntity
  8
0
370
    35
390
0
 62
     7
 48
0.007015
100
AcDbLine
 10
120.039581
 20
59.290623
 30
0.0
 11
120.288498
 21
59.420162
 31
0.0
210
0.0
220
0.0
230
1.0
  0
LINE
  5
81
100
AcDbEntity
  8
0
370
    35
390
0
 62
     7
 48
0.007026
100
AcDbLine
 10
120.288498
 20
59.420162
 30
0.0
 11
120.532341
 21
59.55986
 31
0.0
210
0.0
220
0.0
230
1.0
  0
LINE
  5
82
100
AcDbEntity
  8
0
370
    35
390
0
 62
     7
 48
0.007014
100
AcDbLine
 10
120.532341
 20
59.55986
 30
0.0
 11
120.771103
 21
59.707184
 31
0.0
210
0.0
220
0.0
230
1.0
  0
LINE
  5
83
100
AcDbEntity
  8
0
370
    35
390
0
 62
     7
 48
0.007045
100
AcDbLine
 10
120.771103
 20
59.707184
 30
0.0
 11
121.004776
 21
59.864662
 31
0.0
210
0.0
220
0.0
230
1.0
  0
LINE
  5
84
100
AcDbEntity
  8
0
370
    35
390
0
 62
     7
 48
0.007013
100
AcDbLine
 10
121.004776
 20
59.864662
 30
0.0
 11
121.233383
 21
60.027222
 31
0.0
210
0.0
220
0.0
230
1.0
  0
LINE
  5
85
100
AcDbEntity
  8
0
370
    35
390
0
 62
     7
 48
0.007012
100
AcDbLine
 10
121.233383
 20
60.027222
 30
0.0
 11
121.454361
 21
60.199944
 31
0.0
210
0.0
220
0.0
230
1.0
  0
LINE
  5
86
100
AcDbEntity
  8
0
370
    35
390
0
 62
     7
 48
0.007033
100
AcDbLine
 10
121.454361
 20
60.199944
 30
0.0
 11
121.670258
 21
60.380283
 31
0.0
210
0.0
220
0.0
230
1.0
  0
LINE
  5
87
100
AcDbEntity
  8
0
370
    35
390
0
 62
     7
 48
0.007014
100
AcDbLine
 10
121.670258
 20
60.380283
 30
0.0
 11
121.87854
 21
60.568241
 31
0.0
210
0.0
220
0.0
230
1.0
  0
LINE
  5
88
100
AcDbEntity
  8
0
370
    35
390
0
 62
     7
 48
0.007051
100
AcDbLine
 10
121.87854
 20
60.568241
 30
0.0
 11
122.081741
 21
60.763821
 31
0.0
210
0.0
220
0.0
230
1.0
  0
LINE
  5
89
100
AcDbEntity
  8
0
370
    35
390
0
 62
     7
 48
0.007051
100
AcDbLine
 10
122.081741
 20
60.763821
 30
0.0
 11
122.277321
 21
60.967022
 31
0.0
210
0.0
220
0.0
230
1.0
  0
LINE
  5
8A
100
AcDbEntity
  8
0
370
    35
390
0
 62
     7
 48
0.007014
100
AcDbLine
 10
122.277321
 20
60.967022
 30
0.0
 11
122.465279
 21
61.175301
 31
0.0
210
0.0
220
0.0
230
1.0
  0
LINE
  5
8B
100
AcDbEntity
  8
0
370
    35
390
0
 62
     7
 48
0.007033
100
AcDbLine
 10
122.465279
 20
61.175301
 30
0.0
 11
122.645622
 21
61.391201
 31
0.0
210
0.0
220
0.0
230
1.0
  0
LINE
  5
8C
100
AcDbEntity
  8
0
370
    35
390
0
 62
     7
 48
0.007012
100
AcDbLine
 10
122.645622
 20
61.391201
 30
0.0
 11
122.818336
 21
61.612183
 31
0.0
210
0.0
220
0.0
230
1.0
  0
LINE
  5
8D
100
AcDbEntity
  8
0
370
    35
390
0
 62
     7
 48
0.007013
100
AcDbLine
 10
122.818336
 20
61.612183
 30
0.0
 11
122.980896
 21
61.840782
 31
0.0
210
0.0
220
0.0
230
1.0
  0
LINE
  5
8E
100
AcDbEntity
  8
0
370
    35
390
0
 62
     7
 48
0.007045
100
AcDbLine
 10
122.980896
 20
61.840782
 30
0.0
 11
123.138382
 21
62.074463
 31
0.0
210
0.0
220
0.0
230
1.0
  0
LINE
  5
8F
100
AcDbEntity
  8
0
370
    35
390
0
 62
     7
 48
0.007014
100
AcDbLine
 10
123.138382
 20
62.074463
 30
0.0
 11
123.285698
 21
62.313221
 31
0.0
210
0.0
220
0.0
230
1.0
  0
LINE
  5
90
100
AcDbEntity
  8
0
370
    35
390
0
 62
     7
 48
0.007026
100
AcDbLine
 10
123.285698
 20
62.313221
 30
0.0
 11
123.4254
 21
62.55706
 31
0.0
210
0.0
220
0.0
230
1.0
  0
LINE
  5
91
100
AcDbEntity
  8
0
370
    35
390
0
 62
     7
 48
0.007015
100
AcDbLine
 10
123.4254
 20
62.55706
 30
0.0
 11
123.554939
 21
62.805981
 31
0.0
210
0.0
220
0.0
230
1.0
  0
LINE
  5
92
100
AcDbEntity
  8
0
370
    35
390
0
 62
     7
 48
0.007044
100
AcDbLine
 10
123.554939
 20
62.805981
 30
0.0
 11
123.676857
 21
63.059982
 31
0.0
210
0.0
220
0.0
230
1.0
  0
LINE
  5
93
100
AcDbEntity
  8
0
370
    35
390
0
 62
     7
 48
0.007054
100
AcDbLine
 10
123.676857
 20
63.059982
 30
0.0
 11
123.78862
 21
63.319061
 31
0.0
210
0.0
220
0.0
230
1.0
  0
LINE
  5
94
100
AcDbEntity
  8
0
370
    35
390
0
 62
     7
 48
0.00704
100
AcDbLine
 10
123.78862
 20
63.319061
 30
0.0
 11
123.892761
 21
63.580681
 31
0.0
210
0.0
220
0.0
230
1.0
  0
LINE
  5
95
100
AcDbEntity
  8
0
370
    35
390
0
 62
     7
 48
0.006988
100
AcDbLine
 10
123.892761
 20
63.580681
 30
0.0
 11
123.9842
 21
63.844841
 31
0.0
210
0.0
220
0.0
230
1.0
  0
LINE
  5
96
100
AcDbEntity
  8
0
370
    35
390
0
 62
     7
 48
0.00705
100
AcDbLine
 10
123.9842
 20
63.844841
 30
0.0
 11
124.068024
 21
64.114082
 31
0.0
210
0.0
220
0.0
230
1.0
  0
LINE
  5
97
100
AcDbEntity
  8
0
370
    35
390
0
 62
     7
 48
0.006995
100
AcDbLine
 10
124.068024
 20
64.114082
 30
0.0
 11
124.144218
 21
64.383324
 31
0.0
210
0.0
220
0.0
230
1.0
  0
LINE
  5
98
100
AcDbEntity
  8
0
370
    35
390
0
 62
     7
 48
0.007039
100
AcDbLine
 10
124.144218
 20
64.383324
 30
0.0
 11
124.207718
 21
64.657639
 31
0.0
210
0.0
220
0.0
230
1.0
  0
LINE
  5
99
100
AcDbEntity
  8
0
370
    35
390
0
 62
     7
 48
0.007061
100
AcDbLine
 10
124.207718
 20
64.657639
 30
0.0
 11
124.263596
 21
64.934502
 31
0.0
210
0.0
220
0.0
230
1.0
  0
LINE
  5
9A
100
AcDbEntity
  8
0
370
    35
390
0
 62
     7
 48
0.007005
100
AcDbLine
 10
124.263596
 20
64.934502
 30
0.0
 11
124.306778
 21
65.211365
 31
0.0
210
0.0
220
0.0
230
1.0
  0
LINE
  5
9B
100
AcDbEntity
  8
0
370
    35
390
0
 62
     7
 48
0.007041
100
AcDbLine
 10
124.306778
 20
65.211365
 30
0.0
 11
124.342339
 21
65.490761
 31
0.0
210
0.0
220
0.0
230
1.0
  0
LINE
  5
9C
100
AcDbEntity
  8
0
370
    35
390
0
 62
     7
 48
0.007014
100
AcDbLine
 10
124.342339
 20
65.490761
 30
0.0
 11
124.367737
 21
65.770164
 31
0.0
210
0.0
220
0.0
230
1.0
  0
LINE
  5
9D
100
AcDbEntity
  8
0
370
    35
390
0
 62
     7
 48
0.006995
100
AcDbLine
 10
124.367737
 20
65.770164
 30
0.0
 11
124.38298
 21
66.049561
 31
0.0
210
0.0
220
0.0
230
1.0
  0
LINE
  5
9E
100
AcDbEntity
  8
0
370
    35
390
0
 62
     7
 48
0.00705
100
AcDbLine
 10
124.38298
 20
66.049561
 30
0.0
 11
124.388062
 21
66.331505
 31
0.0
210
0.0
220
0.0
230
1.0
  0
LINE
  5
9F
100
AcDbEntity
  8
0
370
    35
390
0
 62
     7
100
AcDbLine
 10
124.388062
 20
95.668503
 30
0.0
 11
124.388062
 21
66.331505
 31
0.0
210
0.0
220
0.0
230
1.0
  0
LINE
  5
A0
100
AcDbEntity
  8
0
370
    35
390
0
 62
     7
 48
0.00705
100
AcDbLine
 10
124.388062
 20
95.668503
 30
0.0
 11
124.38298
 21
95.950439
 31
0.0
210
0.0
220
0.0
230
1.0
  0
LINE
  5
A1
100
AcDbEntity
  8
0
370
    35
390
0
 62
     7
 48
0.006995
100
AcDbLine
 10
124.38298
 20
95.950439
 30
0.0
 11
124.367737
 21
96.229843
 31
0.0
210
0.0
220
0.0
230
1.0
  0
LINE
  5
A2
100
AcDbEntity
  8
0
370
    35
390
0
 62
     7
 48
0.007014
100
AcDbLine
 10
124.367737
 20
96.229843
 30
0.0
 11
124.342339
 21
96.509239
 31
0.0
210
0.0
220
0.0
230
1.0
  0
LINE
  5
A3
100
AcDbEntity
  8
0
370
    35
390
0
 62
     7
 48
0.007041
100
AcDbLine
 10
124.342339
 20
96.509239
 30
0.0
 11
124.306778
 21
96.788643
 31
0.0
210
0.0
220
0.0
230
1.0
  0
LINE
  5
A4
100
AcDbEntity
  8
0
370
    35
390
0
 62
     7
 48
0.007005
100
AcDbLine
 10
124.306778
 20
96.788643
 30
0.0
 11
124.263596
 21
97.065506
 31
0.0
210
0.0
220
0.0
230
1.0
  0
LINE
  5
A5
100
AcDbEntity
  8
0
370
    35
390
0
 62
     7
 48
0.007061
100
AcDbLine
 10
124.263596
 20
97.065506
 30
0.0
 11
124.207718
 21
97.342361
 31
0.0
210
0.0
220
0.0
230
1.0
  0
LINE
  5
A6
100
AcDbEntity
  8
0
370
    35
390
0
 62
     7
 48
0.007039
100
AcDbLine
 10
124.207718
 20
97.342361
 30
0.0
 11
124.144218
 21
97.616684
 31
0.0
210
0.0
220
0.0
230
1.0
  0
LINE
  5
A7
100
AcDbEntity
  8
0
370
    35
390
0
 62
     7
 48
0.006995
100
AcDbLine
 10
124.144218
 20
97.616684
 30
0.0
 11
124.068024
 21
97.885925
 31
0.0
210
0.0
220
0.0
230
1.0
  0
LINE
  5
A8
100
AcDbEntity
  8
0
370
    35
390
0
 62
     7
 48
0.00705
100
AcDbLine
 10
124.068024
 20
97.885925
 30
0.0
 11
123.9842
 21
98.155167
 31
0.0
210
0.0
220
0.0
230
1.0
  0
LINE
  5
A9
100
AcDbEntity
  8
0
370
    35
390
0
 62
     7
 48
0.006988
100
AcDbLine
 10
123.9842
 20
98.155167
 30
0.0
 11
123.892761
 21
98.419319
 31
0.0
210
0.0
220
0.0
230
1.0
  0
LINE
  5
AA
100
AcDbEntity
  8
0
370
    35
390
0
 62
     7
 48
0.00704
100
AcDbLine
 10
123.892761
 20
98.419319
 30
0.0
 11
123.78862
 21
98.680939
 31
0.0
210
0.0
220
0.0
230
1.0
  0
LINE
  5
AB
100
AcDbEntity
  8
0
370
    35
390
0
 62
     7
 48
0.007054
100
AcDbLine
 10
123.78862
 20
98.680939
 30
0.0
 11
123.676857
 21
98.940018
 31
0.0
210
0.0
220
0.0
230
1.0
  0
LINE
  5
AC
100
AcDbEntity
  8
0
370
    35
390
0
 62
     7
 48
0.007044
100
AcDbLine
 10
123.676857
 20
98.940018
 30
0.0
 11
123.554939
 21
99.194023
 31
0.0
210
0.0
220
0.0
230
1.0
  0
LINE
  5
AD
100
AcDbEntity
  8
0
370
    35
390
0
 62
     7
 48
0.007015
100
AcDbLine
 10
123.554939
 20
99.194023
 30
0.0
 11
123.4254
 21
99.44294
 31
0.0
210
0.0
220
0.0
230
1.0
  0
LINE
  5
AE
100
AcDbEntity
  8
0
370
    35
390
0
 62
     7
 48
0.007026
100
AcDbLine
 10
123.4254
 20
99.44294
 30
0.0
 11
123.285698
 21
99.686783
 31
0.0
210
0.0
220
0.0
230
1.0
  0
LINE
  5
AF
100
AcDbEntity
  8
0
370
    35
390
0
 62
     7
 48
0.007014
100
AcDbLine
 10
123.285698
 20
99.686783
 30
0.0
 11
123.138382
 21
99.925545
 31
0.0
210
0.0
220
0.0
230
1.0
  0
LINE
  5
B0
100
AcDbEntity
  8
0
370
    35
390
0
 62
     7
 48
0.007045
100
AcDbLine
 10
123.138382
 20
99.925545
 30
0.0
 11
122.980896
 21
100.159225
 31
0.0
210
0.0
220
0.0
230
1.0
  0
LINE
  5
B1
100
AcDbEntity
  8
0
370
    35
390
0
 62
     7
 48
0.007012
100
AcDbLine
 10
122.980896
 20
100.159225
 30
0.0
 11
122.818336
 21
100.387817
 31
0.0
210
0.0
220
0.0
230
1.0
  0
LINE
  5
B2
100
AcDbEntity
  8
0
370
    35
390
0
 62
     7
 48
0.007012
100
AcDbLine
 10
122.818336
 20
100.387817
 30
0.0
 11
122.645622
 21
100.608803
 31
0.0
210
0.0
220
0.0
230
1.0
  0
LINE
  5
B3
100
AcDbEntity
  8
0
370
    35
390
0
 62
     7
 48
0.007033
100
AcDbLine
 10
122.645622
 20
100.608803
 30
0.0
 11
122.465279
 21
100.824699
 31
0.0
210
0.0
220
0.0
230
1.0
  0
LINE
  5
B4
100
AcDbEntity
  8
0
370
    35
390
0
 62
     7
 48
0.007014
100
AcDbLine
 10
122.465279
 20
100.824699
 30
0.0
 11
122.277321
 21
101.032982
 31
0.0
210
0.0
220
0.0
230
1.0
  0
LINE
  5
B5
100
AcDbEntity
  8
0
370
    35
390
0
 62
     7
 48
0.007051
100
AcDbLine
 10
122.277321
 20
101.032982
 30
0.0
 11
122.081741
 21
101.236183
 31
0.0
210
0.0
220
0.0
230
1.0
  0
LINE
  5
B6
100
AcDbEntity
  8
0
370
    35
390
0
 62
     7
 48
0.007051
100
AcDbLine
 10
122.081741
 20
101.236183
 30
0.0
 11
121.87854
 21
101.431763
 31
0.0
210
0.0
220
0.0
230
1.0
  0
LINE
  5
B7
100
AcDbEntity
  8
0
370
    35
390
0
 62
     7
 48
0.007014
100
AcDbLine
 10
121.87854
 20
101.431763
 30
0.0
 11
121.670258
 21
101.61972
 31
0.0
210
0.0
220
0.0
230
1.0
  0
LINE
  5
B8
100
AcDbEntity
  8
0
370
    35
390
0
 62
     7
 48
0.007033
100
AcDbLine
 10
121.670258
 20
101.61972
 30
0.0
 11
121.454361
 21
101.800064
 31
0.0
210
0.0
220
0.0
230
1.0
  0
LINE
  5
B9
100
AcDbEntity
  8
0
370
    35
390
0
 62
     7
 48
0.007012
100
AcDbLine
 10
121.454361
 20
101.800064
 30
0.0
 11
121.233383
 21
101.972778
 31
0.0
210
0.0
220
0.0
230
1.0
  0
LINE
  5
BA
100
AcDbEntity
  8
0
370
    35
390
0
 62
     7
 48
0.007013
100
AcDbLine
 10
121.233383
 20
101.972778
 30
0.0
 11
121.004776
 21
102.135345
 31
0.0
210
0.0
220
0.0
230
1.0
  0
LINE
  5
BB
100
AcDbEntity
  8
0
370
    35
390
0
 62
     7
 48
0.007045
100
AcDbLine
 10
121.004776
 20
102.135345
 30
0.0
 11
120.771103
 21
102.292824
 31
0.0
210
0.0
220
0.0
230
1.0
  0
LINE
  5
BC
100
AcDbEntity
  8
0
370
    35
390
0
 62
     7
 48
0.007014
100
AcDbLine
 10
120.771103
 20
102.292824
 30
0.0
 11
120.532341
 21
102.44014
 31
0.0
210
0.0
220
0.0
230
1.0
  0
LINE
  5
BD
100
AcDbEntity
  8
0
370
    35
390
0
 62
     7
 48
0.007026
100
AcDbLine
 10
120.532341
 20
102.44014
 30
0.0
 11
120.288498
 21
102.579842
 31
0.0
210
0.0
220
0.0
230
1.0
  0
LINE
  5
BE
100
AcDbEntity
  8
0
370
    35
390
0
 62
     7
 48
0.007015
100
AcDbLine
 10
120.288498
 20
102.579842
 30
0.0
 11
120.039581
 21
102.709381
 31
0.0
210
0.0
220
0.0
230
1.0
  0
LINE
  5
BF
100
AcDbEntity
  8
0
370
    35
390
0
 62
     7
 48
0.007044
100
AcDbLine
 10
120.039581
 20
102.709381
 30
0.0
 11
119.785583
 21
102.831299
 31
0.0
210
0.0
220
0.0
230
1.0
  0
LINE
  5
C0
100
AcDbEntity
  8
0
370
    35
390
0
 62
     7
 48
0.007054
100
AcDbLine
 10
119.785583
 20
102.831299
 30
0.0
 11
119.526497
 21
102.943062
 31
0.0
210
0.0
220
0.0
230
1.0
  0
LINE
  5
C1
100
AcDbEntity
  8
0
370
    35
390
0
 62
     7
 48
0.00704
100
AcDbLine
 10
119.526497
 20
102.943062
 30
0.0
 11
119.264877
 21
103.047203
 31
0.0
210
0.0
220
0.0
230
1.0
  0
LINE
  5
C2
100
AcDbEntity
  8
0
370
    35
390
0
 62
     7
 48
0.006988
100
AcDbLine
 10
119.264877
 20
103.047203
 30
0.0
 11
119.000717
 21
103.138641
 31
0.0
210
0.0
220
0.0
230
1.0
  0
LINE
  5
C3
100
AcDbEntity
  8
0
370
    35
390
0
 62
     7
 48
0.00705
100
AcDbLine
 10
119.000717
 20
103.138641
 30
0.0
 11
118.731476
 21
103.222458
 31
0.0
210
0.0
220
0.0
230
1.0
  0
LINE
  5
C4
100
AcDbEntity
  8
0
370
    35
390
0
 62
     7
 48
0.006995
100
AcDbLine
 10
118.731476
 20
103.222458
 30
0.0
 11
118.462242
 21
103.29866
 31
0.0
210
0.0
220
0.0
230
1.0
  0
LINE
  5
C5
100
AcDbEntity
  8
0
370
    35
390
0
 62
     7
 48
0.007039
100
AcDbLine
 10
118.462242
 20
103.29866
 30
0.0
 11
118.18792
 21
103.36216
 31
0.0
210
0.0
220
0.0
230
1.0
  0
LINE
  5
C6
100
AcDbEntity
  8
0
370
    35
390
0
 62
     7
 48
0.007061
100
AcDbLine
 10
118.18792
 20
103.36216
 30
0.0
 11
117.911057
 21
103.418045
 31
0.0
210
0.0
220
0.0
230
1.0
  0
LINE
  5
C7
100
AcDbEntity
  8
0
370
    35
390
0
 62
     7
 48
0.007005
100
AcDbLine
 10
117.911057
 20
103.418045
 30
0.0
 11
117.634201
 21
103.46122
 31
0.0
210
0.0
220
0.0
230
1.0
  0
LINE
  5
C8
100
AcDbEntity
  8
0
370
    35
390
0
 62
     7
 48
0.007041
100
AcDbLine
 10
117.634201
 20
103.46122
 30
0.0
 11
117.354797
 21
103.49678
 31
0.0
210
0.0
220
0.0
230
1.0
  0
LINE
  5
C9
100
AcDbEntity
  8
0
370
    35
390
0
 62
     7
 48
0.007014
100
AcDbLine
 10
117.354797
 20
103.49678
 30
0.0
 11
117.075401
 21
103.522186
 31
0.0
210
0.0
220
0.0
230
1.0
  0
LINE
  5
CA
100
AcDbEntity
  8
0
370
    35
390
0
 62
     7
 48
0.006995
100
AcDbLine
 10
117.075401
 20
103.522186
 30
0.0
 11
116.795998
 21
103.537422
 31
0.0
210
0.0
220
0.0
230
1.0
  0
LINE
  5
CB
100
AcDbEntity
  8
0
370
    35
390
0
 62
     7
 48
0.00705
100
AcDbLine
 10
116.795998
 20
103.537422
 30
0.0
 11
116.514061
 21
103.542503
 31
0.0
210
0.0
220
0.0
230
1.0
  0
LINE
  5
CC
100
AcDbEntity
  8
0
370
    35
390
0
 62
     7
 48
0.1143
100
AcDbLine
 10
111.942062
 20
103.542503
 30
0.0
 11
116.514061
 21
103.542503
 31
0.0
210
0.0
220
0.0
230
1.0
  0
LINE
  5
CD
100
AcDbEntity
  8
0
370
    35
390
0
 62
     7
 48
0.00705
100
AcDbLine
 10
111.942062
 20
103.542503
 30
0.0
 11
111.660118
 21
103.537422
 31
0.0
210
0.0
220
0.0
230
1.0
  0
LINE
  5
CE
100
AcDbEntity
  8
0
370
    35
390
0
 62
     7
 48
0.006995
100
AcDbLine
 10
111.660118
 20
103.537422
 30
0.0
 11
111.380722
 21
103.522186
 31
0.0
210
0.0
220
0.0
230
1.0
  0
LINE
  5
CF
100
AcDbEntity
  8
0
370
    35
390
0
 62
     7
 48
0.007014
100
AcDbLine
 10
111.380722
 20
103.522186
 30
0.0
 11
111.101318
 21
103.49678
 31
0.0
210
0.0
220
0.0
230
1.0
  0
LINE
  5
D0
100
AcDbEntity
  8
0
370
    35
390
0
 62
     7
 48
0.007041
100
AcDbLine
 10
111.101318
 20
103.49678
 30
0.0
 11
110.821922
 21
103.46122
 31
0.0
210
0.0
220
0.0
230
1.0
  0
LINE
  5
D1
100
AcDbEntity
  8
0
370
    35
390
0
 62
     7
 48
0.007005
100
AcDbLine
 10
110.821922
 20
103.46122
 30
0.0
 11
110.545059
 21
103.418045
 31
0.0
210
0.0
220
0.0
230
1.0
  0
LINE
  5
D2
100
AcDbEntity
  8
0
370
    35
390
0
 62
     7
 48
0.007061
100
AcDbLine
 10
110.545059
 20
103.418045
 30
0.0
 11
110.268196
 21
103.36216
 31
0.0
210
0.0
220
0.0
230
1.0
  0
LINE
  5
D3
100
AcDbEntity
  8
0
370
    35
390
0
 62
     7
 48
0.007039
100
AcDbLine
 10
110.268196
 20
103.36216
 30
0.0
 11
109.993881
 21
103.29866
 31
0.0
210
0.0
220
0.0
230
1.0
  0
LINE
  5
D4
100
AcDbEntity
  8
0
370
    35
390
0
 62
     7
 48
0.006995
100
AcDbLine
 10
109.993881
 20
103.29866
 30
0.0
 11
109.72464
 21
103.222458
 31
0.0
210
0.0
220
0.0
230
1.0
  0
LINE
  5
D5
100
AcDbEntity
  8
0
370
    35
390
0
 62
     7
 48
0.00705
100
AcDbLine
 10
109.72464
 20
103.222458
 30
0.0
 11
109.455399
 21
103.138641
 31
0.0
210
0.0
220
0.0
230
1.0
  0
LINE
  5
D6
100
AcDbEntity
  8
0
370
    35
390
0
 62
     7
 48
0.006988
100
AcDbLine
 10
109.455399
 20
103.138641
 30
0.0
 11
109.191238
 21
103.047203
 31
0.0
210
0.0
220
0.0
230
1.0
  0
LINE
  5
D7
100
AcDbEntity
  8
0
370
    35
390
0
 62
     7
 48
0.00704
100
AcDbLine
 10
109.191238
 20
103.047203
 30
0.0
 11
108.929619
 21
102.943062
 31
0.0
210
0.0
220
0.0
230
1.0
  0
LINE
  5
D8
100
AcDbEntity
  8
0
370
    35
390
0
 62
     7
 48
0.007054
100
AcDbLine
 10
108.929619
 20
102.943062
 30
0.0
 11
108.67054
 21
102.831299
 31
0.0
210
0.0
220
0.0
230
1.0
  0
CIRCLE
  5
D9
100
AcDbEntity
  8
0
370
    35
390
0
 62
     7
100
AcDbCircle
 10
123.118057
 20
67.7285
 30
0.0
 40
0.508
210
0.0
220
0.0
230
1.0
  0
CIRCLE
  5
DA
100
AcDbEntity
  8
0
370
    35
390
0
 62
     7
100
AcDbCircle
 10
120.578056
 20
62.648502
 30
0.0
 40
0.508
210
0.0
220
0.0
230
1.0
  0
CIRCLE
  5
DB
100
AcDbEntity
  8
0
370
    35
390
0
 62
     7
100
AcDbCircle
 10
120.578056
 20
65.188499
 30
0.0
 40
0.508
210
0.0
220
0.0
230
1.0
  0
CIRCLE
  5
DC
100
AcDbEntity
  8
0
370
    35
390
0
 62
     7
100
AcDbCircle
 10
123.118057
 20
70.268501
 30
0.0
 40
0.508
210
0.0
220
0.0
230
1.0
  0
CIRCLE
  5
DD
100
AcDbEntity
  8
0
370
    35
390
0
 62
     7
100
AcDbCircle
 10
123.118057
 20
72.808502
 30
0.0
 40
0.508
210
0.0
220
0.0
230
1.0
  0
CIRCLE
  5
DE
100
AcDbEntity
  8
0
370
    35
390
0
 62
     7
100
AcDbCircle
 10
120.578056
 20
67.7285
 30
0.0
 40
0.508
210
0.0
220
0.0
230
1.0
  0
CIRCLE
  5
DF
100
AcDbEntity
  8
0
370
    35
390
0
 62
     7
100
AcDbCircle
 10
120.578056
 20
70.268501
 30
0.0
 40
0.508
210
0.0
220
0.0
230
1.0
  0
CIRCLE
  5
E0
100
AcDbEntity
  8
0
370
    35
390
0
 62
     7
100
AcDbCircle
 10
118.038055
 20
62.648502
 30
0.0
 40
0.508
210
0.0
220
0.0
230
1.0
  0
CIRCLE
  5
E1
100
AcDbEntity
  8
0
370
    35
390
0
 62
     7
100
AcDbCircle
 10
118.038055
 20
65.188499
 30
0.0
 40
0.508
210
0.0
220
0.0
230
1.0
  0
CIRCLE
  5
E2
100
AcDbEntity
  8
0
370
    35
390
0
 62
     7
100
AcDbCircle
 10
115.498062
 20
60.108501
 30
0.0
 40
0.508
210
0.0
220
0.0
230
1.0
  0
CIRCLE
  5
E3
100
AcDbEntity
  8
0
370
    35
390
0
 62
     7
100
AcDbCircle
 10
118.038055
 20
60.108501
 30
0.0
 40
0.508
210
0.0
220
0.0
230
1.0
  0
CIRCLE
  5
E4
100
AcDbEntity
  8
0
370
    35
390
0
 62
     7
100
AcDbCircle
 10
118.038055
 20
67.7285
 30
0.0
 40
0.508
210
0.0
220
0.0
230
1.0
  0
CIRCLE
  5
E5
100
AcDbEntity
  8
0
370
    35
390
0
 62
     7
100
AcDbCircle
 10
118.038055
 20
70.268501
 30
0.0
 40
0.508
210
0.0
220
0.0
230
1.0
  0
CIRCLE
  5
E6
100
AcDbEntity
  8
0
370
    35
390
0
 62
     7
100
AcDbCircle
 10
115.498062
 20
72.808502
 30
0.0
 40
0.508
210
0.0
220
0.0
230
1.0
  0
CIRCLE
  5
E7
100
AcDbEntity
  8
0
370
    35
390
0
 62
     7
100
AcDbCircle
 10
118.038055
 20
72.808502
 30
0.0
 40
0.508
210
0.0
220
0.0
230
1.0
  0
CIRCLE
  5
E8
100
AcDbEntity
  8
0
370
    35
390
0
 62
     7
100
AcDbCircle
 10
123.118057
 20
76.364502
 30
0.0
 40
0.508
210
0.0
220
0.0
230
1.0
  0
CIRCLE
  5
E9
100
AcDbEntity
  8
0
370
    35
390
0
 62
     7
100
AcDbCircle
 10
122.991058
 20
78.142502
 30
0.0
 40
0.1016
210
0.0
220
0.0
230
1.0
  0
CIRCLE
  5
EA
100
AcDbEntity
  8
0
370
    35
390
0
 62
     7
100
AcDbCircle
 10
120.578056
 20
72.808502
 30
0.0
 40
0.508
210
0.0
220
0.0
230
1.0
  0
ARC
  5
EB
100
AcDbEntity
  8
0
370
    35
390
0
 62
     7
100
AcDbCircle
 10
119.943062
 20
76.110504
 30
0.0
 40
0.1016
210
0.0
220
0.0
230
1.0
100
AcDbArc
 50
45.571149
 51
314.438451
  0
CIRCLE
  5
EC
100
AcDbEntity
  8
0
370
    35
390
0
 62
     7
100
AcDbCircle
 10
122.991058
 20
78.777504
 30
0.0
 40
0.1016
210
0.0
220
0.0
230
1.0
  0
CIRCLE
  5
ED
100
AcDbEntity
  8
0
370
    35
390
0
 62
     7
100
AcDbCircle
 10
122.991058
 20
79.539505
 30
0.0
 40
0.1016
210
0.0
220
0.0
230
1.0
  0
CIRCLE
  5
EE
100
AcDbEntity
  8
0
370
    35
390
0
 62
     7
100
AcDbCircle
 10
122.991058
 20
80.1745
 30
0.0
 40
0.1016
210
0.0
220
0.0
230
1.0
  0
CIRCLE
  5
EF
100
AcDbEntity
  8
0
370
    35
390
0
 62
     7
100
AcDbCircle
 10
121.848061
 20
81.190506
 30
0.0
 40
0.1016
210
0.0
220
0.0
230
1.0
  0
CIRCLE
  5
F0
100
AcDbEntity
  8
0
370
    35
390
0
 62
     7
100
AcDbCircle
 10
117.53006
 20
75.094505
 30
0.0
 40
0.1016
210
0.0
220
0.0
230
1.0
  0
CIRCLE
  5
F1
100
AcDbEntity
  8
0
370
    35
390
0
 62
     7
100
AcDbCircle
 10
119.943062
 20
75.348503
 30
0.0
 40
0.1016
210
0.0
220
0.0
230
1.0
  0
CIRCLE
  5
F2
100
AcDbEntity
  8
0
370
    35
390
0
 62
     7
100
AcDbCircle
 10
116.768059
 20
75.094505
 30
0.0
 40
0.1016
210
0.0
220
0.0
230
1.0
  0
CIRCLE
  5
F3
100
AcDbEntity
  8
0
370
    35
390
0
 62
     7
100
AcDbCircle
 10
116.387062
 20
75.7295
 30
0.0
 40
0.1016
210
0.0
220
0.0
230
1.0
  0
CIRCLE
  5
F4
100
AcDbEntity
  8
0
370
    35
390
0
 62
     7
100
AcDbCircle
 10
119.30806
 20
76.110504
 30
0.0
 40
0.1016
210
0.0
220
0.0
230
1.0
  0
CIRCLE
  5
F5
100
AcDbEntity
  8
0
370
    35
390
0
 62
     7
100
AcDbCircle
 10
117.022057
 20
80.555504
 30
0.0
 40
0.1016
210
0.0
220
0.0
230
1.0
  0
CIRCLE
  5
F6
100
AcDbEntity
  8
0
370
    35
390
0
 62
     7
100
AcDbCircle
 10
116.133057
 20
76.491501
 30
0.0
 40
0.1016
210
0.0
220
0.0
230
1.0
  0
CIRCLE
  5
F7
100
AcDbEntity
  8
0
370
    35
390
0
 62
     7
100
AcDbCircle
 10
112.958061
 20
60.108501
 30
0.0
 40
0.508
210
0.0
220
0.0
230
1.0
  0
CIRCLE
  5
F8
100
AcDbEntity
  8
0
370
    35
390
0
 62
     7
100
AcDbCircle
 10
115.498062
 20
62.648502
 30
0.0
 40
0.508
210
0.0
220
0.0
230
1.0
  0
CIRCLE
  5
F9
100
AcDbEntity
  8
0
370
    35
390
0
 62
     7
100
AcDbCircle
 10
110.41806
 20
62.648502
 30
0.0
 40
0.508
210
0.0
220
0.0
230
1.0
  0
CIRCLE
  5
FA
100
AcDbEntity
  8
0
370
    35
390
0
 62
     7
100
AcDbCircle
 10
112.958061
 20
62.648502
 30
0.0
 40
0.508
210
0.0
220
0.0
230
1.0
  0
CIRCLE
  5
FB
100
AcDbEntity
  8
0
370
    35
390
0
 62
     7
100
AcDbCircle
 10
115.498062
 20
65.188499
 30
0.0
 40
0.508
210
0.0
220
0.0
230
1.0
  0
CIRCLE
  5
FC
100
AcDbEntity
  8
0
370
    35
390
0
 62
     7
100
AcDbCircle
 10
115.498062
 20
67.7285
 30
0.0
 40
0.508
210
0.0
220
0.0
230
1.0
  0
CIRCLE
  5
FD
100
AcDbEntity
  8
0
370
    35
390
0
 62
     7
100
AcDbCircle
 10
112.958061
 20
65.188499
 30
0.0
 40
0.508
210
0.0
220
0.0
230
1.0
  0
CIRCLE
  5
FE
100
AcDbEntity
  8
0
370
    35
390
0
 62
     7
100
AcDbCircle
 10
112.958061
 20
67.7285
 30
0.0
 40
0.508
210
0.0
220
0.0
230
1.0
  0
CIRCLE
  5
FF
100
AcDbEntity
  8
0
370
    35
390
0
 62
     7
100
AcDbCircle
 10
110.41806
 20
60.108501
 30
0.0
 40
0.508
210
0.0
220
0.0
230
1.0
  0
CIRCLE
  5
100
100
AcDbEntity
  8
0
370
    35
390
0
 62
     7
100
AcDbCircle
 10
110.41806
 20
65.188499
 30
0.0
 40
0.508
210
0.0
220
0.0
230
1.0
  0
CIRCLE
  5
101
100
AcDbEntity
  8
0
370
    35
390
0
 62
     7
100
AcDbCircle
 10
107.878059
 20
62.648502
 30
0.0
 40
0.508
210
0.0
220
0.0
230
1.0
  0
CIRCLE
  5
102
100
AcDbEntity
  8
0
370
    35
390
0
 62
     7
100
AcDbCircle
 10
105.338058
 20
65.188499
 30
0.0
 40
0.508
210
0.0
220
0.0
230
1.0
  0
CIRCLE
  5
103
100
AcDbEntity
  8
0
370
    35
390
0
 62
     7
100
AcDbCircle
 10
107.878059
 20
65.188499
 30
0.0
 40
0.508
210
0.0
220
0.0
230
1.0
  0
CIRCLE
  5
104
100
AcDbEntity
  8
0
370
    35
390
0
 62
     7
100
AcDbCircle
 10
110.41806
 20
67.7285
 30
0.0
 40
0.508
210
0.0
220
0.0
230
1.0
  0
CIRCLE
  5
105
100
AcDbEntity
  8
0
370
    35
390
0
 62
     7
100
AcDbCircle
 10
105.338058
 20
67.7285
 30
0.0
 40
0.508
210
0.0
220
0.0
230
1.0
  0
CIRCLE
  5
106
100
AcDbEntity
  8
0
370
    35
390
0
 62
     7
100
AcDbCircle
 10
107.878059
 20
67.7285
 30
0.0
 40
0.508
210
0.0
220
0.0
230
1.0
  0
CIRCLE
  5
107
100
AcDbEntity
  8
0
370
    35
390
0
 62
     7
100
AcDbCircle
 10
112.958061
 20
70.268501
 30
0.0
 40
0.508
210
0.0
220
0.0
230
1.0
  0
CIRCLE
  5
108
100
AcDbEntity
  8
0
370
    35
390
0
 62
     7
100
AcDbCircle
 10
115.498062
 20
70.268501
 30
0.0
 40
0.508
210
0.0
220
0.0
230
1.0
  0
CIRCLE
  5
109
100
AcDbEntity
  8
0
370
    35
390
0
 62
     7
100
AcDbCircle
 10
110.41806
 20
70.268501
 30
0.0
 40
0.508
210
0.0
220
0.0
230
1.0
  0
CIRCLE
  5
10A
100
AcDbEntity
  8
0
370
    35
390
0
 62
     7
100
AcDbCircle
 10
112.958061
 20
72.808502
 30
0.0
 40
0.508
210
0.0
220
0.0
230
1.0
  0
CIRCLE
  5
10B
100
AcDbEntity
  8
0
370
    35
390
0
 62
     7
100
AcDbCircle
 10
110.41806
 20
72.808502
 30
0.0
 40
0.508
210
0.0
220
0.0
230
1.0
  0
CIRCLE
  5
10C
100
AcDbEntity
  8
0
370
    35
390
0
 62
     7
100
AcDbCircle
 10
110.41806
 20
76.364502
 30
0.0
 40
0.508
210
0.0
220
0.0
230
1.0
  0
CIRCLE
  5
10D
100
AcDbEntity
  8
0
370
    35
390
0
 62
     7
100
AcDbCircle
 10
108.64006
 20
79.920502
 30
0.0
 40
0.1016
210
0.0
220
0.0
230
1.0
  0
CIRCLE
  5
10E
100
AcDbEntity
  8
0
370
    35
390
0
 62
     7
100
AcDbCircle
 10
107.878059
 20
70.268501
 30
0.0
 40
0.508
210
0.0
220
0.0
230
1.0
  0
CIRCLE
  5
10F
100
AcDbEntity
  8
0
370
    35
390
0
 62
     7
100
AcDbCircle
 10
107.878059
 20
72.808502
 30
0.0
 40
0.508
210
0.0
220
0.0
230
1.0
  0
CIRCLE
  5
110
100
AcDbEntity
  8
0
370
    35
390
0
 62
     7
100
AcDbCircle
 10
105.338058
 20
70.268501
 30
0.0
 40
0.508
210
0.0
220
0.0
230
1.0
  0
CIRCLE
  5
111
100
AcDbEntity
  8
0
370
    35
390
0
 62
     7
100
AcDbCircle
 10
105.338058
 20
72.808502
 30
0.0
 40
0.508
210
0.0
220
0.0
230
1.0
  0
CIRCLE
  5
112
100
AcDbEntity
  8
0
370
    35
390
0
 62
     7
100
AcDbCircle
 10
105.338058
 20
76.364502
 30
0.0
 40
0.508
210
0.0
220
0.0
230
1.0
  0
CIRCLE
  5
113
100
AcDbEntity
  8
0
370
    35
390
0
 62
     7
100
AcDbCircle
 10
107.878059
 20
76.364502
 30
0.0
 40
0.508
210
0.0
220
0.0
230
1.0
  0
CIRCLE
  5
114
100
AcDbEntity
  8
0
370
    35
390
0
 62
     7
100
AcDbCircle
 10
105.338058
 20
78.904503
 30
0.0
 40
0.508
210
0.0
220
0.0
230
1.0
  0
CIRCLE
  5
115
100
AcDbEntity
  8
0
370
    35
390
0
 62
     7
100
AcDbCircle
 10
122.356056
 20
84.111504
 30
0.0
 40
0.1016
210
0.0
220
0.0
230
1.0
  0
CIRCLE
  5
116
100
AcDbEntity
  8
0
370
    35
390
0
 62
     7
100
AcDbCircle
 10
123.372063
 20
84.619499
 30
0.0
 40
0.1016
210
0.0
220
0.0
230
1.0
  0
CIRCLE
  5
117
100
AcDbEntity
  8
0
370
    35
390
0
 62
     7
100
AcDbCircle
 10
119.689056
 20
83.095505
 30
0.0
 40
0.1016
210
0.0
220
0.0
230
1.0
  0
CIRCLE
  5
118
100
AcDbEntity
  8
0
370
    35
390
0
 62
     7
100
AcDbCircle
 10
121.08606
 20
83.857498
 30
0.0
 40
0.1016
210
0.0
220
0.0
230
1.0
  0
CIRCLE
  5
119
100
AcDbEntity
  8
0
370
    35
390
0
 62
     7
100
AcDbCircle
 10
120.578056
 20
85.254501
 30
0.0
 40
0.1016
210
0.0
220
0.0
230
1.0
  0
ARC
  5
11A
100
AcDbEntity
  8
0
370
    35
390
0
 62
     7
100
AcDbCircle
 10
117.403061
 20
86.2705
 30
0.0
 40
0.1016
210
0.0
220
0.0
230
1.0
100
AcDbArc
 50
131.414411
 51
48.585591
  0
CIRCLE
  5
11B
100
AcDbEntity
  8
0
370
    35
390
0
 62
     7
100
AcDbCircle
 10
116.895058
 20
84.4925
 30
0.0
 40
0.1016
210
0.0
220
0.0
230
1.0
  0
CIRCLE
  5
11C
100
AcDbEntity
  8
0
370
    35
390
0
 62
     7
100
AcDbCircle
 10
116.895058
 20
85.3815
 30
0.0
 40
0.1016
210
0.0
220
0.0
230
1.0
  0
CIRCLE
  5
11D
100
AcDbEntity
  8
0
370
    35
390
0
 62
     7
100
AcDbCircle
 10
115.868896
 20
85.541519
 30
0.0
 40
0.1016
210
0.0
220
0.0
230
1.0
  0
CIRCLE
  5
11E
100
AcDbEntity
  8
0
370
    35
390
0
 62
     7
100
AcDbCircle
 10
114.967201
 20
85.541519
 30
0.0
 40
0.1016
210
0.0
220
0.0
230
1.0
  0
CIRCLE
  5
11F
100
AcDbEntity
  8
0
370
    35
390
0
 62
     7
100
AcDbCircle
 10
121.721062
 20
89.572502
 30
0.0
 40
0.1016
210
0.0
220
0.0
230
1.0
  0
CIRCLE
  5
120
100
AcDbEntity
  8
0
370
    35
390
0
 62
     7
100
AcDbCircle
 10
122.356056
 20
93.3825
 30
0.0
 40
0.508
210
0.0
220
0.0
230
1.0
  0
CIRCLE
  5
121
100
AcDbEntity
  8
0
370
    35
390
0
 62
     7
100
AcDbCircle
 10
121.213058
 20
90.080505
 30
0.0
 40
0.1016
210
0.0
220
0.0
230
1.0
  0
CIRCLE
  5
122
100
AcDbEntity
  8
0
370
    35
390
0
 62
     7
100
AcDbCircle
 10
120.705063
 20
91.985504
 30
0.0
 40
0.1016
210
0.0
220
0.0
230
1.0
  0
CIRCLE
  5
123
100
AcDbEntity
  8
0
370
    35
390
0
 62
     7
100
AcDbCircle
 10
122.356056
 20
95.922501
 30
0.0
 40
0.508
210
0.0
220
0.0
230
1.0
  0
CIRCLE
  5
124
100
AcDbEntity
  8
0
370
    35
390
0
 62
     7
100
AcDbCircle
 10
122.356056
 20
98.462502
 30
0.0
 40
0.508
210
0.0
220
0.0
230
1.0
  0
CIRCLE
  5
125
100
AcDbEntity
  8
0
370
    35
390
0
 62
     7
100
AcDbCircle
 10
113.08506
 20
86.143501
 30
0.0
 40
0.1016
210
0.0
220
0.0
230
1.0
  0
CIRCLE
  5
126
100
AcDbEntity
  8
0
370
    35
390
0
 62
     7
100
AcDbCircle
 10
112.323059
 20
85.000504
 30
0.0
 40
0.1016
210
0.0
220
0.0
230
1.0
  0
CIRCLE
  5
127
100
AcDbEntity
  8
0
370
    35
390
0
 62
     7
100
AcDbCircle
 10
111.815056
 20
85.635498
 30
0.0
 40
0.1016
210
0.0
220
0.0
230
1.0
  0
CIRCLE
  5
128
100
AcDbEntity
  8
0
370
    35
390
0
 62
     7
100
AcDbCircle
 10
110.41806
 20
82.206505
 30
0.0
 40
0.1016
210
0.0
220
0.0
230
1.0
  0
CIRCLE
  5
129
100
AcDbEntity
  8
0
370
    35
390
0
 62
     7
100
AcDbCircle
 10
111.30706
 20
83.984505
 30
0.0
 40
0.1016
210
0.0
220
0.0
230
1.0
  0
CIRCLE
  5
12A
100
AcDbEntity
  8
0
370
    35
390
0
 62
     7
100
AcDbCircle
 10
106.354057
 20
81.952499
 30
0.0
 40
0.1016
210
0.0
220
0.0
230
1.0
  0
CIRCLE
  5
12B
100
AcDbEntity
  8
0
370
    35
390
0
 62
     7
100
AcDbCircle
 10
108.167618
 20
82.242065
 30
0.0
 40
0.1016
210
0.0
220
0.0
230
1.0
  0
CIRCLE
  5
12C
100
AcDbEntity
  8
0
370
    35
390
0
 62
     7
100
AcDbCircle
 10
105.846062
 20
88.556503
 30
0.0
 40
0.1016
210
0.0
220
0.0
230
1.0
  0
CIRCLE
  5
12D
100
AcDbEntity
  8
0
370
    35
390
0
 62
     7
100
AcDbCircle
 10
105.719063
 20
89.953499
 30
0.0
 40
0.1016
210
0.0
220
0.0
230
1.0
  0
CIRCLE
  5
12E
100
AcDbEntity
  8
0
370
    35
390
0
 62
     7
100
AcDbCircle
 10
107.624062
 20
99.224503
 30
0.0
 40
0.1016
210
0.0
220
0.0
230
1.0
  0
CIRCLE
  5
12F
100
AcDbEntity
  8
0
370
    35
390
0
 62
     7
100
AcDbCircle
 10
105.719063
 20
95.1605
 30
0.0
 40
0.1016
210
0.0
220
0.0
230
1.0
  0
CIRCLE
  5
130
100
AcDbEntity
  8
0
370
    35
390
0
 62
     7
100
AcDbCircle
 10
105.896858
 20
99.224503
 30
0.0
 40
0.1016
210
0.0
220
0.0
230
1.0
  0
CIRCLE
  5
131
100
AcDbEntity
  8
0
370
    35
390
0
 62
     7
100
AcDbCircle
 10
106.557259
 20
99.224503
 30
0.0
 40
0.1016
210
0.0
220
0.0
230
1.0
  0
LINE
  5
132
100
AcDbEntity
  8
0
370
    35
390
0
 62
     7
 48
0.0125
100
AcDbLine
 10
105.582985
 20
85.859299
 30
0.0
 11
105.082985
 21
85.859299
 31
0.0
210
0.0
220
0.0
230
1.0
  0
LINE
  5
133
100
AcDbEntity
  8
0
370
    35
390
0
 62
     7
 48
0.015
100
AcDbLine
 10
105.082985
 20
85.859299
 30
0.0
 11
105.082985
 21
85.259293
 31
0.0
210
0.0
220
0.0
230
1.0
  0
LINE
  5
134
100
AcDbEntity
  8
0
370
    35
390
0
 62
     7
 48
0.0125
100
AcDbLine
 10
105.082985
 20
85.259293
 30
0.0
 11
105.582985
 21
85.259293
 31
0.0
210
0.0
220
0.0
230
1.0
  0
LINE
  5
135
100
AcDbEntity
  8
0
370
    35
390
0
 62
     7
 48
0.015
100
AcDbLine
 10
105.582985
 20
85.259293
 30
0.0
 11
105.582985
 21
85.859299
 31
0.0
210
0.0
220
0.0
230
1.0
  0
LINE
  5
136
100
AcDbEntity
  8
0
370
    35
390
0
 62
     7
 48
0.0005
100
AcDbLine
 10
105.082985
 20
85.0793
 30
0.0
 11
105.082985
 21
85.059296
 31
0.0
210
0.0
220
0.0
230
1.0
  0
LINE
  5
137
100
AcDbEntity
  8
0
370
    35
390
0
 62
     7
 48
0.0045
100
AcDbLine
 10
105.082985
 20
85.259293
 30
0.0
 11
105.082985
 21
85.0793
 31
0.0
210
0.0
220
0.0
230
1.0
  0
LINE
  5
138
100
AcDbEntity
  8
0
370
    35
390
0
 62
     7
 48
0.0045
100
AcDbLine
 10
105.582985
 20
85.0793
 30
0.0
 11
105.582985
 21
85.259293
 31
0.0
210
0.0
220
0.0
230
1.0
  0
LINE
  5
139
100
AcDbEntity
  8
0
370
    35
390
0
 62
     7
 48
0.0005
100
AcDbLine
 10
105.582985
 20
85.059296
 30
0.0
 11
105.582985
 21
85.0793
 31
0.0
210
0.0
220
0.0
230
1.0
  0
LINE
  5
13A
100
AcDbEntity
  8
0
370
    35
390
0
 62
     7
 48
0.0125
100
AcDbLine
 10
105.582985
 20
85.259293
 30
0.0
 11
105.082985
 21
85.259293
 31
0.0
210
0.0
220
0.0
230
1.0
  0
LINE
  5
13B
100
AcDbEntity
  8
0
370
    35
390
0
 62
     7
 48
0.0125
100
AcDbLine
 10
105.582985
 20
85.059296
 30
0.0
 11
105.082985
 21
85.059296
 31
0.0
210
0.0
220
0.0
230
1.0
  0
LINE
  5
13C
100
AcDbEntity
  8
0
370
    13
390
0
 62
     7
 48
0.0125
100
AcDbLine
 10
105.582985
 20
85.0793
 30
0.0
 11
105.082985
 21
85.0793
 31
0.0
210
0.0
220
0.0
230
1.0
  0
LINE
  5
13D
100
AcDbEntity
  8
0
370
    13
390
0
 62
     7
 48
0.0125
100
AcDbLine
 10
105.582985
 20
86.039299
 30
0.0
 11
105.082985
 21
86.039299
 31
0.0
210
0.0
220
0.0
230
1.0
  0
LINE
  5
13E
100
AcDbEntity
  8
0
370
    35
390
0
 62
     7
 48
0.0045
100
AcDbLine
 10
105.082985
 20
86.039299
 30
0.0
 11
105.082985
 21
85.859299
 31
0.0
210
0.0
220
0.0
230
1.0
  0
LINE
  5
13F
100
AcDbEntity
  8
0
370
    35
390
0
 62
     7
 48
0.0125
100
AcDbLine
 10
105.082985
 20
85.859299
 30
0.0
 11
105.582985
 21
85.859299
 31
0.0
210
0.0
220
0.0
230
1.0
  0
LINE
  5
140
100
AcDbEntity
  8
0
370
    35
390
0
 62
     7
 48
0.0045
100
AcDbLine
 10
105.582985
 20
85.859299
 30
0.0
 11
105.582985
 21
86.039299
 31
0.0
210
0.0
220
0.0
230
1.0
  0
LINE
  5
141
100
AcDbEntity
  8
0
370
    35
390
0
 62
     7
 48
0.0005
100
AcDbLine
 10
105.582985
 20
86.039299
 30
0.0
 11
105.582985
 21
86.059296
 31
0.0
210
0.0
220
0.0
230
1.0
  0
LINE
  5
142
100
AcDbEntity
  8
0
370
    35
390
0
 62
     7
 48
0.0125
100
AcDbLine
 10
105.582985
 20
86.059296
 30
0.0
 11
105.082985
 21
86.059296
 31
0.0
210
0.0
220
0.0
230
1.0
  0
LINE
  5
143
100
AcDbEntity
  8
0
370
    35
390
0
 62
     7
 48
0.0005
100
AcDbLine
 10
105.082985
 20
86.059296
 30
0.0
 11
105.082985
 21
86.039299
 31
0.0
210
0.0
220
0.0
230
1.0
  0
LINE
  5
144
100
AcDbEntity
  8
0
370
    35
390
0
 62
     7
 48
0.00025
100
AcDbLine
 10
105.082985
 20
85.119293
 30
0.0
 11
105.082985
 21
85.109299
 31
0.0
210
0.0
220
0.0
230
1.0
  0
LINE
  5
145
100
AcDbEntity
  8
0
370
    35
390
0
 62
     7
 48
0.022
100
AcDbLine
 10
105.082985
 20
85.999298
 30
0.0
 11
105.082985
 21
85.119293
 31
0.0
210
0.0
220
0.0
230
1.0
  0
LINE
  5
146
100
AcDbEntity
  8
0
370
    35
390
0
 62
     7
 48
0.00025
100
AcDbLine
 10
105.082985
 20
86.009293
 30
0.0
 11
105.082985
 21
85.999298
 31
0.0
210
0.0
220
0.0
230
1.0
  0
LINE
  5
147
100
AcDbEntity
  8
0
370
    35
390
0
 62
     7
 48
0.0125
100
AcDbLine
 10
106.471985
 20
85.859299
 30
0.0
 11
105.971985
 21
85.859299
 31
0.0
210
0.0
220
0.0
230
1.0
  0
LINE
  5
148
100
AcDbEntity
  8
0
370
    35
390
0
 62
     7
 48
0.015
100
AcDbLine
 10
105.971985
 20
85.859299
 30
0.0
 11
105.971985
 21
85.259293
 31
0.0
210
0.0
220
0.0
230
1.0
  0
LINE
  5
149
100
AcDbEntity
  8
0
370
    35
390
0
 62
     7
 48
0.0125
100
AcDbLine
 10
105.971985
 20
85.259293
 30
0.0
 11
106.471985
 21
85.259293
 31
0.0
210
0.0
220
0.0
230
1.0
  0
LINE
  5
14A
100
AcDbEntity
  8
0
370
    35
390
0
 62
     7
 48
0.015
100
AcDbLine
 10
106.471985
 20
85.259293
 30
0.0
 11
106.471985
 21
85.859299
 31
0.0
210
0.0
220
0.0
230
1.0
  0
LINE
  5
14B
100
AcDbEntity
  8
0
370
    35
390
0
 62
     7
 48
0.0005
100
AcDbLine
 10
105.971985
 20
85.0793
 30
0.0
 11
105.971985
 21
85.059296
 31
0.0
210
0.0
220
0.0
230
1.0
  0
LINE
  5
14C
100
AcDbEntity
  8
0
370
    35
390
0
 62
     7
 48
0.0045
100
AcDbLine
 10
105.971985
 20
85.259293
 30
0.0
 11
105.971985
 21
85.0793
 31
0.0
210
0.0
220
0.0
230
1.0
  0
LINE
  5
14D
100
AcDbEntity
  8
0
370
    35
390
0
 62
     7
 48
0.0045
100
AcDbLine
 10
106.471985
 20
85.0793
 30
0.0
 11
106.471985
 21
85.259293
 31
0.0
210
0.0
220
0.0
230
1.0
  0
LINE
  5
14E
100
AcDbEntity
  8
0
370
    35
390
0
 62
     7
 48
0.0005
100
AcDbLine
 10
106.471985
 20
85.059296
 30
0.0
 11
106.471985
 21
85.0793
 31
0.0
210
0.0
220
0.0
230
1.0
  0
LINE
  5
14F
100
AcDbEntity
  8
0
370
    35
390
0
 62
     7
 48
0.0125
100
AcDbLine
 10
106.471985
 20
85.259293
 30
0.0
 11
105.971985
 21
85.259293
 31
0.0
210
0.0
220
0.0
230
1.0
  0
LINE
  5
150
100
AcDbEntity
  8
0
370
    35
390
0
 62
     7
 48
0.0125
100
AcDbLine
 10
106.471985
 20
85.059296
 30
0.0
 11
105.971985
 21
85.059296
 31
0.0
210
0.0
220
0.0
230
1.0
  0
LINE
  5
151
100
AcDbEntity
  8
0
370
    13
390
0
 62
     7
 48
0.0125
100
AcDbLine
 10
106.471985
 20
85.0793
 30
0.0
 11
105.971985
 21
85.0793
 31
0.0
210
0.0
220
0.0
230
1.0
  0
LINE
  5
152
100
AcDbEntity
  8
0
370
    13
390
0
 62
     7
 48
0.0125
100
AcDbLine
 10
106.471985
 20
86.039299
 30
0.0
 11
105.971985
 21
86.039299
 31
0.0
210
0.0
220
0.0
230
1.0
  0
LINE
  5
153
100
AcDbEntity
  8
0
370
    35
390
0
 62
     7
 48
0.0045
100
AcDbLine
 10
105.971985
 20
86.039299
 30
0.0
 11
105.971985
 21
85.859299
 31
0.0
210
0.0
220
0.0
230
1.0
  0
LINE
  5
154
100
AcDbEntity
  8
0
370
    35
390
0
 62
     7
 48
0.0125
100
AcDbLine
 10
105.971985
 20
85.859299
 30
0.0
 11
106.471985
 21
85.859299
 31
0.0
210
0.0
220
0.0
230
1.0
  0
LINE
  5
155
100
AcDbEntity
  8
0
370
    35
390
0
 62
     7
 48
0.0045
100
AcDbLine
 10
106.471985
 20
85.859299
 30
0.0
 11
106.471985
 21
86.039299
 31
0.0
210
0.0
220
0.0
230
1.0
  0
LINE
  5
156
100
AcDbEntity
  8
0
370
    35
390
0
 62
     7
 48
0.0005
100
AcDbLine
 10
106.471985
 20
86.039299
 30
0.0
 11
106.471985
 21
86.059296
 31
0.0
210
0.0
220
0.0
230
1.0
  0
LINE
  5
157
100
AcDbEntity
  8
0
370
    35
390
0
 62
     7
 48
0.0125
100
AcDbLine
 10
106.471985
 20
86.059296
 30
0.0
 11
105.971985
 21
86.059296
 31
0.0
210
0.0
220
0.0
230
1.0
  0
LINE
  5
158
100
AcDbEntity
  8
0
370
    35
390
0
 62
     7
 48
0.0005
100
AcDbLine
 10
105.971985
 20
86.059296
 30
0.0
 11
105.971985
 21
86.039299
 31
0.0
210
0.0
220
0.0
230
1.0
  0
LINE
  5
159
100
AcDbEntity
  8
0
370
    35
390
0
 62
     7
 48
0.00025
100
AcDbLine
 10
105.971985
 20
85.119293
 30
0.0
 11
105.971985
 21
85.109299
 31
0.0
210
0.0
220
0.0
230
1.0
  0
LINE
  5
15A
100
AcDbEntity
  8
0
370
    35
390
0
 62
     7
 48
0.022
100
AcDbLine
 10
105.971985
 20
85.999298
 30
0.0
 11
105.971985
 21
85.119293
 31
0.0
210
0.0
220
0.0
230
1.0
  0
LINE
  5
15B
100
AcDbEntity
  8
0
370
    35
390
0
 62
     7
 48
0.00025
100
AcDbLine
 10
105.971985
 20
86.009293
 30
0.0
 11
105.971985
 21
85.999298
 31
0.0
210
0.0
220
0.0
230
1.0
  0
LINE
  5
15C
100
AcDbEntity
  8
0
370
    35
390
0
 62
     7
 48
0.0125
100
AcDbLine
 10
107.356979
 20
85.859299
 30
0.0
 11
106.856979
 21
85.859299
 31
0.0
210
0.0
220
0.0
230
1.0
  0
LINE
  5
15D
100
AcDbEntity
  8
0
370
    35
390
0
 62
     7
 48
0.015
100
AcDbLine
 10
106.856979
 20
85.859299
 30
0.0
 11
106.856979
 21
85.259293
 31
0.0
210
0.0
220
0.0
230
1.0
  0
LINE
  5
15E
100
AcDbEntity
  8
0
370
    35
390
0
 62
     7
 48
0.0125
100
AcDbLine
 10
106.856979
 20
85.259293
 30
0.0
 11
107.356979
 21
85.259293
 31
0.0
210
0.0
220
0.0
230
1.0
  0
LINE
  5
15F
100
AcDbEntity
  8
0
370
    35
390
0
 62
     7
 48
0.015
100
AcDbLine
 10
107.356979
 20
85.259293
 30
0.0
 11
107.356979
 21
85.859299
 31
0.0
210
0.0
220
0.0
230
1.0
  0
LINE
  5
160
100
AcDbEntity
  8
0
370
    35
390
0
 62
     7
 48
0.0005
100
AcDbLine
 10
106.856979
 20
85.0793
 30
0.0
 11
106.856979
 21
85.059296
 31
0.0
210
0.0
220
0.0
230
1.0
  0
LINE
  5
161
100
AcDbEntity
  8
0
370
    35
390
0
 62
     7
 48
0.0045
100
AcDbLine
 10
106.856979
 20
85.259293
 30
0.0
 11
106.856979
 21
85.0793
 31
0.0
210
0.0
220
0.0
230
1.0
  0
LINE
  5
162
100
AcDbEntity
  8
0
370
    35
390
0
 62
     7
 48
0.0045
100
AcDbLine
 10
107.356979
 20
85.0793
 30
0.0
 11
107.356979
 21
85.259293
 31
0.0
210
0.0
220
0.0
230
1.0
  0
LINE
  5
163
100
AcDbEntity
  8
0
370
    35
390
0
 62
     7
 48
0.0005
100
AcDbLine
 10
107.356979
 20
85.059296
 30
0.0
 11
107.356979
 21
85.0793
 31
0.0
210
0.0
220
0.0
230
1.0
  0
LINE
  5
164
100
AcDbEntity
  8
0
370
    35
390
0
 62
     7
 48
0.0125
100
AcDbLine
 10
107.356979
 20
85.259293
 30
0.0
 11
106.856979
 21
85.259293
 31
0.0
210
0.0
220
0.0
230
1.0
  0
LINE
  5
165
100
AcDbEntity
  8
0
370
    35
390
0
 62
     7
 48
0.0125
100
AcDbLine
 10
107.356979
 20
85.059296
 30
0.0
 11
106.856979
 21
85.059296
 31
0.0
210
0.0
220
0.0
230
1.0
  0
LINE
  5
166
100
AcDbEntity
  8
0
370
    13
390
0
 62
     7
 48
0.0125
100
AcDbLine
 10
107.356979
 20
85.0793
 30
0.0
 11
106.856979
 21
85.0793
 31
0.0
210
0.0
220
0.0
230
1.0
  0
LINE
  5
167
100
AcDbEntity
  8
0
370
    13
390
0
 62
     7
 48
0.0125
100
AcDbLine
 10
107.356979
 20
86.039299
 30
0.0
 11
106.856979
 21
86.039299
 31
0.0
210
0.0
220
0.0
230
1.0
  0
LINE
  5
168
100
AcDbEntity
  8
0
370
    35
390
0
 62
     7
 48
0.0045
100
AcDbLine
 10
106.856979
 20
86.039299
 30
0.0
 11
106.856979
 21
85.859299
 31
0.0
210
0.0
220
0.0
230
1.0
  0
LINE
  5
169
100
AcDbEntity
  8
0
370
    35
390
0
 62
     7
 48
0.0125
100
AcDbLine
 10
106.856979
 20
85.859299
 30
0.0
 11
107.356979
 21
85.859299
 31
0.0
210
0.0
220
0.0
230
1.0
  0
LINE
  5
16A
100
AcDbEntity
  8
0
370
    35
390
0
 62
     7
 48
0.0045
100
AcDbLine
 10
107.356979
 20
85.859299
 30
0.0
 11
107.356979
 21
86.039299
 31
0.0
210
0.0
220
0.0
230
1.0
  0
LINE
  5
16B
100
AcDbEntity
  8
0
370
    35
390
0
 62
     7
 48
0.0005
100
AcDbLine
 10
107.356979
 20
86.039299
 30
0.0
 11
107.356979
 21
86.059296
 31
0.0
210
0.0
220
0.0
230
1.0
  0
LINE
  5
16C
100
AcDbEntity
  8
0
370
    35
390
0
 62
     7
 48
0.0125
100
AcDbLine
 10
107.356979
 20
86.059296
 30
0.0
 11
106.856979
 21
86.059296
 31
0.0
210
0.0
220
0.0
230
1.0
  0
LINE
  5
16D
100
AcDbEntity
  8
0
370
    35
390
0
 62
     7
 48
0.0005
100
AcDbLine
 10
106.856979
 20
86.059296
 30
0.0
 11
106.856979
 21
86.039299
 31
0.0
210
0.0
220
0.0
230
1.0
  0
LINE
  5
16E
100
AcDbEntity
  8
0
370
    35
390
0
 62
     7
 48
0.00025
100
AcDbLine
 10
106.856979
 20
85.119293
 30
0.0
 11
106.856979
 21
85.109299
 31
0.0
210
0.0
220
0.0
230
1.0
  0
LINE
  5
16F
100
AcDbEntity
  8
0
370
    35
390
0
 62
     7
 48
0.022
100
AcDbLine
 10
106.856979
 20
85.999298
 30
0.0
 11
106.856979
 21
85.119293
 31
0.0
210
0.0
220
0.0
230
1.0
  0
LINE
  5
170
100
AcDbEntity
  8
0
370
    35
390
0
 62
     7
 48
0.00025
100
AcDbLine
 10
106.856979
 20
86.009293
 30
0.0
 11
106.856979
 21
85.999298
 31
0.0
210
0.0
220
0.0
230
1.0
  0
LINE
  5
171
100
AcDbEntity
  8
0
370
    35
390
0
 62
     7
 48
0.0125
100
AcDbLine
 10
111.42498
 20
83.039894
 30
0.0
 11
110.92498
 21
83.039894
 31
0.0
210
0.0
220
0.0
230
1.0
  0
LINE
  5
172
100
AcDbEntity
  8
0
370
    35
390
0
 62
     7
 48
0.015
100
AcDbLine
 10
110.92498
 20
83.039894
 30
0.0
 11
110.92498
 21
82.439896
 31
0.0
210
0.0
220
0.0
230
1.0
  0
LINE
  5
173
100
AcDbEntity
  8
0
370
    35
390
0
 62
     7
 48
0.0125
100
AcDbLine
 10
110.92498
 20
82.439896
 30
0.0
 11
111.42498
 21
82.439896
 31
0.0
210
0.0
220
0.0
230
1.0
  0
LINE
  5
174
100
AcDbEntity
  8
0
370
    35
390
0
 62
     7
 48
0.015
100
AcDbLine
 10
111.42498
 20
82.439896
 30
0.0
 11
111.42498
 21
83.039894
 31
0.0
210
0.0
220
0.0
230
1.0
  0
LINE
  5
175
100
AcDbEntity
  8
0
370
    35
390
0
 62
     7
 48
0.0005
100
AcDbLine
 10
110.92498
 20
82.259895
 30
0.0
 11
110.92498
 21
82.239899
 31
0.0
210
0.0
220
0.0
230
1.0
  0
LINE
  5
176
100
AcDbEntity
  8
0
370
    35
390
0
 62
     7
 48
0.0045
100
AcDbLine
 10
110.92498
 20
82.439896
 30
0.0
 11
110.92498
 21
82.259895
 31
0.0
210
0.0
220
0.0
230
1.0
  0
LINE
  5
177
100
AcDbEntity
  8
0
370
    35
390
0
 62
     7
 48
0.0045
100
AcDbLine
 10
111.42498
 20
82.259895
 30
0.0
 11
111.42498
 21
82.439896
 31
0.0
210
0.0
220
0.0
230
1.0
  0
LINE
  5
178
100
AcDbEntity
  8
0
370
    35
390
0
 62
     7
 48
0.0005
100
AcDbLine
 10
111.42498
 20
82.239899
 30
0.0
 11
111.42498
 21
82.259895
 31
0.0
210
0.0
220
0.0
230
1.0
  0
LINE
  5
179
100
AcDbEntity
  8
0
370
    35
390
0
 62
     7
 48
0.0125
100
AcDbLine
 10
111.42498
 20
82.439896
 30
0.0
 11
110.92498
 21
82.439896
 31
0.0
210
0.0
220
0.0
230
1.0
  0
LINE
  5
17A
100
AcDbEntity
  8
0
370
    35
390
0
 62
     7
 48
0.0125
100
AcDbLine
 10
111.42498
 20
82.239899
 30
0.0
 11
110.92498
 21
82.239899
 31
0.0
210
0.0
220
0.0
230
1.0
  0
LINE
  5
17B
100
AcDbEntity
  8
0
370
    13
390
0
 62
     7
 48
0.0125
100
AcDbLine
 10
111.42498
 20
82.259895
 30
0.0
 11
110.92498
 21
82.259895
 31
0.0
210
0.0
220
0.0
230
1.0
  0
LINE
  5
17C
100
AcDbEntity
  8
0
370
    13
390
0
 62
     7
 48
0.0125
100
AcDbLine
 10
111.42498
 20
83.219894
 30
0.0
 11
110.92498
 21
83.219894
 31
0.0
210
0.0
220
0.0
230
1.0
  0
LINE
  5
17D
100
AcDbEntity
  8
0
370
    35
390
0
 62
     7
 48
0.0045
100
AcDbLine
 10
110.92498
 20
83.219894
 30
0.0
 11
110.92498
 21
83.039894
 31
0.0
210
0.0
220
0.0
230
1.0
  0
LINE
  5
17E
100
AcDbEntity
  8
0
370
    35
390
0
 62
     7
 48
0.0125
100
AcDbLine
 10
110.92498
 20
83.039894
 30
0.0
 11
111.42498
 21
83.039894
 31
0.0
210
0.0
220
0.0
230
1.0
  0
LINE
  5
17F
100
AcDbEntity
  8
0
370
    35
390
0
 62
     7
 48
0.0045
100
AcDbLine
 10
111.42498
 20
83.039894
 30
0.0
 11
111.42498
 21
83.219894
 31
0.0
210
0.0
220
0.0
230
1.0
  0
LINE
  5
180
100
AcDbEntity
  8
0
370
    35
390
0
 62
     7
 48
0.0005
100
AcDbLine
 10
111.42498
 20
83.219894
 30
0.0
 11
111.42498
 21
83.239899
 31
0.0
210
0.0
220
0.0
230
1.0
  0
LINE
  5
181
100
AcDbEntity
  8
0
370
    35
390
0
 62
     7
 48
0.0125
100
AcDbLine
 10
111.42498
 20
83.239899
 30
0.0
 11
110.92498
 21
83.239899
 31
0.0
210
0.0
220
0.0
230
1.0
  0
LINE
  5
182
100
AcDbEntity
  8
0
370
    35
390
0
 62
     7
 48
0.0005
100
AcDbLine
 10
110.92498
 20
83.239899
 30
0.0
 11
110.92498
 21
83.219894
 31
0.0
210
0.0
220
0.0
230
1.0
  0
LINE
  5
183
100
AcDbEntity
  8
0
370
    35
390
0
 62
     7
 48
0.00025
100
AcDbLine
 10
110.92498
 20
82.299896
 30
0.0
 11
110.92498
 21
82.289894
 31
0.0
210
0.0
220
0.0
230
1.0
  0
LINE
  5
184
100
AcDbEntity
  8
0
370
    35
390
0
 62
     7
 48
0.022
100
AcDbLine
 10
110.92498
 20
83.179893
 30
0.0
 11
110.92498
 21
82.299896
 31
0.0
210
0.0
220
0.0
230
1.0
  0
LINE
  5
185
100
AcDbEntity
  8
0
370
    35
390
0
 62
     7
 48
0.00025
100
AcDbLine
 10
110.92498
 20
83.189896
 30
0.0
 11
110.92498
 21
83.179893
 31
0.0
210
0.0
220
0.0
230
1.0
  0
LINE
  5
186
100
AcDbEntity
  8
0
370
    35
390
0
 62
     7
 48
0.0125
100
AcDbLine
 10
118.028984
 20
81.338097
 30
0.0
 11
117.528984
 21
81.338097
 31
0.0
210
0.0
220
0.0
230
1.0
  0
LINE
  5
187
100
AcDbEntity
  8
0
370
    35
390
0
 62
     7
 48
0.015
100
AcDbLine
 10
117.528984
 20
81.338097
 30
0.0
 11
117.528984
 21
80.738098
 31
0.0
210
0.0
220
0.0
230
1.0
  0
LINE
  5
188
100
AcDbEntity
  8
0
370
    35
390
0
 62
     7
 48
0.0125
100
AcDbLine
 10
117.528984
 20
80.738098
 30
0.0
 11
118.028984
 21
80.738098
 31
0.0
210
0.0
220
0.0
230
1.0
  0
LINE
  5
189
100
AcDbEntity
  8
0
370
    35
390
0
 62
     7
 48
0.015
100
AcDbLine
 10
118.028984
 20
80.738098
 30
0.0
 11
118.028984
 21
81.338097
 31
0.0
210
0.0
220
0.0
230
1.0
  0
LINE
  5
18A
100
AcDbEntity
  8
0
370
    35
390
0
 62
     7
 48
0.0005
100
AcDbLine
 10
117.528984
 20
80.558098
 30
0.0
 11
117.528984
 21
80.538094
 31
0.0
210
0.0
220
0.0
230
1.0
  0
LINE
  5
18B
100
AcDbEntity
  8
0
370
    35
390
0
 62
     7
 48
0.0045
100
AcDbLine
 10
117.528984
 20
80.738098
 30
0.0
 11
117.528984
 21
80.558098
 31
0.0
210
0.0
220
0.0
230
1.0
  0
LINE
  5
18C
100
AcDbEntity
  8
0
370
    35
390
0
 62
     7
 48
0.0045
100
AcDbLine
 10
118.028984
 20
80.558098
 30
0.0
 11
118.028984
 21
80.738098
 31
0.0
210
0.0
220
0.0
230
1.0
  0
LINE
  5
18D
100
AcDbEntity
  8
0
370
    35
390
0
 62
     7
 48
0.0005
100
AcDbLine
 10
118.028984
 20
80.538094
 30
0.0
 11
118.028984
 21
80.558098
 31
0.0
210
0.0
220
0.0
230
1.0
  0
LINE
  5
18E
100
AcDbEntity
  8
0
370
    35
390
0
 62
     7
 48
0.0125
100
AcDbLine
 10
118.028984
 20
80.738098
 30
0.0
 11
117.528984
 21
80.738098
 31
0.0
210
0.0
220
0.0
230
1.0
  0
LINE
  5
18F
100
AcDbEntity
  8
0
370
    35
390
0
 62
     7
 48
0.0125
100
AcDbLine
 10
118.028984
 20
80.538094
 30
0.0
 11
117.528984
 21
80.538094
 31
0.0
210
0.0
220
0.0
230
1.0
  0
LINE
  5
190
100
AcDbEntity
  8
0
370
    13
390
0
 62
     7
 48
0.0125
100
AcDbLine
 10
118.028984
 20
80.558098
 30
0.0
 11
117.528984
 21
80.558098
 31
0.0
210
0.0
220
0.0
230
1.0
  0
LINE
  5
191
100
AcDbEntity
  8
0
370
    13
390
0
 62
     7
 48
0.0125
100
AcDbLine
 10
118.028984
 20
81.518097
 30
0.0
 11
117.528984
 21
81.518097
 31
0.0
210
0.0
220
0.0
230
1.0
  0
LINE
  5
192
100
AcDbEntity
  8
0
370
    35
390
0
 62
     7
 48
0.0045
100
AcDbLine
 10
117.528984
 20
81.518097
 30
0.0
 11
117.528984
 21
81.338097
 31
0.0
210
0.0
220
0.0
230
1.0
  0
LINE
  5
193
100
AcDbEntity
  8
0
370
    35
390
0
 62
     7
 48
0.0125
100
AcDbLine
 10
117.528984
 20
81.338097
 30
0.0
 11
118.028984
 21
81.338097
 31
0.0
210
0.0
220
0.0
230
1.0
  0
LINE
  5
194
100
AcDbEntity
  8
0
370
    35
390
0
 62
     7
 48
0.0045
100
AcDbLine
 10
118.028984
 20
81.338097
 30
0.0
 11
118.028984
 21
81.518097
 31
0.0
210
0.0
220
0.0
230
1.0
  0
LINE
  5
195
100
AcDbEntity
  8
0
370
    35
390
0
 62
     7
 48
0.0005
100
AcDbLine
 10
118.028984
 20
81.518097
 30
0.0
 11
118.028984
 21
81.538094
 31
0.0
210
0.0
220
0.0
230
1.0
  0
LINE
  5
196
100
AcDbEntity
  8
0
370
    35
390
0
 62
     7
 48
0.0125
100
AcDbLine
 10
118.028984
 20
81.538094
 30
0.0
 11
117.528984
 21
81.538094
 31
0.0
210
0.0
220
0.0
230
1.0
  0
LINE
  5
197
100
AcDbEntity
  8
0
370
    35
390
0
 62
     7
 48
0.0005
100
AcDbLine
 10
117.528984
 20
81.538094
 30
0.0
 11
117.528984
 21
81.518097
 31
0.0
210
0.0
220
0.0
230
1.0
  0
LINE
  5
198
100
AcDbEntity
  8
0
370
    35
390
0
 62
     7
 48
0.00025
100
AcDbLine
 10
117.528984
 20
80.598099
 30
0.0
 11
117.528984
 21
80.588097
 31
0.0
210
0.0
220
0.0
230
1.0
  0
LINE
  5
199
100
AcDbEntity
  8
0
370
    35
390
0
 62
     7
 48
0.022
100
AcDbLine
 10
117.528984
 20
81.478096
 30
0.0
 11
117.528984
 21
80.598099
 31
0.0
210
0.0
220
0.0
230
1.0
  0
LINE
  5
19A
100
AcDbEntity
  8
0
370
    35
390
0
 62
     7
 48
0.00025
100
AcDbLine
 10
117.528984
 20
81.488098
 30
0.0
 11
117.528984
 21
81.478096
 31
0.0
210
0.0
220
0.0
230
1.0
  0
LINE
  5
19B
100
AcDbEntity
  8
0
370
    35
390
0
 62
     7
 48
0.0125
100
AcDbLine
 10
118.028984
 20
83.268494
 30
0.0
 11
117.528984
 21
83.268494
 31
0.0
210
0.0
220
0.0
230
1.0
  0
LINE
  5
19C
100
AcDbEntity
  8
0
370
    35
390
0
 62
     7
 48
0.015
100
AcDbLine
 10
117.528984
 20
83.268494
 30
0.0
 11
117.528984
 21
82.668495
 31
0.0
210
0.0
220
0.0
230
1.0
  0
LINE
  5
19D
100
AcDbEntity
  8
0
370
    35
390
0
 62
     7
 48
0.0125
100
AcDbLine
 10
117.528984
 20
82.668495
 30
0.0
 11
118.028984
 21
82.668495
 31
0.0
210
0.0
220
0.0
230
1.0
  0
LINE
  5
19E
100
AcDbEntity
  8
0
370
    35
390
0
 62
     7
 48
0.015
100
AcDbLine
 10
118.028984
 20
82.668495
 30
0.0
 11
118.028984
 21
83.268494
 31
0.0
210
0.0
220
0.0
230
1.0
  0
LINE
  5
19F
100
AcDbEntity
  8
0
370
    35
390
0
 62
     7
 48
0.0005
100
AcDbLine
 10
117.528984
 20
82.488495
 30
0.0
 11
117.528984
 21
82.468498
 31
0.0
210
0.0
220
0.0
230
1.0
  0
LINE
  5
1A0
100
AcDbEntity
  8
0
370
    35
390
0
 62
     7
 48
0.0045
100
AcDbLine
 10
117.528984
 20
82.668495
 30
0.0
 11
117.528984
 21
82.488495
 31
0.0
210
0.0
220
0.0
230
1.0
  0
LINE
  5
1A1
100
AcDbEntity
  8
0
370
    35
390
0
 62
     7
 48
0.0045
100
AcDbLine
 10
118.028984
 20
82.488495
 30
0.0
 11
118.028984
 21
82.668495
 31
0.0
210
0.0
220
0.0
230
1.0
  0
LINE
  5
1A2
100
AcDbEntity
  8
0
370
    35
390
0
 62
     7
 48
0.0005
100
AcDbLine
 10
118.028984
 20
82.468498
 30
0.0
 11
118.028984
 21
82.488495
 31
0.0
210
0.0
220
0.0
230
1.0
  0
LINE
  5
1A3
100
AcDbEntity
  8
0
370
    35
390
0
 62
     7
 48
0.0125
100
AcDbLine
 10
118.028984
 20
82.668495
 30
0.0
 11
117.528984
 21
82.668495
 31
0.0
210
0.0
220
0.0
230
1.0
  0
LINE
  5
1A4
100
AcDbEntity
  8
0
370
    35
390
0
 62
     7
 48
0.0125
100
AcDbLine
 10
118.028984
 20
82.468498
 30
0.0
 11
117.528984
 21
82.468498
 31
0.0
210
0.0
220
0.0
230
1.0
  0
LINE
  5
1A5
100
AcDbEntity
  8
0
370
    13
390
0
 62
     7
 48
0.0125
100
AcDbLine
 10
118.028984
 20
82.488495
 30
0.0
 11
117.528984
 21
82.488495
 31
0.0
210
0.0
220
0.0
230
1.0
  0
LINE
  5
1A6
100
AcDbEntity
  8
0
370
    13
390
0
 62
     7
 48
0.0125
100
AcDbLine
 10
118.028984
 20
83.448494
 30
0.0
 11
117.528984
 21
83.448494
 31
0.0
210
0.0
220
0.0
230
1.0
  0
LINE
  5
1A7
100
AcDbEntity
  8
0
370
    35
390
0
 62
     7
 48
0.0045
100
AcDbLine
 10
117.528984
 20
83.448494
 30
0.0
 11
117.528984
 21
83.268494
 31
0.0
210
0.0
220
0.0
230
1.0
  0
LINE
  5
1A8
100
AcDbEntity
  8
0
370
    35
390
0
 62
     7
 48
0.0125
100
AcDbLine
 10
117.528984
 20
83.268494
 30
0.0
 11
118.028984
 21
83.268494
 31
0.0
210
0.0
220
0.0
230
1.0
  0
LINE
  5
1A9
100
AcDbEntity
  8
0
370
    35
390
0
 62
     7
 48
0.0045
100
AcDbLine
 10
118.028984
 20
83.268494
 30
0.0
 11
118.028984
 21
83.448494
 31
0.0
210
0.0
220
0.0
230
1.0
  0
LINE
  5
1AA
100
AcDbEntity
  8
0
370
    35
390
0
 62
     7
 48
0.0005
100
AcDbLine
 10
118.028984
 20
83.448494
 30
0.0
 11
118.028984
 21
83.468498
 31
0.0
210
0.0
220
0.0
230
1.0
  0
LINE
  5
1AB
100
AcDbEntity
  8
0
370
    35
390
0
 62
     7
 48
0.0125
100
AcDbLine
 10
118.028984
 20
83.468498
 30
0.0
 11
117.528984
 21
83.468498
 31
0.0
210
0.0
220
0.0
230
1.0
  0
LINE
  5
1AC
100
AcDbEntity
  8
0
370
    35
390
0
 62
     7
 48
0.0005
100
AcDbLine
 10
117.528984
 20
83.468498
 30
0.0
 11
117.528984
 21
83.448494
 31
0.0
210
0.0
220
0.0
230
1.0
  0
LINE
  5
1AD
100
AcDbEntity
  8
0
370
    35
390
0
 62
     7
 48
0.00025
100
AcDbLine
 10
117.528984
 20
82.528496
 30
0.0
 11
117.528984
 21
82.518494
 31
0.0
210
0.0
220
0.0
230
1.0
  0
LINE
  5
1AE
100
AcDbEntity
  8
0
370
    35
390
0
 62
     7
 48
0.022
100
AcDbLine
 10
117.528984
 20
83.408493
 30
0.0
 11
117.528984
 21
82.528496
 31
0.0
210
0.0
220
0.0
230
1.0
  0
LINE
  5
1AF
100
AcDbEntity
  8
0
370
    35
390
0
 62
     7
 48
0.00025
100
AcDbLine
 10
117.528984
 20
83.418495
 30
0.0
 11
117.528984
 21
83.408493
 31
0.0
210
0.0
220
0.0
230
1.0
  0
LINE
  5
1B0
100
AcDbEntity
  8
0
370
    35
390
0
 62
     7
 48
0.0125
100
AcDbLine
 10
118.917984
 20
83.268494
 30
0.0
 11
118.417984
 21
83.268494
 31
0.0
210
0.0
220
0.0
230
1.0
  0
LINE
  5
1B1
100
AcDbEntity
  8
0
370
    35
390
0
 62
     7
 48
0.015
100
AcDbLine
 10
118.417984
 20
83.268494
 30
0.0
 11
118.417984
 21
82.668495
 31
0.0
210
0.0
220
0.0
230
1.0
  0
LINE
  5
1B2
100
AcDbEntity
  8
0
370
    35
390
0
 62
     7
 48
0.0125
100
AcDbLine
 10
118.417984
 20
82.668495
 30
0.0
 11
118.917984
 21
82.668495
 31
0.0
210
0.0
220
0.0
230
1.0
  0
LINE
  5
1B3
100
AcDbEntity
  8
0
370
    35
390
0
 62
     7
 48
0.015
100
AcDbLine
 10
118.917984
 20
82.668495
 30
0.0
 11
118.917984
 21
83.268494
 31
0.0
210
0.0
220
0.0
230
1.0
  0
LINE
  5
1B4
100
AcDbEntity
  8
0
370
    35
390
0
 62
     7
 48
0.0005
100
AcDbLine
 10
118.417984
 20
82.488495
 30
0.0
 11
118.417984
 21
82.468498
 31
0.0
210
0.0
220
0.0
230
1.0
  0
LINE
  5
1B5
100
AcDbEntity
  8
0
370
    35
390
0
 62
     7
 48
0.0045
100
AcDbLine
 10
118.417984
 20
82.668495
 30
0.0
 11
118.417984
 21
82.488495
 31
0.0
210
0.0
220
0.0
230
1.0
  0
LINE
  5
1B6
100
AcDbEntity
  8
0
370
    35
390
0
 62
     7
 48
0.0045
100
AcDbLine
 10
118.917984
 20
82.488495
 30
0.0
 11
118.917984
 21
82.668495
 31
0.0
210
0.0
220
0.0
230
1.0
  0
LINE
  5
1B7
100
AcDbEntity
  8
0
370
    35
390
0
 62
     7
 48
0.0005
100
AcDbLine
 10
118.917984
 20
82.468498
 30
0.0
 11
118.917984
 21
82.488495
 31
0.0
210
0.0
220
0.0
230
1.0
  0
LINE
  5
1B8
100
AcDbEntity
  8
0
370
    35
390
0
 62
     7
 48
0.0125
100
AcDbLine
 10
118.917984
 20
82.668495
 30
0.0
 11
118.417984
 21
82.668495
 31
0.0
210
0.0
220
0.0
230
1.0
  0
LINE
  5
1B9
100
AcDbEntity
  8
0
370
    35
390
0
 62
     7
 48
0.0125
100
AcDbLine
 10
118.917984
 20
82.468498
 30
0.0
 11
118.417984
 21
82.468498
 31
0.0
210
0.0
220
0.0
230
1.0
  0
LINE
  5
1BA
100
AcDbEntity
  8
0
370
    13
390
0
 62
     7
 48
0.0125
100
AcDbLine
 10
118.917984
 20
82.488495
 30
0.0
 11
118.417984
 21
82.488495
 31
0.0
210
0.0
220
0.0
230
1.0
  0
LINE
  5
1BB
100
AcDbEntity
  8
0
370
    13
390
0
 62
     7
 48
0.0125
100
AcDbLine
 10
118.917984
 20
83.448494
 30
0.0
 11
118.417984
 21
83.448494
 31
0.0
210
0.0
220
0.0
230
1.0
  0
LINE
  5
1BC
100
AcDbEntity
  8
0
370
    35
390
0
 62
     7
 48
0.0045
100
AcDbLine
 10
118.417984
 20
83.448494
 30
0.0
 11
118.417984
 21
83.268494
 31
0.0
210
0.0
220
0.0
230
1.0
  0
LINE
  5
1BD
100
AcDbEntity
  8
0
370
    35
390
0
 62
     7
 48
0.0125
100
AcDbLine
 10
118.417984
 20
83.268494
 30
0.0
 11
118.917984
 21
83.268494
 31
0.0
210
0.0
220
0.0
230
1.0
  0
LINE
  5
1BE
100
AcDbEntity
  8
0
370
    35
390
0
 62
     7
 48
0.0045
100
AcDbLine
 10
118.917984
 20
83.268494
 30
0.0
 11
118.917984
 21
83.448494
 31
0.0
210
0.0
220
0.0
230
1.0
  0
LINE
  5
1BF
100
AcDbEntity
  8
0
370
    35
390
0
 62
     7
 48
0.0005
100
AcDbLine
 10
118.917984
 20
83.448494
 30
0.0
 11
118.917984
 21
83.468498
 31
0.0
210
0.0
220
0.0
230
1.0
  0
LINE
  5
1C0
100
AcDbEntity
  8
0
370
    35
390
0
 62
     7
 48
0.0125
100
AcDbLine
 10
118.917984
 20
83.468498
 30
0.0
 11
118.417984
 21
83.468498
 31
0.0
210
0.0
220
0.0
230
1.0
  0
LINE
  5
1C1
100
AcDbEntity
  8
0
370
    35
390
0
 62
     7
 48
0.0005
100
AcDbLine
 10
118.417984
 20
83.468498
 30
0.0
 11
118.417984
 21
83.448494
 31
0.0
210
0.0
220
0.0
230
1.0
  0
LINE
  5
1C2
100
AcDbEntity
  8
0
370
    35
390
0
 62
     7
 48
0.00025
100
AcDbLine
 10
118.417984
 20
82.528496
 30
0.0
 11
118.417984
 21
82.518494
 31
0.0
210
0.0
220
0.0
230
1.0
  0
LINE
  5
1C3
100
AcDbEntity
  8
0
370
    35
390
0
 62
     7
 48
0.022
100
AcDbLine
 10
118.417984
 20
83.408493
 30
0.0
 11
118.417984
 21
82.528496
 31
0.0
210
0.0
220
0.0
230
1.0
  0
LINE
  5
1C4
100
AcDbEntity
  8
0
370
    35
390
0
 62
     7
 48
0.00025
100
AcDbLine
 10
118.417984
 20
83.418495
 30
0.0
 11
118.417984
 21
83.408493
 31
0.0
210
0.0
220
0.0
230
1.0
  0
LINE
  5
1C5
100
AcDbEntity
  8
0
370
    35
390
0
 62
     7
 48
0.0125
100
AcDbLine
 10
117.885384
 20
84.742508
 30
0.0
 11
117.885384
 21
84.242508
 31
0.0
210
0.0
220
0.0
230
1.0
  0
LINE
  5
1C6
100
AcDbEntity
  8
0
370
    35
390
0
 62
     7
 48
0.015
100
AcDbLine
 10
117.885384
 20
84.242508
 30
0.0
 11
118.485382
 21
84.242508
 31
0.0
210
0.0
220
0.0
230
1.0
  0
LINE
  5
1C7
100
AcDbEntity
  8
0
370
    35
390
0
 62
     7
 48
0.0125
100
AcDbLine
 10
118.485382
 20
84.242508
 30
0.0
 11
118.485382
 21
84.742508
 31
0.0
210
0.0
220
0.0
230
1.0
  0
LINE
  5
1C8
100
AcDbEntity
  8
0
370
    35
390
0
 62
     7
 48
0.015
100
AcDbLine
 10
118.485382
 20
84.742508
 30
0.0
 11
117.885384
 21
84.742508
 31
0.0
210
0.0
220
0.0
230
1.0
  0
LINE
  5
1C9
100
AcDbEntity
  8
0
370
    35
390
0
 62
     7
 48
0.0005
100
AcDbLine
 10
118.665382
 20
84.242508
 30
0.0
 11
118.685387
 21
84.242508
 31
0.0
210
0.0
220
0.0
230
1.0
  0
LINE
  5
1CA
100
AcDbEntity
  8
0
370
    35
390
0
 62
     7
 48
0.0045
100
AcDbLine
 10
118.485382
 20
84.242508
 30
0.0
 11
118.665382
 21
84.242508
 31
0.0
210
0.0
220
0.0
230
1.0
  0
LINE
  5
1CB
100
AcDbEntity
  8
0
370
    35
390
0
 62
     7
 48
0.0045
100
AcDbLine
 10
118.665382
 20
84.742508
 30
0.0
 11
118.485382
 21
84.742508
 31
0.0
210
0.0
220
0.0
230
1.0
  0
LINE
  5
1CC
100
AcDbEntity
  8
0
370
    35
390
0
 62
     7
 48
0.0005
100
AcDbLine
 10
118.685387
 20
84.742508
 30
0.0
 11
118.665382
 21
84.742508
 31
0.0
210
0.0
220
0.0
230
1.0
  0
LINE
  5
1CD
100
AcDbEntity
  8
0
370
    35
390
0
 62
     7
 48
0.0125
100
AcDbLine
 10
118.485382
 20
84.742508
 30
0.0
 11
118.485382
 21
84.242508
 31
0.0
210
0.0
220
0.0
230
1.0
  0
LINE
  5
1CE
100
AcDbEntity
  8
0
370
    35
390
0
 62
     7
 48
0.0125
100
AcDbLine
 10
118.685387
 20
84.742508
 30
0.0
 11
118.685387
 21
84.242508
 31
0.0
210
0.0
220
0.0
230
1.0
  0
LINE
  5
1CF
100
AcDbEntity
  8
0
370
    13
390
0
 62
     7
 48
0.0125
100
AcDbLine
 10
118.665382
 20
84.742508
 30
0.0
 11
118.665382
 21
84.242508
 31
0.0
210
0.0
220
0.0
230
1.0
  0
LINE
  5
1D0
100
AcDbEntity
  8
0
370
    13
390
0
 62
     7
 48
0.0125
100
AcDbLine
 10
117.705383
 20
84.742508
 30
0.0
 11
117.705383
 21
84.242508
 31
0.0
210
0.0
220
0.0
230
1.0
  0
LINE
  5
1D1
100
AcDbEntity
  8
0
370
    35
390
0
 62
     7
 48
0.0045
100
AcDbLine
 10
117.705383
 20
84.242508
 30
0.0
 11
117.885384
 21
84.242508
 31
0.0
210
0.0
220
0.0
230
1.0
  0
LINE
  5
1D2
100
AcDbEntity
  8
0
370
    35
390
0
 62
     7
 48
0.0125
100
AcDbLine
 10
117.885384
 20
84.242508
 30
0.0
 11
117.885384
 21
84.742508
 31
0.0
210
0.0
220
0.0
230
1.0
  0
LINE
  5
1D3
100
AcDbEntity
  8
0
370
    35
390
0
 62
     7
 48
0.0045
100
AcDbLine
 10
117.885384
 20
84.742508
 30
0.0
 11
117.705383
 21
84.742508
 31
0.0
210
0.0
220
0.0
230
1.0
  0
LINE
  5
1D4
100
AcDbEntity
  8
0
370
    35
390
0
 62
     7
 48
0.0005
100
AcDbLine
 10
117.705383
 20
84.742508
 30
0.0
 11
117.685387
 21
84.742508
 31
0.0
210
0.0
220
0.0
230
1.0
  0
LINE
  5
1D5
100
AcDbEntity
  8
0
370
    35
390
0
 62
     7
 48
0.0125
100
AcDbLine
 10
117.685387
 20
84.742508
 30
0.0
 11
117.685387
 21
84.242508
 31
0.0
210
0.0
220
0.0
230
1.0
  0
LINE
  5
1D6
100
AcDbEntity
  8
0
370
    35
390
0
 62
     7
 48
0.0005
100
AcDbLine
 10
117.685387
 20
84.242508
 30
0.0
 11
117.705383
 21
84.242508
 31
0.0
210
0.0
220
0.0
230
1.0
  0
LINE
  5
1D7
100
AcDbEntity
  8
0
370
    35
390
0
 62
     7
 48
0.00025
100
AcDbLine
 10
118.635384
 20
84.742508
 30
0.0
 11
118.625381
 21
84.742508
 31
0.0
210
0.0
220
0.0
230
1.0
  0
LINE
  5
1D8
100
AcDbEntity
  8
0
370
    35
390
0
 62
     7
 48
0.00025
100
AcDbLine
 10
117.745384
 20
84.742508
 30
0.0
 11
117.735382
 21
84.742508
 31
0.0
210
0.0
220
0.0
230
1.0
  0
LINE
  5
1D9
100
AcDbEntity
  8
0
370
    35
390
0
 62
     7
 48
0.022
100
AcDbLine
 10
118.625381
 20
84.742508
 30
0.0
 11
117.745384
 21
84.742508
 31
0.0
210
0.0
220
0.0
230
1.0
  0
LINE
  5
1DA
100
AcDbEntity
  8
0
370
    35
390
0
 62
     7
 48
0.0125
100
AcDbLine
 10
117.885384
 20
85.6315
 30
0.0
 11
117.885384
 21
85.1315
 31
0.0
210
0.0
220
0.0
230
1.0
  0
LINE
  5
1DB
100
AcDbEntity
  8
0
370
    35
390
0
 62
     7
 48
0.015
100
AcDbLine
 10
117.885384
 20
85.1315
 30
0.0
 11
118.485382
 21
85.1315
 31
0.0
210
0.0
220
0.0
230
1.0
  0
LINE
  5
1DC
100
AcDbEntity
  8
0
370
    35
390
0
 62
     7
 48
0.0125
100
AcDbLine
 10
118.485382
 20
85.1315
 30
0.0
 11
118.485382
 21
85.6315
 31
0.0
210
0.0
220
0.0
230
1.0
  0
LINE
  5
1DD
100
AcDbEntity
  8
0
370
    35
390
0
 62
     7
 48
0.015
100
AcDbLine
 10
118.485382
 20
85.6315
 30
0.0
 11
117.885384
 21
85.6315
 31
0.0
210
0.0
220
0.0
230
1.0
  0
LINE
  5
1DE
100
AcDbEntity
  8
0
370
    35
390
0
 62
     7
 48
0.0005
100
AcDbLine
 10
118.665382
 20
85.1315
 30
0.0
 11
118.685387
 21
85.1315
 31
0.0
210
0.0
220
0.0
230
1.0
  0
LINE
  5
1DF
100
AcDbEntity
  8
0
370
    35
390
0
 62
     7
 48
0.0045
100
AcDbLine
 10
118.485382
 20
85.1315
 30
0.0
 11
118.665382
 21
85.1315
 31
0.0
210
0.0
220
0.0
230
1.0
  0
LINE
  5
1E0
100
AcDbEntity
  8
0
370
    35
390
0
 62
     7
 48
0.0045
100
AcDbLine
 10
118.665382
 20
85.6315
 30
0.0
 11
118.485382
 21
85.6315
 31
0.0
210
0.0
220
0.0
230
1.0
  0
LINE
  5
1E1
100
AcDbEntity
  8
0
370
    35
390
0
 62
     7
 48
0.0005
100
AcDbLine
 10
118.685387
 20
85.6315
 30
0.0
 11
118.665382
 21
85.6315
 31
0.0
210
0.0
220
0.0
230
1.0
  0
LINE
  5
1E2
100
AcDbEntity
  8
0
370
    35
390
0
 62
     7
 48
0.0125
100
AcDbLine
 10
118.485382
 20
85.6315
 30
0.0
 11
118.485382
 21
85.1315
 31
0.0
210
0.0
220
0.0
230
1.0
  0
LINE
  5
1E3
100
AcDbEntity
  8
0
370
    35
390
0
 62
     7
 48
0.0125
100
AcDbLine
 10
118.685387
 20
85.6315
 30
0.0
 11
118.685387
 21
85.1315
 31
0.0
210
0.0
220
0.0
230
1.0
  0
LINE
  5
1E4
100
AcDbEntity
  8
0
370
    13
390
0
 62
     7
 48
0.0125
100
AcDbLine
 10
118.665382
 20
85.6315
 30
0.0
 11
118.665382
 21
85.1315
 31
0.0
210
0.0
220
0.0
230
1.0
  0
LINE
  5
1E5
100
AcDbEntity
  8
0
370
    13
390
0
 62
     7
 48
0.0125
100
AcDbLine
 10
117.705383
 20
85.6315
 30
0.0
 11
117.705383
 21
85.1315
 31
0.0
210
0.0
220
0.0
230
1.0
  0
LINE
  5
1E6
100
AcDbEntity
  8
0
370
    35
390
0
 62
     7
 48
0.0045
100
AcDbLine
 10
117.705383
 20
85.1315
 30
0.0
 11
117.885384
 21
85.1315
 31
0.0
210
0.0
220
0.0
230
1.0
  0
LINE
  5
1E7
100
AcDbEntity
  8
0
370
    35
390
0
 62
     7
 48
0.0125
100
AcDbLine
 10
117.885384
 20
85.1315
 30
0.0
 11
117.885384
 21
85.6315
 31
0.0
210
0.0
220
0.0
230
1.0
  0
LINE
  5
1E8
100
AcDbEntity
  8
0
370
    35
390
0
 62
     7
 48
0.0045
100
AcDbLine
 10
117.885384
 20
85.6315
 30
0.0
 11
117.705383
 21
85.6315
 31
0.0
210
0.0
220
0.0
230
1.0
  0
LINE
  5
1E9
100
AcDbEntity
  8
0
370
    35
390
0
 62
     7
 48
0.0005
100
AcDbLine
 10
117.705383
 20
85.6315
 30
0.0
 11
117.685387
 21
85.6315
 31
0.0
210
0.0
220
0.0
230
1.0
  0
LINE
  5
1EA
100
AcDbEntity
  8
0
370
    35
390
0
 62
     7
 48
0.0125
100
AcDbLine
 10
117.685387
 20
85.6315
 30
0.0
 11
117.685387
 21
85.1315
 31
0.0
210
0.0
220
0.0
230
1.0
  0
LINE
  5
1EB
100
AcDbEntity
  8
0
370
    35
390
0
 62
     7
 48
0.0005
100
AcDbLine
 10
117.685387
 20
85.1315
 30
0.0
 11
117.705383
 21
85.1315
 31
0.0
210
0.0
220
0.0
230
1.0
  0
LINE
  5
1EC
100
AcDbEntity
  8
0
370
    35
390
0
 62
     7
 48
0.00025
100
AcDbLine
 10
118.635384
 20
85.6315
 30
0.0
 11
118.625381
 21
85.6315
 31
0.0
210
0.0
220
0.0
230
1.0
  0
LINE
  5
1ED
100
AcDbEntity
  8
0
370
    35
390
0
 62
     7
 48
0.00025
100
AcDbLine
 10
117.745384
 20
85.6315
 30
0.0
 11
117.735382
 21
85.6315
 31
0.0
210
0.0
220
0.0
230
1.0
  0
LINE
  5
1EE
100
AcDbEntity
  8
0
370
    35
390
0
 62
     7
 48
0.022
100
AcDbLine
 10
118.625381
 20
85.6315
 30
0.0
 11
117.745384
 21
85.6315
 31
0.0
210
0.0
220
0.0
230
1.0
  0
LINE
  5
1EF
100
AcDbEntity
  8
0
370
    35
390
0
 62
     7
 48
0.0125
100
AcDbLine
 10
121.542984
 20
85.504501
 30
0.0
 11
121.542984
 21
85.004501
 31
0.0
210
0.0
220
0.0
230
1.0
  0
LINE
  5
1F0
100
AcDbEntity
  8
0
370
    35
390
0
 62
     7
 48
0.015
100
AcDbLine
 10
121.542984
 20
85.004501
 30
0.0
 11
122.142982
 21
85.004501
 31
0.0
210
0.0
220
0.0
230
1.0
  0
LINE
  5
1F1
100
AcDbEntity
  8
0
370
    35
390
0
 62
     7
 48
0.0125
100
AcDbLine
 10
122.142982
 20
85.004501
 30
0.0
 11
122.142982
 21
85.504501
 31
0.0
210
0.0
220
0.0
230
1.0
  0
LINE
  5
1F2
100
AcDbEntity
  8
0
370
    35
390
0
 62
     7
 48
0.015
100
AcDbLine
 10
122.142982
 20
85.504501
 30
0.0
 11
121.542984
 21
85.504501
 31
0.0
210
0.0
220
0.0
230
1.0
  0
LINE
  5
1F3
100
AcDbEntity
  8
0
370
    35
390
0
 62
     7
 48
0.0005
100
AcDbLine
 10
122.322983
 20
85.004501
 30
0.0
 11
122.342987
 21
85.004501
 31
0.0
210
0.0
220
0.0
230
1.0
  0
LINE
  5
1F4
100
AcDbEntity
  8
0
370
    35
390
0
 62
     7
 48
0.0045
100
AcDbLine
 10
122.142982
 20
85.004501
 30
0.0
 11
122.322983
 21
85.004501
 31
0.0
210
0.0
220
0.0
230
1.0
  0
LINE
  5
1F5
100
AcDbEntity
  8
0
370
    35
390
0
 62
     7
 48
0.0045
100
AcDbLine
 10
122.322983
 20
85.504501
 30
0.0
 11
122.142982
 21
85.504501
 31
0.0
210
0.0
220
0.0
230
1.0
  0
LINE
  5
1F6
100
AcDbEntity
  8
0
370
    35
390
0
 62
     7
 48
0.0005
100
AcDbLine
 10
122.342987
 20
85.504501
 30
0.0
 11
122.322983
 21
85.504501
 31
0.0
210
0.0
220
0.0
230
1.0
  0
LINE
  5
1F7
100
AcDbEntity
  8
0
370
    35
390
0
 62
     7
 48
0.0125
100
AcDbLine
 10
122.142982
 20
85.504501
 30
0.0
 11
122.142982
 21
85.004501
 31
0.0
210
0.0
220
0.0
230
1.0
  0
LINE
  5
1F8
100
AcDbEntity
  8
0
370
    35
390
0
 62
     7
 48
0.0125
100
AcDbLine
 10
122.342987
 20
85.504501
 30
0.0
 11
122.342987
 21
85.004501
 31
0.0
210
0.0
220
0.0
230
1.0
  0
LINE
  5
1F9
100
AcDbEntity
  8
0
370
    13
390
0
 62
     7
 48
0.0125
100
AcDbLine
 10
122.322983
 20
85.504501
 30
0.0
 11
122.322983
 21
85.004501
 31
0.0
210
0.0
220
0.0
230
1.0
  0
LINE
  5
1FA
100
AcDbEntity
  8
0
370
    13
390
0
 62
     7
 48
0.0125
100
AcDbLine
 10
121.362984
 20
85.504501
 30
0.0
 11
121.362984
 21
85.004501
 31
0.0
210
0.0
220
0.0
230
1.0
  0
LINE
  5
1FB
100
AcDbEntity
  8
0
370
    35
390
0
 62
     7
 48
0.0045
100
AcDbLine
 10
121.362984
 20
85.004501
 30
0.0
 11
121.542984
 21
85.004501
 31
0.0
210
0.0
220
0.0
230
1.0
  0
LINE
  5
1FC
100
AcDbEntity
  8
0
370
    35
390
0
 62
     7
 48
0.0125
100
AcDbLine
 10
121.542984
 20
85.004501
 30
0.0
 11
121.542984
 21
85.504501
 31
0.0
210
0.0
220
0.0
230
1.0
  0
LINE
  5
1FD
100
AcDbEntity
  8
0
370
    35
390
0
 62
     7
 48
0.0045
100
AcDbLine
 10
121.542984
 20
85.504501
 30
0.0
 11
121.362984
 21
85.504501
 31
0.0
210
0.0
220
0.0
230
1.0
  0
LINE
  5
1FE
100
AcDbEntity
  8
0
370
    35
390
0
 62
     7
 48
0.0005
100
AcDbLine
 10
121.362984
 20
85.504501
 30
0.0
 11
121.342987
 21
85.504501
 31
0.0
210
0.0
220
0.0
230
1.0
  0
LINE
  5
1FF
100
AcDbEntity
  8
0
370
    35
390
0
 62
     7
 48
0.0125
100
AcDbLine
 10
121.342987
 20
85.504501
 30
0.0
 11
121.342987
 21
85.004501
 31
0.0
210
0.0
220
0.0
230
1.0
  0
LINE
  5
200
100
AcDbEntity
  8
0
370
    35
390
0
 62
     7
 48
0.0005
100
AcDbLine
 10
121.342987
 20
85.004501
 30
0.0
 11
121.362984
 21
85.004501
 31
0.0
210
0.0
220
0.0
230
1.0
  0
LINE
  5
201
100
AcDbEntity
  8
0
370
    35
390
0
 62
     7
 48
0.00025
100
AcDbLine
 10
122.292984
 20
85.504501
 30
0.0
 11
122.282982
 21
85.504501
 31
0.0
210
0.0
220
0.0
230
1.0
  0
LINE
  5
202
100
AcDbEntity
  8
0
370
    35
390
0
 62
     7
 48
0.00025
100
AcDbLine
 10
121.402985
 20
85.504501
 30
0.0
 11
121.392982
 21
85.504501
 31
0.0
210
0.0
220
0.0
230
1.0
  0
LINE
  5
203
100
AcDbEntity
  8
0
370
    35
390
0
 62
     7
 48
0.022
100
AcDbLine
 10
122.282982
 20
85.504501
 30
0.0
 11
121.402985
 21
85.504501
 31
0.0
210
0.0
220
0.0
230
1.0
  0
LINE
  5
204
100
AcDbEntity
  8
0
370
    35
390
0
 62
     7
 48
0.0125
100
AcDbLine
 10
121.592979
 20
82.287506
 30
0.0
 11
122.092979
 21
82.287506
 31
0.0
210
0.0
220
0.0
230
1.0
  0
LINE
  5
205
100
AcDbEntity
  8
0
370
    35
390
0
 62
     7
 48
0.015
100
AcDbLine
 10
122.092979
 20
82.287506
 30
0.0
 11
122.092979
 21
82.887505
 31
0.0
210
0.0
220
0.0
230
1.0
  0
LINE
  5
206
100
AcDbEntity
  8
0
370
    35
390
0
 62
     7
 48
0.0125
100
AcDbLine
 10
122.092979
 20
82.887505
 30
0.0
 11
121.592979
 21
82.887505
 31
0.0
210
0.0
220
0.0
230
1.0
  0
LINE
  5
207
100
AcDbEntity
  8
0
370
    35
390
0
 62
     7
 48
0.015
100
AcDbLine
 10
121.592979
 20
82.887505
 30
0.0
 11
121.592979
 21
82.287506
 31
0.0
210
0.0
220
0.0
230
1.0
  0
LINE
  5
208
100
AcDbEntity
  8
0
370
    35
390
0
 62
     7
 48
0.0005
100
AcDbLine
 10
122.092979
 20
83.067505
 30
0.0
 11
122.092979
 21
83.087509
 31
0.0
210
0.0
220
0.0
230
1.0
  0
LINE
  5
209
100
AcDbEntity
  8
0
370
    35
390
0
 62
     7
 48
0.0045
100
AcDbLine
 10
122.092979
 20
82.887505
 30
0.0
 11
122.092979
 21
83.067505
 31
0.0
210
0.0
220
0.0
230
1.0
  0
LINE
  5
20A
100
AcDbEntity
  8
0
370
    35
390
0
 62
     7
 48
0.0045
100
AcDbLine
 10
121.592979
 20
83.067505
 30
0.0
 11
121.592979
 21
82.887505
 31
0.0
210
0.0
220
0.0
230
1.0
  0
LINE
  5
20B
100
AcDbEntity
  8
0
370
    35
390
0
 62
     7
 48
0.0005
100
AcDbLine
 10
121.592979
 20
83.087509
 30
0.0
 11
121.592979
 21
83.067505
 31
0.0
210
0.0
220
0.0
230
1.0
  0
LINE
  5
20C
100
AcDbEntity
  8
0
370
    35
390
0
 62
     7
 48
0.0125
100
AcDbLine
 10
121.592979
 20
82.887505
 30
0.0
 11
122.092979
 21
82.887505
 31
0.0
210
0.0
220
0.0
230
1.0
  0
LINE
  5
20D
100
AcDbEntity
  8
0
370
    35
390
0
 62
     7
 48
0.0125
100
AcDbLine
 10
121.592979
 20
83.087509
 30
0.0
 11
122.092979
 21
83.087509
 31
0.0
210
0.0
220
0.0
230
1.0
  0
LINE
  5
20E
100
AcDbEntity
  8
0
370
    13
390
0
 62
     7
 48
0.0125
100
AcDbLine
 10
121.592979
 20
83.067505
 30
0.0
 11
122.092979
 21
83.067505
 31
0.0
210
0.0
220
0.0
230
1.0
  0
LINE
  5
20F
100
AcDbEntity
  8
0
370
    13
390
0
 62
     7
 48
0.0125
100
AcDbLine
 10
121.592979
 20
82.107506
 30
0.0
 11
122.092979
 21
82.107506
 31
0.0
210
0.0
220
0.0
230
1.0
  0
LINE
  5
210
100
AcDbEntity
  8
0
370
    35
390
0
 62
     7
 48
0.0045
100
AcDbLine
 10
122.092979
 20
82.107506
 30
0.0
 11
122.092979
 21
82.287506
 31
0.0
210
0.0
220
0.0
230
1.0
  0
LINE
  5
211
100
AcDbEntity
  8
0
370
    35
390
0
 62
     7
 48
0.0125
100
AcDbLine
 10
122.092979
 20
82.287506
 30
0.0
 11
121.592979
 21
82.287506
 31
0.0
210
0.0
220
0.0
230
1.0
  0
LINE
  5
212
100
AcDbEntity
  8
0
370
    35
390
0
 62
     7
 48
0.0045
100
AcDbLine
 10
121.592979
 20
82.287506
 30
0.0
 11
121.592979
 21
82.107506
 31
0.0
210
0.0
220
0.0
230
1.0
  0
LINE
  5
213
100
AcDbEntity
  8
0
370
    35
390
0
 62
     7
 48
0.0005
100
AcDbLine
 10
121.592979
 20
82.107506
 30
0.0
 11
121.592979
 21
82.087509
 31
0.0
210
0.0
220
0.0
230
1.0
  0
LINE
  5
214
100
AcDbEntity
  8
0
370
    35
390
0
 62
     7
 48
0.0125
100
AcDbLine
 10
121.592979
 20
82.087509
 30
0.0
 11
122.092979
 21
82.087509
 31
0.0
210
0.0
220
0.0
230
1.0
  0
LINE
  5
215
100
AcDbEntity
  8
0
370
    35
390
0
 62
     7
 48
0.0005
100
AcDbLine
 10
122.092979
 20
82.087509
 30
0.0
 11
122.092979
 21
82.107506
 31
0.0
210
0.0
220
0.0
230
1.0
  0
LINE
  5
216
100
AcDbEntity
  8
0
370
    35
390
0
 62
     7
 48
0.00025
100
AcDbLine
 10
121.592979
 20
83.037506
 30
0.0
 11
121.592979
 21
83.027504
 31
0.0
210
0.0
220
0.0
230
1.0
  0
LINE
  5
217
100
AcDbEntity
  8
0
370
    35
390
0
 62
     7
 48
0.00025
100
AcDbLine
 10
121.592979
 20
82.147507
 30
0.0
 11
121.592979
 21
82.137505
 31
0.0
210
0.0
220
0.0
230
1.0
  0
LINE
  5
218
100
AcDbEntity
  8
0
370
    35
390
0
 62
     7
 48
0.022
100
AcDbLine
 10
121.592979
 20
83.027504
 30
0.0
 11
121.592979
 21
82.147507
 31
0.0
210
0.0
220
0.0
230
1.0
  0
LINE
  5
219
100
AcDbEntity
  8
0
370
    35
390
0
 62
     7
 48
0.0125
100
AcDbLine
 10
121.507973
 20
88.560501
 30
0.0
 11
121.507973
 21
89.060501
 31
0.0
210
0.0
220
0.0
230
1.0
  0
LINE
  5
21A
100
AcDbEntity
  8
0
370
    35
390
0
 62
     7
 48
0.015
100
AcDbLine
 10
121.507973
 20
89.060501
 30
0.0
 11
120.907974
 21
89.060501
 31
0.0
210
0.0
220
0.0
230
1.0
  0
LINE
  5
21B
100
AcDbEntity
  8
0
370
    35
390
0
 62
     7
 48
0.0125
100
AcDbLine
 10
120.907974
 20
89.060501
 30
0.0
 11
120.907974
 21
88.560501
 31
0.0
210
0.0
220
0.0
230
1.0
  0
LINE
  5
21C
100
AcDbEntity
  8
0
370
    35
390
0
 62
     7
 48
0.015
100
AcDbLine
 10
120.907974
 20
88.560501
 30
0.0
 11
121.507973
 21
88.560501
 31
0.0
210
0.0
220
0.0
230
1.0
  0
LINE
  5
21D
100
AcDbEntity
  8
0
370
    35
390
0
 62
     7
 48
0.0005
100
AcDbLine
 10
120.727974
 20
89.060501
 30
0.0
 11
120.707977
 21
89.060501
 31
0.0
210
0.0
220
0.0
230
1.0
  0
LINE
  5
21E
100
AcDbEntity
  8
0
370
    35
390
0
 62
     7
 48
0.0045
100
AcDbLine
 10
120.907974
 20
89.060501
 30
0.0
 11
120.727974
 21
89.060501
 31
0.0
210
0.0
220
0.0
230
1.0
  0
LINE
  5
21F
100
AcDbEntity
  8
0
370
    35
390
0
 62
     7
 48
0.0045
100
AcDbLine
 10
120.727974
 20
88.560501
 30
0.0
 11
120.907974
 21
88.560501
 31
0.0
210
0.0
220
0.0
230
1.0
  0
LINE
  5
220
100
AcDbEntity
  8
0
370
    35
390
0
 62
     7
 48
0.0005
100
AcDbLine
 10
120.707977
 20
88.560501
 30
0.0
 11
120.727974
 21
88.560501
 31
0.0
210
0.0
220
0.0
230
1.0
  0
LINE
  5
221
100
AcDbEntity
  8
0
370
    35
390
0
 62
     7
 48
0.0125
100
AcDbLine
 10
120.907974
 20
88.560501
 30
0.0
 11
120.907974
 21
89.060501
 31
0.0
210
0.0
220
0.0
230
1.0
  0
LINE
  5
222
100
AcDbEntity
  8
0
370
    35
390
0
 62
     7
 48
0.0125
100
AcDbLine
 10
120.707977
 20
88.560501
 30
0.0
 11
120.707977
 21
89.060501
 31
0.0
210
0.0
220
0.0
230
1.0
  0
LINE
  5
223
100
AcDbEntity
  8
0
370
    13
390
0
 62
     7
 48
0.0125
100
AcDbLine
 10
120.727974
 20
88.560501
 30
0.0
 11
120.727974
 21
89.060501
 31
0.0
210
0.0
220
0.0
230
1.0
  0
LINE
  5
224
100
AcDbEntity
  8
0
370
    13
390
0
 62
     7
 48
0.0125
100
AcDbLine
 10
121.687973
 20
88.560501
 30
0.0
 11
121.687973
 21
89.060501
 31
0.0
210
0.0
220
0.0
230
1.0
  0
LINE
  5
225
100
AcDbEntity
  8
0
370
    35
390
0
 62
     7
 48
0.0045
100
AcDbLine
 10
121.687973
 20
89.060501
 30
0.0
 11
121.507973
 21
89.060501
 31
0.0
210
0.0
220
0.0
230
1.0
  0
LINE
  5
226
100
AcDbEntity
  8
0
370
    35
390
0
 62
     7
 48
0.0125
100
AcDbLine
 10
121.507973
 20
89.060501
 30
0.0
 11
121.507973
 21
88.560501
 31
0.0
210
0.0
220
0.0
230
1.0
  0
LINE
  5
227
100
AcDbEntity
  8
0
370
    35
390
0
 62
     7
 48
0.0045
100
AcDbLine
 10
121.507973
 20
88.560501
 30
0.0
 11
121.687973
 21
88.560501
 31
0.0
210
0.0
220
0.0
230
1.0
  0
LINE
  5
228
100
AcDbEntity
  8
0
370
    35
390
0
 62
     7
 48
0.0005
100
AcDbLine
 10
121.687973
 20
88.560501
 30
0.0
 11
121.707977
 21
88.560501
 31
0.0
210
0.0
220
0.0
230
1.0
  0
LINE
  5
229
100
AcDbEntity
  8
0
370
    35
390
0
 62
     7
 48
0.0125
100
AcDbLine
 10
121.707977
 20
88.560501
 30
0.0
 11
121.707977
 21
89.060501
 31
0.0
210
0.0
220
0.0
230
1.0
  0
LINE
  5
22A
100
AcDbEntity
  8
0
370
    35
390
0
 62
     7
 48
0.0005
100
AcDbLine
 10
121.707977
 20
89.060501
 30
0.0
 11
121.687973
 21
89.060501
 31
0.0
210
0.0
220
0.0
230
1.0
  0
LINE
  5
22B
100
AcDbEntity
  8
0
370
    35
390
0
 62
     7
 48
0.00025
100
AcDbLine
 10
120.767975
 20
89.060501
 30
0.0
 11
120.757973
 21
89.060501
 31
0.0
210
0.0
220
0.0
230
1.0
  0
LINE
  5
22C
100
AcDbEntity
  8
0
370
    35
390
0
 62
     7
 48
0.022
100
AcDbLine
 10
121.647972
 20
89.060501
 30
0.0
 11
120.767975
 21
89.060501
 31
0.0
210
0.0
220
0.0
230
1.0
  0
LINE
  5
22D
100
AcDbEntity
  8
0
370
    35
390
0
 62
     7
 48
0.00025
100
AcDbLine
 10
121.657974
 20
89.060501
 30
0.0
 11
121.647972
 21
89.060501
 31
0.0
210
0.0
220
0.0
230
1.0
  0
LINE
  5
22E
100
AcDbEntity
  8
0
370
    35
390
0
 62
     7
 48
0.0125
100
AcDbLine
 10
107.76738
 20
97.644897
 30
0.0
 11
107.26738
 21
97.644897
 31
0.0
210
0.0
220
0.0
230
1.0
  0
LINE
  5
22F
100
AcDbEntity
  8
0
370
    35
390
0
 62
     7
 48
0.015
100
AcDbLine
 10
107.26738
 20
97.644897
 30
0.0
 11
107.26738
 21
97.044899
 31
0.0
210
0.0
220
0.0
230
1.0
  0
LINE
  5
230
100
AcDbEntity
  8
0
370
    35
390
0
 62
     7
 48
0.0125
100
AcDbLine
 10
107.26738
 20
97.044899
 30
0.0
 11
107.76738
 21
97.044899
 31
0.0
210
0.0
220
0.0
230
1.0
  0
LINE
  5
231
100
AcDbEntity
  8
0
370
    35
390
0
 62
     7
 48
0.015
100
AcDbLine
 10
107.76738
 20
97.044899
 30
0.0
 11
107.76738
 21
97.644897
 31
0.0
210
0.0
220
0.0
230
1.0
  0
LINE
  5
232
100
AcDbEntity
  8
0
370
    35
390
0
 62
     7
 48
0.0005
100
AcDbLine
 10
107.26738
 20
96.864899
 30
0.0
 11
107.26738
 21
96.844894
 31
0.0
210
0.0
220
0.0
230
1.0
  0
LINE
  5
233
100
AcDbEntity
  8
0
370
    35
390
0
 62
     7
 48
0.0045
100
AcDbLine
 10
107.26738
 20
97.044899
 30
0.0
 11
107.26738
 21
96.864899
 31
0.0
210
0.0
220
0.0
230
1.0
  0
LINE
  5
234
100
AcDbEntity
  8
0
370
    35
390
0
 62
     7
 48
0.0045
100
AcDbLine
 10
107.76738
 20
96.864899
 30
0.0
 11
107.76738
 21
97.044899
 31
0.0
210
0.0
220
0.0
230
1.0
  0
LINE
  5
235
100
AcDbEntity
  8
0
370
    35
390
0
 62
     7
 48
0.0005
100
AcDbLine
 10
107.76738
 20
96.844894
 30
0.0
 11
107.76738
 21
96.864899
 31
0.0
210
0.0
220
0.0
230
1.0
  0
LINE
  5
236
100
AcDbEntity
  8
0
370
    35
390
0
 62
     7
 48
0.0125
100
AcDbLine
 10
107.76738
 20
97.044899
 30
0.0
 11
107.26738
 21
97.044899
 31
0.0
210
0.0
220
0.0
230
1.0
  0
LINE
  5
237
100
AcDbEntity
  8
0
370
    35
390
0
 62
     7
 48
0.0125
100
AcDbLine
 10
107.76738
 20
96.844894
 30
0.0
 11
107.26738
 21
96.844894
 31
0.0
210
0.0
220
0.0
230
1.0
  0
LINE
  5
238
100
AcDbEntity
  8
0
370
    13
390
0
 62
     7
 48
0.0125
100
AcDbLine
 10
107.76738
 20
96.864899
 30
0.0
 11
107.26738
 21
96.864899
 31
0.0
210
0.0
220
0.0
230
1.0
  0
LINE
  5
239
100
AcDbEntity
  8
0
370
    13
390
0
 62
     7
 48
0.0125
100
AcDbLine
 10
107.76738
 20
97.824898
 30
0.0
 11
107.26738
 21
97.824898
 31
0.0
210
0.0
220
0.0
230
1.0
  0
LINE
  5
23A
100
AcDbEntity
  8
0
370
    35
390
0
 62
     7
 48
0.0045
100
AcDbLine
 10
107.26738
 20
97.824898
 30
0.0
 11
107.26738
 21
97.644897
 31
0.0
210
0.0
220
0.0
230
1.0
  0
LINE
  5
23B
100
AcDbEntity
  8
0
370
    35
390
0
 62
     7
 48
0.0125
100
AcDbLine
 10
107.26738
 20
97.644897
 30
0.0
 11
107.76738
 21
97.644897
 31
0.0
210
0.0
220
0.0
230
1.0
  0
LINE
  5
23C
100
AcDbEntity
  8
0
370
    35
390
0
 62
     7
 48
0.0045
100
AcDbLine
 10
107.76738
 20
97.644897
 30
0.0
 11
107.76738
 21
97.824898
 31
0.0
210
0.0
220
0.0
230
1.0
  0
LINE
  5
23D
100
AcDbEntity
  8
0
370
    35
390
0
 62
     7
 48
0.0005
100
AcDbLine
 10
107.76738
 20
97.824898
 30
0.0
 11
107.76738
 21
97.844894
 31
0.0
210
0.0
220
0.0
230
1.0
  0
LINE
  5
23E
100
AcDbEntity
  8
0
370
    35
390
0
 62
     7
 48
0.0125
100
AcDbLine
 10
107.76738
 20
97.844894
 30
0.0
 11
107.26738
 21
97.844894
 31
0.0
210
0.0
220
0.0
230
1.0
  0
LINE
  5
23F
100
AcDbEntity
  8
0
370
    35
390
0
 62
     7
 48
0.0005
100
AcDbLine
 10
107.26738
 20
97.844894
 30
0.0
 11
107.26738
 21
97.824898
 31
0.0
210
0.0
220
0.0
230
1.0
  0
LINE
  5
240
100
AcDbEntity
  8
0
370
    35
390
0
 62
     7
 48
0.00025
100
AcDbLine
 10
107.26738
 20
96.9049
 30
0.0
 11
107.26738
 21
96.894897
 31
0.0
210
0.0
220
0.0
230
1.0
  0
LINE
  5
241
100
AcDbEntity
  8
0
370
    35
390
0
 62
     7
 48
0.022
100
AcDbLine
 10
107.26738
 20
97.784897
 30
0.0
 11
107.26738
 21
96.9049
 31
0.0
210
0.0
220
0.0
230
1.0
  0
LINE
  5
242
100
AcDbEntity
  8
0
370
    35
390
0
 62
     7
 48
0.00025
100
AcDbLine
 10
107.26738
 20
97.794899
 30
0.0
 11
107.26738
 21
97.784897
 31
0.0
210
0.0
220
0.0
230
1.0
  0
LINE
  5
243
100
AcDbEntity
  8
0
370
    35
390
0
 62
     7
 48
0.0125
100
AcDbLine
 10
106.683983
 20
95.410507
 30
0.0
 11
106.683983
 21
94.910507
 31
0.0
210
0.0
220
0.0
230
1.0
  0
LINE
  5
244
100
AcDbEntity
  8
0
370
    35
390
0
 62
     7
 48
0.015
100
AcDbLine
 10
106.683983
 20
94.910507
 30
0.0
 11
107.283981
 21
94.910507
 31
0.0
210
0.0
220
0.0
230
1.0
  0
LINE
  5
245
100
AcDbEntity
  8
0
370
    35
390
0
 62
     7
 48
0.0125
100
AcDbLine
 10
107.283981
 20
94.910507
 30
0.0
 11
107.283981
 21
95.410507
 31
0.0
210
0.0
220
0.0
230
1.0
  0
LINE
  5
246
100
AcDbEntity
  8
0
370
    35
390
0
 62
     7
 48
0.015
100
AcDbLine
 10
107.283981
 20
95.410507
 30
0.0
 11
106.683983
 21
95.410507
 31
0.0
210
0.0
220
0.0
230
1.0
  0
LINE
  5
247
100
AcDbEntity
  8
0
370
    35
390
0
 62
     7
 48
0.0005
100
AcDbLine
 10
107.463982
 20
94.910507
 30
0.0
 11
107.483986
 21
94.910507
 31
0.0
210
0.0
220
0.0
230
1.0
  0
LINE
  5
248
100
AcDbEntity
  8
0
370
    35
390
0
 62
     7
 48
0.0045
100
AcDbLine
 10
107.283981
 20
94.910507
 30
0.0
 11
107.463982
 21
94.910507
 31
0.0
210
0.0
220
0.0
230
1.0
  0
LINE
  5
249
100
AcDbEntity
  8
0
370
    35
390
0
 62
     7
 48
0.0045
100
AcDbLine
 10
107.463982
 20
95.410507
 30
0.0
 11
107.283981
 21
95.410507
 31
0.0
210
0.0
220
0.0
230
1.0
  0
LINE
  5
24A
100
AcDbEntity
  8
0
370
    35
390
0
 62
     7
 48
0.0005
100
AcDbLine
 10
107.483986
 20
95.410507
 30
0.0
 11
107.463982
 21
95.410507
 31
0.0
210
0.0
220
0.0
230
1.0
  0
LINE
  5
24B
100
AcDbEntity
  8
0
370
    35
390
0
 62
     7
 48
0.0125
100
AcDbLine
 10
107.283981
 20
95.410507
 30
0.0
 11
107.283981
 21
94.910507
 31
0.0
210
0.0
220
0.0
230
1.0
  0
LINE
  5
24C
100
AcDbEntity
  8
0
370
    35
390
0
 62
     7
 48
0.0125
100
AcDbLine
 10
107.483986
 20
95.410507
 30
0.0
 11
107.483986
 21
94.910507
 31
0.0
210
0.0
220
0.0
230
1.0
  0
LINE
  5
24D
100
AcDbEntity
  8
0
370
    13
390
0
 62
     7
 48
0.0125
100
AcDbLine
 10
107.463982
 20
95.410507
 30
0.0
 11
107.463982
 21
94.910507
 31
0.0
210
0.0
220
0.0
230
1.0
  0
LINE
  5
24E
100
AcDbEntity
  8
0
370
    13
390
0
 62
     7
 48
0.0125
100
AcDbLine
 10
106.503983
 20
95.410507
 30
0.0
 11
106.503983
 21
94.910507
 31
0.0
210
0.0
220
0.0
230
1.0
  0
LINE
  5
24F
100
AcDbEntity
  8
0
370
    35
390
0
 62
     7
 48
0.0045
100
AcDbLine
 10
106.503983
 20
94.910507
 30
0.0
 11
106.683983
 21
94.910507
 31
0.0
210
0.0
220
0.0
230
1.0
  0
LINE
  5
250
100
AcDbEntity
  8
0
370
    35
390
0
 62
     7
 48
0.0125
100
AcDbLine
 10
106.683983
 20
94.910507
 30
0.0
 11
106.683983
 21
95.410507
 31
0.0
210
0.0
220
0.0
230
1.0
  0
LINE
  5
251
100
AcDbEntity
  8
0
370
    35
390
0
 62
     7
 48
0.0045
100
AcDbLine
 10
106.683983
 20
95.410507
 30
0.0
 11
106.503983
 21
95.410507
 31
0.0
210
0.0
220
0.0
230
1.0
  0
LINE
  5
252
100
AcDbEntity
  8
0
370
    35
390
0
 62
     7
 48
0.0005
100
AcDbLine
 10
106.503983
 20
95.410507
 30
0.0
 11
106.483986
 21
95.410507
 31
0.0
210
0.0
220
0.0
230
1.0
  0
LINE
  5
253
100
AcDbEntity
  8
0
370
    35
390
0
 62
     7
 48
0.0125
100
AcDbLine
 10
106.483986
 20
95.410507
 30
0.0
 11
106.483986
 21
94.910507
 31
0.0
210
0.0
220
0.0
230
1.0
  0
LINE
  5
254
100
AcDbEntity
  8
0
370
    35
390
0
 62
     7
 48
0.0005
100
AcDbLine
 10
106.483986
 20
94.910507
 30
0.0
 11
106.503983
 21
94.910507
 31
0.0
210
0.0
220
0.0
230
1.0
  0
LINE
  5
255
100
AcDbEntity
  8
0
370
    35
390
0
 62
     7
 48
0.00025
100
AcDbLine
 10
107.433983
 20
95.410507
 30
0.0
 11
107.423981
 21
95.410507
 31
0.0
210
0.0
220
0.0
230
1.0
  0
LINE
  5
256
100
AcDbEntity
  8
0
370
    35
390
0
 62
     7
 48
0.00025
100
AcDbLine
 10
106.543983
 20
95.410507
 30
0.0
 11
106.533981
 21
95.410507
 31
0.0
210
0.0
220
0.0
230
1.0
  0
LINE
  5
257
100
AcDbEntity
  8
0
370
    35
390
0
 62
     7
 48
0.022
100
AcDbLine
 10
107.423981
 20
95.410507
 30
0.0
 11
106.543983
 21
95.410507
 31
0.0
210
0.0
220
0.0
230
1.0
  0
LINE
  5
258
100
AcDbEntity
  8
0
370
    35
390
0
 62
     7
 48
0.0125
100
AcDbLine
 10
106.683983
 20
90.178101
 30
0.0
 11
106.683983
 21
89.678101
 31
0.0
210
0.0
220
0.0
230
1.0
  0
LINE
  5
259
100
AcDbEntity
  8
0
370
    35
390
0
 62
     7
 48
0.015
100
AcDbLine
 10
106.683983
 20
89.678101
 30
0.0
 11
107.283981
 21
89.678101
 31
0.0
210
0.0
220
0.0
230
1.0
  0
LINE
  5
25A
100
AcDbEntity
  8
0
370
    35
390
0
 62
     7
 48
0.0125
100
AcDbLine
 10
107.283981
 20
89.678101
 30
0.0
 11
107.283981
 21
90.178101
 31
0.0
210
0.0
220
0.0
230
1.0
  0
LINE
  5
25B
100
AcDbEntity
  8
0
370
    35
390
0
 62
     7
 48
0.015
100
AcDbLine
 10
107.283981
 20
90.178101
 30
0.0
 11
106.683983
 21
90.178101
 31
0.0
210
0.0
220
0.0
230
1.0
  0
LINE
  5
25C
100
AcDbEntity
  8
0
370
    35
390
0
 62
     7
 48
0.0005
100
AcDbLine
 10
107.463982
 20
89.678101
 30
0.0
 11
107.483986
 21
89.678101
 31
0.0
210
0.0
220
0.0
230
1.0
  0
LINE
  5
25D
100
AcDbEntity
  8
0
370
    35
390
0
 62
     7
 48
0.0045
100
AcDbLine
 10
107.283981
 20
89.678101
 30
0.0
 11
107.463982
 21
89.678101
 31
0.0
210
0.0
220
0.0
230
1.0
  0
LINE
  5
25E
100
AcDbEntity
  8
0
370
    35
390
0
 62
     7
 48
0.0045
100
AcDbLine
 10
107.463982
 20
90.178101
 30
0.0
 11
107.283981
 21
90.178101
 31
0.0
210
0.0
220
0.0
230
1.0
  0
LINE
  5
25F
100
AcDbEntity
  8
0
370
    35
390
0
 62
     7
 48
0.0005
100
AcDbLine
 10
107.483986
 20
90.178101
 30
0.0
 11
107.463982
 21
90.178101
 31
0.0
210
0.0
220
0.0
230
1.0
  0
LINE
  5
260
100
AcDbEntity
  8
0
370
    35
390
0
 62
     7
 48
0.0125
100
AcDbLine
 10
107.283981
 20
90.178101
 30
0.0
 11
107.283981
 21
89.678101
 31
0.0
210
0.0
220
0.0
230
1.0
  0
LINE
  5
261
100
AcDbEntity
  8
0
370
    35
390
0
 62
     7
 48
0.0125
100
AcDbLine
 10
107.483986
 20
90.178101
 30
0.0
 11
107.483986
 21
89.678101
 31
0.0
210
0.0
220
0.0
230
1.0
  0
LINE
  5
262
100
AcDbEntity
  8
0
370
    13
390
0
 62
     7
 48
0.0125
100
AcDbLine
 10
107.463982
 20
90.178101
 30
0.0
 11
107.463982
 21
89.678101
 31
0.0
210
0.0
220
0.0
230
1.0
  0
LINE
  5
263
100
AcDbEntity
  8
0
370
    13
390
0
 62
     7
 48
0.0125
100
AcDbLine
 10
106.503983
 20
90.178101
 30
0.0
 11
106.503983
 21
89.678101
 31
0.0
210
0.0
220
0.0
230
1.0
  0
LINE
  5
264
100
AcDbEntity
  8
0
370
    35
390
0
 62
     7
 48
0.0045
100
AcDbLine
 10
106.503983
 20
89.678101
 30
0.0
 11
106.683983
 21
89.678101
 31
0.0
210
0.0
220
0.0
230
1.0
  0
LINE
  5
265
100
AcDbEntity
  8
0
370
    35
390
0
 62
     7
 48
0.0125
100
AcDbLine
 10
106.683983
 20
89.678101
 30
0.0
 11
106.683983
 21
90.178101
 31
0.0
210
0.0
220
0.0
230
1.0
  0
LINE
  5
266
100
AcDbEntity
  8
0
370
    35
390
0
 62
     7
 48
0.0045
100
AcDbLine
 10
106.683983
 20
90.178101
 30
0.0
 11
106.503983
 21
90.178101
 31
0.0
210
0.0
220
0.0
230
1.0
  0
LINE
  5
267
100
AcDbEntity
  8
0
370
    35
390
0
 62
     7
 48
0.0005
100
AcDbLine
 10
106.503983
 20
90.178101
 30
0.0
 11
106.483986
 21
90.178101
 31
0.0
210
0.0
220
0.0
230
1.0
  0
LINE
  5
268
100
AcDbEntity
  8
0
370
    35
390
0
 62
     7
 48
0.0125
100
AcDbLine
 10
106.483986
 20
90.178101
 30
0.0
 11
106.483986
 21
89.678101
 31
0.0
210
0.0
220
0.0
230
1.0
  0
LINE
  5
269
100
AcDbEntity
  8
0
370
    35
390
0
 62
     7
 48
0.0005
100
AcDbLine
 10
106.483986
 20
89.678101
 30
0.0
 11
106.503983
 21
89.678101
 31
0.0
210
0.0
220
0.0
230
1.0
  0
LINE
  5
26A
100
AcDbEntity
  8
0
370
    35
390
0
 62
     7
 48
0.00025
100
AcDbLine
 10
107.433983
 20
90.178101
 30
0.0
 11
107.423981
 21
90.178101
 31
0.0
210
0.0
220
0.0
230
1.0
  0
LINE
  5
26B
100
AcDbEntity
  8
0
370
    35
390
0
 62
     7
 48
0.00025
100
AcDbLine
 10
106.543983
 20
90.178101
 30
0.0
 11
106.533981
 21
90.178101
 31
0.0
210
0.0
220
0.0
230
1.0
  0
LINE
  5
26C
100
AcDbEntity
  8
0
370
    35
390
0
 62
     7
 48
0.022
100
AcDbLine
 10
107.423981
 20
90.178101
 30
0.0
 11
106.543983
 21
90.178101
 31
0.0
210
0.0
220
0.0
230
1.0
  0
LINE
  5
26D
100
AcDbEntity
  8
0
370
    35
390
0
 62
     7
 48
0.03125
100
AcDbLine
 10
120.334984
 20
77.766495
 30
0.0
 11
120.334984
 21
79.016495
 31
0.0
210
0.0
220
0.0
230
1.0
  0
LINE
  5
26E
100
AcDbEntity
  8
0
370
    35
390
0
 62
     7
 48
0.0095
100
AcDbLine
 10
120.734985
 20
77.766495
 30
0.0
 11
120.35498
 21
77.766495
 31
0.0
210
0.0
220
0.0
230
1.0
  0
LINE
  5
26F
100
AcDbEntity
  8
0
370
    35
390
0
 62
     7
 48
0.0005
100
AcDbLine
 10
120.35498
 20
77.766495
 30
0.0
 11
120.334984
 21
77.766495
 31
0.0
210
0.0
220
0.0
230
1.0
  0
LINE
  5
270
100
AcDbEntity
  8
0
370
    13
390
0
 62
     7
 48
0.03125
100
AcDbLine
 10
120.35498
 20
77.766495
 30
0.0
 11
120.35498
 21
79.016495
 31
0.0
210
0.0
220
0.0
230
1.0
  0
LINE
  5
271
100
AcDbEntity
  8
0
370
    35
390
0
 62
     7
 48
0.0005
100
AcDbLine
 10
120.334984
 20
79.016495
 30
0.0
 11
120.35498
 21
79.016495
 31
0.0
210
0.0
220
0.0
230
1.0
  0
LINE
  5
272
100
AcDbEntity
  8
0
370
    35
390
0
 62
     7
 48
0.0095
100
AcDbLine
 10
120.35498
 20
79.016495
 30
0.0
 11
120.734985
 21
79.016495
 31
0.0
210
0.0
220
0.0
230
1.0
  0
LINE
  5
273
100
AcDbEntity
  8
0
370
    35
390
0
 62
     7
 48
0.03125
100
AcDbLine
 10
120.734985
 20
77.766495
 30
0.0
 11
120.734985
 21
79.016495
 31
0.0
210
0.0
220
0.0
230
1.0
  0
LINE
  5
274
100
AcDbEntity
  8
0
370
    35
390
0
 62
     7
 48
0.03125
100
AcDbLine
 10
122.334984
 20
79.016495
 30
0.0
 11
122.334984
 21
77.766495
 31
0.0
210
0.0
220
0.0
230
1.0
  0
LINE
  5
275
100
AcDbEntity
  8
0
370
    35
390
0
 62
     7
 48
0.0095
100
AcDbLine
 10
121.934982
 20
79.016495
 30
0.0
 11
122.314987
 21
79.016495
 31
0.0
210
0.0
220
0.0
230
1.0
  0
LINE
  5
276
100
AcDbEntity
  8
0
370
    35
390
0
 62
     7
 48
0.0005
100
AcDbLine
 10
122.314987
 20
79.016495
 30
0.0
 11
122.334984
 21
79.016495
 31
0.0
210
0.0
220
0.0
230
1.0
  0
LINE
  5
277
100
AcDbEntity
  8
0
370
    13
390
0
 62
     7
 48
0.03125
100
AcDbLine
 10
122.314987
 20
79.016495
 30
0.0
 11
122.314987
 21
77.766495
 31
0.0
210
0.0
220
0.0
230
1.0
  0
LINE
  5
278
100
AcDbEntity
  8
0
370
    35
390
0
 62
     7
 48
0.0005
100
AcDbLine
 10
122.334984
 20
77.766495
 30
0.0
 11
122.314987
 21
77.766495
 31
0.0
210
0.0
220
0.0
230
1.0
  0
LINE
  5
279
100
AcDbEntity
  8
0
370
    35
390
0
 62
     7
 48
0.0095
100
AcDbLine
 10
122.314987
 20
77.766495
 30
0.0
 11
121.934982
 21
77.766495
 31
0.0
210
0.0
220
0.0
230
1.0
  0
LINE
  5
27A
100
AcDbEntity
  8
0
370
    35
390
0
 62
     7
 48
0.03125
100
AcDbLine
 10
121.934982
 20
79.016495
 30
0.0
 11
121.934982
 21
77.766495
 31
0.0
210
0.0
220
0.0
230
1.0
  0
LINE
  5
27B
100
AcDbEntity
  8
0
370
    35
390
0
 62
     7
 48
0.03
100
AcDbLine
 10
121.934982
 20
79.016495
 30
0.0
 11
120.734985
 21
79.016495
 31
0.0
210
0.0
220
0.0
230
1.0
  0
LINE
  5
27C
100
AcDbEntity
  8
0
370
    35
390
0
 62
     7
 48
0.03125
100
AcDbLine
 10
120.734985
 20
79.016495
 30
0.0
 11
120.734985
 21
77.766495
 31
0.0
210
0.0
220
0.0
230
1.0
  0
LINE
  5
27D
100
AcDbEntity
  8
0
370
    35
390
0
 62
     7
 48
0.03
100
AcDbLine
 10
120.734985
 20
77.766495
 30
0.0
 11
121.934982
 21
77.766495
 31
0.0
210
0.0
220
0.0
230
1.0
  0
LINE
  5
27E
100
AcDbEntity
  8
0
370
    35
390
0
 62
     7
 48
0.03125
100
AcDbLine
 10
121.934982
 20
77.766495
 30
0.0
 11
121.934982
 21
79.016495
 31
0.0
210
0.0
220
0.0
230
1.0
  0
LINE
  5
27F
100
AcDbEntity
  8
0
370
    35
390
0
 62
     7
 48
0.047
100
AcDbLine
 10
120.394981
 20
79.016495
 30
0.0
 11
122.274986
 21
79.016495
 31
0.0
210
0.0
220
0.0
230
1.0
  0
LINE
  5
280
100
AcDbEntity
  8
0
370
    35
390
0
 62
     7
 48
0.00025
100
AcDbLine
 10
122.284988
 20
79.016495
 30
0.0
 11
122.274986
 21
79.016495
 31
0.0
210
0.0
220
0.0
230
1.0
  0
LINE
  5
281
100
AcDbEntity
  8
0
370
    35
390
0
 62
     7
 48
0.00025
100
AcDbLine
 10
120.394981
 20
79.016495
 30
0.0
 11
120.384987
 21
79.016495
 31
0.0
210
0.0
220
0.0
230
1.0
  0
LINE
  5
282
100
AcDbEntity
  8
0
370
    35
390
0
 62
     7
 48
0.03125
100
AcDbLine
 10
120.334984
 20
79.214294
 30
0.0
 11
120.334984
 21
80.464294
 31
0.0
210
0.0
220
0.0
230
1.0
  0
LINE
  5
283
100
AcDbEntity
  8
0
370
    35
390
0
 62
     7
 48
0.0095
100
AcDbLine
 10
120.734985
 20
79.214294
 30
0.0
 11
120.35498
 21
79.214294
 31
0.0
210
0.0
220
0.0
230
1.0
  0
LINE
  5
284
100
AcDbEntity
  8
0
370
    35
390
0
 62
     7
 48
0.0005
100
AcDbLine
 10
120.35498
 20
79.214294
 30
0.0
 11
120.334984
 21
79.214294
 31
0.0
210
0.0
220
0.0
230
1.0
  0
LINE
  5
285
100
AcDbEntity
  8
0
370
    13
390
0
 62
     7
 48
0.03125
100
AcDbLine
 10
120.35498
 20
79.214294
 30
0.0
 11
120.35498
 21
80.464294
 31
0.0
210
0.0
220
0.0
230
1.0
  0
LINE
  5
286
100
AcDbEntity
  8
0
370
    35
390
0
 62
     7
 48
0.0005
100
AcDbLine
 10
120.334984
 20
80.464294
 30
0.0
 11
120.35498
 21
80.464294
 31
0.0
210
0.0
220
0.0
230
1.0
  0
LINE
  5
287
100
AcDbEntity
  8
0
370
    35
390
0
 62
     7
 48
0.0095
100
AcDbLine
 10
120.35498
 20
80.464294
 30
0.0
 11
120.734985
 21
80.464294
 31
0.0
210
0.0
220
0.0
230
1.0
  0
LINE
  5
288
100
AcDbEntity
  8
0
370
    35
390
0
 62
     7
 48
0.03125
100
AcDbLine
 10
120.734985
 20
79.214294
 30
0.0
 11
120.734985
 21
80.464294
 31
0.0
210
0.0
220
0.0
230
1.0
  0
LINE
  5
289
100
AcDbEntity
  8
0
370
    35
390
0
 62
     7
 48
0.03125
100
AcDbLine
 10
122.334984
 20
80.464294
 30
0.0
 11
122.334984
 21
79.214294
 31
0.0
210
0.0
220
0.0
230
1.0
  0
LINE
  5
28A
100
AcDbEntity
  8
0
370
    35
390
0
 62
     7
 48
0.0095
100
AcDbLine
 10
121.934982
 20
80.464294
 30
0.0
 11
122.314987
 21
80.464294
 31
0.0
210
0.0
220
0.0
230
1.0
  0
LINE
  5
28B
100
AcDbEntity
  8
0
370
    35
390
0
 62
     7
 48
0.0005
100
AcDbLine
 10
122.314987
 20
80.464294
 30
0.0
 11
122.334984
 21
80.464294
 31
0.0
210
0.0
220
0.0
230
1.0
  0
LINE
  5
28C
100
AcDbEntity
  8
0
370
    13
390
0
 62
     7
 48
0.03125
100
AcDbLine
 10
122.314987
 20
80.464294
 30
0.0
 11
122.314987
 21
79.214294
 31
0.0
210
0.0
220
0.0
230
1.0
  0
LINE
  5
28D
100
AcDbEntity
  8
0
370
    35
390
0
 62
     7
 48
0.0005
100
AcDbLine
 10
122.334984
 20
79.214294
 30
0.0
 11
122.314987
 21
79.214294
 31
0.0
210
0.0
220
0.0
230
1.0
  0
LINE
  5
28E
100
AcDbEntity
  8
0
370
    35
390
0
 62
     7
 48
0.0095
100
AcDbLine
 10
122.314987
 20
79.214294
 30
0.0
 11
121.934982
 21
79.214294
 31
0.0
210
0.0
220
0.0
230
1.0
  0
LINE
  5
28F
100
AcDbEntity
  8
0
370
    35
390
0
 62
     7
 48
0.03125
100
AcDbLine
 10
121.934982
 20
80.464294
 30
0.0
 11
121.934982
 21
79.214294
 31
0.0
210
0.0
220
0.0
230
1.0
  0
LINE
  5
290
100
AcDbEntity
  8
0
370
    35
390
0
 62
     7
 48
0.03
100
AcDbLine
 10
121.934982
 20
80.464294
 30
0.0
 11
120.734985
 21
80.464294
 31
0.0
210
0.0
220
0.0
230
1.0
  0
LINE
  5
291
100
AcDbEntity
  8
0
370
    35
390
0
 62
     7
 48
0.03125
100
AcDbLine
 10
120.734985
 20
80.464294
 30
0.0
 11
120.734985
 21
79.214294
 31
0.0
210
0.0
220
0.0
230
1.0
  0
LINE
  5
292
100
AcDbEntity
  8
0
370
    35
390
0
 62
     7
 48
0.03
100
AcDbLine
 10
120.734985
 20
79.214294
 30
0.0
 11
121.934982
 21
79.214294
 31
0.0
210
0.0
220
0.0
230
1.0
  0
LINE
  5
293
100
AcDbEntity
  8
0
370
    35
390
0
 62
     7
 48
0.03125
100
AcDbLine
 10
121.934982
 20
79.214294
 30
0.0
 11
121.934982
 21
80.464294
 31
0.0
210
0.0
220
0.0
230
1.0
  0
LINE
  5
294
100
AcDbEntity
  8
0
370
    35
390
0
 62
     7
 48
0.047
100
AcDbLine
 10
120.394981
 20
80.464294
 30
0.0
 11
122.274986
 21
80.464294
 31
0.0
210
0.0
220
0.0
230
1.0
  0
LINE
  5
295
100
AcDbEntity
  8
0
370
    35
390
0
 62
     7
 48
0.00025
100
AcDbLine
 10
122.284988
 20
80.464294
 30
0.0
 11
122.274986
 21
80.464294
 31
0.0
210
0.0
220
0.0
230
1.0
  0
LINE
  5
296
100
AcDbEntity
  8
0
370
    35
390
0
 62
     7
 48
0.00025
100
AcDbLine
 10
120.394981
 20
80.464294
 30
0.0
 11
120.384987
 21
80.464294
 31
0.0
210
0.0
220
0.0
230
1.0
  0
LINE
  5
297
100
AcDbEntity
  8
0
370
    35
390
0
 62
     7
 48
0.03125
100
AcDbLine
 10
106.851982
 20
96.344902
 30
0.0
 11
105.601982
 21
96.344902
 31
0.0
210
0.0
220
0.0
230
1.0
  0
LINE
  5
298
100
AcDbEntity
  8
0
370
    35
390
0
 62
     7
 48
0.0095
100
AcDbLine
 10
106.851982
 20
96.744904
 30
0.0
 11
106.851982
 21
96.364906
 31
0.0
210
0.0
220
0.0
230
1.0
  0
LINE
  5
299
100
AcDbEntity
  8
0
370
    35
390
0
 62
     7
 48
0.0005
100
AcDbLine
 10
106.851982
 20
96.364906
 30
0.0
 11
106.851982
 21
96.344902
 31
0.0
210
0.0
220
0.0
230
1.0
  0
LINE
  5
29A
100
AcDbEntity
  8
0
370
    13
390
0
 62
     7
 48
0.03125
100
AcDbLine
 10
106.851982
 20
96.364906
 30
0.0
 11
105.601982
 21
96.364906
 31
0.0
210
0.0
220
0.0
230
1.0
  0
LINE
  5
29B
100
AcDbEntity
  8
0
370
    35
390
0
 62
     7
 48
0.0005
100
AcDbLine
 10
105.601982
 20
96.344902
 30
0.0
 11
105.601982
 21
96.364906
 31
0.0
210
0.0
220
0.0
230
1.0
  0
LINE
  5
29C
100
AcDbEntity
  8
0
370
    35
390
0
 62
     7
 48
0.0095
100
AcDbLine
 10
105.601982
 20
96.364906
 30
0.0
 11
105.601982
 21
96.744904
 31
0.0
210
0.0
220
0.0
230
1.0
  0
LINE
  5
29D
100
AcDbEntity
  8
0
370
    35
390
0
 62
     7
 48
0.03125
100
AcDbLine
 10
106.851982
 20
96.744904
 30
0.0
 11
105.601982
 21
96.744904
 31
0.0
210
0.0
220
0.0
230
1.0
  0
LINE
  5
29E
100
AcDbEntity
  8
0
370
    35
390
0
 62
     7
 48
0.03125
100
AcDbLine
 10
105.601982
 20
98.344902
 30
0.0
 11
106.851982
 21
98.344902
 31
0.0
210
0.0
220
0.0
230
1.0
  0
LINE
  5
29F
100
AcDbEntity
  8
0
370
    35
390
0
 62
     7
 48
0.0095
100
AcDbLine
 10
105.601982
 20
97.944901
 30
0.0
 11
105.601982
 21
98.324905
 31
0.0
210
0.0
220
0.0
230
1.0
  0
LINE
  5
2A0
100
AcDbEntity
  8
0
370
    35
390
0
 62
     7
 48
0.0005
100
AcDbLine
 10
105.601982
 20
98.324905
 30
0.0
 11
105.601982
 21
98.344902
 31
0.0
210
0.0
220
0.0
230
1.0
  0
LINE
  5
2A1
100
AcDbEntity
  8
0
370
    13
390
0
 62
     7
 48
0.03125
100
AcDbLine
 10
105.601982
 20
98.324905
 30
0.0
 11
106.851982
 21
98.324905
 31
0.0
210
0.0
220
0.0
230
1.0
  0
LINE
  5
2A2
100
AcDbEntity
  8
0
370
    35
390
0
 62
     7
 48
0.0005
100
AcDbLine
 10
106.851982
 20
98.344902
 30
0.0
 11
106.851982
 21
98.324905
 31
0.0
210
0.0
220
0.0
230
1.0
  0
LINE
  5
2A3
100
AcDbEntity
  8
0
370
    35
390
0
 62
     7
 48
0.0095
100
AcDbLine
 10
106.851982
 20
98.324905
 30
0.0
 11
106.851982
 21
97.944901
 31
0.0
210
0.0
220
0.0
230
1.0
  0
LINE
  5
2A4
100
AcDbEntity
  8
0
370
    35
390
0
 62
     7
 48
0.03125
100
AcDbLine
 10
105.601982
 20
97.944901
 30
0.0
 11
106.851982
 21
97.944901
 31
0.0
210
0.0
220
0.0
230
1.0
  0
LINE
  5
2A5
100
AcDbEntity
  8
0
370
    35
390
0
 62
     7
 48
0.03
100
AcDbLine
 10
105.601982
 20
97.944901
 30
0.0
 11
105.601982
 21
96.744904
 31
0.0
210
0.0
220
0.0
230
1.0
  0
LINE
  5
2A6
100
AcDbEntity
  8
0
370
    35
390
0
 62
     7
 48
0.03125
100
AcDbLine
 10
105.601982
 20
96.744904
 30
0.0
 11
106.851982
 21
96.744904
 31
0.0
210
0.0
220
0.0
230
1.0
  0
LINE
  5
2A7
100
AcDbEntity
  8
0
370
    35
390
0
 62
     7
 48
0.03
100
AcDbLine
 10
106.851982
 20
96.744904
 30
0.0
 11
106.851982
 21
97.944901
 31
0.0
210
0.0
220
0.0
230
1.0
  0
LINE
  5
2A8
100
AcDbEntity
  8
0
370
    35
390
0
 62
     7
 48
0.03125
100
AcDbLine
 10
106.851982
 20
97.944901
 30
0.0
 11
105.601982
 21
97.944901
 31
0.0
210
0.0
220
0.0
230
1.0
  0
LINE
  5
2A9
100
AcDbEntity
  8
0
370
    35
390
0
 62
     7
 48
0.047
100
AcDbLine
 10
105.601982
 20
96.404907
 30
0.0
 11
105.601982
 21
98.284904
 31
0.0
210
0.0
220
0.0
230
1.0
  0
LINE
  5
2AA
100
AcDbEntity
  8
0
370
    35
390
0
 62
     7
 48
0.00025
100
AcDbLine
 10
105.601982
 20
98.294907
 30
0.0
 11
105.601982
 21
98.284904
 31
0.0
210
0.0
220
0.0
230
1.0
  0
LINE
  5
2AB
100
AcDbEntity
  8
0
370
    35
390
0
 62
     7
 48
0.00025
100
AcDbLine
 10
105.601982
 20
96.404907
 30
0.0
 11
105.601982
 21
96.394905
 31
0.0
210
0.0
220
0.0
230
1.0
  0
LINE
  5
2AC
100
AcDbEntity
  8
0
370
    35
390
0
 62
     7
 48
0.4
100
AcDbLine
 10
120.152382
 20
86.346695
 30
0.0
 11
120.152382
 21
102.346695
 31
0.0
210
0.0
220
0.0
230
1.0
  0
LINE
  5
2AD
100
AcDbEntity
  8
0
370
    35
390
0
 62
     7
 48
0.3
100
AcDbLine
 10
108.152382
 20
86.346695
 30
0.0
 11
120.152382
 21
86.346695
 31
0.0
210
0.0
220
0.0
230
1.0
  0
LINE
  5
2AE
100
AcDbEntity
  8
0
370
    35
390
0
 62
     7
 48
0.4
100
AcDbLine
 10
108.152382
 20
102.346695
 30
0.0
 11
108.152382
 21
86.346695
 31
0.0
210
0.0
220
0.0
230
1.0
  0
LINE
  5
2AF
100
AcDbEntity
  8
0
370
    35
390
0
 62
     7
 48
0.3
100
AcDbLine
 10
120.152382
 20
102.346695
 30
0.0
 11
108.152382
 21
102.346695
 31
0.0
210
0.0
220
0.0
230
1.0
  0
LINE
  5
2B0
100
AcDbEntity
  8
0
370
    35
390
0
 62
     7
 48
0.04
100
AcDbLine
 10
115.302383
 20
101.946693
 30
0.0
 11
115.302383
 21
100.346695
 31
0.0
210
0.0
220
0.0
230
1.0
  0
LINE
  5
2B1
100
AcDbEntity
  8
0
370
    35
390
0
 62
     7
 48
0.08
100
AcDbLine
 10
118.50238
 20
101.946693
 30
0.0
 11
115.302383
 21
101.946693
 31
0.0
210
0.0
220
0.0
230
1.0
  0
LINE
  5
2B2
100
AcDbEntity
  8
0
370
    35
390
0
 62
     7
 48
0.04
100
AcDbLine
 10
118.50238
 20
100.346695
 30
0.0
 11
118.50238
 21
101.946693
 31
0.0
210
0.0
220
0.0
230
1.0
  0
LINE
  5
2B3
100
AcDbEntity
  8
0
370
    35
390
0
 62
     7
 48
0.08
100
AcDbLine
 10
115.302383
 20
100.346695
 30
0.0
 11
118.50238
 21
100.346695
 31
0.0
210
0.0
220
0.0
230
1.0
  0
LINE
  5
2B4
100
AcDbEntity
  8
0
370
    35
390
0
 62
     7
 48
0.01
100
AcDbLine
 10
113.027382
 20
100.146698
 30
0.0
 11
113.027382
 21
99.746696
 31
0.0
210
0.0
220
0.0
230
1.0
  0
LINE
  5
2B5
100
AcDbEntity
  8
0
370
    35
390
0
 62
     7
 48
0.014375
100
AcDbLine
 10
113.027382
 20
99.746696
 30
0.0
 11
112.452385
 21
99.746696
 31
0.0
210
0.0
220
0.0
230
1.0
  0
LINE
  5
2B6
100
AcDbEntity
  8
0
370
    35
390
0
 62
     7
 48
0.01
100
AcDbLine
 10
112.452385
 20
99.746696
 30
0.0
 11
112.452385
 21
100.146698
 31
0.0
210
0.0
220
0.0
230
1.0
  0
LINE
  5
2B7
100
AcDbEntity
  8
0
370
    35
390
0
 62
     7
 48
0.014375
100
AcDbLine
 10
112.452385
 20
100.146698
 30
0.0
 11
113.027382
 21
100.146698
 31
0.0
210
0.0
220
0.0
230
1.0
  0
LINE
  5
2B8
100
AcDbEntity
  8
0
370
    35
390
0
 62
     7
 48
0.01
100
AcDbLine
 10
113.027382
 20
98.546692
 30
0.0
 11
113.027382
 21
98.146698
 31
0.0
210
0.0
220
0.0
230
1.0
  0
LINE
  5
2B9
100
AcDbEntity
  8
0
370
    35
390
0
 62
     7
 48
0.014375
100
AcDbLine
 10
113.027382
 20
98.146698
 30
0.0
 11
112.452385
 21
98.146698
 31
0.0
210
0.0
220
0.0
230
1.0
  0
LINE
  5
2BA
100
AcDbEntity
  8
0
370
    35
390
0
 62
     7
 48
0.01
100
AcDbLine
 10
112.452385
 20
98.146698
 30
0.0
 11
112.452385
 21
98.546692
 31
0.0
210
0.0
220
0.0
230
1.0
  0
LINE
  5
2BB
100
AcDbEntity
  8
0
370
    35
390
0
 62
     7
 48
0.014375
100
AcDbLine
 10
112.452385
 20
98.546692
 30
0.0
 11
113.027382
 21
98.546692
 31
0.0
210
0.0
220
0.0
230
1.0
  0
LINE
  5
2BC
100
AcDbEntity
  8
0
370
    35
390
0
 62
     7
 48
0.00762
100
AcDbLine
 10
112.949982
 20
99.451492
 30
0.0
 11
113.254784
 21
99.451492
 31
0.0
210
0.0
220
0.0
230
1.0
  0
LINE
  5
2BD
100
AcDbEntity
  8
0
370
    35
390
0
 62
     7
 48
0.01524
100
AcDbLine
 10
113.254784
 20
99.451492
 30
0.0
 11
113.254784
 21
98.841896
 31
0.0
210
0.0
220
0.0
230
1.0
  0
LINE
  5
2BE
100
AcDbEntity
  8
0
370
    35
390
0
 62
     7
 48
0.00762
100
AcDbLine
 10
113.254784
 20
98.841896
 30
0.0
 11
112.949982
 21
98.841896
 31
0.0
210
0.0
220
0.0
230
1.0
  0
LINE
  5
2BF
100
AcDbEntity
  8
0
370
    35
390
0
 62
     7
 48
0.01524
100
AcDbLine
 10
112.949982
 20
98.841896
 30
0.0
 11
112.949982
 21
99.451492
 31
0.0
210
0.0
220
0.0
230
1.0
  0
LINE
  5
2C0
100
AcDbEntity
  8
0
370
    35
390
0
 62
     7
 48
0.274405
100
AcDbLine
 10
108.156967
 20
86.790291
 30
0.0
 11
108.156967
 21
97.766495
 31
0.0
210
0.0
220
0.0
230
1.0
  0
LINE
  5
2C1
100
AcDbEntity
  8
0
370
    35
390
0
 62
     7
 48
0.29971
100
AcDbLine
 10
108.156967
 20
97.766495
 30
0.0
 11
120.145386
 21
97.766495
 31
0.0
210
0.0
220
0.0
230
1.0
  0
LINE
  5
2C2
100
AcDbEntity
  8
0
370
    35
390
0
 62
     7
 48
0.274405
100
AcDbLine
 10
120.145386
 20
97.766495
 30
0.0
 11
120.145386
 21
86.790291
 31
0.0
210
0.0
220
0.0
230
1.0
  0
LINE
  5
2C3
100
AcDbEntity
  8
0
370
    35
390
0
 62
     7
 48
0.29971
100
AcDbLine
 10
120.145386
 20
86.790291
 30
0.0
 11
108.156967
 21
86.790291
 31
0.0
210
0.0
220
0.0
230
1.0
  0
LINE
  5
2C4
100
AcDbEntity
  8
0
370
    35
390
0
 62
     7
 48
0.04
100
AcDbLine
 10
119.430176
 20
82.0541
 30
0.0
 11
121.030182
 21
82.0541
 31
0.0
210
0.0
220
0.0
230
1.0
  0
LINE
  5
2C5
100
AcDbEntity
  8
0
370
    35
390
0
 62
     7
 48
0.02
100
AcDbLine
 10
121.030182
 20
82.0541
 30
0.0
 11
121.030182
 21
82.854103
 31
0.0
210
0.0
220
0.0
230
1.0
  0
LINE
  5
2C6
100
AcDbEntity
  8
0
370
    35
390
0
 62
     7
 48
0.04
100
AcDbLine
 10
121.030182
 20
82.854103
 30
0.0
 11
119.430176
 21
82.854103
 31
0.0
210
0.0
220
0.0
230
1.0
  0
LINE
  5
2C7
100
AcDbEntity
  8
0
370
    35
390
0
 62
     7
 48
0.02
100
AcDbLine
 10
119.430176
 20
82.854103
 30
0.0
 11
119.430176
 21
82.0541
 31
0.0
210
0.0
220
0.0
230
1.0
  0
LINE
  5
2C8
100
AcDbEntity
  8
0
370
    35
390
0
 62
     7
 48
0.007615
100
AcDbLine
 10
119.937973
 20
82.0541
 30
0.0
 11
119.937973
 21
81.749512
 31
0.0
210
0.0
220
0.0
230
1.0
  0
LINE
  5
2C9
100
AcDbEntity
  8
0
370
    35
390
0
 62
     7
 48
0.01016
100
AcDbLine
 10
119.937973
 20
81.749512
 30
0.0
 11
119.531578
 21
81.749512
 31
0.0
210
0.0
220
0.0
230
1.0
  0
LINE
  5
2CA
100
AcDbEntity
  8
0
370
    35
390
0
 62
     7
 48
0.007625
100
AcDbLine
 10
119.531578
 20
81.749512
 30
0.0
 11
119.531578
 21
82.054504
 31
0.0
210
0.0
220
0.0
230
1.0
  0
LINE
  5
2CB
100
AcDbEntity
  8
0
370
    35
390
0
 62
     7
 48
0.007615
100
AcDbLine
 10
120.928574
 20
82.0541
 30
0.0
 11
120.928574
 21
81.749512
 31
0.0
210
0.0
220
0.0
230
1.0
  0
LINE
  5
2CC
100
AcDbEntity
  8
0
370
    35
390
0
 62
     7
 48
0.01016
100
AcDbLine
 10
120.928574
 20
81.749512
 30
0.0
 11
120.522179
 21
81.749512
 31
0.0
210
0.0
220
0.0
230
1.0
  0
LINE
  5
2CD
100
AcDbEntity
  8
0
370
    35
390
0
 62
     7
 48
0.007625
100
AcDbLine
 10
120.522179
 20
81.749512
 30
0.0
 11
120.522179
 21
82.054504
 31
0.0
210
0.0
220
0.0
230
1.0
  0
LINE
  5
2CE
100
AcDbEntity
  8
0
370
    35
390
0
 62
     7
 48
0.01016
100
AcDbLine
 10
120.039574
 20
83.158691
 30
0.0
 11
120.445976
 21
83.158295
 31
0.0
210
0.0
220
0.0
230
1.0
  0
LINE
  5
2CF
100
AcDbEntity
  8
0
370
    35
390
0
 62
     7
 48
0.007615
100
AcDbLine
 10
120.445976
 20
83.158295
 30
0.0
 11
120.445976
 21
82.853706
 31
0.0
210
0.0
220
0.0
230
1.0
  0
LINE
  5
2D0
100
AcDbEntity
  8
0
370
    35
390
0
 62
     7
 48
0.007625
100
AcDbLine
 10
120.039574
 20
82.853706
 30
0.0
 11
120.039574
 21
83.158691
 31
0.0
210
0.0
220
0.0
230
1.0
  0
LINE
  5
2D1
100
AcDbEntity
  8
0
370
    35
390
0
 62
     7
 48
0.007615
100
AcDbLine
 10
121.004776
 20
75.9963
 30
0.0
 11
121.004776
 21
75.691711
 31
0.0
210
0.0
220
0.0
230
1.0
  0
LINE
  5
2D2
100
AcDbEntity
  8
0
370
    35
390
0
 62
     7
 48
0.01016
100
AcDbLine
 10
121.004776
 20
75.691711
 30
0.0
 11
120.598381
 21
75.691711
 31
0.0
210
0.0
220
0.0
230
1.0
  0
LINE
  5
2D3
100
AcDbEntity
  8
0
370
    35
390
0
 62
     7
 48
0.007625
100
AcDbLine
 10
120.598381
 20
75.691711
 30
0.0
 11
120.598381
 21
75.996696
 31
0.0
210
0.0
220
0.0
230
1.0
  0
LINE
  5
2D4
100
AcDbEntity
  8
0
370
    35
390
0
 62
     7
 48
0.01016
100
AcDbLine
 10
120.115776
 20
77.100891
 30
0.0
 11
120.522179
 21
77.100494
 31
0.0
210
0.0
220
0.0
230
1.0
  0
LINE
  5
2D5
100
AcDbEntity
  8
0
370
    35
390
0
 62
     7
 48
0.007615
100
AcDbLine
 10
120.522179
 20
77.100494
 30
0.0
 11
120.522179
 21
76.795906
 31
0.0
210
0.0
220
0.0
230
1.0
  0
LINE
  5
2D6
100
AcDbEntity
  8
0
370
    35
390
0
 62
     7
 48
0.007625
100
AcDbLine
 10
120.115776
 20
76.795906
 30
0.0
 11
120.115776
 21
77.100891
 31
0.0
210
0.0
220
0.0
230
1.0
  0
LINE
  5
2D7
100
AcDbEntity
  8
0
370
    35
390
0
 62
     7
 48
0.01016
100
AcDbLine
 10
121.106377
 20
77.100891
 30
0.0
 11
121.512779
 21
77.100494
 31
0.0
210
0.0
220
0.0
230
1.0
  0
LINE
  5
2D8
100
AcDbEntity
  8
0
370
    35
390
0
 62
     7
 48
0.007615
100
AcDbLine
 10
121.512779
 20
77.100494
 30
0.0
 11
121.512779
 21
76.795906
 31
0.0
210
0.0
220
0.0
230
1.0
  0
LINE
  5
2D9
100
AcDbEntity
  8
0
370
    35
390
0
 62
     7
 48
0.007625
100
AcDbLine
 10
121.106377
 20
76.795906
 30
0.0
 11
121.106377
 21
77.100891
 31
0.0
210
0.0
220
0.0
230
1.0
  0
LINE
  5
2DA
100
AcDbEntity
  8
0
370
    35
390
0
 62
     7
 48
0.04
100
AcDbLine
 10
120.014175
 20
75.9963
 30
0.0
 11
121.614182
 21
75.9963
 31
0.0
210
0.0
220
0.0
230
1.0
  0
LINE
  5
2DB
100
AcDbEntity
  8
0
370
    35
390
0
 62
     7
 48
0.02
100
AcDbLine
 10
121.614182
 20
75.9963
 30
0.0
 11
121.614182
 21
76.796303
 31
0.0
210
0.0
220
0.0
230
1.0
  0
LINE
  5
2DC
100
AcDbEntity
  8
0
370
    35
390
0
 62
     7
 48
0.04
100
AcDbLine
 10
121.614182
 20
76.796303
 30
0.0
 11
120.014175
 21
76.796303
 31
0.0
210
0.0
220
0.0
230
1.0
  0
LINE
  5
2DD
100
AcDbEntity
  8
0
370
    35
390
0
 62
     7
 48
0.02
100
AcDbLine
 10
120.014175
 20
76.796303
 30
0.0
 11
120.014175
 21
75.9963
 31
0.0
210
0.0
220
0.0
230
1.0
  0
LINE
  5
2DE
100
AcDbEntity
  8
0
370
    35
390
0
 62
     7
 48
0.07492
100
AcDbLine
 10
109.574776
 20
81.419098
 30
0.0
 11
109.574776
 21
78.422302
 31
0.0
210
0.0
220
0.0
230
1.0
  0
LINE
  5
2DF
100
AcDbEntity
  8
0
370
    35
390
0
 62
     7
 48
0.0254
100
AcDbLine
 10
109.574776
 20
81.419098
 30
0.0
 11
110.590782
 21
81.419098
 31
0.0
210
0.0
220
0.0
230
1.0
  0
LINE
  5
2E0
100
AcDbEntity
  8
0
370
    35
390
0
 62
     7
 48
0.07492
100
AcDbLine
 10
110.590782
 20
78.422302
 30
0.0
 11
110.590782
 21
81.419098
 31
0.0
210
0.0
220
0.0
230
1.0
  0
LINE
  5
2E1
100
AcDbEntity
  8
0
370
    35
390
0
 62
     7
 48
0.0254
100
AcDbLine
 10
109.574776
 20
78.422302
 30
0.0
 11
110.590782
 21
78.422302
 31
0.0
210
0.0
220
0.0
230
1.0
  0
LINE
  5
2E2
100
AcDbEntity
  8
0
370
    35
390
0
 62
     7
 48
0.08127
100
AcDbLine
 10
109.447777
 20
81.546104
 30
0.0
 11
109.447777
 21
78.295303
 31
0.0
210
0.0
220
0.0
230
1.0
  0
LINE
  5
2E3
100
AcDbEntity
  8
0
370
    35
390
0
 62
     7
 48
0.0325
100
AcDbLine
 10
109.447777
 20
81.546104
 30
0.0
 11
110.74778
 21
81.546104
 31
0.0
210
0.0
220
0.0
230
1.0
  0
LINE
  5
2E4
100
AcDbEntity
  8
0
370
    35
390
0
 62
     7
 48
0.08127
100
AcDbLine
 10
110.74778
 20
78.295303
 30
0.0
 11
110.74778
 21
81.546104
 31
0.0
210
0.0
220
0.0
230
1.0
  0
LINE
  5
2E5
100
AcDbEntity
  8
0
370
    35
390
0
 62
     7
 48
0.0325
100
AcDbLine
 10
109.447777
 20
78.295303
 30
0.0
 11
110.74778
 21
78.295303
 31
0.0
210
0.0
220
0.0
230
1.0
  0
LINE
  5
2E6
100
AcDbEntity
  8
0
370
    35
390
0
 62
     7
 48
0.025
100
AcDbLine
 10
105.467979
 20
83.697098
 30
0.0
 11
105.467979
 21
82.697098
 31
0.0
210
0.0
220
0.0
230
1.0
  0
LINE
  5
2E7
100
AcDbEntity
  8
0
370
    35
390
0
 62
     7
 48
0.025
100
AcDbLine
 10
106.467987
 20
83.697098
 30
0.0
 11
105.467979
 21
83.697098
 31
0.0
210
0.0
220
0.0
230
1.0
  0
LINE
  5
2E8
100
AcDbEntity
  8
0
370
    35
390
0
 62
     7
 48
0.025
100
AcDbLine
 10
106.467987
 20
82.697098
 30
0.0
 11
106.467987
 21
83.697098
 31
0.0
210
0.0
220
0.0
230
1.0
  0
LINE
  5
2E9
100
AcDbEntity
  8
0
370
    35
390
0
 62
     7
 48
0.025
100
AcDbLine
 10
105.467979
 20
82.697098
 30
0.0
 11
106.467987
 21
82.697098
 31
0.0
210
0.0
220
0.0
230
1.0
  0
LINE
  5
2EA
100
AcDbEntity
  8
0
370
    35
390
0
 62
     7
 48
0.045
100
AcDbLine
 10
121.207977
 20
86.121506
 30
0.0
 11
123.00798
 21
86.121506
 31
0.0
210
0.0
220
0.0
230
1.0
  0
LINE
  5
2EB
100
AcDbEntity
  8
0
370
    35
390
0
 62
     7
 48
0.045
100
AcDbLine
 10
121.207977
 20
87.921501
 30
0.0
 11
121.207977
 21
86.121506
 31
0.0
210
0.0
220
0.0
230
1.0
  0
LINE
  5
2EC
100
AcDbEntity
  8
0
370
    35
390
0
 62
     7
 48
0.045
100
AcDbLine
 10
123.00798
 20
87.921501
 30
0.0
 11
121.207977
 21
87.921501
 31
0.0
210
0.0
220
0.0
230
1.0
  0
LINE
  5
2ED
100
AcDbEntity
  8
0
370
    35
390
0
 62
     7
 48
0.045
100
AcDbLine
 10
123.00798
 20
86.121506
 30
0.0
 11
123.00798
 21
87.921501
 31
0.0
210
0.0
220
0.0
230
1.0
  0
LINE
  5
2EE
100
AcDbEntity
  8
0
370
    35
390
0
 62
     7
 48
0.080635
100
AcDbLine
 10
105.73938
 20
94.119102
 30
0.0
 11
105.73938
 21
90.8937
 31
0.0
210
0.0
220
0.0
230
1.0
  0
LINE
  5
2EF
100
AcDbEntity
  8
0
370
    35
390
0
 62
     7
 48
0.0375
100
AcDbLine
 10
105.73938
 20
94.119102
 30
0.0
 11
107.23938
 21
94.119102
 31
0.0
210
0.0
220
0.0
230
1.0
  0
LINE
  5
2F0
100
AcDbEntity
  8
0
370
    35
390
0
 62
     7
 48
0.080635
100
AcDbLine
 10
107.23938
 20
90.8937
 30
0.0
 11
107.23938
 21
94.119102
 31
0.0
210
0.0
220
0.0
230
1.0
  0
LINE
  5
2F1
100
AcDbEntity
  8
0
370
    35
390
0
 62
     7
 48
0.0375
100
AcDbLine
 10
105.73938
 20
90.8937
 30
0.0
 11
107.23938
 21
90.8937
 31
0.0
210
0.0
220
0.0
230
1.0
  0
LINE
  5
2F2
100
AcDbEntity
  8
0
370
    35
390
0
 62
     7
 48
0.10033
100
AcDbLine
 10
112.470383
 20
84.594101
 30
0.0
 11
116.483582
 21
84.594101
 31
0.0
210
0.0
220
0.0
230
1.0
  0
LINE
  5
2F3
100
AcDbEntity
  8
0
370
    35
390
0
 62
     7
 48
0.10033
100
AcDbLine
 10
116.483582
 20
84.594101
 30
0.0
 11
116.483582
 21
80.580902
 31
0.0
210
0.0
220
0.0
230
1.0
  0
LINE
  5
2F4
100
AcDbEntity
  8
0
370
    35
390
0
 62
     7
 48
0.10033
100
AcDbLine
 10
116.483582
 20
80.580902
 30
0.0
 11
112.470383
 21
80.580902
 31
0.0
210
0.0
220
0.0
230
1.0
  0
LINE
  5
2F5
100
AcDbEntity
  8
0
370
    35
390
0
 62
     7
 48
0.10033
100
AcDbLine
 10
112.470383
 20
80.580902
 30
0.0
 11
112.470383
 21
84.594101
 31
0.0
210
0.0
220
0.0
230
1.0
  0
LINE
  5
2F6
100
AcDbEntity
  8
0
370
    35
390
0
 62
     7
 48
0.004908
100
AcDbLine
 10
105.909241
 20
88.476929
 30
0.0
 11
105.830971
 21
88.656967
 31
0.0
210
0.0
220
0.0
230
1.0
  0
LINE
  5
2F7
100
AcDbEntity
  8
0
370
    35
390
0
 62
     7
 48
0.00325
100
AcDbLine
 10
105.815536
 20
95.192352
 30
0.0
 11
105.767883
 21
95.071396
 31
0.0
210
0.0
220
0.0
230
1.0
  0
ENDSEC
  0
SECTION
  2
OBJECTS
  0
DICTIONARY
  5
19
100
AcDbDictionary
280
     0
281
     1
  3
ACAD_GROUP
350
1A
  3
ACAD_MLINESTYLE
350
1B
  3
ACAD_LAYOUT
350
1E
  3
ACAD_PLOTSETTINGS
350
22
  3
ACAD_PLOTSTYLENAME
350
1F
  3
ACAD_WIPEOUT_VARS
350
23
  0
DICTIONARY
  5
1A
102
{ACAD_REACTORS
330
19
102
}
100
AcDbDictionary
280
     0
281
     1
  0
DICTIONARY
  5
1B
102
{ACAD_REACTORS
330
19
102
}
100
AcDbDictionary
280
     0
281
     1
  3
Standard
350
1C
  0
MLINESTYLE
  5
1C
102
{ACAD_REACTORS
330
1B
102
}
100
AcDbMlineStyle
  2
Standard
 70
     0
  3

 62
     0
 51
90.0
 52
90.0
 71
     2
 49
0.5
 62
   256
  6
ByLayer
 49
-0.5
 62
   256
  6
ByLayer
  0
ACDBDICTIONARYWDFLT
  5
1F
102
{ACAD_REACTORS
330
19
102
}
100
AcDbDictionary
281
     1
  3
Normal
350
1D
100
AcDbDictionaryWithDefault
340
1D
  0
ACDBPLACEHOLDER
  5
1D
102
{ACAD_REACTORS
330
1F
102
}
  0
LAYOUT
  5
20
102
{ACAD_REACTORS
330
1E
102
}
100
AcDbPlotSettings
  1

  2

  4

  6

 40
0.0
 41
0.0
 42
0.0
 43
0.0
 44
0.0
 45
0.0
 46
0.0
 47
0.0
 48
0.0
 49
0.0
140
0.0
141
0.0
142
1.0
143
1.0
 70
  1024
 72
     0
 73
     0
 74
     0
  7

 75
     0
147
1.0
148
0.0
149
0.0
100
AcDbLayout
  1
Model
 70
     0
 71
     0
 10
0.0
 20
0.0
 11
0.0
 21
0.0
 12
0.0
 22
0.0
 32
0.0
 14
0.0
 24
0.0
 34
0.0
 15
0.0
 25
0.0
 35
0.0
146
0.0
 13
0.0
 23
0.0
 33
0.0
 16
0.0
 26
0.0
 36
0.0
 17
0.0
 27
0.0
 37
0.0
 76
     0
330
A
331
0
345
0
346
0
  0
LAYOUT
  5
21
102
{ACAD_REACTORS
330
1E
102
}
100
AcDbPlotSettings
  1

  2

  4

  6

 40
0.0
 41
0.0
 42
0.0
 43
0.0
 44
0.0
 45
0.0
 46
0.0
 47
0.0
 48
0.0
 49
0.0
140
0.0
141
0.0
142
1.0
143
1.0
 70
     0
 72
     0
 73
     0
 74
     0
  7

 75
     0
147
1.0
148
0.0
149
0.0
100
AcDbLayout
  1
Layout1
 70
     0
 71
     0
 10
0.0
 20
0.0
 11
0.0
 21
0.0
 12
0.0
 22
0.0
 32
0.0
 14
0.0
 24
0.0
 34
0.0
 15
0.0
 25
0.0
 35
0.0
146
0.0
 13
0.0
 23
0.0
 33
0.0
 16
0.0
 26
0.0
 36
0.0
 17
0.0
 27
0.0
 37
0.0
 76
     0
330
B
331
0
345
0
346
0
  0
DICTIONARY
  5
1E
102
{ACAD_REACTORS
330
19
102
}
100
AcDbDictionary
280
     0
281
     1
  3
Layout1
350
21
  3
Model
350
20
  0
DICTIONARY
  5
22
102
{ACAD_REACTORS
330
19
102
}
100
AcDbDictionary
280
     0
281
     1
  0
WIPEOUTVARIABLES
  5
23
100
AcDbWipeoutVariables
 70
     1
  0
ENDSEC
  0
EOF
