M48
;DRILL file {KiCad 4.0.4-stable} date 02/11/17 12:35:42
;FORMAT={-:-/ absolute / inch / decimal}
FMAT,2
INCH,TZ
T1C0.016
T2C0.030
T3C0.040
T4C0.098
%
G90
G05
M72
T1
X4.7795Y-3.0965
X4.7815Y-2.9764
X4.9114Y-3.0295
X4.937Y-3.0846
X5.3504Y-3.376
X5.3504Y-3.4094
X5.3937Y-2.9213
X5.5846Y-3.0157
X5.5886Y-3.2972
X5.6831Y-2.8484
X5.7165Y-3.2972
X5.9311Y-3.1457
X5.9311Y-3.1969
X6.122Y-2.9193
X6.189Y-3.5846
X6.376Y-3.2579
X6.3819Y-3.4488
X6.4094Y-3.189
X6.4134Y-3.2559
X6.7008Y-3.2402
T2
X4.8033Y-4.0654
X4.9033Y-4.0654
X4.9035Y-3.8646
X5.0433Y-3.3654
X5.0433Y-3.4654
X5.0433Y-3.5654
X5.0433Y-3.6654
X5.0433Y-3.7654
X5.0433Y-3.8654
X5.0433Y-3.9654
X5.0433Y-4.0654
T3
X5.3232Y-3.8445
X5.4232Y-3.8445
X6.878Y-3.3394
X6.9646Y-3.2894
T4
X5.5266Y-4.0315
X5.5276Y-2.6535
X7.1014Y-4.0315
T0
M30
