G04 #@! TF.FileFunction,Legend,Top*
%FSLAX46Y46*%
G04 Gerber Fmt 4.6, Leading zero omitted, Abs format (unit mm)*
G04 Created by KiCad (PCBNEW 4.0.4-stable) date 02/11/17 12:35:40*
%MOMM*%
%LPD*%
G01*
G04 APERTURE LIST*
%ADD10C,0.100000*%
%ADD11C,0.300000*%
%ADD12C,0.150000*%
%ADD13C,0.127000*%
%ADD14C,0.119380*%
%ADD15C,0.254000*%
%ADD16C,0.010000*%
%ADD17C,0.114300*%
%ADD18C,0.125000*%
%ADD19C,0.075000*%
G04 APERTURE END LIST*
D10*
D11*
X157028572Y-98728571D02*
X157028572Y-97228571D01*
X157385715Y-97228571D01*
X157600000Y-97300000D01*
X157742858Y-97442857D01*
X157814286Y-97585714D01*
X157885715Y-97871429D01*
X157885715Y-98085714D01*
X157814286Y-98371429D01*
X157742858Y-98514286D01*
X157600000Y-98657143D01*
X157385715Y-98728571D01*
X157028572Y-98728571D01*
X159100000Y-98657143D02*
X158957143Y-98728571D01*
X158671429Y-98728571D01*
X158528572Y-98657143D01*
X158457143Y-98514286D01*
X158457143Y-97942857D01*
X158528572Y-97800000D01*
X158671429Y-97728571D01*
X158957143Y-97728571D01*
X159100000Y-97800000D01*
X159171429Y-97942857D01*
X159171429Y-98085714D01*
X158457143Y-98228571D01*
X159671429Y-97728571D02*
X160028572Y-98728571D01*
X160385714Y-97728571D01*
X161457143Y-97942857D02*
X160957143Y-97942857D01*
X160957143Y-98728571D02*
X160957143Y-97228571D01*
X161671429Y-97228571D01*
X162457143Y-98728571D02*
X162314285Y-98657143D01*
X162242857Y-98514286D01*
X162242857Y-97228571D01*
X163671428Y-97728571D02*
X163671428Y-98728571D01*
X163028571Y-97728571D02*
X163028571Y-98514286D01*
X163099999Y-98657143D01*
X163242857Y-98728571D01*
X163457142Y-98728571D01*
X163599999Y-98657143D01*
X163671428Y-98585714D01*
X164957142Y-98657143D02*
X164814285Y-98728571D01*
X164528571Y-98728571D01*
X164385714Y-98657143D01*
X164314285Y-98514286D01*
X164314285Y-97942857D01*
X164385714Y-97800000D01*
X164528571Y-97728571D01*
X164814285Y-97728571D01*
X164957142Y-97800000D01*
X165028571Y-97942857D01*
X165028571Y-98085714D01*
X164314285Y-98228571D01*
X165671428Y-97728571D02*
X165671428Y-98728571D01*
X165671428Y-97871429D02*
X165742856Y-97800000D01*
X165885714Y-97728571D01*
X166099999Y-97728571D01*
X166242856Y-97800000D01*
X166314285Y-97942857D01*
X166314285Y-98728571D01*
X166814285Y-97728571D02*
X167385714Y-97728571D01*
X167028571Y-97228571D02*
X167028571Y-98514286D01*
X167099999Y-98657143D01*
X167242857Y-98728571D01*
X167385714Y-98728571D01*
X169742857Y-98728571D02*
X169028571Y-98728571D01*
X169028571Y-97228571D01*
X170885714Y-98728571D02*
X170885714Y-97942857D01*
X170814285Y-97800000D01*
X170671428Y-97728571D01*
X170385714Y-97728571D01*
X170242857Y-97800000D01*
X170885714Y-98657143D02*
X170742857Y-98728571D01*
X170385714Y-98728571D01*
X170242857Y-98657143D01*
X170171428Y-98514286D01*
X170171428Y-98371429D01*
X170242857Y-98228571D01*
X170385714Y-98157143D01*
X170742857Y-98157143D01*
X170885714Y-98085714D01*
X171600000Y-98728571D02*
X171600000Y-97228571D01*
X171600000Y-97800000D02*
X171742857Y-97728571D01*
X172028571Y-97728571D01*
X172171428Y-97800000D01*
X172242857Y-97871429D01*
X172314286Y-98014286D01*
X172314286Y-98442857D01*
X172242857Y-98585714D01*
X172171428Y-98657143D01*
X172028571Y-98728571D01*
X171742857Y-98728571D01*
X171600000Y-98657143D01*
X172885714Y-98657143D02*
X173028571Y-98728571D01*
X173314286Y-98728571D01*
X173457143Y-98657143D01*
X173528571Y-98514286D01*
X173528571Y-98442857D01*
X173457143Y-98300000D01*
X173314286Y-98228571D01*
X173100000Y-98228571D01*
X172957143Y-98157143D01*
X172885714Y-98014286D01*
X172885714Y-97942857D01*
X172957143Y-97800000D01*
X173100000Y-97728571D01*
X173314286Y-97728571D01*
X173457143Y-97800000D01*
X174171429Y-98585714D02*
X174242857Y-98657143D01*
X174171429Y-98728571D01*
X174100000Y-98657143D01*
X174171429Y-98585714D01*
X174171429Y-98728571D01*
X153635716Y-101278571D02*
X153635716Y-99778571D01*
X154207144Y-99778571D01*
X154350002Y-99850000D01*
X154421430Y-99921429D01*
X154492859Y-100064286D01*
X154492859Y-100278571D01*
X154421430Y-100421429D01*
X154350002Y-100492857D01*
X154207144Y-100564286D01*
X153635716Y-100564286D01*
X155350002Y-101278571D02*
X155207144Y-101207143D01*
X155135716Y-101135714D01*
X155064287Y-100992857D01*
X155064287Y-100564286D01*
X155135716Y-100421429D01*
X155207144Y-100350000D01*
X155350002Y-100278571D01*
X155564287Y-100278571D01*
X155707144Y-100350000D01*
X155778573Y-100421429D01*
X155850002Y-100564286D01*
X155850002Y-100992857D01*
X155778573Y-101135714D01*
X155707144Y-101207143D01*
X155564287Y-101278571D01*
X155350002Y-101278571D01*
X157135716Y-101207143D02*
X156992859Y-101278571D01*
X156707145Y-101278571D01*
X156564287Y-101207143D01*
X156492859Y-101135714D01*
X156421430Y-100992857D01*
X156421430Y-100564286D01*
X156492859Y-100421429D01*
X156564287Y-100350000D01*
X156707145Y-100278571D01*
X156992859Y-100278571D01*
X157135716Y-100350000D01*
X157778573Y-101278571D02*
X157778573Y-99778571D01*
X157921430Y-100707143D02*
X158350001Y-101278571D01*
X158350001Y-100278571D02*
X157778573Y-100850000D01*
X159564287Y-101207143D02*
X159421430Y-101278571D01*
X159135716Y-101278571D01*
X158992859Y-101207143D01*
X158921430Y-101064286D01*
X158921430Y-100492857D01*
X158992859Y-100350000D01*
X159135716Y-100278571D01*
X159421430Y-100278571D01*
X159564287Y-100350000D01*
X159635716Y-100492857D01*
X159635716Y-100635714D01*
X158921430Y-100778571D01*
X160064287Y-100278571D02*
X160635716Y-100278571D01*
X160278573Y-99778571D02*
X160278573Y-101064286D01*
X160350001Y-101207143D01*
X160492859Y-101278571D01*
X160635716Y-101278571D01*
X162778573Y-100492857D02*
X162992859Y-100564286D01*
X163064287Y-100635714D01*
X163135716Y-100778571D01*
X163135716Y-100992857D01*
X163064287Y-101135714D01*
X162992859Y-101207143D01*
X162850001Y-101278571D01*
X162278573Y-101278571D01*
X162278573Y-99778571D01*
X162778573Y-99778571D01*
X162921430Y-99850000D01*
X162992859Y-99921429D01*
X163064287Y-100064286D01*
X163064287Y-100207143D01*
X162992859Y-100350000D01*
X162921430Y-100421429D01*
X162778573Y-100492857D01*
X162278573Y-100492857D01*
X163564287Y-99778571D02*
X164421430Y-99778571D01*
X163992859Y-101278571D02*
X163992859Y-99778571D01*
X165992858Y-101207143D02*
X166207144Y-101278571D01*
X166564287Y-101278571D01*
X166707144Y-101207143D01*
X166778573Y-101135714D01*
X166850001Y-100992857D01*
X166850001Y-100850000D01*
X166778573Y-100707143D01*
X166707144Y-100635714D01*
X166564287Y-100564286D01*
X166278573Y-100492857D01*
X166135715Y-100421429D01*
X166064287Y-100350000D01*
X165992858Y-100207143D01*
X165992858Y-100064286D01*
X166064287Y-99921429D01*
X166135715Y-99850000D01*
X166278573Y-99778571D01*
X166635715Y-99778571D01*
X166850001Y-99850000D01*
X168135715Y-101207143D02*
X167992858Y-101278571D01*
X167707144Y-101278571D01*
X167564286Y-101207143D01*
X167492858Y-101135714D01*
X167421429Y-100992857D01*
X167421429Y-100564286D01*
X167492858Y-100421429D01*
X167564286Y-100350000D01*
X167707144Y-100278571D01*
X167992858Y-100278571D01*
X168135715Y-100350000D01*
X169421429Y-101278571D02*
X169421429Y-100492857D01*
X169350000Y-100350000D01*
X169207143Y-100278571D01*
X168921429Y-100278571D01*
X168778572Y-100350000D01*
X169421429Y-101207143D02*
X169278572Y-101278571D01*
X168921429Y-101278571D01*
X168778572Y-101207143D01*
X168707143Y-101064286D01*
X168707143Y-100921429D01*
X168778572Y-100778571D01*
X168921429Y-100707143D01*
X169278572Y-100707143D01*
X169421429Y-100635714D01*
X170350001Y-101278571D02*
X170207143Y-101207143D01*
X170135715Y-101064286D01*
X170135715Y-99778571D01*
X171492857Y-101207143D02*
X171350000Y-101278571D01*
X171064286Y-101278571D01*
X170921429Y-101207143D01*
X170850000Y-101064286D01*
X170850000Y-100492857D01*
X170921429Y-100350000D01*
X171064286Y-100278571D01*
X171350000Y-100278571D01*
X171492857Y-100350000D01*
X171564286Y-100492857D01*
X171564286Y-100635714D01*
X170850000Y-100778571D01*
X173635714Y-99778571D02*
X173778571Y-99778571D01*
X173921428Y-99850000D01*
X173992857Y-99921429D01*
X174064286Y-100064286D01*
X174135714Y-100350000D01*
X174135714Y-100707143D01*
X174064286Y-100992857D01*
X173992857Y-101135714D01*
X173921428Y-101207143D01*
X173778571Y-101278571D01*
X173635714Y-101278571D01*
X173492857Y-101207143D01*
X173421428Y-101135714D01*
X173350000Y-100992857D01*
X173278571Y-100707143D01*
X173278571Y-100350000D01*
X173350000Y-100064286D01*
X173421428Y-99921429D01*
X173492857Y-99850000D01*
X173635714Y-99778571D01*
X174778571Y-101135714D02*
X174849999Y-101207143D01*
X174778571Y-101278571D01*
X174707142Y-101207143D01*
X174778571Y-101135714D01*
X174778571Y-101278571D01*
X176278571Y-101278571D02*
X175421428Y-101278571D01*
X175850000Y-101278571D02*
X175850000Y-99778571D01*
X175707143Y-99992857D01*
X175564285Y-100135714D01*
X175421428Y-100207143D01*
X177564285Y-101278571D02*
X177564285Y-100492857D01*
X177492856Y-100350000D01*
X177349999Y-100278571D01*
X177064285Y-100278571D01*
X176921428Y-100350000D01*
X177564285Y-101207143D02*
X177421428Y-101278571D01*
X177064285Y-101278571D01*
X176921428Y-101207143D01*
X176849999Y-101064286D01*
X176849999Y-100921429D01*
X176921428Y-100778571D01*
X177064285Y-100707143D01*
X177421428Y-100707143D01*
X177564285Y-100635714D01*
X158957144Y-102328571D02*
X159100001Y-102328571D01*
X159242858Y-102400000D01*
X159314287Y-102471429D01*
X159385716Y-102614286D01*
X159457144Y-102900000D01*
X159457144Y-103257143D01*
X159385716Y-103542857D01*
X159314287Y-103685714D01*
X159242858Y-103757143D01*
X159100001Y-103828571D01*
X158957144Y-103828571D01*
X158814287Y-103757143D01*
X158742858Y-103685714D01*
X158671430Y-103542857D01*
X158600001Y-103257143D01*
X158600001Y-102900000D01*
X158671430Y-102614286D01*
X158742858Y-102471429D01*
X158814287Y-102400000D01*
X158957144Y-102328571D01*
X160885715Y-103828571D02*
X160028572Y-103828571D01*
X160457144Y-103828571D02*
X160457144Y-102328571D01*
X160314287Y-102542857D01*
X160171429Y-102685714D01*
X160028572Y-102757143D01*
X162600000Y-102257143D02*
X161314286Y-104185714D01*
X163385715Y-102328571D02*
X163528572Y-102328571D01*
X163671429Y-102400000D01*
X163742858Y-102471429D01*
X163814287Y-102614286D01*
X163885715Y-102900000D01*
X163885715Y-103257143D01*
X163814287Y-103542857D01*
X163742858Y-103685714D01*
X163671429Y-103757143D01*
X163528572Y-103828571D01*
X163385715Y-103828571D01*
X163242858Y-103757143D01*
X163171429Y-103685714D01*
X163100001Y-103542857D01*
X163028572Y-103257143D01*
X163028572Y-102900000D01*
X163100001Y-102614286D01*
X163171429Y-102471429D01*
X163242858Y-102400000D01*
X163385715Y-102328571D01*
X164457143Y-102471429D02*
X164528572Y-102400000D01*
X164671429Y-102328571D01*
X165028572Y-102328571D01*
X165171429Y-102400000D01*
X165242858Y-102471429D01*
X165314286Y-102614286D01*
X165314286Y-102757143D01*
X165242858Y-102971429D01*
X164385715Y-103828571D01*
X165314286Y-103828571D01*
X167028571Y-102257143D02*
X165742857Y-104185714D01*
X167457143Y-102471429D02*
X167528572Y-102400000D01*
X167671429Y-102328571D01*
X168028572Y-102328571D01*
X168171429Y-102400000D01*
X168242858Y-102471429D01*
X168314286Y-102614286D01*
X168314286Y-102757143D01*
X168242858Y-102971429D01*
X167385715Y-103828571D01*
X168314286Y-103828571D01*
X169242857Y-102328571D02*
X169385714Y-102328571D01*
X169528571Y-102400000D01*
X169600000Y-102471429D01*
X169671429Y-102614286D01*
X169742857Y-102900000D01*
X169742857Y-103257143D01*
X169671429Y-103542857D01*
X169600000Y-103685714D01*
X169528571Y-103757143D01*
X169385714Y-103828571D01*
X169242857Y-103828571D01*
X169100000Y-103757143D01*
X169028571Y-103685714D01*
X168957143Y-103542857D01*
X168885714Y-103257143D01*
X168885714Y-102900000D01*
X168957143Y-102614286D01*
X169028571Y-102471429D01*
X169100000Y-102400000D01*
X169242857Y-102328571D01*
X171171428Y-103828571D02*
X170314285Y-103828571D01*
X170742857Y-103828571D02*
X170742857Y-102328571D01*
X170600000Y-102542857D01*
X170457142Y-102685714D01*
X170314285Y-102757143D01*
X171671428Y-102328571D02*
X172671428Y-102328571D01*
X172028571Y-103828571D01*
D12*
X177592339Y-81649167D02*
X176250000Y-82424167D01*
X178242339Y-82775000D02*
X177592339Y-81649167D01*
X179105485Y-87116012D02*
X182026485Y-92175333D01*
X182026485Y-92175333D02*
X181806515Y-92302333D01*
X181806515Y-92302333D02*
X178885515Y-87243012D01*
X178885515Y-87243012D02*
X178995500Y-87179512D01*
X178995500Y-87179512D02*
X181916500Y-92238833D01*
X177881970Y-84742823D02*
X177691470Y-84412867D01*
X177442030Y-84996823D02*
X177251530Y-84666867D01*
X175682266Y-86012823D02*
X175491766Y-85682867D01*
X175242325Y-86266823D02*
X175051825Y-85936867D01*
X178761852Y-84234823D02*
X180031852Y-86434527D01*
X176562148Y-85504823D02*
X177832148Y-87704527D01*
X176562148Y-85504823D02*
X174362443Y-86774823D01*
X174362443Y-86774823D02*
X175632443Y-88974527D01*
X176952266Y-88212527D02*
X180000266Y-93491818D01*
X180000266Y-93491818D02*
X179560325Y-93745818D01*
X179560325Y-93745818D02*
X176512325Y-88466527D01*
X175632443Y-88974527D02*
X177832148Y-87704527D01*
X177832148Y-87704527D02*
X180031852Y-86434527D01*
X181760030Y-92475818D02*
X178712030Y-87196527D01*
X182199970Y-92221818D02*
X181760030Y-92475818D01*
X179151970Y-86942527D02*
X182199970Y-92221818D01*
X176562148Y-85504823D02*
X177832148Y-87704527D01*
X178761852Y-84234823D02*
X176562148Y-85504823D01*
X144500000Y-77025000D02*
X145000000Y-77025000D01*
X145000000Y-75975000D02*
X144500000Y-75975000D01*
X147650000Y-74725000D02*
X148150000Y-74725000D01*
X148150000Y-73675000D02*
X147650000Y-73675000D01*
D13*
X150857000Y-73387200D02*
X150857000Y-75012800D01*
X153143000Y-75012800D02*
X153143000Y-73387200D01*
X153600200Y-75012800D02*
X153600200Y-73387200D01*
X153600200Y-73387200D02*
X150399800Y-73387200D01*
X150399800Y-73387200D02*
X150399800Y-75012800D01*
X150399800Y-75012800D02*
X153600200Y-75012800D01*
D12*
X138500000Y-74675000D02*
X139000000Y-74675000D01*
X139000000Y-73625000D02*
X138500000Y-73625000D01*
D13*
X141857000Y-73337200D02*
X141857000Y-74962800D01*
X144143000Y-74962800D02*
X144143000Y-73337200D01*
X144600200Y-74962800D02*
X144600200Y-73337200D01*
X144600200Y-73337200D02*
X141399800Y-73337200D01*
X141399800Y-73337200D02*
X141399800Y-74962800D01*
X141399800Y-74962800D02*
X144600200Y-74962800D01*
D12*
X138500000Y-87125000D02*
X139000000Y-87125000D01*
X139000000Y-86075000D02*
X138500000Y-86075000D01*
X145050000Y-89475000D02*
X144550000Y-89475000D01*
X144550000Y-90525000D02*
X145050000Y-90525000D01*
X160912122Y-81525000D02*
X161412122Y-81525000D01*
X161412122Y-80475000D02*
X160912122Y-80475000D01*
D13*
X159793000Y-89912800D02*
X159793000Y-88287200D01*
X157507000Y-88287200D02*
X157507000Y-89912800D01*
X157049800Y-88287200D02*
X157049800Y-89912800D01*
X157049800Y-89912800D02*
X160250200Y-89912800D01*
X160250200Y-89912800D02*
X160250200Y-88287200D01*
X160250200Y-88287200D02*
X157049800Y-88287200D01*
D14*
X139300380Y-82450240D02*
X139998880Y-82450240D01*
X138299620Y-82450240D02*
X137601120Y-82450240D01*
X139300380Y-81149760D02*
X139998880Y-81149760D01*
X137601120Y-81149760D02*
X138299620Y-81149760D01*
X139998880Y-81165000D02*
X139998880Y-82435000D01*
X137601120Y-82435000D02*
X137601120Y-81165000D01*
D13*
X139498500Y-77697500D02*
X140158900Y-77697500D01*
X139498500Y-79602500D02*
X140158900Y-79602500D01*
X138101500Y-78650000D02*
X137441100Y-78650000D01*
X138101500Y-80148600D02*
X138101500Y-77151400D01*
X138101500Y-77151400D02*
X139498500Y-77151400D01*
X139498500Y-77151400D02*
X139498500Y-80148600D01*
X139498500Y-80148600D02*
X138101500Y-80148600D01*
D12*
X138550000Y-84125000D02*
X139050000Y-84125000D01*
X139050000Y-83075000D02*
X138550000Y-83075000D01*
X138550000Y-85525000D02*
X139050000Y-85525000D01*
X139050000Y-84475000D02*
X138550000Y-84475000D01*
X138550000Y-88925000D02*
X139050000Y-88925000D01*
X139050000Y-87875000D02*
X138550000Y-87875000D01*
X138550000Y-90525000D02*
X139050000Y-90525000D01*
X139050000Y-89475000D02*
X138550000Y-89475000D01*
X145300000Y-78705000D02*
G75*
G03X145300000Y-78705000I-200000J0D01*
G01*
X148300000Y-78105000D02*
X148300000Y-88105000D01*
X148300000Y-88105000D02*
X144300000Y-88105000D01*
X144300000Y-88105000D02*
X144300000Y-78105000D01*
X144300000Y-78105000D02*
X148300000Y-78105000D01*
X162762122Y-84750000D02*
G75*
G03X162762122Y-84750000I-100000J0D01*
G01*
X162962122Y-85550000D02*
X160962122Y-85550000D01*
X160962122Y-85550000D02*
X160962122Y-84350000D01*
X160962122Y-84350000D02*
X162962122Y-84350000D01*
X162962122Y-84350000D02*
X162962122Y-85550000D01*
D13*
X172746000Y-80812800D02*
X172746000Y-79187200D01*
X170460000Y-79187200D02*
X170460000Y-80812800D01*
X170002800Y-79187200D02*
X170002800Y-80812800D01*
X170002800Y-80812800D02*
X173203200Y-80812800D01*
X173203200Y-80812800D02*
X173203200Y-79187200D01*
X173203200Y-79187200D02*
X170002800Y-79187200D01*
D12*
X136480000Y-96380000D02*
X139020000Y-96380000D01*
X133660000Y-96100000D02*
X135210000Y-96100000D01*
X136480000Y-96380000D02*
X136480000Y-98920000D01*
X135210000Y-99200000D02*
X133660000Y-99200000D01*
X133660000Y-99200000D02*
X133660000Y-96100000D01*
X136480000Y-98920000D02*
X139020000Y-98920000D01*
X139020000Y-98920000D02*
X139020000Y-96380000D01*
X164400000Y-81650000D02*
X165050000Y-81650000D01*
X164400000Y-82400000D02*
X164400000Y-81650000D01*
X164400000Y-86500000D02*
X164400000Y-83500000D01*
X167600000Y-83500000D02*
X167600000Y-86500000D01*
D10*
X101445559Y-103547341D02*
X101694476Y-103676881D01*
D15*
X128100000Y-104509995D02*
X105219996Y-104509995D01*
X105219996Y-84189995D02*
X128100000Y-84189995D01*
X97345996Y-96635995D02*
X97345996Y-92063996D01*
D12*
X120037500Y-74600000D02*
G75*
G03X120037500Y-74600000I-250000J0D01*
G01*
X114962500Y-75200000D02*
X114962500Y-81000000D01*
X116862500Y-74100000D02*
X119212500Y-74100000D01*
X119212500Y-74100000D02*
X119212500Y-75000000D01*
X119212500Y-74600000D02*
X118012500Y-74600000D01*
X118012500Y-74600000D02*
X118012500Y-74600000D01*
X118012500Y-74600000D02*
X119212500Y-74600000D01*
X119212500Y-74600000D02*
X119212500Y-74600000D01*
X118712500Y-74600000D02*
X118712500Y-74600000D01*
X118712500Y-74600000D02*
X118712500Y-74100000D01*
X118712500Y-74100000D02*
X118712500Y-74100000D01*
X118712500Y-74100000D02*
X118712500Y-74600000D01*
X118012500Y-74600000D02*
X118012500Y-74600000D01*
X118012500Y-74600000D02*
X118012500Y-74100000D01*
X118012500Y-74100000D02*
X118012500Y-74100000D01*
X118012500Y-74100000D02*
X118012500Y-74600000D01*
X116862500Y-82100000D02*
X119212500Y-82100000D01*
X119212500Y-82100000D02*
X119212500Y-81200000D01*
X119212500Y-81600000D02*
X118012500Y-81600000D01*
X118012500Y-81600000D02*
X118012500Y-81600000D01*
X118012500Y-81600000D02*
X119212500Y-81600000D01*
X119212500Y-81600000D02*
X119212500Y-81600000D01*
X118712500Y-81600000D02*
X118712500Y-81600000D01*
X118712500Y-81600000D02*
X118712500Y-82100000D01*
X118712500Y-82100000D02*
X118712500Y-82100000D01*
X118712500Y-82100000D02*
X118712500Y-81600000D01*
X118012500Y-81600000D02*
X118012500Y-81600000D01*
X118012500Y-81600000D02*
X118012500Y-82100000D01*
X118012500Y-82100000D02*
X118012500Y-82100000D01*
X118012500Y-82100000D02*
X118012500Y-81600000D01*
D16*
G36*
X148770657Y-96196409D02*
X148979517Y-96203279D01*
X149149401Y-96217582D01*
X149303133Y-96241651D01*
X149463536Y-96277819D01*
X149560464Y-96303069D01*
X150128969Y-96495952D01*
X150650133Y-96758126D01*
X151129623Y-97092859D01*
X151485965Y-97414034D01*
X151880913Y-97864345D01*
X152200694Y-98351813D01*
X152448578Y-98882102D01*
X152596930Y-99339535D01*
X152640565Y-99512952D01*
X152670846Y-99667432D01*
X152690107Y-99825799D01*
X152700682Y-100010877D01*
X152704903Y-100245488D01*
X152705363Y-100400000D01*
X152703591Y-100670657D01*
X152696721Y-100879517D01*
X152682418Y-101049401D01*
X152658349Y-101203133D01*
X152622180Y-101363536D01*
X152596930Y-101460464D01*
X152404047Y-102028969D01*
X152141874Y-102550133D01*
X151807141Y-103029623D01*
X151485965Y-103385965D01*
X151034616Y-103781727D01*
X150547248Y-104101335D01*
X150020326Y-104346819D01*
X149560464Y-104493144D01*
X149232482Y-104559181D01*
X148864817Y-104601940D01*
X148486638Y-104620106D01*
X148127117Y-104612368D01*
X147815425Y-104577412D01*
X147790275Y-104572802D01*
X147211307Y-104428437D01*
X146686591Y-104224035D01*
X146205644Y-103954130D01*
X145757982Y-103613250D01*
X145514034Y-103385442D01*
X145119423Y-102936008D01*
X144799725Y-102448962D01*
X144551772Y-101918816D01*
X144403069Y-101460464D01*
X144359434Y-101287048D01*
X144329153Y-101132568D01*
X144309892Y-100974200D01*
X144299318Y-100789123D01*
X144295097Y-100554512D01*
X144294728Y-100430461D01*
X144790102Y-100430461D01*
X144804158Y-100787573D01*
X144842287Y-101114513D01*
X144892369Y-101343546D01*
X145088781Y-101884175D01*
X145351976Y-102378749D01*
X145676658Y-102822404D01*
X146057532Y-103210275D01*
X146489303Y-103537498D01*
X146966674Y-103799208D01*
X147484351Y-103990541D01*
X147871939Y-104080724D01*
X148090539Y-104104503D01*
X148364213Y-104111699D01*
X148665377Y-104103706D01*
X148966447Y-104081917D01*
X149239841Y-104047726D01*
X149457974Y-104002525D01*
X149466316Y-104000179D01*
X150008244Y-103803474D01*
X150501763Y-103538588D01*
X150943179Y-103209241D01*
X151328794Y-102819149D01*
X151654912Y-102372030D01*
X151917837Y-101871602D01*
X152107631Y-101343546D01*
X152165793Y-101062935D01*
X152199882Y-100728987D01*
X152209898Y-100369539D01*
X152195842Y-100012427D01*
X152157712Y-99685486D01*
X152107631Y-99456453D01*
X151908200Y-98905002D01*
X151642600Y-98405428D01*
X151313710Y-97960609D01*
X150924410Y-97573426D01*
X150477577Y-97246758D01*
X149976091Y-96983482D01*
X149443546Y-96792369D01*
X149159620Y-96733562D01*
X148822476Y-96699471D01*
X148459865Y-96690070D01*
X148099539Y-96705330D01*
X147769251Y-96745225D01*
X147547500Y-96794230D01*
X147001387Y-96991383D01*
X146505086Y-97255959D01*
X146061937Y-97584611D01*
X145675280Y-97973989D01*
X145348454Y-98420746D01*
X145084800Y-98921531D01*
X144892369Y-99456453D01*
X144834207Y-99737065D01*
X144800118Y-100071013D01*
X144790102Y-100430461D01*
X144294728Y-100430461D01*
X144294637Y-100400000D01*
X144296409Y-100129342D01*
X144303279Y-99920483D01*
X144317582Y-99750599D01*
X144341651Y-99596867D01*
X144377819Y-99436463D01*
X144403069Y-99339535D01*
X144595952Y-98771031D01*
X144858126Y-98249866D01*
X145192859Y-97770377D01*
X145514034Y-97414034D01*
X145964345Y-97019087D01*
X146451813Y-96699306D01*
X146982102Y-96451421D01*
X147439535Y-96303069D01*
X147612952Y-96259434D01*
X147767432Y-96229153D01*
X147925799Y-96209892D01*
X148110877Y-96199318D01*
X148345488Y-96195097D01*
X148500000Y-96194637D01*
X148770657Y-96196409D01*
X148770657Y-96196409D01*
G37*
X148770657Y-96196409D02*
X148979517Y-96203279D01*
X149149401Y-96217582D01*
X149303133Y-96241651D01*
X149463536Y-96277819D01*
X149560464Y-96303069D01*
X150128969Y-96495952D01*
X150650133Y-96758126D01*
X151129623Y-97092859D01*
X151485965Y-97414034D01*
X151880913Y-97864345D01*
X152200694Y-98351813D01*
X152448578Y-98882102D01*
X152596930Y-99339535D01*
X152640565Y-99512952D01*
X152670846Y-99667432D01*
X152690107Y-99825799D01*
X152700682Y-100010877D01*
X152704903Y-100245488D01*
X152705363Y-100400000D01*
X152703591Y-100670657D01*
X152696721Y-100879517D01*
X152682418Y-101049401D01*
X152658349Y-101203133D01*
X152622180Y-101363536D01*
X152596930Y-101460464D01*
X152404047Y-102028969D01*
X152141874Y-102550133D01*
X151807141Y-103029623D01*
X151485965Y-103385965D01*
X151034616Y-103781727D01*
X150547248Y-104101335D01*
X150020326Y-104346819D01*
X149560464Y-104493144D01*
X149232482Y-104559181D01*
X148864817Y-104601940D01*
X148486638Y-104620106D01*
X148127117Y-104612368D01*
X147815425Y-104577412D01*
X147790275Y-104572802D01*
X147211307Y-104428437D01*
X146686591Y-104224035D01*
X146205644Y-103954130D01*
X145757982Y-103613250D01*
X145514034Y-103385442D01*
X145119423Y-102936008D01*
X144799725Y-102448962D01*
X144551772Y-101918816D01*
X144403069Y-101460464D01*
X144359434Y-101287048D01*
X144329153Y-101132568D01*
X144309892Y-100974200D01*
X144299318Y-100789123D01*
X144295097Y-100554512D01*
X144294728Y-100430461D01*
X144790102Y-100430461D01*
X144804158Y-100787573D01*
X144842287Y-101114513D01*
X144892369Y-101343546D01*
X145088781Y-101884175D01*
X145351976Y-102378749D01*
X145676658Y-102822404D01*
X146057532Y-103210275D01*
X146489303Y-103537498D01*
X146966674Y-103799208D01*
X147484351Y-103990541D01*
X147871939Y-104080724D01*
X148090539Y-104104503D01*
X148364213Y-104111699D01*
X148665377Y-104103706D01*
X148966447Y-104081917D01*
X149239841Y-104047726D01*
X149457974Y-104002525D01*
X149466316Y-104000179D01*
X150008244Y-103803474D01*
X150501763Y-103538588D01*
X150943179Y-103209241D01*
X151328794Y-102819149D01*
X151654912Y-102372030D01*
X151917837Y-101871602D01*
X152107631Y-101343546D01*
X152165793Y-101062935D01*
X152199882Y-100728987D01*
X152209898Y-100369539D01*
X152195842Y-100012427D01*
X152157712Y-99685486D01*
X152107631Y-99456453D01*
X151908200Y-98905002D01*
X151642600Y-98405428D01*
X151313710Y-97960609D01*
X150924410Y-97573426D01*
X150477577Y-97246758D01*
X149976091Y-96983482D01*
X149443546Y-96792369D01*
X149159620Y-96733562D01*
X148822476Y-96699471D01*
X148459865Y-96690070D01*
X148099539Y-96705330D01*
X147769251Y-96745225D01*
X147547500Y-96794230D01*
X147001387Y-96991383D01*
X146505086Y-97255959D01*
X146061937Y-97584611D01*
X145675280Y-97973989D01*
X145348454Y-98420746D01*
X145084800Y-98921531D01*
X144892369Y-99456453D01*
X144834207Y-99737065D01*
X144800118Y-100071013D01*
X144790102Y-100430461D01*
X144294728Y-100430461D01*
X144294637Y-100400000D01*
X144296409Y-100129342D01*
X144303279Y-99920483D01*
X144317582Y-99750599D01*
X144341651Y-99596867D01*
X144377819Y-99436463D01*
X144403069Y-99339535D01*
X144595952Y-98771031D01*
X144858126Y-98249866D01*
X145192859Y-97770377D01*
X145514034Y-97414034D01*
X145964345Y-97019087D01*
X146451813Y-96699306D01*
X146982102Y-96451421D01*
X147439535Y-96303069D01*
X147612952Y-96259434D01*
X147767432Y-96229153D01*
X147925799Y-96209892D01*
X148110877Y-96199318D01*
X148345488Y-96195097D01*
X148500000Y-96194637D01*
X148770657Y-96196409D01*
G36*
X149219976Y-96872682D02*
X149699777Y-97006243D01*
X150153442Y-97202672D01*
X150574755Y-97457755D01*
X150957503Y-97767272D01*
X151295470Y-98127007D01*
X151582443Y-98532743D01*
X151812205Y-98980262D01*
X151978542Y-99465348D01*
X152075241Y-99983783D01*
X152098333Y-100400000D01*
X152057838Y-100940782D01*
X151939990Y-101458728D01*
X151750245Y-101947212D01*
X151494060Y-102399610D01*
X151176890Y-102809295D01*
X150804192Y-103169642D01*
X150381422Y-103474025D01*
X149914035Y-103715820D01*
X149407488Y-103888401D01*
X149184193Y-103938686D01*
X148900018Y-103975926D01*
X148571679Y-103991612D01*
X148234765Y-103985839D01*
X147924868Y-103958700D01*
X147780333Y-103935002D01*
X147263822Y-103789477D01*
X146783692Y-103571913D01*
X146735189Y-103540611D01*
X148500000Y-103540611D01*
X148722250Y-103512569D01*
X148894790Y-103485652D01*
X149092145Y-103447592D01*
X149198500Y-103423885D01*
X149349275Y-103377740D01*
X149543578Y-103304123D01*
X149750176Y-103215310D01*
X149854667Y-103165939D01*
X150038630Y-103071099D01*
X150189507Y-102979464D01*
X150329769Y-102874234D01*
X150481888Y-102738606D01*
X150661406Y-102562734D01*
X150843023Y-102375776D01*
X150978114Y-102222189D01*
X151083592Y-102079278D01*
X151176370Y-101924344D01*
X151263582Y-101754667D01*
X151412704Y-101422011D01*
X151511516Y-101122290D01*
X151566487Y-100825636D01*
X151584085Y-100502176D01*
X151579865Y-100294167D01*
X151520949Y-99794391D01*
X151385084Y-99327471D01*
X151170921Y-98890367D01*
X150877112Y-98480042D01*
X150677890Y-98261435D01*
X150280961Y-97912623D01*
X149850996Y-97640222D01*
X149382555Y-97441557D01*
X148870197Y-97313946D01*
X148701083Y-97288329D01*
X148500000Y-97262145D01*
X148500000Y-103540611D01*
X146735189Y-103540611D01*
X146345491Y-103289120D01*
X145954766Y-102947911D01*
X145617064Y-102555099D01*
X145337934Y-102117496D01*
X145122922Y-101641914D01*
X144977576Y-101135165D01*
X144907443Y-100604062D01*
X144901667Y-100400000D01*
X144941999Y-99863079D01*
X145059504Y-99345486D01*
X145248938Y-98854979D01*
X145505059Y-98399317D01*
X145822627Y-97986261D01*
X146196400Y-97623569D01*
X146621135Y-97319001D01*
X147091592Y-97080316D01*
X147163703Y-97051478D01*
X147685902Y-96891389D01*
X148206824Y-96811038D01*
X148720253Y-96806208D01*
X149219976Y-96872682D01*
X149219976Y-96872682D01*
G37*
X149219976Y-96872682D02*
X149699777Y-97006243D01*
X150153442Y-97202672D01*
X150574755Y-97457755D01*
X150957503Y-97767272D01*
X151295470Y-98127007D01*
X151582443Y-98532743D01*
X151812205Y-98980262D01*
X151978542Y-99465348D01*
X152075241Y-99983783D01*
X152098333Y-100400000D01*
X152057838Y-100940782D01*
X151939990Y-101458728D01*
X151750245Y-101947212D01*
X151494060Y-102399610D01*
X151176890Y-102809295D01*
X150804192Y-103169642D01*
X150381422Y-103474025D01*
X149914035Y-103715820D01*
X149407488Y-103888401D01*
X149184193Y-103938686D01*
X148900018Y-103975926D01*
X148571679Y-103991612D01*
X148234765Y-103985839D01*
X147924868Y-103958700D01*
X147780333Y-103935002D01*
X147263822Y-103789477D01*
X146783692Y-103571913D01*
X146735189Y-103540611D01*
X148500000Y-103540611D01*
X148722250Y-103512569D01*
X148894790Y-103485652D01*
X149092145Y-103447592D01*
X149198500Y-103423885D01*
X149349275Y-103377740D01*
X149543578Y-103304123D01*
X149750176Y-103215310D01*
X149854667Y-103165939D01*
X150038630Y-103071099D01*
X150189507Y-102979464D01*
X150329769Y-102874234D01*
X150481888Y-102738606D01*
X150661406Y-102562734D01*
X150843023Y-102375776D01*
X150978114Y-102222189D01*
X151083592Y-102079278D01*
X151176370Y-101924344D01*
X151263582Y-101754667D01*
X151412704Y-101422011D01*
X151511516Y-101122290D01*
X151566487Y-100825636D01*
X151584085Y-100502176D01*
X151579865Y-100294167D01*
X151520949Y-99794391D01*
X151385084Y-99327471D01*
X151170921Y-98890367D01*
X150877112Y-98480042D01*
X150677890Y-98261435D01*
X150280961Y-97912623D01*
X149850996Y-97640222D01*
X149382555Y-97441557D01*
X148870197Y-97313946D01*
X148701083Y-97288329D01*
X148500000Y-97262145D01*
X148500000Y-103540611D01*
X146735189Y-103540611D01*
X146345491Y-103289120D01*
X145954766Y-102947911D01*
X145617064Y-102555099D01*
X145337934Y-102117496D01*
X145122922Y-101641914D01*
X144977576Y-101135165D01*
X144907443Y-100604062D01*
X144901667Y-100400000D01*
X144941999Y-99863079D01*
X145059504Y-99345486D01*
X145248938Y-98854979D01*
X145505059Y-98399317D01*
X145822627Y-97986261D01*
X146196400Y-97623569D01*
X146621135Y-97319001D01*
X147091592Y-97080316D01*
X147163703Y-97051478D01*
X147685902Y-96891389D01*
X148206824Y-96811038D01*
X148720253Y-96806208D01*
X149219976Y-96872682D01*
D12*
X173283836Y-89330998D02*
X173431364Y-89300808D01*
X173496413Y-89318239D01*
X173585271Y-89376908D01*
X173656700Y-89500626D01*
X173663079Y-89606914D01*
X173645650Y-89671963D01*
X173586980Y-89760821D01*
X173257066Y-89951297D01*
X172757066Y-89085272D01*
X173045741Y-88918605D01*
X173152029Y-88912225D01*
X173217078Y-88929655D01*
X173305936Y-88988324D01*
X173353555Y-89070803D01*
X173359935Y-89177091D01*
X173342505Y-89242139D01*
X173283836Y-89330998D01*
X172995161Y-89497665D01*
X173499373Y-88656701D02*
X173994245Y-88370986D01*
X174246809Y-89379869D02*
X173746809Y-88513844D01*
X175236553Y-88808440D02*
X174741681Y-89094154D01*
X174989116Y-88951297D02*
X174489116Y-88085272D01*
X174478066Y-88256609D01*
X174443207Y-88386706D01*
X174384538Y-88475565D01*
X142850000Y-76714286D02*
X142821429Y-76742857D01*
X142735715Y-76771429D01*
X142678572Y-76771429D01*
X142592857Y-76742857D01*
X142535715Y-76685714D01*
X142507143Y-76628571D01*
X142478572Y-76514286D01*
X142478572Y-76428571D01*
X142507143Y-76314286D01*
X142535715Y-76257143D01*
X142592857Y-76200000D01*
X142678572Y-76171429D01*
X142735715Y-76171429D01*
X142821429Y-76200000D01*
X142850000Y-76228571D01*
X143421429Y-76771429D02*
X143078572Y-76771429D01*
X143250000Y-76771429D02*
X143250000Y-76171429D01*
X143192857Y-76257143D01*
X143135715Y-76314286D01*
X143078572Y-76342857D01*
X145950000Y-74364286D02*
X145921429Y-74392857D01*
X145835715Y-74421429D01*
X145778572Y-74421429D01*
X145692857Y-74392857D01*
X145635715Y-74335714D01*
X145607143Y-74278571D01*
X145578572Y-74164286D01*
X145578572Y-74078571D01*
X145607143Y-73964286D01*
X145635715Y-73907143D01*
X145692857Y-73850000D01*
X145778572Y-73821429D01*
X145835715Y-73821429D01*
X145921429Y-73850000D01*
X145950000Y-73878571D01*
X146178572Y-73878571D02*
X146207143Y-73850000D01*
X146264286Y-73821429D01*
X146407143Y-73821429D01*
X146464286Y-73850000D01*
X146492857Y-73878571D01*
X146521429Y-73935714D01*
X146521429Y-73992857D01*
X146492857Y-74078571D01*
X146150000Y-74421429D01*
X146521429Y-74421429D01*
D14*
X151916604Y-75978707D02*
X151892776Y-76002535D01*
X151821293Y-76026362D01*
X151773638Y-76026362D01*
X151702155Y-76002535D01*
X151654500Y-75954880D01*
X151630672Y-75907224D01*
X151606844Y-75811914D01*
X151606844Y-75740431D01*
X151630672Y-75645120D01*
X151654500Y-75597465D01*
X151702155Y-75549810D01*
X151773638Y-75525982D01*
X151821293Y-75525982D01*
X151892776Y-75549810D01*
X151916604Y-75573638D01*
X152083397Y-75525982D02*
X152393156Y-75525982D01*
X152226363Y-75716603D01*
X152297845Y-75716603D01*
X152345501Y-75740431D01*
X152369328Y-75764259D01*
X152393156Y-75811914D01*
X152393156Y-75931052D01*
X152369328Y-75978707D01*
X152345501Y-76002535D01*
X152297845Y-76026362D01*
X152154880Y-76026362D01*
X152107224Y-76002535D01*
X152083397Y-75978707D01*
D12*
X138650000Y-75614286D02*
X138621429Y-75642857D01*
X138535715Y-75671429D01*
X138478572Y-75671429D01*
X138392857Y-75642857D01*
X138335715Y-75585714D01*
X138307143Y-75528571D01*
X138278572Y-75414286D01*
X138278572Y-75328571D01*
X138307143Y-75214286D01*
X138335715Y-75157143D01*
X138392857Y-75100000D01*
X138478572Y-75071429D01*
X138535715Y-75071429D01*
X138621429Y-75100000D01*
X138650000Y-75128571D01*
X139164286Y-75271429D02*
X139164286Y-75671429D01*
X139021429Y-75042857D02*
X138878572Y-75471429D01*
X139250000Y-75471429D01*
D14*
X142866604Y-72828707D02*
X142842776Y-72852535D01*
X142771293Y-72876362D01*
X142723638Y-72876362D01*
X142652155Y-72852535D01*
X142604500Y-72804880D01*
X142580672Y-72757224D01*
X142556844Y-72661914D01*
X142556844Y-72590431D01*
X142580672Y-72495120D01*
X142604500Y-72447465D01*
X142652155Y-72399810D01*
X142723638Y-72375982D01*
X142771293Y-72375982D01*
X142842776Y-72399810D01*
X142866604Y-72423638D01*
X143319328Y-72375982D02*
X143081052Y-72375982D01*
X143057224Y-72614259D01*
X143081052Y-72590431D01*
X143128707Y-72566603D01*
X143247845Y-72566603D01*
X143295501Y-72590431D01*
X143319328Y-72614259D01*
X143343156Y-72661914D01*
X143343156Y-72781052D01*
X143319328Y-72828707D01*
X143295501Y-72852535D01*
X143247845Y-72876362D01*
X143128707Y-72876362D01*
X143081052Y-72852535D01*
X143057224Y-72828707D01*
D12*
X136800000Y-86814286D02*
X136771429Y-86842857D01*
X136685715Y-86871429D01*
X136628572Y-86871429D01*
X136542857Y-86842857D01*
X136485715Y-86785714D01*
X136457143Y-86728571D01*
X136428572Y-86614286D01*
X136428572Y-86528571D01*
X136457143Y-86414286D01*
X136485715Y-86357143D01*
X136542857Y-86300000D01*
X136628572Y-86271429D01*
X136685715Y-86271429D01*
X136771429Y-86300000D01*
X136800000Y-86328571D01*
X137314286Y-86271429D02*
X137200000Y-86271429D01*
X137142857Y-86300000D01*
X137114286Y-86328571D01*
X137057143Y-86414286D01*
X137028572Y-86528571D01*
X137028572Y-86757143D01*
X137057143Y-86814286D01*
X137085715Y-86842857D01*
X137142857Y-86871429D01*
X137257143Y-86871429D01*
X137314286Y-86842857D01*
X137342857Y-86814286D01*
X137371429Y-86757143D01*
X137371429Y-86614286D01*
X137342857Y-86557143D01*
X137314286Y-86528571D01*
X137257143Y-86500000D01*
X137142857Y-86500000D01*
X137085715Y-86528571D01*
X137057143Y-86557143D01*
X137028572Y-86614286D01*
X144700000Y-88964286D02*
X144671429Y-88992857D01*
X144585715Y-89021429D01*
X144528572Y-89021429D01*
X144442857Y-88992857D01*
X144385715Y-88935714D01*
X144357143Y-88878571D01*
X144328572Y-88764286D01*
X144328572Y-88678571D01*
X144357143Y-88564286D01*
X144385715Y-88507143D01*
X144442857Y-88450000D01*
X144528572Y-88421429D01*
X144585715Y-88421429D01*
X144671429Y-88450000D01*
X144700000Y-88478571D01*
X144900000Y-88421429D02*
X145300000Y-88421429D01*
X145042857Y-89021429D01*
X160900000Y-80214286D02*
X160871429Y-80242857D01*
X160785715Y-80271429D01*
X160728572Y-80271429D01*
X160642857Y-80242857D01*
X160585715Y-80185714D01*
X160557143Y-80128571D01*
X160528572Y-80014286D01*
X160528572Y-79928571D01*
X160557143Y-79814286D01*
X160585715Y-79757143D01*
X160642857Y-79700000D01*
X160728572Y-79671429D01*
X160785715Y-79671429D01*
X160871429Y-79700000D01*
X160900000Y-79728571D01*
X161242857Y-79928571D02*
X161185715Y-79900000D01*
X161157143Y-79871429D01*
X161128572Y-79814286D01*
X161128572Y-79785714D01*
X161157143Y-79728571D01*
X161185715Y-79700000D01*
X161242857Y-79671429D01*
X161357143Y-79671429D01*
X161414286Y-79700000D01*
X161442857Y-79728571D01*
X161471429Y-79785714D01*
X161471429Y-79814286D01*
X161442857Y-79871429D01*
X161414286Y-79900000D01*
X161357143Y-79928571D01*
X161242857Y-79928571D01*
X161185715Y-79957143D01*
X161157143Y-79985714D01*
X161128572Y-80042857D01*
X161128572Y-80157143D01*
X161157143Y-80214286D01*
X161185715Y-80242857D01*
X161242857Y-80271429D01*
X161357143Y-80271429D01*
X161414286Y-80242857D01*
X161442857Y-80214286D01*
X161471429Y-80157143D01*
X161471429Y-80042857D01*
X161442857Y-79985714D01*
X161414286Y-79957143D01*
X161357143Y-79928571D01*
D14*
X158566604Y-87828707D02*
X158542776Y-87852535D01*
X158471293Y-87876362D01*
X158423638Y-87876362D01*
X158352155Y-87852535D01*
X158304500Y-87804880D01*
X158280672Y-87757224D01*
X158256844Y-87661914D01*
X158256844Y-87590431D01*
X158280672Y-87495120D01*
X158304500Y-87447465D01*
X158352155Y-87399810D01*
X158423638Y-87375982D01*
X158471293Y-87375982D01*
X158542776Y-87399810D01*
X158566604Y-87423638D01*
X158804880Y-87876362D02*
X158900190Y-87876362D01*
X158947845Y-87852535D01*
X158971673Y-87828707D01*
X159019328Y-87757224D01*
X159043156Y-87661914D01*
X159043156Y-87471293D01*
X159019328Y-87423638D01*
X158995501Y-87399810D01*
X158947845Y-87375982D01*
X158852535Y-87375982D01*
X158804880Y-87399810D01*
X158781052Y-87423638D01*
X158757224Y-87471293D01*
X158757224Y-87590431D01*
X158781052Y-87638086D01*
X158804880Y-87661914D01*
X158852535Y-87685741D01*
X158947845Y-87685741D01*
X158995501Y-87661914D01*
X159019328Y-87638086D01*
X159043156Y-87590431D01*
D17*
X137242310Y-81888700D02*
X137242310Y-82106414D01*
X136734310Y-82106414D01*
X137242310Y-81496814D02*
X137242310Y-81758071D01*
X137242310Y-81627443D02*
X136734310Y-81627443D01*
X136806881Y-81670986D01*
X136855262Y-81714528D01*
X136879452Y-81758071D01*
D18*
X137883810Y-79507619D02*
X137860000Y-79555238D01*
X137812381Y-79602857D01*
X137740952Y-79674286D01*
X137717143Y-79721905D01*
X137717143Y-79769524D01*
X137836190Y-79745714D02*
X137812381Y-79793333D01*
X137764762Y-79840952D01*
X137669524Y-79864762D01*
X137502857Y-79864762D01*
X137407619Y-79840952D01*
X137360000Y-79793333D01*
X137336190Y-79745714D01*
X137336190Y-79650476D01*
X137360000Y-79602857D01*
X137407619Y-79555238D01*
X137502857Y-79531429D01*
X137669524Y-79531429D01*
X137764762Y-79555238D01*
X137812381Y-79602857D01*
X137836190Y-79650476D01*
X137836190Y-79745714D01*
X137836190Y-79055238D02*
X137836190Y-79340952D01*
X137836190Y-79198095D02*
X137336190Y-79198095D01*
X137407619Y-79245714D01*
X137455238Y-79293333D01*
X137479048Y-79340952D01*
D12*
X136900000Y-83871429D02*
X136700000Y-83585714D01*
X136557143Y-83871429D02*
X136557143Y-83271429D01*
X136785715Y-83271429D01*
X136842857Y-83300000D01*
X136871429Y-83328571D01*
X136900000Y-83385714D01*
X136900000Y-83471429D01*
X136871429Y-83528571D01*
X136842857Y-83557143D01*
X136785715Y-83585714D01*
X136557143Y-83585714D01*
X137471429Y-83871429D02*
X137128572Y-83871429D01*
X137300000Y-83871429D02*
X137300000Y-83271429D01*
X137242857Y-83357143D01*
X137185715Y-83414286D01*
X137128572Y-83442857D01*
X136900000Y-85271429D02*
X136700000Y-84985714D01*
X136557143Y-85271429D02*
X136557143Y-84671429D01*
X136785715Y-84671429D01*
X136842857Y-84700000D01*
X136871429Y-84728571D01*
X136900000Y-84785714D01*
X136900000Y-84871429D01*
X136871429Y-84928571D01*
X136842857Y-84957143D01*
X136785715Y-84985714D01*
X136557143Y-84985714D01*
X137128572Y-84728571D02*
X137157143Y-84700000D01*
X137214286Y-84671429D01*
X137357143Y-84671429D01*
X137414286Y-84700000D01*
X137442857Y-84728571D01*
X137471429Y-84785714D01*
X137471429Y-84842857D01*
X137442857Y-84928571D01*
X137100000Y-85271429D01*
X137471429Y-85271429D01*
X138700000Y-89921429D02*
X138500000Y-89635714D01*
X138357143Y-89921429D02*
X138357143Y-89321429D01*
X138585715Y-89321429D01*
X138642857Y-89350000D01*
X138671429Y-89378571D01*
X138700000Y-89435714D01*
X138700000Y-89521429D01*
X138671429Y-89578571D01*
X138642857Y-89607143D01*
X138585715Y-89635714D01*
X138357143Y-89635714D01*
X138900000Y-89321429D02*
X139271429Y-89321429D01*
X139071429Y-89550000D01*
X139157143Y-89550000D01*
X139214286Y-89578571D01*
X139242857Y-89607143D01*
X139271429Y-89664286D01*
X139271429Y-89807143D01*
X139242857Y-89864286D01*
X139214286Y-89892857D01*
X139157143Y-89921429D01*
X138985715Y-89921429D01*
X138928572Y-89892857D01*
X138900000Y-89864286D01*
X138700000Y-91521429D02*
X138500000Y-91235714D01*
X138357143Y-91521429D02*
X138357143Y-90921429D01*
X138585715Y-90921429D01*
X138642857Y-90950000D01*
X138671429Y-90978571D01*
X138700000Y-91035714D01*
X138700000Y-91121429D01*
X138671429Y-91178571D01*
X138642857Y-91207143D01*
X138585715Y-91235714D01*
X138357143Y-91235714D01*
X139214286Y-91121429D02*
X139214286Y-91521429D01*
X139071429Y-90892857D02*
X138928572Y-91321429D01*
X139300000Y-91321429D01*
X145252381Y-83866905D02*
X146061905Y-83866905D01*
X146157143Y-83819286D01*
X146204762Y-83771667D01*
X146252381Y-83676429D01*
X146252381Y-83485952D01*
X146204762Y-83390714D01*
X146157143Y-83343095D01*
X146061905Y-83295476D01*
X145252381Y-83295476D01*
X145347619Y-82866905D02*
X145300000Y-82819286D01*
X145252381Y-82724048D01*
X145252381Y-82485952D01*
X145300000Y-82390714D01*
X145347619Y-82343095D01*
X145442857Y-82295476D01*
X145538095Y-82295476D01*
X145680952Y-82343095D01*
X146252381Y-82914524D01*
X146252381Y-82295476D01*
D19*
X161433551Y-84585714D02*
X161433551Y-84828571D01*
X161447836Y-84857143D01*
X161462122Y-84871429D01*
X161490693Y-84885714D01*
X161547836Y-84885714D01*
X161576408Y-84871429D01*
X161590693Y-84857143D01*
X161604979Y-84828571D01*
X161604979Y-84585714D01*
X161719265Y-84585714D02*
X161904979Y-84585714D01*
X161804979Y-84700000D01*
X161847837Y-84700000D01*
X161876408Y-84714286D01*
X161890694Y-84728571D01*
X161904979Y-84757143D01*
X161904979Y-84828571D01*
X161890694Y-84857143D01*
X161876408Y-84871429D01*
X161847837Y-84885714D01*
X161762122Y-84885714D01*
X161733551Y-84871429D01*
X161719265Y-84857143D01*
X161257144Y-85385714D02*
X161114287Y-85385714D01*
X161114287Y-85085714D01*
X161314286Y-85085714D02*
X161485715Y-85085714D01*
X161400001Y-85385714D02*
X161400001Y-85085714D01*
X161757143Y-85357143D02*
X161742857Y-85371429D01*
X161700000Y-85385714D01*
X161671429Y-85385714D01*
X161628572Y-85371429D01*
X161600000Y-85342857D01*
X161585715Y-85314286D01*
X161571429Y-85257143D01*
X161571429Y-85214286D01*
X161585715Y-85157143D01*
X161600000Y-85128571D01*
X161628572Y-85100000D01*
X161671429Y-85085714D01*
X161700000Y-85085714D01*
X161742857Y-85100000D01*
X161757143Y-85114286D01*
X161857143Y-85085714D02*
X162042857Y-85085714D01*
X161942857Y-85200000D01*
X161985715Y-85200000D01*
X162014286Y-85214286D01*
X162028572Y-85228571D01*
X162042857Y-85257143D01*
X162042857Y-85328571D01*
X162028572Y-85357143D01*
X162014286Y-85371429D01*
X161985715Y-85385714D01*
X161900000Y-85385714D01*
X161871429Y-85371429D01*
X161857143Y-85357143D01*
X162314286Y-85085714D02*
X162171429Y-85085714D01*
X162157143Y-85228571D01*
X162171429Y-85214286D01*
X162200000Y-85200000D01*
X162271429Y-85200000D01*
X162300000Y-85214286D01*
X162314286Y-85228571D01*
X162328571Y-85257143D01*
X162328571Y-85328571D01*
X162314286Y-85357143D01*
X162300000Y-85371429D01*
X162271429Y-85385714D01*
X162200000Y-85385714D01*
X162171429Y-85371429D01*
X162157143Y-85357143D01*
X162442857Y-85114286D02*
X162457143Y-85100000D01*
X162485714Y-85085714D01*
X162557143Y-85085714D01*
X162585714Y-85100000D01*
X162600000Y-85114286D01*
X162614285Y-85142857D01*
X162614285Y-85171429D01*
X162600000Y-85214286D01*
X162428571Y-85385714D01*
X162614285Y-85385714D01*
X162885714Y-85085714D02*
X162742857Y-85085714D01*
X162728571Y-85228571D01*
X162742857Y-85214286D01*
X162771428Y-85200000D01*
X162842857Y-85200000D01*
X162871428Y-85214286D01*
X162885714Y-85228571D01*
X162899999Y-85257143D01*
X162899999Y-85328571D01*
X162885714Y-85357143D01*
X162871428Y-85371429D01*
X162842857Y-85385714D01*
X162771428Y-85385714D01*
X162742857Y-85371429D01*
X162728571Y-85357143D01*
D14*
X174836207Y-80014259D02*
X174669414Y-80014259D01*
X174669414Y-80276362D02*
X174669414Y-79775982D01*
X174907690Y-79775982D01*
X175360415Y-80276362D02*
X175074483Y-80276362D01*
X175217449Y-80276362D02*
X175217449Y-79775982D01*
X175169794Y-79847465D01*
X175122139Y-79895120D01*
X175074483Y-79918948D01*
D12*
X135626667Y-94852381D02*
X135626667Y-95566667D01*
X135579047Y-95709524D01*
X135483809Y-95804762D01*
X135340952Y-95852381D01*
X135245714Y-95852381D01*
X136102857Y-95852381D02*
X136102857Y-94852381D01*
X136483810Y-94852381D01*
X136579048Y-94900000D01*
X136626667Y-94947619D01*
X136674286Y-95042857D01*
X136674286Y-95185714D01*
X136626667Y-95280952D01*
X136579048Y-95328571D01*
X136483810Y-95376190D01*
X136102857Y-95376190D01*
X137626667Y-95852381D02*
X137055238Y-95852381D01*
X137340952Y-95852381D02*
X137340952Y-94852381D01*
X137245714Y-94995238D01*
X137150476Y-95090476D01*
X137055238Y-95138095D01*
X165833334Y-89452381D02*
X165357143Y-89452381D01*
X165357143Y-88452381D01*
X166119048Y-88547619D02*
X166166667Y-88500000D01*
X166261905Y-88452381D01*
X166500001Y-88452381D01*
X166595239Y-88500000D01*
X166642858Y-88547619D01*
X166690477Y-88642857D01*
X166690477Y-88738095D01*
X166642858Y-88880952D01*
X166071429Y-89452381D01*
X166690477Y-89452381D01*
X125352381Y-87121905D02*
X126161905Y-87121905D01*
X126257143Y-87074286D01*
X126304762Y-87026667D01*
X126352381Y-86931429D01*
X126352381Y-86740952D01*
X126304762Y-86645714D01*
X126257143Y-86598095D01*
X126161905Y-86550476D01*
X125352381Y-86550476D01*
X126352381Y-85550476D02*
X126352381Y-86121905D01*
X126352381Y-85836191D02*
X125352381Y-85836191D01*
X125495238Y-85931429D01*
X125590476Y-86026667D01*
X125638095Y-86121905D01*
X121989881Y-76338095D02*
X120989881Y-76338095D01*
X120989881Y-75957142D01*
X121037500Y-75861904D01*
X121085119Y-75814285D01*
X121180357Y-75766666D01*
X121323214Y-75766666D01*
X121418452Y-75814285D01*
X121466071Y-75861904D01*
X121513690Y-75957142D01*
X121513690Y-76338095D01*
X121989881Y-74814285D02*
X121989881Y-75385714D01*
X121989881Y-75100000D02*
X120989881Y-75100000D01*
X121132738Y-75195238D01*
X121227976Y-75290476D01*
X121275595Y-75385714D01*
M02*
