G04 #@! TF.FileFunction,Copper,L1,Top,Signal*
%FSLAX46Y46*%
G04 Gerber Fmt 4.6, Leading zero omitted, Abs format (unit mm)*
G04 Created by KiCad (PCBNEW 4.0.4-stable) date 02/11/17 12:35:40*
%MOMM*%
%LPD*%
G01*
G04 APERTURE LIST*
%ADD10C,0.100000*%
%ADD11C,2.500000*%
%ADD12C,2.032000*%
%ADD13R,0.700000X0.600000*%
%ADD14R,1.600200X1.803400*%
%ADD15R,0.635000X1.143000*%
%ADD16R,1.000760X0.599440*%
%ADD17R,1.500000X0.500000*%
%ADD18R,0.400000X0.700000*%
%ADD19R,2.032000X2.032000*%
%ADD20O,2.032000X2.032000*%
%ADD21R,2.500000X2.500000*%
%ADD22C,1.524000*%
%ADD23R,1.550000X0.600000*%
%ADD24R,1.800000X1.200000*%
%ADD25C,0.600000*%
%ADD26C,0.600000*%
%ADD27C,0.400000*%
%ADD28C,0.200000*%
%ADD29C,0.254000*%
G04 APERTURE END LIST*
D10*
D11*
X140400000Y-67400000D03*
X180375000Y-102400000D03*
D10*
G36*
X175512118Y-83178118D02*
X177271882Y-82162118D01*
X178287882Y-83921882D01*
X176528118Y-84937882D01*
X175512118Y-83178118D01*
X175512118Y-83178118D01*
G37*
D12*
X174700295Y-84820000D02*
X174700295Y-84820000D01*
D13*
X145350000Y-76500000D03*
X144150000Y-76500000D03*
X148500000Y-74200000D03*
X147300000Y-74200000D03*
D14*
X150603000Y-74200000D03*
X153397000Y-74200000D03*
D13*
X139350000Y-74150000D03*
X138150000Y-74150000D03*
D14*
X141603000Y-74150000D03*
X144397000Y-74150000D03*
D13*
X139350000Y-86600000D03*
X138150000Y-86600000D03*
X144200000Y-90000000D03*
X145400000Y-90000000D03*
X161762122Y-81000000D03*
X160562122Y-81000000D03*
D14*
X160047000Y-89100000D03*
X157253000Y-89100000D03*
D15*
X138038000Y-81800000D03*
X139562000Y-81800000D03*
D16*
X139856640Y-79602500D03*
X137743360Y-78650000D03*
X139856640Y-77697500D03*
D13*
X139400000Y-83600000D03*
X138200000Y-83600000D03*
X139400000Y-85000000D03*
X138200000Y-85000000D03*
X139400000Y-88400000D03*
X138200000Y-88400000D03*
X139400000Y-90000000D03*
X138200000Y-90000000D03*
D17*
X143600000Y-78660000D03*
X143600000Y-79930000D03*
X143600000Y-81200000D03*
X143600000Y-82470000D03*
X143600000Y-83740000D03*
X143600000Y-85010000D03*
X143600000Y-86280000D03*
X143600000Y-87550000D03*
X149000000Y-87550000D03*
X149000000Y-86280000D03*
X149000000Y-85010000D03*
X149000000Y-83740000D03*
X149000000Y-82470000D03*
X149000000Y-81200000D03*
X149000000Y-79930000D03*
X149000000Y-78660000D03*
D18*
X162612122Y-84000000D03*
X161962122Y-84000000D03*
X161312122Y-84000000D03*
X161312122Y-85900000D03*
X162612122Y-85900000D03*
X161962122Y-85900000D03*
D11*
X140375000Y-102400000D03*
D14*
X173000000Y-80000000D03*
X170206000Y-80000000D03*
D19*
X135210000Y-97650000D03*
D20*
X137750000Y-97650000D03*
D21*
X166000000Y-83250000D03*
X166000000Y-86750000D03*
D22*
X128100000Y-103260000D03*
X128100000Y-100720000D03*
X128100000Y-98180000D03*
X128100000Y-95640000D03*
X128100000Y-93100000D03*
X128100000Y-90560000D03*
X128100000Y-88020000D03*
X128100000Y-85480000D03*
X124544000Y-103260000D03*
X122004000Y-103260000D03*
X124550000Y-98160000D03*
D23*
X119537500Y-75600000D03*
X119537500Y-76600000D03*
X119537500Y-77600000D03*
X119537500Y-78600000D03*
X119537500Y-79600000D03*
X119537500Y-80600000D03*
D24*
X115662500Y-74300000D03*
X115662500Y-81900000D03*
D25*
X170200000Y-82300000D03*
X121400000Y-78650000D03*
X121450000Y-75600000D03*
X162800000Y-81000000D03*
X157200000Y-91050000D03*
X137000000Y-74200000D03*
X141850000Y-76600000D03*
X144350000Y-72350000D03*
X155500000Y-74150000D03*
X150650000Y-79900000D03*
X150650000Y-81200000D03*
X145200000Y-83750000D03*
X135900000Y-86600000D03*
X135900000Y-85750000D03*
X141950000Y-83750000D03*
X162100000Y-87600000D03*
X161950000Y-82750000D03*
X125400735Y-78349265D03*
X124750000Y-76950000D03*
X162900000Y-82700000D03*
D26*
X161012121Y-81800001D02*
X165600000Y-81800000D01*
X165600000Y-81800000D02*
X166000000Y-81400000D01*
X170206000Y-80000000D02*
X170206000Y-82294000D01*
X170206000Y-82294000D02*
X170200000Y-82300000D01*
D27*
X161312122Y-84000000D02*
X161312122Y-83250000D01*
X161312122Y-83250000D02*
X161012121Y-82949999D01*
X161012121Y-82949999D02*
X161012121Y-81800001D01*
D26*
X161012121Y-81800001D02*
X160562122Y-81350002D01*
X160562122Y-81350002D02*
X160562122Y-81000000D01*
X166000000Y-83250000D02*
X166000000Y-81400000D01*
X166000000Y-81400000D02*
X167400000Y-80000000D01*
X167400000Y-80000000D02*
X168805900Y-80000000D01*
X168805900Y-80000000D02*
X170206000Y-80000000D01*
D27*
X119537500Y-78600000D02*
X121350000Y-78600000D01*
X121350000Y-78600000D02*
X121400000Y-78650000D01*
X119537500Y-75600000D02*
X121450000Y-75600000D01*
X161762122Y-81000000D02*
X162800000Y-81000000D01*
X157253000Y-89100000D02*
X157253000Y-90997000D01*
X157253000Y-90997000D02*
X157200000Y-91050000D01*
X138150000Y-74150000D02*
X137050000Y-74150000D01*
X137050000Y-74150000D02*
X137000000Y-74200000D01*
X144150000Y-76500000D02*
X141950000Y-76500000D01*
X141950000Y-76500000D02*
X141850000Y-76600000D01*
X144397000Y-74150000D02*
X144397000Y-72397000D01*
X144397000Y-72397000D02*
X144350000Y-72350000D01*
X153397000Y-74200000D02*
X155450000Y-74200000D01*
X155450000Y-74200000D02*
X155500000Y-74150000D01*
X150650000Y-79900000D02*
X149030000Y-79900000D01*
X149030000Y-79900000D02*
X149000000Y-79930000D01*
X149000000Y-81200000D02*
X150650000Y-81200000D01*
X143600000Y-83740000D02*
X145190000Y-83740000D01*
X145190000Y-83740000D02*
X145200000Y-83750000D01*
X135900000Y-86600000D02*
X138150000Y-86600000D01*
X138200000Y-85000000D02*
X136650000Y-85000000D01*
X136650000Y-85000000D02*
X135900000Y-85750000D01*
X143600000Y-83740000D02*
X141960000Y-83740000D01*
X141960000Y-83740000D02*
X141950000Y-83750000D01*
X161962122Y-85900000D02*
X161962122Y-87462122D01*
X161962122Y-87462122D02*
X162100000Y-87600000D01*
X161962122Y-85900000D02*
X161962122Y-84000000D01*
X161962122Y-84000000D02*
X161962122Y-82762122D01*
X161962122Y-82762122D02*
X161950000Y-82750000D01*
X145350000Y-78150000D02*
X144840000Y-78660000D01*
X144840000Y-78660000D02*
X143600000Y-78660000D01*
X145350000Y-76500000D02*
X145350000Y-78150000D01*
X148500000Y-74200000D02*
X148500000Y-74900000D01*
X148500000Y-74900000D02*
X146900000Y-76500000D01*
X146900000Y-76500000D02*
X146100000Y-76500000D01*
X146100000Y-76500000D02*
X145350000Y-76500000D01*
X150603000Y-74200000D02*
X148500000Y-74200000D01*
X143600000Y-78660000D02*
X140119420Y-78660000D01*
X140119420Y-78660000D02*
X139856640Y-78397220D01*
X139856640Y-78397220D02*
X139856640Y-77697500D01*
X155750000Y-76500000D02*
X152801400Y-76500000D01*
X152801400Y-76500000D02*
X150603000Y-74301600D01*
X150603000Y-74301600D02*
X150603000Y-74200000D01*
X158350000Y-79100000D02*
X155750000Y-76500000D01*
X158350000Y-86101300D02*
X158350000Y-79100000D01*
X160047000Y-89100000D02*
X160047000Y-87798300D01*
X160047000Y-87798300D02*
X158350000Y-86101300D01*
X161312122Y-85900000D02*
X161312122Y-87733278D01*
X161312122Y-87733278D02*
X160047000Y-88998400D01*
X160047000Y-88998400D02*
X160047000Y-89100000D01*
X117550000Y-75000000D02*
X117550000Y-78787500D01*
X117550000Y-78787500D02*
X118362500Y-79600000D01*
X118362500Y-79600000D02*
X119537500Y-79600000D01*
X118950000Y-73600000D02*
X117550000Y-75000000D01*
X125250000Y-73600000D02*
X118950000Y-73600000D01*
X130250000Y-78600000D02*
X125250000Y-73600000D01*
X135600000Y-78600000D02*
X130250000Y-78600000D01*
X139350000Y-74150000D02*
X139350000Y-74850000D01*
X139350000Y-74850000D02*
X135600000Y-78600000D01*
X135600000Y-78600000D02*
X135600000Y-80900000D01*
X135600000Y-80900000D02*
X136500000Y-81800000D01*
X136500000Y-81800000D02*
X138038000Y-81800000D01*
X141603000Y-74150000D02*
X139350000Y-74150000D01*
X139350000Y-86600000D02*
X140100000Y-86600000D01*
X140100000Y-86600000D02*
X141690000Y-85010000D01*
X141690000Y-85010000D02*
X142450000Y-85010000D01*
X142450000Y-85010000D02*
X143600000Y-85010000D01*
D28*
X139400000Y-90000000D02*
X144200000Y-90000000D01*
X144200000Y-90000000D02*
X144200000Y-88150000D01*
X144200000Y-88150000D02*
X143600000Y-87550000D01*
X139400000Y-88400000D02*
X139950000Y-88400000D01*
X139950000Y-88400000D02*
X142070000Y-86280000D01*
X142070000Y-86280000D02*
X142650000Y-86280000D01*
X142650000Y-86280000D02*
X143600000Y-86280000D01*
X145550000Y-89350000D02*
X145550000Y-87730000D01*
X145550000Y-87730000D02*
X144100000Y-86280000D01*
X144100000Y-86280000D02*
X143600000Y-86280000D01*
X145400000Y-90000000D02*
X145400000Y-89500000D01*
X145400000Y-89500000D02*
X145550000Y-89350000D01*
D27*
X139562000Y-81800000D02*
X139562000Y-83438000D01*
X139562000Y-83438000D02*
X139400000Y-83600000D01*
X139350000Y-80616500D02*
X139010140Y-80616500D01*
X139010140Y-80616500D02*
X137743360Y-79349720D01*
X137743360Y-79349720D02*
X137743360Y-78650000D01*
X139562000Y-81800000D02*
X139562000Y-80828500D01*
X139562000Y-80828500D02*
X139350000Y-80616500D01*
D28*
X139562000Y-81546000D02*
X139562000Y-81800000D01*
D27*
X143600000Y-81200000D02*
X140162000Y-81200000D01*
X140162000Y-81200000D02*
X139562000Y-81800000D01*
X166000000Y-86750000D02*
X164350000Y-86750000D01*
X164350000Y-86750000D02*
X164087878Y-87012122D01*
X164087878Y-87012122D02*
X162962122Y-87012122D01*
X162962122Y-87000000D02*
X162962122Y-87012122D01*
X162612122Y-85900000D02*
X162612122Y-86650000D01*
X162612122Y-86650000D02*
X162962122Y-87000000D01*
D28*
X125400735Y-78349265D02*
X128251470Y-81200000D01*
X128251470Y-81200000D02*
X128534302Y-81200000D01*
X119537500Y-76600000D02*
X124400000Y-76600000D01*
X124400000Y-76600000D02*
X124750000Y-76950000D01*
X128534302Y-81200000D02*
X137334302Y-90000000D01*
X137334302Y-90000000D02*
X137650000Y-90000000D01*
X137650000Y-90000000D02*
X138200000Y-90000000D01*
X125500000Y-77600000D02*
X136300000Y-88400000D01*
X136300000Y-88400000D02*
X138200000Y-88400000D01*
X119537500Y-77600000D02*
X125500000Y-77600000D01*
D27*
X143600000Y-79930000D02*
X140184140Y-79930000D01*
X140184140Y-79930000D02*
X139856640Y-79602500D01*
D28*
X139400000Y-85000000D02*
X139450000Y-85000000D01*
X139450000Y-85000000D02*
X141980000Y-82470000D01*
X141980000Y-82470000D02*
X142650000Y-82470000D01*
X142650000Y-82470000D02*
X143600000Y-82470000D01*
X138200000Y-83600000D02*
X138200000Y-84100000D01*
X138200000Y-84100000D02*
X138499999Y-84399999D01*
X138499999Y-84399999D02*
X138749999Y-84399999D01*
X138749999Y-84399999D02*
X139350000Y-85000000D01*
X139350000Y-85000000D02*
X139400000Y-85000000D01*
X151550000Y-87900000D02*
X151550000Y-85790000D01*
X151550000Y-85790000D02*
X149500000Y-83740000D01*
X149500000Y-83740000D02*
X149000000Y-83740000D01*
X145050000Y-94400000D02*
X151550000Y-87900000D01*
X132957630Y-94400000D02*
X145050000Y-94400000D01*
X128100000Y-98180000D02*
X129177630Y-98180000D01*
X129177630Y-98180000D02*
X132957630Y-94400000D01*
X146950000Y-89640002D02*
X146950000Y-86560000D01*
X146950000Y-86560000D02*
X148500000Y-85010000D01*
X148500000Y-85010000D02*
X149000000Y-85010000D01*
X130867630Y-93950000D02*
X142640002Y-93950000D01*
X142640002Y-93950000D02*
X146950000Y-89640002D01*
X128100000Y-95640000D02*
X129177630Y-95640000D01*
X129177630Y-95640000D02*
X130867630Y-93950000D01*
X162600000Y-83000000D02*
X162612122Y-83012122D01*
X162612122Y-83012122D02*
X162612122Y-84000000D01*
X162900000Y-82700000D02*
X162600000Y-83000000D01*
D26*
X176900000Y-83550000D02*
X176550000Y-83550000D01*
X176550000Y-83550000D02*
X173000000Y-80000000D01*
D27*
X152555999Y-87400000D02*
X152555999Y-80355999D01*
X137750000Y-97650000D02*
X142507120Y-97650000D01*
X142507120Y-97650000D02*
X152555999Y-87601121D01*
X152555999Y-87601121D02*
X152555999Y-87400000D01*
X152555999Y-80355999D02*
X150860000Y-78660000D01*
X150860000Y-78660000D02*
X149000000Y-78660000D01*
D29*
G36*
X165738277Y-71079043D02*
X180389728Y-84074968D01*
X188494691Y-100058211D01*
X188665503Y-101881662D01*
X188126292Y-103629133D01*
X186959398Y-105037238D01*
X185335246Y-105895426D01*
X183981054Y-106093000D01*
X122407098Y-106093000D01*
X121320027Y-105876768D01*
X120424082Y-105278116D01*
X119825430Y-104382171D01*
X119645115Y-103475665D01*
X120914811Y-103475665D01*
X121080252Y-103876063D01*
X121386326Y-104182671D01*
X121786434Y-104348811D01*
X122219665Y-104349189D01*
X122483407Y-104240213D01*
X123743392Y-104240213D01*
X123812857Y-104482397D01*
X124336302Y-104669144D01*
X124891368Y-104641362D01*
X125275143Y-104482397D01*
X125344608Y-104240213D01*
X124544000Y-103439605D01*
X123743392Y-104240213D01*
X122483407Y-104240213D01*
X122620063Y-104183748D01*
X122926671Y-103877674D01*
X123092811Y-103477566D01*
X123093182Y-103052302D01*
X123134856Y-103052302D01*
X123162638Y-103607368D01*
X123321603Y-103991143D01*
X123563787Y-104060608D01*
X124364395Y-103260000D01*
X124723605Y-103260000D01*
X125524213Y-104060608D01*
X125766397Y-103991143D01*
X125950301Y-103475665D01*
X127010811Y-103475665D01*
X127176252Y-103876063D01*
X127482326Y-104182671D01*
X127882434Y-104348811D01*
X128315665Y-104349189D01*
X128716063Y-104183748D01*
X129022671Y-103877674D01*
X129188811Y-103477566D01*
X129189189Y-103044335D01*
X129051999Y-102712308D01*
X138797727Y-102712308D01*
X139037305Y-103292132D01*
X139480535Y-103736136D01*
X140059939Y-103976725D01*
X140687308Y-103977273D01*
X141267132Y-103737695D01*
X141711136Y-103294465D01*
X141951725Y-102715061D01*
X141951727Y-102712308D01*
X178797727Y-102712308D01*
X179037305Y-103292132D01*
X179480535Y-103736136D01*
X180059939Y-103976725D01*
X180687308Y-103977273D01*
X181267132Y-103737695D01*
X181711136Y-103294465D01*
X181951725Y-102715061D01*
X181952273Y-102087692D01*
X181712695Y-101507868D01*
X181269465Y-101063864D01*
X180690061Y-100823275D01*
X180062692Y-100822727D01*
X179482868Y-101062305D01*
X179038864Y-101505535D01*
X178798275Y-102084939D01*
X178797727Y-102712308D01*
X141951727Y-102712308D01*
X141952273Y-102087692D01*
X141712695Y-101507868D01*
X141269465Y-101063864D01*
X140690061Y-100823275D01*
X140062692Y-100822727D01*
X139482868Y-101062305D01*
X139038864Y-101505535D01*
X138798275Y-102084939D01*
X138797727Y-102712308D01*
X129051999Y-102712308D01*
X129023748Y-102643937D01*
X128717674Y-102337329D01*
X128317566Y-102171189D01*
X127884335Y-102170811D01*
X127483937Y-102336252D01*
X127177329Y-102642326D01*
X127011189Y-103042434D01*
X127010811Y-103475665D01*
X125950301Y-103475665D01*
X125953144Y-103467698D01*
X125925362Y-102912632D01*
X125766397Y-102528857D01*
X125524213Y-102459392D01*
X124723605Y-103260000D01*
X124364395Y-103260000D01*
X123563787Y-102459392D01*
X123321603Y-102528857D01*
X123134856Y-103052302D01*
X123093182Y-103052302D01*
X123093189Y-103044335D01*
X122927748Y-102643937D01*
X122621674Y-102337329D01*
X122483099Y-102279787D01*
X123743392Y-102279787D01*
X124544000Y-103080395D01*
X125344608Y-102279787D01*
X125275143Y-102037603D01*
X124751698Y-101850856D01*
X124196632Y-101878638D01*
X123812857Y-102037603D01*
X123743392Y-102279787D01*
X122483099Y-102279787D01*
X122221566Y-102171189D01*
X121788335Y-102170811D01*
X121387937Y-102336252D01*
X121081329Y-102642326D01*
X120915189Y-103042434D01*
X120914811Y-103475665D01*
X119645115Y-103475665D01*
X119609191Y-103295064D01*
X119609191Y-100935665D01*
X127010811Y-100935665D01*
X127176252Y-101336063D01*
X127482326Y-101642671D01*
X127882434Y-101808811D01*
X128315665Y-101809189D01*
X128716063Y-101643748D01*
X129022671Y-101337674D01*
X129188811Y-100937566D01*
X129189189Y-100504335D01*
X129023748Y-100103937D01*
X128717674Y-99797329D01*
X128317566Y-99631189D01*
X127884335Y-99630811D01*
X127483937Y-99796252D01*
X127177329Y-100102326D01*
X127011189Y-100502434D01*
X127010811Y-100935665D01*
X119609191Y-100935665D01*
X119609191Y-98375665D01*
X123460811Y-98375665D01*
X123626252Y-98776063D01*
X123932326Y-99082671D01*
X124332434Y-99248811D01*
X124765665Y-99249189D01*
X125166063Y-99083748D01*
X125472671Y-98777674D01*
X125638811Y-98377566D01*
X125639189Y-97944335D01*
X125473748Y-97543937D01*
X125167674Y-97237329D01*
X124767566Y-97071189D01*
X124334335Y-97070811D01*
X123933937Y-97236252D01*
X123627329Y-97542326D01*
X123461189Y-97942434D01*
X123460811Y-98375665D01*
X119609191Y-98375665D01*
X119609191Y-93315665D01*
X127010811Y-93315665D01*
X127176252Y-93716063D01*
X127482326Y-94022671D01*
X127882434Y-94188811D01*
X128315665Y-94189189D01*
X128716063Y-94023748D01*
X129022671Y-93717674D01*
X129188811Y-93317566D01*
X129189189Y-92884335D01*
X129023748Y-92483937D01*
X128717674Y-92177329D01*
X128317566Y-92011189D01*
X127884335Y-92010811D01*
X127483937Y-92176252D01*
X127177329Y-92482326D01*
X127011189Y-92882434D01*
X127010811Y-93315665D01*
X119609191Y-93315665D01*
X119609191Y-90775665D01*
X127010811Y-90775665D01*
X127176252Y-91176063D01*
X127482326Y-91482671D01*
X127882434Y-91648811D01*
X128315665Y-91649189D01*
X128716063Y-91483748D01*
X129022671Y-91177674D01*
X129188811Y-90777566D01*
X129189189Y-90344335D01*
X129023748Y-89943937D01*
X128717674Y-89637329D01*
X128317566Y-89471189D01*
X127884335Y-89470811D01*
X127483937Y-89636252D01*
X127177329Y-89942326D01*
X127011189Y-90342434D01*
X127010811Y-90775665D01*
X119609191Y-90775665D01*
X119609191Y-88235665D01*
X127010811Y-88235665D01*
X127176252Y-88636063D01*
X127482326Y-88942671D01*
X127882434Y-89108811D01*
X128315665Y-89109189D01*
X128716063Y-88943748D01*
X129022671Y-88637674D01*
X129188811Y-88237566D01*
X129189189Y-87804335D01*
X129023748Y-87403937D01*
X128717674Y-87097329D01*
X128317566Y-86931189D01*
X127884335Y-86930811D01*
X127483937Y-87096252D01*
X127177329Y-87402326D01*
X127011189Y-87802434D01*
X127010811Y-88235665D01*
X119609191Y-88235665D01*
X119609191Y-85695665D01*
X127010811Y-85695665D01*
X127176252Y-86096063D01*
X127482326Y-86402671D01*
X127882434Y-86568811D01*
X128315665Y-86569189D01*
X128716063Y-86403748D01*
X129022671Y-86097674D01*
X129188811Y-85697566D01*
X129189189Y-85264335D01*
X129023748Y-84863937D01*
X128717674Y-84557329D01*
X128317566Y-84391189D01*
X127884335Y-84390811D01*
X127483937Y-84556252D01*
X127177329Y-84862326D01*
X127011189Y-85262434D01*
X127010811Y-85695665D01*
X119609191Y-85695665D01*
X119609191Y-83146750D01*
X119585822Y-83029266D01*
X119519273Y-82929668D01*
X119419675Y-82863119D01*
X119302191Y-82839750D01*
X112935669Y-82839750D01*
X111111800Y-82476960D01*
X109591233Y-81460949D01*
X109483691Y-81300000D01*
X114429094Y-81300000D01*
X114429094Y-82500000D01*
X114451895Y-82621179D01*
X114523512Y-82732474D01*
X114632786Y-82807138D01*
X114762500Y-82833406D01*
X116562500Y-82833406D01*
X116683679Y-82810605D01*
X116794974Y-82738988D01*
X116869638Y-82629714D01*
X116895906Y-82500000D01*
X116895906Y-81300000D01*
X116873105Y-81178821D01*
X116801488Y-81067526D01*
X116692214Y-80992862D01*
X116562500Y-80966594D01*
X114762500Y-80966594D01*
X114641321Y-80989395D01*
X114530026Y-81061012D01*
X114455362Y-81170286D01*
X114429094Y-81300000D01*
X109483691Y-81300000D01*
X108575222Y-79940382D01*
X108218446Y-78146750D01*
X108575222Y-76353118D01*
X109602459Y-74815748D01*
X110055042Y-74421098D01*
X111538319Y-73700000D01*
X114429094Y-73700000D01*
X114429094Y-74900000D01*
X114451895Y-75021179D01*
X114523512Y-75132474D01*
X114632786Y-75207138D01*
X114762500Y-75233406D01*
X116562500Y-75233406D01*
X116683679Y-75210605D01*
X116794974Y-75138988D01*
X116869638Y-75029714D01*
X116875655Y-75000000D01*
X117023000Y-75000000D01*
X117023000Y-78787500D01*
X117063115Y-78989175D01*
X117177355Y-79160145D01*
X117989855Y-79972646D01*
X118160826Y-80086885D01*
X118362500Y-80127000D01*
X118484938Y-80127000D01*
X118455362Y-80170286D01*
X118429094Y-80300000D01*
X118429094Y-80900000D01*
X118451895Y-81021179D01*
X118523512Y-81132474D01*
X118632786Y-81207138D01*
X118762500Y-81233406D01*
X120312500Y-81233406D01*
X120433679Y-81210605D01*
X120544974Y-81138988D01*
X120619638Y-81029714D01*
X120645906Y-80900000D01*
X120645906Y-80300000D01*
X120623105Y-80178821D01*
X120572011Y-80099419D01*
X120619638Y-80029714D01*
X120645906Y-79900000D01*
X120645906Y-79449218D01*
X120672199Y-79438327D01*
X120850827Y-79259698D01*
X120947500Y-79026309D01*
X120947500Y-78885750D01*
X120788750Y-78727000D01*
X119664500Y-78727000D01*
X119664500Y-78747000D01*
X119410500Y-78747000D01*
X119410500Y-78727000D01*
X118286250Y-78727000D01*
X118260520Y-78752730D01*
X118077000Y-78569210D01*
X118077000Y-75885750D01*
X118127500Y-75885750D01*
X118127500Y-76026309D01*
X118224173Y-76259698D01*
X118402801Y-76438327D01*
X118429094Y-76449218D01*
X118429094Y-76900000D01*
X118451895Y-77021179D01*
X118502989Y-77100581D01*
X118455362Y-77170286D01*
X118429094Y-77300000D01*
X118429094Y-77750782D01*
X118402801Y-77761673D01*
X118224173Y-77940302D01*
X118127500Y-78173691D01*
X118127500Y-78314250D01*
X118286250Y-78473000D01*
X119410500Y-78473000D01*
X119410500Y-78453000D01*
X119664500Y-78453000D01*
X119664500Y-78473000D01*
X120788750Y-78473000D01*
X120947500Y-78314250D01*
X120947500Y-78173691D01*
X120886739Y-78027000D01*
X124855645Y-78027000D01*
X124773844Y-78224000D01*
X124773626Y-78473436D01*
X124868880Y-78703968D01*
X125045104Y-78880500D01*
X125275470Y-78976156D01*
X125423886Y-78976286D01*
X127949535Y-81501935D01*
X128088064Y-81594497D01*
X128251470Y-81627001D01*
X128251475Y-81627000D01*
X128357432Y-81627000D01*
X137032365Y-90301932D01*
X137032367Y-90301935D01*
X137170896Y-90394497D01*
X137334302Y-90427000D01*
X137543141Y-90427000D01*
X137611012Y-90532474D01*
X137720286Y-90607138D01*
X137850000Y-90633406D01*
X138550000Y-90633406D01*
X138671179Y-90610605D01*
X138782474Y-90538988D01*
X138799330Y-90514319D01*
X138811012Y-90532474D01*
X138920286Y-90607138D01*
X139050000Y-90633406D01*
X139750000Y-90633406D01*
X139871179Y-90610605D01*
X139982474Y-90538988D01*
X140057138Y-90429714D01*
X140057688Y-90427000D01*
X143543141Y-90427000D01*
X143611012Y-90532474D01*
X143720286Y-90607138D01*
X143850000Y-90633406D01*
X144550000Y-90633406D01*
X144671179Y-90610605D01*
X144782474Y-90538988D01*
X144799330Y-90514319D01*
X144811012Y-90532474D01*
X144920286Y-90607138D01*
X145050000Y-90633406D01*
X145352727Y-90633406D01*
X142463132Y-93523000D01*
X130867635Y-93523000D01*
X130867630Y-93522999D01*
X130704224Y-93555503D01*
X130565695Y-93648065D01*
X129072305Y-95141455D01*
X129023748Y-95023937D01*
X128717674Y-94717329D01*
X128317566Y-94551189D01*
X127884335Y-94550811D01*
X127483937Y-94716252D01*
X127177329Y-95022326D01*
X127011189Y-95422434D01*
X127010811Y-95855665D01*
X127176252Y-96256063D01*
X127482326Y-96562671D01*
X127882434Y-96728811D01*
X128315665Y-96729189D01*
X128716063Y-96563748D01*
X129022671Y-96257674D01*
X129101846Y-96067000D01*
X129177625Y-96067000D01*
X129177630Y-96067001D01*
X129341036Y-96034497D01*
X129479565Y-95941935D01*
X131044500Y-94377000D01*
X132376761Y-94377000D01*
X129072305Y-97681455D01*
X129023748Y-97563937D01*
X128717674Y-97257329D01*
X128317566Y-97091189D01*
X127884335Y-97090811D01*
X127483937Y-97256252D01*
X127177329Y-97562326D01*
X127011189Y-97962434D01*
X127010811Y-98395665D01*
X127176252Y-98796063D01*
X127482326Y-99102671D01*
X127882434Y-99268811D01*
X128315665Y-99269189D01*
X128716063Y-99103748D01*
X129022671Y-98797674D01*
X129101846Y-98607000D01*
X129177625Y-98607000D01*
X129177630Y-98607001D01*
X129341036Y-98574497D01*
X129479565Y-98481935D01*
X133134499Y-94827000D01*
X144584830Y-94827000D01*
X142288830Y-97123000D01*
X138993407Y-97123000D01*
X138990770Y-97109745D01*
X138699644Y-96674045D01*
X138263944Y-96382919D01*
X137750000Y-96280689D01*
X137236056Y-96382919D01*
X136800356Y-96674045D01*
X136559406Y-97034651D01*
X136559406Y-96634000D01*
X136536605Y-96512821D01*
X136464988Y-96401526D01*
X136355714Y-96326862D01*
X136226000Y-96300594D01*
X134194000Y-96300594D01*
X134072821Y-96323395D01*
X133961526Y-96395012D01*
X133886862Y-96504286D01*
X133860594Y-96634000D01*
X133860594Y-98666000D01*
X133883395Y-98787179D01*
X133955012Y-98898474D01*
X134064286Y-98973138D01*
X134194000Y-98999406D01*
X136226000Y-98999406D01*
X136347179Y-98976605D01*
X136458474Y-98904988D01*
X136533138Y-98795714D01*
X136559406Y-98666000D01*
X136559406Y-98265349D01*
X136800356Y-98625955D01*
X137236056Y-98917081D01*
X137750000Y-99019311D01*
X138263944Y-98917081D01*
X138699644Y-98625955D01*
X138990770Y-98190255D01*
X138993407Y-98177000D01*
X142507120Y-98177000D01*
X142708795Y-98136885D01*
X142879765Y-98022645D01*
X151516660Y-89385750D01*
X155817900Y-89385750D01*
X155817900Y-90128010D01*
X155914573Y-90361399D01*
X156093202Y-90540027D01*
X156326591Y-90636700D01*
X156967250Y-90636700D01*
X157126000Y-90477950D01*
X157126000Y-89227000D01*
X157380000Y-89227000D01*
X157380000Y-90477950D01*
X157538750Y-90636700D01*
X158179409Y-90636700D01*
X158412798Y-90540027D01*
X158591427Y-90361399D01*
X158688100Y-90128010D01*
X158688100Y-89385750D01*
X158529350Y-89227000D01*
X157380000Y-89227000D01*
X157126000Y-89227000D01*
X155976650Y-89227000D01*
X155817900Y-89385750D01*
X151516660Y-89385750D01*
X152830420Y-88071990D01*
X155817900Y-88071990D01*
X155817900Y-88814250D01*
X155976650Y-88973000D01*
X157126000Y-88973000D01*
X157126000Y-87722050D01*
X157380000Y-87722050D01*
X157380000Y-88973000D01*
X158529350Y-88973000D01*
X158688100Y-88814250D01*
X158688100Y-88071990D01*
X158591427Y-87838601D01*
X158412798Y-87659973D01*
X158179409Y-87563300D01*
X157538750Y-87563300D01*
X157380000Y-87722050D01*
X157126000Y-87722050D01*
X156967250Y-87563300D01*
X156326591Y-87563300D01*
X156093202Y-87659973D01*
X155914573Y-87838601D01*
X155817900Y-88071990D01*
X152830420Y-88071990D01*
X152928644Y-87973766D01*
X153042884Y-87802796D01*
X153082999Y-87601121D01*
X153082999Y-80355999D01*
X153042884Y-80154325D01*
X152928644Y-79983354D01*
X151232645Y-78287355D01*
X151061675Y-78173115D01*
X150860000Y-78133000D01*
X149923822Y-78133000D01*
X149879714Y-78102862D01*
X149750000Y-78076594D01*
X148250000Y-78076594D01*
X148128821Y-78099395D01*
X148017526Y-78171012D01*
X147942862Y-78280286D01*
X147916594Y-78410000D01*
X147916594Y-78910000D01*
X147939395Y-79031179D01*
X147985202Y-79102364D01*
X147890301Y-79141673D01*
X147711673Y-79320302D01*
X147615000Y-79553691D01*
X147615000Y-79646250D01*
X147773750Y-79805000D01*
X148873000Y-79805000D01*
X148873000Y-79783000D01*
X149127000Y-79783000D01*
X149127000Y-79805000D01*
X150226250Y-79805000D01*
X150385000Y-79646250D01*
X150385000Y-79553691D01*
X150288327Y-79320302D01*
X150155026Y-79187000D01*
X150641710Y-79187000D01*
X152028999Y-80574289D01*
X152028999Y-87382831D01*
X151977000Y-87434830D01*
X151977000Y-85790005D01*
X151977001Y-85790000D01*
X151944497Y-85626594D01*
X151936249Y-85614250D01*
X151851935Y-85488065D01*
X151851932Y-85488063D01*
X150083406Y-83719536D01*
X150083406Y-83490000D01*
X150060605Y-83368821D01*
X149988988Y-83257526D01*
X149879714Y-83182862D01*
X149750000Y-83156594D01*
X148250000Y-83156594D01*
X148128821Y-83179395D01*
X148017526Y-83251012D01*
X147942862Y-83360286D01*
X147916594Y-83490000D01*
X147916594Y-83990000D01*
X147939395Y-84111179D01*
X148011012Y-84222474D01*
X148120286Y-84297138D01*
X148250000Y-84323406D01*
X149479536Y-84323406D01*
X149582724Y-84426594D01*
X148250000Y-84426594D01*
X148128821Y-84449395D01*
X148017526Y-84521012D01*
X147942862Y-84630286D01*
X147916594Y-84760000D01*
X147916594Y-84989536D01*
X146648065Y-86258065D01*
X146555503Y-86396594D01*
X146522999Y-86560000D01*
X146523000Y-86560005D01*
X146523000Y-89463133D01*
X146083406Y-89902727D01*
X146083406Y-89700000D01*
X146060605Y-89578821D01*
X145988988Y-89467526D01*
X145957855Y-89446253D01*
X145977001Y-89350000D01*
X145977000Y-89349995D01*
X145977000Y-87730005D01*
X145977001Y-87730000D01*
X145944497Y-87566594D01*
X145926141Y-87539122D01*
X145851935Y-87428065D01*
X145851932Y-87428063D01*
X144683406Y-86259536D01*
X144683406Y-86030000D01*
X144660605Y-85908821D01*
X144588988Y-85797526D01*
X144479714Y-85722862D01*
X144350000Y-85696594D01*
X142850000Y-85696594D01*
X142728821Y-85719395D01*
X142617526Y-85791012D01*
X142575171Y-85853000D01*
X142070005Y-85853000D01*
X142070000Y-85852999D01*
X141906594Y-85885503D01*
X141768065Y-85978065D01*
X141768063Y-85978068D01*
X139923411Y-87822719D01*
X139879714Y-87792862D01*
X139750000Y-87766594D01*
X139050000Y-87766594D01*
X138928821Y-87789395D01*
X138817526Y-87861012D01*
X138800670Y-87885681D01*
X138788988Y-87867526D01*
X138679714Y-87792862D01*
X138550000Y-87766594D01*
X137850000Y-87766594D01*
X137728821Y-87789395D01*
X137617526Y-87861012D01*
X137542862Y-87970286D01*
X137542312Y-87973000D01*
X136476869Y-87973000D01*
X135389620Y-86885750D01*
X137165000Y-86885750D01*
X137165000Y-87026310D01*
X137261673Y-87259699D01*
X137440302Y-87438327D01*
X137673691Y-87535000D01*
X137864250Y-87535000D01*
X138023000Y-87376250D01*
X138023000Y-86727000D01*
X137323750Y-86727000D01*
X137165000Y-86885750D01*
X135389620Y-86885750D01*
X134677560Y-86173690D01*
X137165000Y-86173690D01*
X137165000Y-86314250D01*
X137323750Y-86473000D01*
X138023000Y-86473000D01*
X138023000Y-85826250D01*
X138073000Y-85776250D01*
X138073000Y-85127000D01*
X137373750Y-85127000D01*
X137215000Y-85285750D01*
X137215000Y-85426310D01*
X137311673Y-85659699D01*
X137426975Y-85775000D01*
X137261673Y-85940301D01*
X137165000Y-86173690D01*
X134677560Y-86173690D01*
X125801935Y-77298065D01*
X125663406Y-77205503D01*
X125500000Y-77172999D01*
X125499995Y-77173000D01*
X125336308Y-77173000D01*
X125376891Y-77075265D01*
X125377109Y-76825829D01*
X125281855Y-76595297D01*
X125105631Y-76418765D01*
X124875265Y-76323109D01*
X124726849Y-76322979D01*
X124701935Y-76298065D01*
X124563406Y-76205503D01*
X124400000Y-76172999D01*
X124399995Y-76173000D01*
X120886739Y-76173000D01*
X120947500Y-76026309D01*
X120947500Y-75885750D01*
X120788750Y-75727000D01*
X119664500Y-75727000D01*
X119664500Y-75747000D01*
X119410500Y-75747000D01*
X119410500Y-75727000D01*
X118286250Y-75727000D01*
X118127500Y-75885750D01*
X118077000Y-75885750D01*
X118077000Y-75218290D01*
X118131673Y-75163617D01*
X118127500Y-75173691D01*
X118127500Y-75314250D01*
X118286250Y-75473000D01*
X119410500Y-75473000D01*
X119410500Y-74823750D01*
X119664500Y-74823750D01*
X119664500Y-75473000D01*
X120788750Y-75473000D01*
X120947500Y-75314250D01*
X120947500Y-75173691D01*
X120850827Y-74940302D01*
X120672199Y-74761673D01*
X120438810Y-74665000D01*
X119823250Y-74665000D01*
X119664500Y-74823750D01*
X119410500Y-74823750D01*
X119251750Y-74665000D01*
X118636190Y-74665000D01*
X118626118Y-74669172D01*
X119168290Y-74127000D01*
X125031710Y-74127000D01*
X129877355Y-78972645D01*
X130048326Y-79086885D01*
X130250000Y-79127000D01*
X135073000Y-79127000D01*
X135073000Y-80900000D01*
X135113115Y-81101675D01*
X135227355Y-81272645D01*
X136127355Y-82172645D01*
X136298325Y-82286885D01*
X136331785Y-82293540D01*
X136500000Y-82327000D01*
X137387094Y-82327000D01*
X137387094Y-82371500D01*
X137409895Y-82492679D01*
X137481512Y-82603974D01*
X137590786Y-82678638D01*
X137720500Y-82704906D01*
X138355500Y-82704906D01*
X138476679Y-82682105D01*
X138587974Y-82610488D01*
X138662638Y-82501214D01*
X138688906Y-82371500D01*
X138688906Y-81228500D01*
X138666105Y-81107321D01*
X138594488Y-80996026D01*
X138485214Y-80921362D01*
X138355500Y-80895094D01*
X137720500Y-80895094D01*
X137599321Y-80917895D01*
X137488026Y-80989512D01*
X137413362Y-81098786D01*
X137387094Y-81228500D01*
X137387094Y-81273000D01*
X136718290Y-81273000D01*
X136127000Y-80681710D01*
X136127000Y-78818290D01*
X136595010Y-78350280D01*
X136909574Y-78350280D01*
X136909574Y-78949720D01*
X136932375Y-79070899D01*
X137003992Y-79182194D01*
X137113266Y-79256858D01*
X137216360Y-79277735D01*
X137216360Y-79349720D01*
X137256475Y-79551395D01*
X137370715Y-79722365D01*
X138637494Y-80989145D01*
X138708507Y-81036594D01*
X138808466Y-81103385D01*
X138931476Y-81127853D01*
X138911094Y-81228500D01*
X138911094Y-82371500D01*
X138933895Y-82492679D01*
X139005512Y-82603974D01*
X139035000Y-82624122D01*
X139035000Y-82969416D01*
X138928821Y-82989395D01*
X138817526Y-83061012D01*
X138800670Y-83085681D01*
X138788988Y-83067526D01*
X138679714Y-82992862D01*
X138550000Y-82966594D01*
X137850000Y-82966594D01*
X137728821Y-82989395D01*
X137617526Y-83061012D01*
X137542862Y-83170286D01*
X137516594Y-83300000D01*
X137516594Y-83900000D01*
X137539395Y-84021179D01*
X137600444Y-84116051D01*
X137490302Y-84161673D01*
X137311673Y-84340301D01*
X137215000Y-84573690D01*
X137215000Y-84714250D01*
X137373750Y-84873000D01*
X138073000Y-84873000D01*
X138073000Y-84853000D01*
X138327000Y-84853000D01*
X138327000Y-84873000D01*
X138347000Y-84873000D01*
X138347000Y-85127000D01*
X138327000Y-85127000D01*
X138327000Y-85773750D01*
X138277000Y-85823750D01*
X138277000Y-86473000D01*
X138297000Y-86473000D01*
X138297000Y-86727000D01*
X138277000Y-86727000D01*
X138277000Y-87376250D01*
X138435750Y-87535000D01*
X138626309Y-87535000D01*
X138859698Y-87438327D01*
X139038327Y-87259699D01*
X139049218Y-87233406D01*
X139700000Y-87233406D01*
X139821179Y-87210605D01*
X139932474Y-87138988D01*
X139940665Y-87127000D01*
X140100000Y-87127000D01*
X140301675Y-87086885D01*
X140472645Y-86972645D01*
X141908291Y-85537000D01*
X142823907Y-85537000D01*
X142850000Y-85542284D01*
X144350000Y-85542284D01*
X144452598Y-85522979D01*
X144546828Y-85462343D01*
X144610044Y-85369824D01*
X144632284Y-85260000D01*
X144632284Y-84760000D01*
X144612979Y-84657402D01*
X144567755Y-84587122D01*
X144709699Y-84528327D01*
X144888327Y-84349698D01*
X144985000Y-84116309D01*
X144985000Y-84023750D01*
X144826250Y-83865000D01*
X143727000Y-83865000D01*
X143727000Y-83887000D01*
X143473000Y-83887000D01*
X143473000Y-83865000D01*
X142373750Y-83865000D01*
X142215000Y-84023750D01*
X142215000Y-84116309D01*
X142311673Y-84349698D01*
X142444974Y-84483000D01*
X141690000Y-84483000D01*
X141488326Y-84523115D01*
X141317355Y-84637354D01*
X139908212Y-86046498D01*
X139829714Y-85992862D01*
X139700000Y-85966594D01*
X139049218Y-85966594D01*
X139038327Y-85940301D01*
X138923025Y-85825000D01*
X139088327Y-85659699D01*
X139099218Y-85633406D01*
X139750000Y-85633406D01*
X139871179Y-85610605D01*
X139982474Y-85538988D01*
X140057138Y-85429714D01*
X140083406Y-85300000D01*
X140083406Y-84970464D01*
X142156869Y-82897000D01*
X142622293Y-82897000D01*
X142490301Y-82951673D01*
X142311673Y-83130302D01*
X142215000Y-83363691D01*
X142215000Y-83456250D01*
X142373750Y-83615000D01*
X143473000Y-83615000D01*
X143473000Y-83593000D01*
X143727000Y-83593000D01*
X143727000Y-83615000D01*
X144826250Y-83615000D01*
X144985000Y-83456250D01*
X144985000Y-83363691D01*
X144888327Y-83130302D01*
X144709699Y-82951673D01*
X144567136Y-82892621D01*
X144610044Y-82829824D01*
X144632284Y-82720000D01*
X144632284Y-82220000D01*
X144612979Y-82117402D01*
X144552343Y-82023172D01*
X144459824Y-81959956D01*
X144350000Y-81937716D01*
X142850000Y-81937716D01*
X142747402Y-81957021D01*
X142653172Y-82017657D01*
X142635856Y-82043000D01*
X141980000Y-82043000D01*
X141816594Y-82075503D01*
X141678065Y-82168065D01*
X141678063Y-82168068D01*
X140083406Y-83762724D01*
X140083406Y-83466123D01*
X140089000Y-83438000D01*
X140089000Y-82625271D01*
X140111974Y-82610488D01*
X140186638Y-82501214D01*
X140212906Y-82371500D01*
X140212906Y-81894384D01*
X140380290Y-81727000D01*
X142823907Y-81727000D01*
X142850000Y-81732284D01*
X144350000Y-81732284D01*
X144452598Y-81712979D01*
X144546828Y-81652343D01*
X144610044Y-81559824D01*
X144625449Y-81483750D01*
X147615000Y-81483750D01*
X147615000Y-81576309D01*
X147711673Y-81809698D01*
X147890301Y-81988327D01*
X147985566Y-82027787D01*
X147942862Y-82090286D01*
X147916594Y-82220000D01*
X147916594Y-82720000D01*
X147939395Y-82841179D01*
X148011012Y-82952474D01*
X148120286Y-83027138D01*
X148250000Y-83053406D01*
X149750000Y-83053406D01*
X149871179Y-83030605D01*
X149982474Y-82958988D01*
X150057138Y-82849714D01*
X150083406Y-82720000D01*
X150083406Y-82220000D01*
X150060605Y-82098821D01*
X150014798Y-82027636D01*
X150109699Y-81988327D01*
X150288327Y-81809698D01*
X150385000Y-81576309D01*
X150385000Y-81483750D01*
X150226250Y-81325000D01*
X149127000Y-81325000D01*
X149127000Y-81347000D01*
X148873000Y-81347000D01*
X148873000Y-81325000D01*
X147773750Y-81325000D01*
X147615000Y-81483750D01*
X144625449Y-81483750D01*
X144632284Y-81450000D01*
X144632284Y-80950000D01*
X144612979Y-80847402D01*
X144552343Y-80753172D01*
X144459824Y-80689956D01*
X144350000Y-80667716D01*
X142850000Y-80667716D01*
X142821918Y-80673000D01*
X140162000Y-80673000D01*
X140062025Y-80692886D01*
X140048885Y-80626826D01*
X140048885Y-80626825D01*
X139934645Y-80455855D01*
X139722645Y-80243855D01*
X139710330Y-80235626D01*
X139744476Y-80235626D01*
X139811495Y-80302645D01*
X139982465Y-80416885D01*
X140184140Y-80457000D01*
X142823907Y-80457000D01*
X142850000Y-80462284D01*
X144350000Y-80462284D01*
X144452598Y-80442979D01*
X144546828Y-80382343D01*
X144610044Y-80289824D01*
X144625449Y-80213750D01*
X147615000Y-80213750D01*
X147615000Y-80306309D01*
X147711673Y-80539698D01*
X147736975Y-80565000D01*
X147711673Y-80590302D01*
X147615000Y-80823691D01*
X147615000Y-80916250D01*
X147773750Y-81075000D01*
X148873000Y-81075000D01*
X148873000Y-80055000D01*
X149127000Y-80055000D01*
X149127000Y-81075000D01*
X150226250Y-81075000D01*
X150385000Y-80916250D01*
X150385000Y-80823691D01*
X150288327Y-80590302D01*
X150263025Y-80565000D01*
X150288327Y-80539698D01*
X150385000Y-80306309D01*
X150385000Y-80213750D01*
X150226250Y-80055000D01*
X149127000Y-80055000D01*
X148873000Y-80055000D01*
X147773750Y-80055000D01*
X147615000Y-80213750D01*
X144625449Y-80213750D01*
X144632284Y-80180000D01*
X144632284Y-79680000D01*
X144612979Y-79577402D01*
X144552343Y-79483172D01*
X144459824Y-79419956D01*
X144350000Y-79397716D01*
X142850000Y-79397716D01*
X142821918Y-79403000D01*
X140690426Y-79403000D01*
X140690426Y-79302780D01*
X140668641Y-79187000D01*
X142823907Y-79187000D01*
X142850000Y-79192284D01*
X144350000Y-79192284D01*
X144378082Y-79187000D01*
X144840000Y-79187000D01*
X145041675Y-79146885D01*
X145212645Y-79032645D01*
X145722645Y-78522645D01*
X145836885Y-78351675D01*
X145877000Y-78150000D01*
X145877000Y-77074685D01*
X145932474Y-77038988D01*
X145940665Y-77027000D01*
X146900000Y-77027000D01*
X147101675Y-76986885D01*
X147272645Y-76872645D01*
X148872645Y-75272645D01*
X148986885Y-75101674D01*
X149027000Y-74900000D01*
X149027000Y-74774685D01*
X149082474Y-74738988D01*
X149090665Y-74727000D01*
X149469494Y-74727000D01*
X149469494Y-75101700D01*
X149492295Y-75222879D01*
X149563912Y-75334174D01*
X149673186Y-75408838D01*
X149802900Y-75435106D01*
X150991216Y-75435106D01*
X152428755Y-76872645D01*
X152599725Y-76986885D01*
X152801400Y-77027000D01*
X155531710Y-77027000D01*
X157823000Y-79318290D01*
X157823000Y-86101300D01*
X157863115Y-86302975D01*
X157977355Y-86473945D01*
X159368303Y-87864894D01*
X159246900Y-87864894D01*
X159125721Y-87887695D01*
X159014426Y-87959312D01*
X158939762Y-88068586D01*
X158913494Y-88198300D01*
X158913494Y-90001700D01*
X158936295Y-90122879D01*
X159007912Y-90234174D01*
X159117186Y-90308838D01*
X159246900Y-90335106D01*
X160847100Y-90335106D01*
X160968279Y-90312305D01*
X161079574Y-90240688D01*
X161154238Y-90131414D01*
X161180506Y-90001700D01*
X161180506Y-88610184D01*
X161684767Y-88105923D01*
X161799007Y-87934952D01*
X161839122Y-87733278D01*
X161839122Y-86749250D01*
X161862122Y-86726250D01*
X161862122Y-86027000D01*
X161845528Y-86027000D01*
X161845528Y-85773000D01*
X161862122Y-85773000D01*
X161862122Y-85073750D01*
X161738372Y-84950000D01*
X161862122Y-84826250D01*
X161862122Y-84127000D01*
X161845528Y-84127000D01*
X161845528Y-83873000D01*
X161862122Y-83873000D01*
X161862122Y-83173750D01*
X161814478Y-83126106D01*
X161799007Y-83048326D01*
X161739313Y-82958988D01*
X161684767Y-82877354D01*
X161539121Y-82731708D01*
X161539121Y-82427001D01*
X162334453Y-82427001D01*
X162273109Y-82574735D01*
X162272968Y-82735625D01*
X162205503Y-82836594D01*
X162172999Y-83000000D01*
X162183430Y-83052442D01*
X162062122Y-83173750D01*
X162062122Y-83873000D01*
X162078716Y-83873000D01*
X162078716Y-84127000D01*
X162062122Y-84127000D01*
X162062122Y-84826250D01*
X162185872Y-84950000D01*
X162062122Y-85073750D01*
X162062122Y-85773000D01*
X162078716Y-85773000D01*
X162078716Y-86027000D01*
X162062122Y-86027000D01*
X162062122Y-86726250D01*
X162109766Y-86773894D01*
X162125237Y-86851675D01*
X162239477Y-87022645D01*
X162565067Y-87348235D01*
X162589477Y-87384767D01*
X162760448Y-87499007D01*
X162962122Y-87539122D01*
X164087878Y-87539122D01*
X164289553Y-87499007D01*
X164416594Y-87414120D01*
X164416594Y-88000000D01*
X164439395Y-88121179D01*
X164511012Y-88232474D01*
X164620286Y-88307138D01*
X164750000Y-88333406D01*
X167250000Y-88333406D01*
X167371179Y-88310605D01*
X167482474Y-88238988D01*
X167557138Y-88129714D01*
X167583406Y-88000000D01*
X167583406Y-85673669D01*
X173475697Y-85673669D01*
X173500946Y-85954632D01*
X174026446Y-86327235D01*
X174654533Y-86470374D01*
X175171643Y-86402287D01*
X175333728Y-86171138D01*
X174653810Y-84993485D01*
X173475697Y-85673669D01*
X167583406Y-85673669D01*
X167583406Y-85500000D01*
X167560605Y-85378821D01*
X167488988Y-85267526D01*
X167379714Y-85192862D01*
X167250000Y-85166594D01*
X164750000Y-85166594D01*
X164628821Y-85189395D01*
X164517526Y-85261012D01*
X164442862Y-85370286D01*
X164416594Y-85500000D01*
X164416594Y-86223000D01*
X164350000Y-86223000D01*
X164148326Y-86263115D01*
X164123056Y-86280000D01*
X163977354Y-86377355D01*
X163869587Y-86485122D01*
X163192534Y-86485122D01*
X163139122Y-86431710D01*
X163139122Y-86281633D01*
X163145528Y-86250000D01*
X163145528Y-85550000D01*
X163122727Y-85428821D01*
X163051110Y-85317526D01*
X162941836Y-85242862D01*
X162812122Y-85216594D01*
X162711340Y-85216594D01*
X162700449Y-85190301D01*
X162521820Y-85011673D01*
X162372928Y-84950000D01*
X162521820Y-84888327D01*
X162700449Y-84709699D01*
X162711340Y-84683406D01*
X162812122Y-84683406D01*
X162933301Y-84660605D01*
X163044596Y-84588988D01*
X163119260Y-84479714D01*
X163145528Y-84350000D01*
X163145528Y-83650000D01*
X163122727Y-83528821D01*
X163051110Y-83417526D01*
X163039122Y-83409335D01*
X163039122Y-83320931D01*
X163254703Y-83231855D01*
X163431235Y-83055631D01*
X163526891Y-82825265D01*
X163527109Y-82575829D01*
X163465614Y-82427000D01*
X164416594Y-82427000D01*
X164416594Y-84500000D01*
X164439395Y-84621179D01*
X164511012Y-84732474D01*
X164620286Y-84807138D01*
X164750000Y-84833406D01*
X167250000Y-84833406D01*
X167371179Y-84810605D01*
X167482474Y-84738988D01*
X167543309Y-84649953D01*
X173058067Y-84649953D01*
X173118000Y-85291351D01*
X173348697Y-85453698D01*
X174526810Y-84773515D01*
X173846892Y-83595862D01*
X173565668Y-83620657D01*
X173248148Y-84034444D01*
X173058067Y-84649953D01*
X167543309Y-84649953D01*
X167557138Y-84629714D01*
X167583406Y-84500000D01*
X167583406Y-82000000D01*
X167560605Y-81878821D01*
X167488988Y-81767526D01*
X167379714Y-81692862D01*
X167250000Y-81666594D01*
X166627000Y-81666594D01*
X166627000Y-81659712D01*
X167659712Y-80627000D01*
X169072494Y-80627000D01*
X169072494Y-80901700D01*
X169095295Y-81022879D01*
X169166912Y-81134174D01*
X169276186Y-81208838D01*
X169405900Y-81235106D01*
X169579000Y-81235106D01*
X169579000Y-82160548D01*
X169573109Y-82174735D01*
X169572891Y-82424171D01*
X169668145Y-82654703D01*
X169844369Y-82831235D01*
X170074735Y-82926891D01*
X170324171Y-82927109D01*
X170554703Y-82831855D01*
X170731235Y-82655631D01*
X170776005Y-82547811D01*
X170785272Y-82533943D01*
X170788498Y-82517727D01*
X170826891Y-82425265D01*
X170826979Y-82324268D01*
X170833000Y-82294000D01*
X170833000Y-81235106D01*
X171006100Y-81235106D01*
X171127279Y-81212305D01*
X171238574Y-81140688D01*
X171313238Y-81031414D01*
X171339506Y-80901700D01*
X171339506Y-79098300D01*
X171866494Y-79098300D01*
X171866494Y-80901700D01*
X171889295Y-81022879D01*
X171960912Y-81134174D01*
X172070186Y-81208838D01*
X172199900Y-81235106D01*
X173348394Y-81235106D01*
X175194482Y-83081194D01*
X175191295Y-83087385D01*
X175181272Y-83219352D01*
X175199245Y-83272906D01*
X174746057Y-83169626D01*
X174228947Y-83237713D01*
X174066862Y-83468862D01*
X174746780Y-84646515D01*
X174764101Y-84636515D01*
X174891101Y-84856485D01*
X174873780Y-84866485D01*
X175553698Y-86044138D01*
X175834922Y-86019343D01*
X176152442Y-85605556D01*
X176289227Y-85162627D01*
X176319716Y-85198128D01*
X176437385Y-85258705D01*
X176569352Y-85268728D01*
X176694821Y-85226620D01*
X178454585Y-84210620D01*
X178548128Y-84130284D01*
X178608705Y-84012615D01*
X178618728Y-83880648D01*
X178576620Y-83755179D01*
X177560620Y-81995415D01*
X177480284Y-81901872D01*
X177362615Y-81841295D01*
X177230648Y-81831272D01*
X177105179Y-81873380D01*
X176252428Y-82365716D01*
X174133506Y-80246794D01*
X174133506Y-79098300D01*
X174110705Y-78977121D01*
X174039088Y-78865826D01*
X173929814Y-78791162D01*
X173800100Y-78764894D01*
X172199900Y-78764894D01*
X172078721Y-78787695D01*
X171967426Y-78859312D01*
X171892762Y-78968586D01*
X171866494Y-79098300D01*
X171339506Y-79098300D01*
X171316705Y-78977121D01*
X171245088Y-78865826D01*
X171135814Y-78791162D01*
X171006100Y-78764894D01*
X169405900Y-78764894D01*
X169284721Y-78787695D01*
X169173426Y-78859312D01*
X169098762Y-78968586D01*
X169072494Y-79098300D01*
X169072494Y-79373000D01*
X167400000Y-79373000D01*
X167160057Y-79420728D01*
X166956644Y-79556644D01*
X165340288Y-81173000D01*
X162634373Y-81173001D01*
X162588372Y-81127000D01*
X161889122Y-81127000D01*
X161889122Y-81147000D01*
X161635122Y-81147000D01*
X161635122Y-81127000D01*
X161615122Y-81127000D01*
X161615122Y-80873000D01*
X161635122Y-80873000D01*
X161635122Y-80223750D01*
X161889122Y-80223750D01*
X161889122Y-80873000D01*
X162588372Y-80873000D01*
X162747122Y-80714250D01*
X162747122Y-80573690D01*
X162650449Y-80340301D01*
X162471820Y-80161673D01*
X162238431Y-80065000D01*
X162047872Y-80065000D01*
X161889122Y-80223750D01*
X161635122Y-80223750D01*
X161476372Y-80065000D01*
X161285813Y-80065000D01*
X161052424Y-80161673D01*
X160873795Y-80340301D01*
X160862904Y-80366594D01*
X160212122Y-80366594D01*
X160090943Y-80389395D01*
X159979648Y-80461012D01*
X159904984Y-80570286D01*
X159878716Y-80700000D01*
X159878716Y-81300000D01*
X159901517Y-81421179D01*
X159970651Y-81528615D01*
X159982850Y-81589945D01*
X160065059Y-81712979D01*
X160118766Y-81793358D01*
X160485121Y-82159713D01*
X160485121Y-82949999D01*
X160525236Y-83151674D01*
X160639476Y-83322644D01*
X160785122Y-83468290D01*
X160785122Y-83618367D01*
X160778716Y-83650000D01*
X160778716Y-84350000D01*
X160801517Y-84471179D01*
X160873134Y-84582474D01*
X160982408Y-84657138D01*
X161112122Y-84683406D01*
X161212904Y-84683406D01*
X161223795Y-84709699D01*
X161402424Y-84888327D01*
X161551316Y-84950000D01*
X161402424Y-85011673D01*
X161223795Y-85190301D01*
X161212904Y-85216594D01*
X161112122Y-85216594D01*
X160990943Y-85239395D01*
X160879648Y-85311012D01*
X160804984Y-85420286D01*
X160778716Y-85550000D01*
X160778716Y-86250000D01*
X160785122Y-86284046D01*
X160785122Y-87514988D01*
X160562023Y-87738087D01*
X160533885Y-87596626D01*
X160460558Y-87486885D01*
X160419645Y-87425654D01*
X158877000Y-85883010D01*
X158877000Y-79100000D01*
X158836885Y-78898326D01*
X158836885Y-78898325D01*
X158722645Y-78727355D01*
X156122645Y-76127355D01*
X155951675Y-76013115D01*
X155750000Y-75973000D01*
X153019690Y-75973000D01*
X152783390Y-75736700D01*
X153111250Y-75736700D01*
X153270000Y-75577950D01*
X153270000Y-74327000D01*
X153524000Y-74327000D01*
X153524000Y-75577950D01*
X153682750Y-75736700D01*
X154323409Y-75736700D01*
X154556798Y-75640027D01*
X154735427Y-75461399D01*
X154832100Y-75228010D01*
X154832100Y-74485750D01*
X154673350Y-74327000D01*
X153524000Y-74327000D01*
X153270000Y-74327000D01*
X152120650Y-74327000D01*
X151961900Y-74485750D01*
X151961900Y-74915210D01*
X151736506Y-74689816D01*
X151736506Y-73298300D01*
X151713705Y-73177121D01*
X151710404Y-73171990D01*
X151961900Y-73171990D01*
X151961900Y-73914250D01*
X152120650Y-74073000D01*
X153270000Y-74073000D01*
X153270000Y-72822050D01*
X153524000Y-72822050D01*
X153524000Y-74073000D01*
X154673350Y-74073000D01*
X154832100Y-73914250D01*
X154832100Y-73171990D01*
X154735427Y-72938601D01*
X154556798Y-72759973D01*
X154323409Y-72663300D01*
X153682750Y-72663300D01*
X153524000Y-72822050D01*
X153270000Y-72822050D01*
X153111250Y-72663300D01*
X152470591Y-72663300D01*
X152237202Y-72759973D01*
X152058573Y-72938601D01*
X151961900Y-73171990D01*
X151710404Y-73171990D01*
X151642088Y-73065826D01*
X151532814Y-72991162D01*
X151403100Y-72964894D01*
X149802900Y-72964894D01*
X149681721Y-72987695D01*
X149570426Y-73059312D01*
X149495762Y-73168586D01*
X149469494Y-73298300D01*
X149469494Y-73673000D01*
X149092510Y-73673000D01*
X149088988Y-73667526D01*
X148979714Y-73592862D01*
X148850000Y-73566594D01*
X148199218Y-73566594D01*
X148188327Y-73540301D01*
X148009698Y-73361673D01*
X147776309Y-73265000D01*
X147585750Y-73265000D01*
X147427000Y-73423750D01*
X147427000Y-74073000D01*
X147447000Y-74073000D01*
X147447000Y-74327000D01*
X147427000Y-74327000D01*
X147427000Y-74976250D01*
X147552730Y-75101980D01*
X146681710Y-75973000D01*
X145942510Y-75973000D01*
X145938988Y-75967526D01*
X145829714Y-75892862D01*
X145700000Y-75866594D01*
X145049218Y-75866594D01*
X145038327Y-75840301D01*
X144884725Y-75686700D01*
X145323409Y-75686700D01*
X145556798Y-75590027D01*
X145735427Y-75411399D01*
X145832100Y-75178010D01*
X145832100Y-74485750D01*
X146315000Y-74485750D01*
X146315000Y-74626310D01*
X146411673Y-74859699D01*
X146590302Y-75038327D01*
X146823691Y-75135000D01*
X147014250Y-75135000D01*
X147173000Y-74976250D01*
X147173000Y-74327000D01*
X146473750Y-74327000D01*
X146315000Y-74485750D01*
X145832100Y-74485750D01*
X145832100Y-74435750D01*
X145673350Y-74277000D01*
X144524000Y-74277000D01*
X144524000Y-74297000D01*
X144270000Y-74297000D01*
X144270000Y-74277000D01*
X143120650Y-74277000D01*
X142961900Y-74435750D01*
X142961900Y-75178010D01*
X143058573Y-75411399D01*
X143237202Y-75590027D01*
X143431477Y-75670498D01*
X143261673Y-75840301D01*
X143165000Y-76073690D01*
X143165000Y-76214250D01*
X143323750Y-76373000D01*
X144023000Y-76373000D01*
X144023000Y-76353000D01*
X144277000Y-76353000D01*
X144277000Y-76373000D01*
X144297000Y-76373000D01*
X144297000Y-76627000D01*
X144277000Y-76627000D01*
X144277000Y-77276250D01*
X144435750Y-77435000D01*
X144626309Y-77435000D01*
X144823000Y-77353528D01*
X144823000Y-77931710D01*
X144621710Y-78133000D01*
X144376093Y-78133000D01*
X144350000Y-78127716D01*
X142850000Y-78127716D01*
X142821918Y-78133000D01*
X140660013Y-78133000D01*
X140664158Y-78126934D01*
X140690426Y-77997220D01*
X140690426Y-77397780D01*
X140667625Y-77276601D01*
X140596008Y-77165306D01*
X140486734Y-77090642D01*
X140357020Y-77064374D01*
X139356260Y-77064374D01*
X139235081Y-77087175D01*
X139123786Y-77158792D01*
X139049122Y-77268066D01*
X139022854Y-77397780D01*
X139022854Y-77997220D01*
X139045655Y-78118399D01*
X139117272Y-78229694D01*
X139226546Y-78304358D01*
X139329640Y-78325235D01*
X139329640Y-78397220D01*
X139369755Y-78598895D01*
X139483995Y-78769865D01*
X139683504Y-78969374D01*
X139356260Y-78969374D01*
X139235081Y-78992175D01*
X139123786Y-79063792D01*
X139049122Y-79173066D01*
X139022854Y-79302780D01*
X139022854Y-79883923D01*
X138385811Y-79246881D01*
X138476214Y-79188708D01*
X138550878Y-79079434D01*
X138577146Y-78949720D01*
X138577146Y-78350280D01*
X138554345Y-78229101D01*
X138482728Y-78117806D01*
X138373454Y-78043142D01*
X138243740Y-78016874D01*
X137242980Y-78016874D01*
X137121801Y-78039675D01*
X137010506Y-78111292D01*
X136935842Y-78220566D01*
X136909574Y-78350280D01*
X136595010Y-78350280D01*
X138159540Y-76785750D01*
X143165000Y-76785750D01*
X143165000Y-76926310D01*
X143261673Y-77159699D01*
X143440302Y-77338327D01*
X143673691Y-77435000D01*
X143864250Y-77435000D01*
X144023000Y-77276250D01*
X144023000Y-76627000D01*
X143323750Y-76627000D01*
X143165000Y-76785750D01*
X138159540Y-76785750D01*
X139722645Y-75222645D01*
X139836885Y-75051675D01*
X139877000Y-74850000D01*
X139877000Y-74724685D01*
X139932474Y-74688988D01*
X139940665Y-74677000D01*
X140469494Y-74677000D01*
X140469494Y-75051700D01*
X140492295Y-75172879D01*
X140563912Y-75284174D01*
X140673186Y-75358838D01*
X140802900Y-75385106D01*
X142403100Y-75385106D01*
X142524279Y-75362305D01*
X142635574Y-75290688D01*
X142710238Y-75181414D01*
X142736506Y-75051700D01*
X142736506Y-73248300D01*
X142713705Y-73127121D01*
X142710404Y-73121990D01*
X142961900Y-73121990D01*
X142961900Y-73864250D01*
X143120650Y-74023000D01*
X144270000Y-74023000D01*
X144270000Y-72772050D01*
X144524000Y-72772050D01*
X144524000Y-74023000D01*
X145673350Y-74023000D01*
X145832100Y-73864250D01*
X145832100Y-73773690D01*
X146315000Y-73773690D01*
X146315000Y-73914250D01*
X146473750Y-74073000D01*
X147173000Y-74073000D01*
X147173000Y-73423750D01*
X147014250Y-73265000D01*
X146823691Y-73265000D01*
X146590302Y-73361673D01*
X146411673Y-73540301D01*
X146315000Y-73773690D01*
X145832100Y-73773690D01*
X145832100Y-73121990D01*
X145735427Y-72888601D01*
X145556798Y-72709973D01*
X145323409Y-72613300D01*
X144682750Y-72613300D01*
X144524000Y-72772050D01*
X144270000Y-72772050D01*
X144111250Y-72613300D01*
X143470591Y-72613300D01*
X143237202Y-72709973D01*
X143058573Y-72888601D01*
X142961900Y-73121990D01*
X142710404Y-73121990D01*
X142642088Y-73015826D01*
X142532814Y-72941162D01*
X142403100Y-72914894D01*
X140802900Y-72914894D01*
X140681721Y-72937695D01*
X140570426Y-73009312D01*
X140495762Y-73118586D01*
X140469494Y-73248300D01*
X140469494Y-73623000D01*
X139942510Y-73623000D01*
X139938988Y-73617526D01*
X139829714Y-73542862D01*
X139700000Y-73516594D01*
X139049218Y-73516594D01*
X139038327Y-73490301D01*
X138859698Y-73311673D01*
X138626309Y-73215000D01*
X138435750Y-73215000D01*
X138277000Y-73373750D01*
X138277000Y-74023000D01*
X138297000Y-74023000D01*
X138297000Y-74277000D01*
X138277000Y-74277000D01*
X138277000Y-74926250D01*
X138402730Y-75051980D01*
X135381710Y-78073000D01*
X130468290Y-78073000D01*
X126831040Y-74435750D01*
X137165000Y-74435750D01*
X137165000Y-74576310D01*
X137261673Y-74809699D01*
X137440302Y-74988327D01*
X137673691Y-75085000D01*
X137864250Y-75085000D01*
X138023000Y-74926250D01*
X138023000Y-74277000D01*
X137323750Y-74277000D01*
X137165000Y-74435750D01*
X126831040Y-74435750D01*
X126118980Y-73723690D01*
X137165000Y-73723690D01*
X137165000Y-73864250D01*
X137323750Y-74023000D01*
X138023000Y-74023000D01*
X138023000Y-73373750D01*
X137864250Y-73215000D01*
X137673691Y-73215000D01*
X137440302Y-73311673D01*
X137261673Y-73490301D01*
X137165000Y-73723690D01*
X126118980Y-73723690D01*
X125622645Y-73227355D01*
X125451675Y-73113115D01*
X125250000Y-73073000D01*
X118950000Y-73073000D01*
X118748325Y-73113115D01*
X118577355Y-73227355D01*
X117177355Y-74627355D01*
X117063115Y-74798325D01*
X117027724Y-74976250D01*
X117023000Y-75000000D01*
X116875655Y-75000000D01*
X116895906Y-74900000D01*
X116895906Y-73700000D01*
X116873105Y-73578821D01*
X116801488Y-73467526D01*
X116692214Y-73392862D01*
X116562500Y-73366594D01*
X114762500Y-73366594D01*
X114641321Y-73389395D01*
X114530026Y-73461012D01*
X114455362Y-73570286D01*
X114429094Y-73700000D01*
X111538319Y-73700000D01*
X123854827Y-67712308D01*
X138822727Y-67712308D01*
X139062305Y-68292132D01*
X139505535Y-68736136D01*
X140084939Y-68976725D01*
X140712308Y-68977273D01*
X141292132Y-68737695D01*
X141736136Y-68294465D01*
X141976725Y-67715061D01*
X141977273Y-67087692D01*
X141737695Y-66507868D01*
X141294465Y-66063864D01*
X140715061Y-65823275D01*
X140087692Y-65822727D01*
X139507868Y-66062305D01*
X139063864Y-66505535D01*
X138823275Y-67084939D01*
X138822727Y-67712308D01*
X123854827Y-67712308D01*
X127684325Y-65850591D01*
X147231303Y-64680116D01*
X165738277Y-71079043D01*
X165738277Y-71079043D01*
G37*
X165738277Y-71079043D02*
X180389728Y-84074968D01*
X188494691Y-100058211D01*
X188665503Y-101881662D01*
X188126292Y-103629133D01*
X186959398Y-105037238D01*
X185335246Y-105895426D01*
X183981054Y-106093000D01*
X122407098Y-106093000D01*
X121320027Y-105876768D01*
X120424082Y-105278116D01*
X119825430Y-104382171D01*
X119645115Y-103475665D01*
X120914811Y-103475665D01*
X121080252Y-103876063D01*
X121386326Y-104182671D01*
X121786434Y-104348811D01*
X122219665Y-104349189D01*
X122483407Y-104240213D01*
X123743392Y-104240213D01*
X123812857Y-104482397D01*
X124336302Y-104669144D01*
X124891368Y-104641362D01*
X125275143Y-104482397D01*
X125344608Y-104240213D01*
X124544000Y-103439605D01*
X123743392Y-104240213D01*
X122483407Y-104240213D01*
X122620063Y-104183748D01*
X122926671Y-103877674D01*
X123092811Y-103477566D01*
X123093182Y-103052302D01*
X123134856Y-103052302D01*
X123162638Y-103607368D01*
X123321603Y-103991143D01*
X123563787Y-104060608D01*
X124364395Y-103260000D01*
X124723605Y-103260000D01*
X125524213Y-104060608D01*
X125766397Y-103991143D01*
X125950301Y-103475665D01*
X127010811Y-103475665D01*
X127176252Y-103876063D01*
X127482326Y-104182671D01*
X127882434Y-104348811D01*
X128315665Y-104349189D01*
X128716063Y-104183748D01*
X129022671Y-103877674D01*
X129188811Y-103477566D01*
X129189189Y-103044335D01*
X129051999Y-102712308D01*
X138797727Y-102712308D01*
X139037305Y-103292132D01*
X139480535Y-103736136D01*
X140059939Y-103976725D01*
X140687308Y-103977273D01*
X141267132Y-103737695D01*
X141711136Y-103294465D01*
X141951725Y-102715061D01*
X141951727Y-102712308D01*
X178797727Y-102712308D01*
X179037305Y-103292132D01*
X179480535Y-103736136D01*
X180059939Y-103976725D01*
X180687308Y-103977273D01*
X181267132Y-103737695D01*
X181711136Y-103294465D01*
X181951725Y-102715061D01*
X181952273Y-102087692D01*
X181712695Y-101507868D01*
X181269465Y-101063864D01*
X180690061Y-100823275D01*
X180062692Y-100822727D01*
X179482868Y-101062305D01*
X179038864Y-101505535D01*
X178798275Y-102084939D01*
X178797727Y-102712308D01*
X141951727Y-102712308D01*
X141952273Y-102087692D01*
X141712695Y-101507868D01*
X141269465Y-101063864D01*
X140690061Y-100823275D01*
X140062692Y-100822727D01*
X139482868Y-101062305D01*
X139038864Y-101505535D01*
X138798275Y-102084939D01*
X138797727Y-102712308D01*
X129051999Y-102712308D01*
X129023748Y-102643937D01*
X128717674Y-102337329D01*
X128317566Y-102171189D01*
X127884335Y-102170811D01*
X127483937Y-102336252D01*
X127177329Y-102642326D01*
X127011189Y-103042434D01*
X127010811Y-103475665D01*
X125950301Y-103475665D01*
X125953144Y-103467698D01*
X125925362Y-102912632D01*
X125766397Y-102528857D01*
X125524213Y-102459392D01*
X124723605Y-103260000D01*
X124364395Y-103260000D01*
X123563787Y-102459392D01*
X123321603Y-102528857D01*
X123134856Y-103052302D01*
X123093182Y-103052302D01*
X123093189Y-103044335D01*
X122927748Y-102643937D01*
X122621674Y-102337329D01*
X122483099Y-102279787D01*
X123743392Y-102279787D01*
X124544000Y-103080395D01*
X125344608Y-102279787D01*
X125275143Y-102037603D01*
X124751698Y-101850856D01*
X124196632Y-101878638D01*
X123812857Y-102037603D01*
X123743392Y-102279787D01*
X122483099Y-102279787D01*
X122221566Y-102171189D01*
X121788335Y-102170811D01*
X121387937Y-102336252D01*
X121081329Y-102642326D01*
X120915189Y-103042434D01*
X120914811Y-103475665D01*
X119645115Y-103475665D01*
X119609191Y-103295064D01*
X119609191Y-100935665D01*
X127010811Y-100935665D01*
X127176252Y-101336063D01*
X127482326Y-101642671D01*
X127882434Y-101808811D01*
X128315665Y-101809189D01*
X128716063Y-101643748D01*
X129022671Y-101337674D01*
X129188811Y-100937566D01*
X129189189Y-100504335D01*
X129023748Y-100103937D01*
X128717674Y-99797329D01*
X128317566Y-99631189D01*
X127884335Y-99630811D01*
X127483937Y-99796252D01*
X127177329Y-100102326D01*
X127011189Y-100502434D01*
X127010811Y-100935665D01*
X119609191Y-100935665D01*
X119609191Y-98375665D01*
X123460811Y-98375665D01*
X123626252Y-98776063D01*
X123932326Y-99082671D01*
X124332434Y-99248811D01*
X124765665Y-99249189D01*
X125166063Y-99083748D01*
X125472671Y-98777674D01*
X125638811Y-98377566D01*
X125639189Y-97944335D01*
X125473748Y-97543937D01*
X125167674Y-97237329D01*
X124767566Y-97071189D01*
X124334335Y-97070811D01*
X123933937Y-97236252D01*
X123627329Y-97542326D01*
X123461189Y-97942434D01*
X123460811Y-98375665D01*
X119609191Y-98375665D01*
X119609191Y-93315665D01*
X127010811Y-93315665D01*
X127176252Y-93716063D01*
X127482326Y-94022671D01*
X127882434Y-94188811D01*
X128315665Y-94189189D01*
X128716063Y-94023748D01*
X129022671Y-93717674D01*
X129188811Y-93317566D01*
X129189189Y-92884335D01*
X129023748Y-92483937D01*
X128717674Y-92177329D01*
X128317566Y-92011189D01*
X127884335Y-92010811D01*
X127483937Y-92176252D01*
X127177329Y-92482326D01*
X127011189Y-92882434D01*
X127010811Y-93315665D01*
X119609191Y-93315665D01*
X119609191Y-90775665D01*
X127010811Y-90775665D01*
X127176252Y-91176063D01*
X127482326Y-91482671D01*
X127882434Y-91648811D01*
X128315665Y-91649189D01*
X128716063Y-91483748D01*
X129022671Y-91177674D01*
X129188811Y-90777566D01*
X129189189Y-90344335D01*
X129023748Y-89943937D01*
X128717674Y-89637329D01*
X128317566Y-89471189D01*
X127884335Y-89470811D01*
X127483937Y-89636252D01*
X127177329Y-89942326D01*
X127011189Y-90342434D01*
X127010811Y-90775665D01*
X119609191Y-90775665D01*
X119609191Y-88235665D01*
X127010811Y-88235665D01*
X127176252Y-88636063D01*
X127482326Y-88942671D01*
X127882434Y-89108811D01*
X128315665Y-89109189D01*
X128716063Y-88943748D01*
X129022671Y-88637674D01*
X129188811Y-88237566D01*
X129189189Y-87804335D01*
X129023748Y-87403937D01*
X128717674Y-87097329D01*
X128317566Y-86931189D01*
X127884335Y-86930811D01*
X127483937Y-87096252D01*
X127177329Y-87402326D01*
X127011189Y-87802434D01*
X127010811Y-88235665D01*
X119609191Y-88235665D01*
X119609191Y-85695665D01*
X127010811Y-85695665D01*
X127176252Y-86096063D01*
X127482326Y-86402671D01*
X127882434Y-86568811D01*
X128315665Y-86569189D01*
X128716063Y-86403748D01*
X129022671Y-86097674D01*
X129188811Y-85697566D01*
X129189189Y-85264335D01*
X129023748Y-84863937D01*
X128717674Y-84557329D01*
X128317566Y-84391189D01*
X127884335Y-84390811D01*
X127483937Y-84556252D01*
X127177329Y-84862326D01*
X127011189Y-85262434D01*
X127010811Y-85695665D01*
X119609191Y-85695665D01*
X119609191Y-83146750D01*
X119585822Y-83029266D01*
X119519273Y-82929668D01*
X119419675Y-82863119D01*
X119302191Y-82839750D01*
X112935669Y-82839750D01*
X111111800Y-82476960D01*
X109591233Y-81460949D01*
X109483691Y-81300000D01*
X114429094Y-81300000D01*
X114429094Y-82500000D01*
X114451895Y-82621179D01*
X114523512Y-82732474D01*
X114632786Y-82807138D01*
X114762500Y-82833406D01*
X116562500Y-82833406D01*
X116683679Y-82810605D01*
X116794974Y-82738988D01*
X116869638Y-82629714D01*
X116895906Y-82500000D01*
X116895906Y-81300000D01*
X116873105Y-81178821D01*
X116801488Y-81067526D01*
X116692214Y-80992862D01*
X116562500Y-80966594D01*
X114762500Y-80966594D01*
X114641321Y-80989395D01*
X114530026Y-81061012D01*
X114455362Y-81170286D01*
X114429094Y-81300000D01*
X109483691Y-81300000D01*
X108575222Y-79940382D01*
X108218446Y-78146750D01*
X108575222Y-76353118D01*
X109602459Y-74815748D01*
X110055042Y-74421098D01*
X111538319Y-73700000D01*
X114429094Y-73700000D01*
X114429094Y-74900000D01*
X114451895Y-75021179D01*
X114523512Y-75132474D01*
X114632786Y-75207138D01*
X114762500Y-75233406D01*
X116562500Y-75233406D01*
X116683679Y-75210605D01*
X116794974Y-75138988D01*
X116869638Y-75029714D01*
X116875655Y-75000000D01*
X117023000Y-75000000D01*
X117023000Y-78787500D01*
X117063115Y-78989175D01*
X117177355Y-79160145D01*
X117989855Y-79972646D01*
X118160826Y-80086885D01*
X118362500Y-80127000D01*
X118484938Y-80127000D01*
X118455362Y-80170286D01*
X118429094Y-80300000D01*
X118429094Y-80900000D01*
X118451895Y-81021179D01*
X118523512Y-81132474D01*
X118632786Y-81207138D01*
X118762500Y-81233406D01*
X120312500Y-81233406D01*
X120433679Y-81210605D01*
X120544974Y-81138988D01*
X120619638Y-81029714D01*
X120645906Y-80900000D01*
X120645906Y-80300000D01*
X120623105Y-80178821D01*
X120572011Y-80099419D01*
X120619638Y-80029714D01*
X120645906Y-79900000D01*
X120645906Y-79449218D01*
X120672199Y-79438327D01*
X120850827Y-79259698D01*
X120947500Y-79026309D01*
X120947500Y-78885750D01*
X120788750Y-78727000D01*
X119664500Y-78727000D01*
X119664500Y-78747000D01*
X119410500Y-78747000D01*
X119410500Y-78727000D01*
X118286250Y-78727000D01*
X118260520Y-78752730D01*
X118077000Y-78569210D01*
X118077000Y-75885750D01*
X118127500Y-75885750D01*
X118127500Y-76026309D01*
X118224173Y-76259698D01*
X118402801Y-76438327D01*
X118429094Y-76449218D01*
X118429094Y-76900000D01*
X118451895Y-77021179D01*
X118502989Y-77100581D01*
X118455362Y-77170286D01*
X118429094Y-77300000D01*
X118429094Y-77750782D01*
X118402801Y-77761673D01*
X118224173Y-77940302D01*
X118127500Y-78173691D01*
X118127500Y-78314250D01*
X118286250Y-78473000D01*
X119410500Y-78473000D01*
X119410500Y-78453000D01*
X119664500Y-78453000D01*
X119664500Y-78473000D01*
X120788750Y-78473000D01*
X120947500Y-78314250D01*
X120947500Y-78173691D01*
X120886739Y-78027000D01*
X124855645Y-78027000D01*
X124773844Y-78224000D01*
X124773626Y-78473436D01*
X124868880Y-78703968D01*
X125045104Y-78880500D01*
X125275470Y-78976156D01*
X125423886Y-78976286D01*
X127949535Y-81501935D01*
X128088064Y-81594497D01*
X128251470Y-81627001D01*
X128251475Y-81627000D01*
X128357432Y-81627000D01*
X137032365Y-90301932D01*
X137032367Y-90301935D01*
X137170896Y-90394497D01*
X137334302Y-90427000D01*
X137543141Y-90427000D01*
X137611012Y-90532474D01*
X137720286Y-90607138D01*
X137850000Y-90633406D01*
X138550000Y-90633406D01*
X138671179Y-90610605D01*
X138782474Y-90538988D01*
X138799330Y-90514319D01*
X138811012Y-90532474D01*
X138920286Y-90607138D01*
X139050000Y-90633406D01*
X139750000Y-90633406D01*
X139871179Y-90610605D01*
X139982474Y-90538988D01*
X140057138Y-90429714D01*
X140057688Y-90427000D01*
X143543141Y-90427000D01*
X143611012Y-90532474D01*
X143720286Y-90607138D01*
X143850000Y-90633406D01*
X144550000Y-90633406D01*
X144671179Y-90610605D01*
X144782474Y-90538988D01*
X144799330Y-90514319D01*
X144811012Y-90532474D01*
X144920286Y-90607138D01*
X145050000Y-90633406D01*
X145352727Y-90633406D01*
X142463132Y-93523000D01*
X130867635Y-93523000D01*
X130867630Y-93522999D01*
X130704224Y-93555503D01*
X130565695Y-93648065D01*
X129072305Y-95141455D01*
X129023748Y-95023937D01*
X128717674Y-94717329D01*
X128317566Y-94551189D01*
X127884335Y-94550811D01*
X127483937Y-94716252D01*
X127177329Y-95022326D01*
X127011189Y-95422434D01*
X127010811Y-95855665D01*
X127176252Y-96256063D01*
X127482326Y-96562671D01*
X127882434Y-96728811D01*
X128315665Y-96729189D01*
X128716063Y-96563748D01*
X129022671Y-96257674D01*
X129101846Y-96067000D01*
X129177625Y-96067000D01*
X129177630Y-96067001D01*
X129341036Y-96034497D01*
X129479565Y-95941935D01*
X131044500Y-94377000D01*
X132376761Y-94377000D01*
X129072305Y-97681455D01*
X129023748Y-97563937D01*
X128717674Y-97257329D01*
X128317566Y-97091189D01*
X127884335Y-97090811D01*
X127483937Y-97256252D01*
X127177329Y-97562326D01*
X127011189Y-97962434D01*
X127010811Y-98395665D01*
X127176252Y-98796063D01*
X127482326Y-99102671D01*
X127882434Y-99268811D01*
X128315665Y-99269189D01*
X128716063Y-99103748D01*
X129022671Y-98797674D01*
X129101846Y-98607000D01*
X129177625Y-98607000D01*
X129177630Y-98607001D01*
X129341036Y-98574497D01*
X129479565Y-98481935D01*
X133134499Y-94827000D01*
X144584830Y-94827000D01*
X142288830Y-97123000D01*
X138993407Y-97123000D01*
X138990770Y-97109745D01*
X138699644Y-96674045D01*
X138263944Y-96382919D01*
X137750000Y-96280689D01*
X137236056Y-96382919D01*
X136800356Y-96674045D01*
X136559406Y-97034651D01*
X136559406Y-96634000D01*
X136536605Y-96512821D01*
X136464988Y-96401526D01*
X136355714Y-96326862D01*
X136226000Y-96300594D01*
X134194000Y-96300594D01*
X134072821Y-96323395D01*
X133961526Y-96395012D01*
X133886862Y-96504286D01*
X133860594Y-96634000D01*
X133860594Y-98666000D01*
X133883395Y-98787179D01*
X133955012Y-98898474D01*
X134064286Y-98973138D01*
X134194000Y-98999406D01*
X136226000Y-98999406D01*
X136347179Y-98976605D01*
X136458474Y-98904988D01*
X136533138Y-98795714D01*
X136559406Y-98666000D01*
X136559406Y-98265349D01*
X136800356Y-98625955D01*
X137236056Y-98917081D01*
X137750000Y-99019311D01*
X138263944Y-98917081D01*
X138699644Y-98625955D01*
X138990770Y-98190255D01*
X138993407Y-98177000D01*
X142507120Y-98177000D01*
X142708795Y-98136885D01*
X142879765Y-98022645D01*
X151516660Y-89385750D01*
X155817900Y-89385750D01*
X155817900Y-90128010D01*
X155914573Y-90361399D01*
X156093202Y-90540027D01*
X156326591Y-90636700D01*
X156967250Y-90636700D01*
X157126000Y-90477950D01*
X157126000Y-89227000D01*
X157380000Y-89227000D01*
X157380000Y-90477950D01*
X157538750Y-90636700D01*
X158179409Y-90636700D01*
X158412798Y-90540027D01*
X158591427Y-90361399D01*
X158688100Y-90128010D01*
X158688100Y-89385750D01*
X158529350Y-89227000D01*
X157380000Y-89227000D01*
X157126000Y-89227000D01*
X155976650Y-89227000D01*
X155817900Y-89385750D01*
X151516660Y-89385750D01*
X152830420Y-88071990D01*
X155817900Y-88071990D01*
X155817900Y-88814250D01*
X155976650Y-88973000D01*
X157126000Y-88973000D01*
X157126000Y-87722050D01*
X157380000Y-87722050D01*
X157380000Y-88973000D01*
X158529350Y-88973000D01*
X158688100Y-88814250D01*
X158688100Y-88071990D01*
X158591427Y-87838601D01*
X158412798Y-87659973D01*
X158179409Y-87563300D01*
X157538750Y-87563300D01*
X157380000Y-87722050D01*
X157126000Y-87722050D01*
X156967250Y-87563300D01*
X156326591Y-87563300D01*
X156093202Y-87659973D01*
X155914573Y-87838601D01*
X155817900Y-88071990D01*
X152830420Y-88071990D01*
X152928644Y-87973766D01*
X153042884Y-87802796D01*
X153082999Y-87601121D01*
X153082999Y-80355999D01*
X153042884Y-80154325D01*
X152928644Y-79983354D01*
X151232645Y-78287355D01*
X151061675Y-78173115D01*
X150860000Y-78133000D01*
X149923822Y-78133000D01*
X149879714Y-78102862D01*
X149750000Y-78076594D01*
X148250000Y-78076594D01*
X148128821Y-78099395D01*
X148017526Y-78171012D01*
X147942862Y-78280286D01*
X147916594Y-78410000D01*
X147916594Y-78910000D01*
X147939395Y-79031179D01*
X147985202Y-79102364D01*
X147890301Y-79141673D01*
X147711673Y-79320302D01*
X147615000Y-79553691D01*
X147615000Y-79646250D01*
X147773750Y-79805000D01*
X148873000Y-79805000D01*
X148873000Y-79783000D01*
X149127000Y-79783000D01*
X149127000Y-79805000D01*
X150226250Y-79805000D01*
X150385000Y-79646250D01*
X150385000Y-79553691D01*
X150288327Y-79320302D01*
X150155026Y-79187000D01*
X150641710Y-79187000D01*
X152028999Y-80574289D01*
X152028999Y-87382831D01*
X151977000Y-87434830D01*
X151977000Y-85790005D01*
X151977001Y-85790000D01*
X151944497Y-85626594D01*
X151936249Y-85614250D01*
X151851935Y-85488065D01*
X151851932Y-85488063D01*
X150083406Y-83719536D01*
X150083406Y-83490000D01*
X150060605Y-83368821D01*
X149988988Y-83257526D01*
X149879714Y-83182862D01*
X149750000Y-83156594D01*
X148250000Y-83156594D01*
X148128821Y-83179395D01*
X148017526Y-83251012D01*
X147942862Y-83360286D01*
X147916594Y-83490000D01*
X147916594Y-83990000D01*
X147939395Y-84111179D01*
X148011012Y-84222474D01*
X148120286Y-84297138D01*
X148250000Y-84323406D01*
X149479536Y-84323406D01*
X149582724Y-84426594D01*
X148250000Y-84426594D01*
X148128821Y-84449395D01*
X148017526Y-84521012D01*
X147942862Y-84630286D01*
X147916594Y-84760000D01*
X147916594Y-84989536D01*
X146648065Y-86258065D01*
X146555503Y-86396594D01*
X146522999Y-86560000D01*
X146523000Y-86560005D01*
X146523000Y-89463133D01*
X146083406Y-89902727D01*
X146083406Y-89700000D01*
X146060605Y-89578821D01*
X145988988Y-89467526D01*
X145957855Y-89446253D01*
X145977001Y-89350000D01*
X145977000Y-89349995D01*
X145977000Y-87730005D01*
X145977001Y-87730000D01*
X145944497Y-87566594D01*
X145926141Y-87539122D01*
X145851935Y-87428065D01*
X145851932Y-87428063D01*
X144683406Y-86259536D01*
X144683406Y-86030000D01*
X144660605Y-85908821D01*
X144588988Y-85797526D01*
X144479714Y-85722862D01*
X144350000Y-85696594D01*
X142850000Y-85696594D01*
X142728821Y-85719395D01*
X142617526Y-85791012D01*
X142575171Y-85853000D01*
X142070005Y-85853000D01*
X142070000Y-85852999D01*
X141906594Y-85885503D01*
X141768065Y-85978065D01*
X141768063Y-85978068D01*
X139923411Y-87822719D01*
X139879714Y-87792862D01*
X139750000Y-87766594D01*
X139050000Y-87766594D01*
X138928821Y-87789395D01*
X138817526Y-87861012D01*
X138800670Y-87885681D01*
X138788988Y-87867526D01*
X138679714Y-87792862D01*
X138550000Y-87766594D01*
X137850000Y-87766594D01*
X137728821Y-87789395D01*
X137617526Y-87861012D01*
X137542862Y-87970286D01*
X137542312Y-87973000D01*
X136476869Y-87973000D01*
X135389620Y-86885750D01*
X137165000Y-86885750D01*
X137165000Y-87026310D01*
X137261673Y-87259699D01*
X137440302Y-87438327D01*
X137673691Y-87535000D01*
X137864250Y-87535000D01*
X138023000Y-87376250D01*
X138023000Y-86727000D01*
X137323750Y-86727000D01*
X137165000Y-86885750D01*
X135389620Y-86885750D01*
X134677560Y-86173690D01*
X137165000Y-86173690D01*
X137165000Y-86314250D01*
X137323750Y-86473000D01*
X138023000Y-86473000D01*
X138023000Y-85826250D01*
X138073000Y-85776250D01*
X138073000Y-85127000D01*
X137373750Y-85127000D01*
X137215000Y-85285750D01*
X137215000Y-85426310D01*
X137311673Y-85659699D01*
X137426975Y-85775000D01*
X137261673Y-85940301D01*
X137165000Y-86173690D01*
X134677560Y-86173690D01*
X125801935Y-77298065D01*
X125663406Y-77205503D01*
X125500000Y-77172999D01*
X125499995Y-77173000D01*
X125336308Y-77173000D01*
X125376891Y-77075265D01*
X125377109Y-76825829D01*
X125281855Y-76595297D01*
X125105631Y-76418765D01*
X124875265Y-76323109D01*
X124726849Y-76322979D01*
X124701935Y-76298065D01*
X124563406Y-76205503D01*
X124400000Y-76172999D01*
X124399995Y-76173000D01*
X120886739Y-76173000D01*
X120947500Y-76026309D01*
X120947500Y-75885750D01*
X120788750Y-75727000D01*
X119664500Y-75727000D01*
X119664500Y-75747000D01*
X119410500Y-75747000D01*
X119410500Y-75727000D01*
X118286250Y-75727000D01*
X118127500Y-75885750D01*
X118077000Y-75885750D01*
X118077000Y-75218290D01*
X118131673Y-75163617D01*
X118127500Y-75173691D01*
X118127500Y-75314250D01*
X118286250Y-75473000D01*
X119410500Y-75473000D01*
X119410500Y-74823750D01*
X119664500Y-74823750D01*
X119664500Y-75473000D01*
X120788750Y-75473000D01*
X120947500Y-75314250D01*
X120947500Y-75173691D01*
X120850827Y-74940302D01*
X120672199Y-74761673D01*
X120438810Y-74665000D01*
X119823250Y-74665000D01*
X119664500Y-74823750D01*
X119410500Y-74823750D01*
X119251750Y-74665000D01*
X118636190Y-74665000D01*
X118626118Y-74669172D01*
X119168290Y-74127000D01*
X125031710Y-74127000D01*
X129877355Y-78972645D01*
X130048326Y-79086885D01*
X130250000Y-79127000D01*
X135073000Y-79127000D01*
X135073000Y-80900000D01*
X135113115Y-81101675D01*
X135227355Y-81272645D01*
X136127355Y-82172645D01*
X136298325Y-82286885D01*
X136331785Y-82293540D01*
X136500000Y-82327000D01*
X137387094Y-82327000D01*
X137387094Y-82371500D01*
X137409895Y-82492679D01*
X137481512Y-82603974D01*
X137590786Y-82678638D01*
X137720500Y-82704906D01*
X138355500Y-82704906D01*
X138476679Y-82682105D01*
X138587974Y-82610488D01*
X138662638Y-82501214D01*
X138688906Y-82371500D01*
X138688906Y-81228500D01*
X138666105Y-81107321D01*
X138594488Y-80996026D01*
X138485214Y-80921362D01*
X138355500Y-80895094D01*
X137720500Y-80895094D01*
X137599321Y-80917895D01*
X137488026Y-80989512D01*
X137413362Y-81098786D01*
X137387094Y-81228500D01*
X137387094Y-81273000D01*
X136718290Y-81273000D01*
X136127000Y-80681710D01*
X136127000Y-78818290D01*
X136595010Y-78350280D01*
X136909574Y-78350280D01*
X136909574Y-78949720D01*
X136932375Y-79070899D01*
X137003992Y-79182194D01*
X137113266Y-79256858D01*
X137216360Y-79277735D01*
X137216360Y-79349720D01*
X137256475Y-79551395D01*
X137370715Y-79722365D01*
X138637494Y-80989145D01*
X138708507Y-81036594D01*
X138808466Y-81103385D01*
X138931476Y-81127853D01*
X138911094Y-81228500D01*
X138911094Y-82371500D01*
X138933895Y-82492679D01*
X139005512Y-82603974D01*
X139035000Y-82624122D01*
X139035000Y-82969416D01*
X138928821Y-82989395D01*
X138817526Y-83061012D01*
X138800670Y-83085681D01*
X138788988Y-83067526D01*
X138679714Y-82992862D01*
X138550000Y-82966594D01*
X137850000Y-82966594D01*
X137728821Y-82989395D01*
X137617526Y-83061012D01*
X137542862Y-83170286D01*
X137516594Y-83300000D01*
X137516594Y-83900000D01*
X137539395Y-84021179D01*
X137600444Y-84116051D01*
X137490302Y-84161673D01*
X137311673Y-84340301D01*
X137215000Y-84573690D01*
X137215000Y-84714250D01*
X137373750Y-84873000D01*
X138073000Y-84873000D01*
X138073000Y-84853000D01*
X138327000Y-84853000D01*
X138327000Y-84873000D01*
X138347000Y-84873000D01*
X138347000Y-85127000D01*
X138327000Y-85127000D01*
X138327000Y-85773750D01*
X138277000Y-85823750D01*
X138277000Y-86473000D01*
X138297000Y-86473000D01*
X138297000Y-86727000D01*
X138277000Y-86727000D01*
X138277000Y-87376250D01*
X138435750Y-87535000D01*
X138626309Y-87535000D01*
X138859698Y-87438327D01*
X139038327Y-87259699D01*
X139049218Y-87233406D01*
X139700000Y-87233406D01*
X139821179Y-87210605D01*
X139932474Y-87138988D01*
X139940665Y-87127000D01*
X140100000Y-87127000D01*
X140301675Y-87086885D01*
X140472645Y-86972645D01*
X141908291Y-85537000D01*
X142823907Y-85537000D01*
X142850000Y-85542284D01*
X144350000Y-85542284D01*
X144452598Y-85522979D01*
X144546828Y-85462343D01*
X144610044Y-85369824D01*
X144632284Y-85260000D01*
X144632284Y-84760000D01*
X144612979Y-84657402D01*
X144567755Y-84587122D01*
X144709699Y-84528327D01*
X144888327Y-84349698D01*
X144985000Y-84116309D01*
X144985000Y-84023750D01*
X144826250Y-83865000D01*
X143727000Y-83865000D01*
X143727000Y-83887000D01*
X143473000Y-83887000D01*
X143473000Y-83865000D01*
X142373750Y-83865000D01*
X142215000Y-84023750D01*
X142215000Y-84116309D01*
X142311673Y-84349698D01*
X142444974Y-84483000D01*
X141690000Y-84483000D01*
X141488326Y-84523115D01*
X141317355Y-84637354D01*
X139908212Y-86046498D01*
X139829714Y-85992862D01*
X139700000Y-85966594D01*
X139049218Y-85966594D01*
X139038327Y-85940301D01*
X138923025Y-85825000D01*
X139088327Y-85659699D01*
X139099218Y-85633406D01*
X139750000Y-85633406D01*
X139871179Y-85610605D01*
X139982474Y-85538988D01*
X140057138Y-85429714D01*
X140083406Y-85300000D01*
X140083406Y-84970464D01*
X142156869Y-82897000D01*
X142622293Y-82897000D01*
X142490301Y-82951673D01*
X142311673Y-83130302D01*
X142215000Y-83363691D01*
X142215000Y-83456250D01*
X142373750Y-83615000D01*
X143473000Y-83615000D01*
X143473000Y-83593000D01*
X143727000Y-83593000D01*
X143727000Y-83615000D01*
X144826250Y-83615000D01*
X144985000Y-83456250D01*
X144985000Y-83363691D01*
X144888327Y-83130302D01*
X144709699Y-82951673D01*
X144567136Y-82892621D01*
X144610044Y-82829824D01*
X144632284Y-82720000D01*
X144632284Y-82220000D01*
X144612979Y-82117402D01*
X144552343Y-82023172D01*
X144459824Y-81959956D01*
X144350000Y-81937716D01*
X142850000Y-81937716D01*
X142747402Y-81957021D01*
X142653172Y-82017657D01*
X142635856Y-82043000D01*
X141980000Y-82043000D01*
X141816594Y-82075503D01*
X141678065Y-82168065D01*
X141678063Y-82168068D01*
X140083406Y-83762724D01*
X140083406Y-83466123D01*
X140089000Y-83438000D01*
X140089000Y-82625271D01*
X140111974Y-82610488D01*
X140186638Y-82501214D01*
X140212906Y-82371500D01*
X140212906Y-81894384D01*
X140380290Y-81727000D01*
X142823907Y-81727000D01*
X142850000Y-81732284D01*
X144350000Y-81732284D01*
X144452598Y-81712979D01*
X144546828Y-81652343D01*
X144610044Y-81559824D01*
X144625449Y-81483750D01*
X147615000Y-81483750D01*
X147615000Y-81576309D01*
X147711673Y-81809698D01*
X147890301Y-81988327D01*
X147985566Y-82027787D01*
X147942862Y-82090286D01*
X147916594Y-82220000D01*
X147916594Y-82720000D01*
X147939395Y-82841179D01*
X148011012Y-82952474D01*
X148120286Y-83027138D01*
X148250000Y-83053406D01*
X149750000Y-83053406D01*
X149871179Y-83030605D01*
X149982474Y-82958988D01*
X150057138Y-82849714D01*
X150083406Y-82720000D01*
X150083406Y-82220000D01*
X150060605Y-82098821D01*
X150014798Y-82027636D01*
X150109699Y-81988327D01*
X150288327Y-81809698D01*
X150385000Y-81576309D01*
X150385000Y-81483750D01*
X150226250Y-81325000D01*
X149127000Y-81325000D01*
X149127000Y-81347000D01*
X148873000Y-81347000D01*
X148873000Y-81325000D01*
X147773750Y-81325000D01*
X147615000Y-81483750D01*
X144625449Y-81483750D01*
X144632284Y-81450000D01*
X144632284Y-80950000D01*
X144612979Y-80847402D01*
X144552343Y-80753172D01*
X144459824Y-80689956D01*
X144350000Y-80667716D01*
X142850000Y-80667716D01*
X142821918Y-80673000D01*
X140162000Y-80673000D01*
X140062025Y-80692886D01*
X140048885Y-80626826D01*
X140048885Y-80626825D01*
X139934645Y-80455855D01*
X139722645Y-80243855D01*
X139710330Y-80235626D01*
X139744476Y-80235626D01*
X139811495Y-80302645D01*
X139982465Y-80416885D01*
X140184140Y-80457000D01*
X142823907Y-80457000D01*
X142850000Y-80462284D01*
X144350000Y-80462284D01*
X144452598Y-80442979D01*
X144546828Y-80382343D01*
X144610044Y-80289824D01*
X144625449Y-80213750D01*
X147615000Y-80213750D01*
X147615000Y-80306309D01*
X147711673Y-80539698D01*
X147736975Y-80565000D01*
X147711673Y-80590302D01*
X147615000Y-80823691D01*
X147615000Y-80916250D01*
X147773750Y-81075000D01*
X148873000Y-81075000D01*
X148873000Y-80055000D01*
X149127000Y-80055000D01*
X149127000Y-81075000D01*
X150226250Y-81075000D01*
X150385000Y-80916250D01*
X150385000Y-80823691D01*
X150288327Y-80590302D01*
X150263025Y-80565000D01*
X150288327Y-80539698D01*
X150385000Y-80306309D01*
X150385000Y-80213750D01*
X150226250Y-80055000D01*
X149127000Y-80055000D01*
X148873000Y-80055000D01*
X147773750Y-80055000D01*
X147615000Y-80213750D01*
X144625449Y-80213750D01*
X144632284Y-80180000D01*
X144632284Y-79680000D01*
X144612979Y-79577402D01*
X144552343Y-79483172D01*
X144459824Y-79419956D01*
X144350000Y-79397716D01*
X142850000Y-79397716D01*
X142821918Y-79403000D01*
X140690426Y-79403000D01*
X140690426Y-79302780D01*
X140668641Y-79187000D01*
X142823907Y-79187000D01*
X142850000Y-79192284D01*
X144350000Y-79192284D01*
X144378082Y-79187000D01*
X144840000Y-79187000D01*
X145041675Y-79146885D01*
X145212645Y-79032645D01*
X145722645Y-78522645D01*
X145836885Y-78351675D01*
X145877000Y-78150000D01*
X145877000Y-77074685D01*
X145932474Y-77038988D01*
X145940665Y-77027000D01*
X146900000Y-77027000D01*
X147101675Y-76986885D01*
X147272645Y-76872645D01*
X148872645Y-75272645D01*
X148986885Y-75101674D01*
X149027000Y-74900000D01*
X149027000Y-74774685D01*
X149082474Y-74738988D01*
X149090665Y-74727000D01*
X149469494Y-74727000D01*
X149469494Y-75101700D01*
X149492295Y-75222879D01*
X149563912Y-75334174D01*
X149673186Y-75408838D01*
X149802900Y-75435106D01*
X150991216Y-75435106D01*
X152428755Y-76872645D01*
X152599725Y-76986885D01*
X152801400Y-77027000D01*
X155531710Y-77027000D01*
X157823000Y-79318290D01*
X157823000Y-86101300D01*
X157863115Y-86302975D01*
X157977355Y-86473945D01*
X159368303Y-87864894D01*
X159246900Y-87864894D01*
X159125721Y-87887695D01*
X159014426Y-87959312D01*
X158939762Y-88068586D01*
X158913494Y-88198300D01*
X158913494Y-90001700D01*
X158936295Y-90122879D01*
X159007912Y-90234174D01*
X159117186Y-90308838D01*
X159246900Y-90335106D01*
X160847100Y-90335106D01*
X160968279Y-90312305D01*
X161079574Y-90240688D01*
X161154238Y-90131414D01*
X161180506Y-90001700D01*
X161180506Y-88610184D01*
X161684767Y-88105923D01*
X161799007Y-87934952D01*
X161839122Y-87733278D01*
X161839122Y-86749250D01*
X161862122Y-86726250D01*
X161862122Y-86027000D01*
X161845528Y-86027000D01*
X161845528Y-85773000D01*
X161862122Y-85773000D01*
X161862122Y-85073750D01*
X161738372Y-84950000D01*
X161862122Y-84826250D01*
X161862122Y-84127000D01*
X161845528Y-84127000D01*
X161845528Y-83873000D01*
X161862122Y-83873000D01*
X161862122Y-83173750D01*
X161814478Y-83126106D01*
X161799007Y-83048326D01*
X161739313Y-82958988D01*
X161684767Y-82877354D01*
X161539121Y-82731708D01*
X161539121Y-82427001D01*
X162334453Y-82427001D01*
X162273109Y-82574735D01*
X162272968Y-82735625D01*
X162205503Y-82836594D01*
X162172999Y-83000000D01*
X162183430Y-83052442D01*
X162062122Y-83173750D01*
X162062122Y-83873000D01*
X162078716Y-83873000D01*
X162078716Y-84127000D01*
X162062122Y-84127000D01*
X162062122Y-84826250D01*
X162185872Y-84950000D01*
X162062122Y-85073750D01*
X162062122Y-85773000D01*
X162078716Y-85773000D01*
X162078716Y-86027000D01*
X162062122Y-86027000D01*
X162062122Y-86726250D01*
X162109766Y-86773894D01*
X162125237Y-86851675D01*
X162239477Y-87022645D01*
X162565067Y-87348235D01*
X162589477Y-87384767D01*
X162760448Y-87499007D01*
X162962122Y-87539122D01*
X164087878Y-87539122D01*
X164289553Y-87499007D01*
X164416594Y-87414120D01*
X164416594Y-88000000D01*
X164439395Y-88121179D01*
X164511012Y-88232474D01*
X164620286Y-88307138D01*
X164750000Y-88333406D01*
X167250000Y-88333406D01*
X167371179Y-88310605D01*
X167482474Y-88238988D01*
X167557138Y-88129714D01*
X167583406Y-88000000D01*
X167583406Y-85673669D01*
X173475697Y-85673669D01*
X173500946Y-85954632D01*
X174026446Y-86327235D01*
X174654533Y-86470374D01*
X175171643Y-86402287D01*
X175333728Y-86171138D01*
X174653810Y-84993485D01*
X173475697Y-85673669D01*
X167583406Y-85673669D01*
X167583406Y-85500000D01*
X167560605Y-85378821D01*
X167488988Y-85267526D01*
X167379714Y-85192862D01*
X167250000Y-85166594D01*
X164750000Y-85166594D01*
X164628821Y-85189395D01*
X164517526Y-85261012D01*
X164442862Y-85370286D01*
X164416594Y-85500000D01*
X164416594Y-86223000D01*
X164350000Y-86223000D01*
X164148326Y-86263115D01*
X164123056Y-86280000D01*
X163977354Y-86377355D01*
X163869587Y-86485122D01*
X163192534Y-86485122D01*
X163139122Y-86431710D01*
X163139122Y-86281633D01*
X163145528Y-86250000D01*
X163145528Y-85550000D01*
X163122727Y-85428821D01*
X163051110Y-85317526D01*
X162941836Y-85242862D01*
X162812122Y-85216594D01*
X162711340Y-85216594D01*
X162700449Y-85190301D01*
X162521820Y-85011673D01*
X162372928Y-84950000D01*
X162521820Y-84888327D01*
X162700449Y-84709699D01*
X162711340Y-84683406D01*
X162812122Y-84683406D01*
X162933301Y-84660605D01*
X163044596Y-84588988D01*
X163119260Y-84479714D01*
X163145528Y-84350000D01*
X163145528Y-83650000D01*
X163122727Y-83528821D01*
X163051110Y-83417526D01*
X163039122Y-83409335D01*
X163039122Y-83320931D01*
X163254703Y-83231855D01*
X163431235Y-83055631D01*
X163526891Y-82825265D01*
X163527109Y-82575829D01*
X163465614Y-82427000D01*
X164416594Y-82427000D01*
X164416594Y-84500000D01*
X164439395Y-84621179D01*
X164511012Y-84732474D01*
X164620286Y-84807138D01*
X164750000Y-84833406D01*
X167250000Y-84833406D01*
X167371179Y-84810605D01*
X167482474Y-84738988D01*
X167543309Y-84649953D01*
X173058067Y-84649953D01*
X173118000Y-85291351D01*
X173348697Y-85453698D01*
X174526810Y-84773515D01*
X173846892Y-83595862D01*
X173565668Y-83620657D01*
X173248148Y-84034444D01*
X173058067Y-84649953D01*
X167543309Y-84649953D01*
X167557138Y-84629714D01*
X167583406Y-84500000D01*
X167583406Y-82000000D01*
X167560605Y-81878821D01*
X167488988Y-81767526D01*
X167379714Y-81692862D01*
X167250000Y-81666594D01*
X166627000Y-81666594D01*
X166627000Y-81659712D01*
X167659712Y-80627000D01*
X169072494Y-80627000D01*
X169072494Y-80901700D01*
X169095295Y-81022879D01*
X169166912Y-81134174D01*
X169276186Y-81208838D01*
X169405900Y-81235106D01*
X169579000Y-81235106D01*
X169579000Y-82160548D01*
X169573109Y-82174735D01*
X169572891Y-82424171D01*
X169668145Y-82654703D01*
X169844369Y-82831235D01*
X170074735Y-82926891D01*
X170324171Y-82927109D01*
X170554703Y-82831855D01*
X170731235Y-82655631D01*
X170776005Y-82547811D01*
X170785272Y-82533943D01*
X170788498Y-82517727D01*
X170826891Y-82425265D01*
X170826979Y-82324268D01*
X170833000Y-82294000D01*
X170833000Y-81235106D01*
X171006100Y-81235106D01*
X171127279Y-81212305D01*
X171238574Y-81140688D01*
X171313238Y-81031414D01*
X171339506Y-80901700D01*
X171339506Y-79098300D01*
X171866494Y-79098300D01*
X171866494Y-80901700D01*
X171889295Y-81022879D01*
X171960912Y-81134174D01*
X172070186Y-81208838D01*
X172199900Y-81235106D01*
X173348394Y-81235106D01*
X175194482Y-83081194D01*
X175191295Y-83087385D01*
X175181272Y-83219352D01*
X175199245Y-83272906D01*
X174746057Y-83169626D01*
X174228947Y-83237713D01*
X174066862Y-83468862D01*
X174746780Y-84646515D01*
X174764101Y-84636515D01*
X174891101Y-84856485D01*
X174873780Y-84866485D01*
X175553698Y-86044138D01*
X175834922Y-86019343D01*
X176152442Y-85605556D01*
X176289227Y-85162627D01*
X176319716Y-85198128D01*
X176437385Y-85258705D01*
X176569352Y-85268728D01*
X176694821Y-85226620D01*
X178454585Y-84210620D01*
X178548128Y-84130284D01*
X178608705Y-84012615D01*
X178618728Y-83880648D01*
X178576620Y-83755179D01*
X177560620Y-81995415D01*
X177480284Y-81901872D01*
X177362615Y-81841295D01*
X177230648Y-81831272D01*
X177105179Y-81873380D01*
X176252428Y-82365716D01*
X174133506Y-80246794D01*
X174133506Y-79098300D01*
X174110705Y-78977121D01*
X174039088Y-78865826D01*
X173929814Y-78791162D01*
X173800100Y-78764894D01*
X172199900Y-78764894D01*
X172078721Y-78787695D01*
X171967426Y-78859312D01*
X171892762Y-78968586D01*
X171866494Y-79098300D01*
X171339506Y-79098300D01*
X171316705Y-78977121D01*
X171245088Y-78865826D01*
X171135814Y-78791162D01*
X171006100Y-78764894D01*
X169405900Y-78764894D01*
X169284721Y-78787695D01*
X169173426Y-78859312D01*
X169098762Y-78968586D01*
X169072494Y-79098300D01*
X169072494Y-79373000D01*
X167400000Y-79373000D01*
X167160057Y-79420728D01*
X166956644Y-79556644D01*
X165340288Y-81173000D01*
X162634373Y-81173001D01*
X162588372Y-81127000D01*
X161889122Y-81127000D01*
X161889122Y-81147000D01*
X161635122Y-81147000D01*
X161635122Y-81127000D01*
X161615122Y-81127000D01*
X161615122Y-80873000D01*
X161635122Y-80873000D01*
X161635122Y-80223750D01*
X161889122Y-80223750D01*
X161889122Y-80873000D01*
X162588372Y-80873000D01*
X162747122Y-80714250D01*
X162747122Y-80573690D01*
X162650449Y-80340301D01*
X162471820Y-80161673D01*
X162238431Y-80065000D01*
X162047872Y-80065000D01*
X161889122Y-80223750D01*
X161635122Y-80223750D01*
X161476372Y-80065000D01*
X161285813Y-80065000D01*
X161052424Y-80161673D01*
X160873795Y-80340301D01*
X160862904Y-80366594D01*
X160212122Y-80366594D01*
X160090943Y-80389395D01*
X159979648Y-80461012D01*
X159904984Y-80570286D01*
X159878716Y-80700000D01*
X159878716Y-81300000D01*
X159901517Y-81421179D01*
X159970651Y-81528615D01*
X159982850Y-81589945D01*
X160065059Y-81712979D01*
X160118766Y-81793358D01*
X160485121Y-82159713D01*
X160485121Y-82949999D01*
X160525236Y-83151674D01*
X160639476Y-83322644D01*
X160785122Y-83468290D01*
X160785122Y-83618367D01*
X160778716Y-83650000D01*
X160778716Y-84350000D01*
X160801517Y-84471179D01*
X160873134Y-84582474D01*
X160982408Y-84657138D01*
X161112122Y-84683406D01*
X161212904Y-84683406D01*
X161223795Y-84709699D01*
X161402424Y-84888327D01*
X161551316Y-84950000D01*
X161402424Y-85011673D01*
X161223795Y-85190301D01*
X161212904Y-85216594D01*
X161112122Y-85216594D01*
X160990943Y-85239395D01*
X160879648Y-85311012D01*
X160804984Y-85420286D01*
X160778716Y-85550000D01*
X160778716Y-86250000D01*
X160785122Y-86284046D01*
X160785122Y-87514988D01*
X160562023Y-87738087D01*
X160533885Y-87596626D01*
X160460558Y-87486885D01*
X160419645Y-87425654D01*
X158877000Y-85883010D01*
X158877000Y-79100000D01*
X158836885Y-78898326D01*
X158836885Y-78898325D01*
X158722645Y-78727355D01*
X156122645Y-76127355D01*
X155951675Y-76013115D01*
X155750000Y-75973000D01*
X153019690Y-75973000D01*
X152783390Y-75736700D01*
X153111250Y-75736700D01*
X153270000Y-75577950D01*
X153270000Y-74327000D01*
X153524000Y-74327000D01*
X153524000Y-75577950D01*
X153682750Y-75736700D01*
X154323409Y-75736700D01*
X154556798Y-75640027D01*
X154735427Y-75461399D01*
X154832100Y-75228010D01*
X154832100Y-74485750D01*
X154673350Y-74327000D01*
X153524000Y-74327000D01*
X153270000Y-74327000D01*
X152120650Y-74327000D01*
X151961900Y-74485750D01*
X151961900Y-74915210D01*
X151736506Y-74689816D01*
X151736506Y-73298300D01*
X151713705Y-73177121D01*
X151710404Y-73171990D01*
X151961900Y-73171990D01*
X151961900Y-73914250D01*
X152120650Y-74073000D01*
X153270000Y-74073000D01*
X153270000Y-72822050D01*
X153524000Y-72822050D01*
X153524000Y-74073000D01*
X154673350Y-74073000D01*
X154832100Y-73914250D01*
X154832100Y-73171990D01*
X154735427Y-72938601D01*
X154556798Y-72759973D01*
X154323409Y-72663300D01*
X153682750Y-72663300D01*
X153524000Y-72822050D01*
X153270000Y-72822050D01*
X153111250Y-72663300D01*
X152470591Y-72663300D01*
X152237202Y-72759973D01*
X152058573Y-72938601D01*
X151961900Y-73171990D01*
X151710404Y-73171990D01*
X151642088Y-73065826D01*
X151532814Y-72991162D01*
X151403100Y-72964894D01*
X149802900Y-72964894D01*
X149681721Y-72987695D01*
X149570426Y-73059312D01*
X149495762Y-73168586D01*
X149469494Y-73298300D01*
X149469494Y-73673000D01*
X149092510Y-73673000D01*
X149088988Y-73667526D01*
X148979714Y-73592862D01*
X148850000Y-73566594D01*
X148199218Y-73566594D01*
X148188327Y-73540301D01*
X148009698Y-73361673D01*
X147776309Y-73265000D01*
X147585750Y-73265000D01*
X147427000Y-73423750D01*
X147427000Y-74073000D01*
X147447000Y-74073000D01*
X147447000Y-74327000D01*
X147427000Y-74327000D01*
X147427000Y-74976250D01*
X147552730Y-75101980D01*
X146681710Y-75973000D01*
X145942510Y-75973000D01*
X145938988Y-75967526D01*
X145829714Y-75892862D01*
X145700000Y-75866594D01*
X145049218Y-75866594D01*
X145038327Y-75840301D01*
X144884725Y-75686700D01*
X145323409Y-75686700D01*
X145556798Y-75590027D01*
X145735427Y-75411399D01*
X145832100Y-75178010D01*
X145832100Y-74485750D01*
X146315000Y-74485750D01*
X146315000Y-74626310D01*
X146411673Y-74859699D01*
X146590302Y-75038327D01*
X146823691Y-75135000D01*
X147014250Y-75135000D01*
X147173000Y-74976250D01*
X147173000Y-74327000D01*
X146473750Y-74327000D01*
X146315000Y-74485750D01*
X145832100Y-74485750D01*
X145832100Y-74435750D01*
X145673350Y-74277000D01*
X144524000Y-74277000D01*
X144524000Y-74297000D01*
X144270000Y-74297000D01*
X144270000Y-74277000D01*
X143120650Y-74277000D01*
X142961900Y-74435750D01*
X142961900Y-75178010D01*
X143058573Y-75411399D01*
X143237202Y-75590027D01*
X143431477Y-75670498D01*
X143261673Y-75840301D01*
X143165000Y-76073690D01*
X143165000Y-76214250D01*
X143323750Y-76373000D01*
X144023000Y-76373000D01*
X144023000Y-76353000D01*
X144277000Y-76353000D01*
X144277000Y-76373000D01*
X144297000Y-76373000D01*
X144297000Y-76627000D01*
X144277000Y-76627000D01*
X144277000Y-77276250D01*
X144435750Y-77435000D01*
X144626309Y-77435000D01*
X144823000Y-77353528D01*
X144823000Y-77931710D01*
X144621710Y-78133000D01*
X144376093Y-78133000D01*
X144350000Y-78127716D01*
X142850000Y-78127716D01*
X142821918Y-78133000D01*
X140660013Y-78133000D01*
X140664158Y-78126934D01*
X140690426Y-77997220D01*
X140690426Y-77397780D01*
X140667625Y-77276601D01*
X140596008Y-77165306D01*
X140486734Y-77090642D01*
X140357020Y-77064374D01*
X139356260Y-77064374D01*
X139235081Y-77087175D01*
X139123786Y-77158792D01*
X139049122Y-77268066D01*
X139022854Y-77397780D01*
X139022854Y-77997220D01*
X139045655Y-78118399D01*
X139117272Y-78229694D01*
X139226546Y-78304358D01*
X139329640Y-78325235D01*
X139329640Y-78397220D01*
X139369755Y-78598895D01*
X139483995Y-78769865D01*
X139683504Y-78969374D01*
X139356260Y-78969374D01*
X139235081Y-78992175D01*
X139123786Y-79063792D01*
X139049122Y-79173066D01*
X139022854Y-79302780D01*
X139022854Y-79883923D01*
X138385811Y-79246881D01*
X138476214Y-79188708D01*
X138550878Y-79079434D01*
X138577146Y-78949720D01*
X138577146Y-78350280D01*
X138554345Y-78229101D01*
X138482728Y-78117806D01*
X138373454Y-78043142D01*
X138243740Y-78016874D01*
X137242980Y-78016874D01*
X137121801Y-78039675D01*
X137010506Y-78111292D01*
X136935842Y-78220566D01*
X136909574Y-78350280D01*
X136595010Y-78350280D01*
X138159540Y-76785750D01*
X143165000Y-76785750D01*
X143165000Y-76926310D01*
X143261673Y-77159699D01*
X143440302Y-77338327D01*
X143673691Y-77435000D01*
X143864250Y-77435000D01*
X144023000Y-77276250D01*
X144023000Y-76627000D01*
X143323750Y-76627000D01*
X143165000Y-76785750D01*
X138159540Y-76785750D01*
X139722645Y-75222645D01*
X139836885Y-75051675D01*
X139877000Y-74850000D01*
X139877000Y-74724685D01*
X139932474Y-74688988D01*
X139940665Y-74677000D01*
X140469494Y-74677000D01*
X140469494Y-75051700D01*
X140492295Y-75172879D01*
X140563912Y-75284174D01*
X140673186Y-75358838D01*
X140802900Y-75385106D01*
X142403100Y-75385106D01*
X142524279Y-75362305D01*
X142635574Y-75290688D01*
X142710238Y-75181414D01*
X142736506Y-75051700D01*
X142736506Y-73248300D01*
X142713705Y-73127121D01*
X142710404Y-73121990D01*
X142961900Y-73121990D01*
X142961900Y-73864250D01*
X143120650Y-74023000D01*
X144270000Y-74023000D01*
X144270000Y-72772050D01*
X144524000Y-72772050D01*
X144524000Y-74023000D01*
X145673350Y-74023000D01*
X145832100Y-73864250D01*
X145832100Y-73773690D01*
X146315000Y-73773690D01*
X146315000Y-73914250D01*
X146473750Y-74073000D01*
X147173000Y-74073000D01*
X147173000Y-73423750D01*
X147014250Y-73265000D01*
X146823691Y-73265000D01*
X146590302Y-73361673D01*
X146411673Y-73540301D01*
X146315000Y-73773690D01*
X145832100Y-73773690D01*
X145832100Y-73121990D01*
X145735427Y-72888601D01*
X145556798Y-72709973D01*
X145323409Y-72613300D01*
X144682750Y-72613300D01*
X144524000Y-72772050D01*
X144270000Y-72772050D01*
X144111250Y-72613300D01*
X143470591Y-72613300D01*
X143237202Y-72709973D01*
X143058573Y-72888601D01*
X142961900Y-73121990D01*
X142710404Y-73121990D01*
X142642088Y-73015826D01*
X142532814Y-72941162D01*
X142403100Y-72914894D01*
X140802900Y-72914894D01*
X140681721Y-72937695D01*
X140570426Y-73009312D01*
X140495762Y-73118586D01*
X140469494Y-73248300D01*
X140469494Y-73623000D01*
X139942510Y-73623000D01*
X139938988Y-73617526D01*
X139829714Y-73542862D01*
X139700000Y-73516594D01*
X139049218Y-73516594D01*
X139038327Y-73490301D01*
X138859698Y-73311673D01*
X138626309Y-73215000D01*
X138435750Y-73215000D01*
X138277000Y-73373750D01*
X138277000Y-74023000D01*
X138297000Y-74023000D01*
X138297000Y-74277000D01*
X138277000Y-74277000D01*
X138277000Y-74926250D01*
X138402730Y-75051980D01*
X135381710Y-78073000D01*
X130468290Y-78073000D01*
X126831040Y-74435750D01*
X137165000Y-74435750D01*
X137165000Y-74576310D01*
X137261673Y-74809699D01*
X137440302Y-74988327D01*
X137673691Y-75085000D01*
X137864250Y-75085000D01*
X138023000Y-74926250D01*
X138023000Y-74277000D01*
X137323750Y-74277000D01*
X137165000Y-74435750D01*
X126831040Y-74435750D01*
X126118980Y-73723690D01*
X137165000Y-73723690D01*
X137165000Y-73864250D01*
X137323750Y-74023000D01*
X138023000Y-74023000D01*
X138023000Y-73373750D01*
X137864250Y-73215000D01*
X137673691Y-73215000D01*
X137440302Y-73311673D01*
X137261673Y-73490301D01*
X137165000Y-73723690D01*
X126118980Y-73723690D01*
X125622645Y-73227355D01*
X125451675Y-73113115D01*
X125250000Y-73073000D01*
X118950000Y-73073000D01*
X118748325Y-73113115D01*
X118577355Y-73227355D01*
X117177355Y-74627355D01*
X117063115Y-74798325D01*
X117027724Y-74976250D01*
X117023000Y-75000000D01*
X116875655Y-75000000D01*
X116895906Y-74900000D01*
X116895906Y-73700000D01*
X116873105Y-73578821D01*
X116801488Y-73467526D01*
X116692214Y-73392862D01*
X116562500Y-73366594D01*
X114762500Y-73366594D01*
X114641321Y-73389395D01*
X114530026Y-73461012D01*
X114455362Y-73570286D01*
X114429094Y-73700000D01*
X111538319Y-73700000D01*
X123854827Y-67712308D01*
X138822727Y-67712308D01*
X139062305Y-68292132D01*
X139505535Y-68736136D01*
X140084939Y-68976725D01*
X140712308Y-68977273D01*
X141292132Y-68737695D01*
X141736136Y-68294465D01*
X141976725Y-67715061D01*
X141977273Y-67087692D01*
X141737695Y-66507868D01*
X141294465Y-66063864D01*
X140715061Y-65823275D01*
X140087692Y-65822727D01*
X139507868Y-66062305D01*
X139063864Y-66505535D01*
X138823275Y-67084939D01*
X138822727Y-67712308D01*
X123854827Y-67712308D01*
X127684325Y-65850591D01*
X147231303Y-64680116D01*
X165738277Y-71079043D01*
M02*
