G04 #@! TF.FileFunction,Copper,L2,Bot,Signal*
%FSLAX46Y46*%
G04 Gerber Fmt 4.6, Leading zero omitted, Abs format (unit mm)*
G04 Created by KiCad (PCBNEW 4.0.4-stable) date 02/11/17 12:35:40*
%MOMM*%
%LPD*%
G01*
G04 APERTURE LIST*
%ADD10C,0.100000*%
%ADD11C,2.500000*%
%ADD12C,2.032000*%
%ADD13R,2.032000X2.032000*%
%ADD14O,2.032000X2.032000*%
%ADD15C,1.524000*%
%ADD16C,0.600000*%
%ADD17C,0.600000*%
%ADD18C,0.400000*%
%ADD19C,0.200000*%
%ADD20C,0.254000*%
G04 APERTURE END LIST*
D10*
D11*
X140400000Y-67400000D03*
X180375000Y-102400000D03*
D10*
G36*
X175512118Y-83178118D02*
X177271882Y-82162118D01*
X178287882Y-83921882D01*
X176528118Y-84937882D01*
X175512118Y-83178118D01*
X175512118Y-83178118D01*
G37*
D12*
X174700295Y-84820000D02*
X174700295Y-84820000D01*
D11*
X140375000Y-102400000D03*
D13*
X135210000Y-97650000D03*
D14*
X137750000Y-97650000D03*
D15*
X128100000Y-103260000D03*
X128100000Y-100720000D03*
X128100000Y-98180000D03*
X128100000Y-95640000D03*
X128100000Y-93100000D03*
X128100000Y-90560000D03*
X128100000Y-88020000D03*
X128100000Y-85480000D03*
X124544000Y-103260000D03*
X122004000Y-103260000D03*
X124550000Y-98160000D03*
D16*
X170200000Y-82300000D03*
X121400000Y-78650000D03*
X121450000Y-75600000D03*
X162800000Y-81000000D03*
X157200000Y-91050000D03*
X137000000Y-74200000D03*
X141850000Y-76600000D03*
X144350000Y-72350000D03*
X155500000Y-74150000D03*
X150650000Y-79900000D03*
X150650000Y-81200000D03*
X145200000Y-83750000D03*
X135900000Y-86600000D03*
X135900000Y-85750000D03*
X141950000Y-83750000D03*
X162100000Y-87600000D03*
X161950000Y-82750000D03*
X125400735Y-78349265D03*
X124750000Y-76950000D03*
X162900000Y-82700000D03*
D17*
X167100000Y-105700000D02*
X124444000Y-105700000D01*
X124444000Y-105700000D02*
X122004000Y-103260000D01*
X170200000Y-102600000D02*
X167100000Y-105700000D01*
X170200000Y-82300000D02*
X170200000Y-102600000D01*
D18*
X150650000Y-81200000D02*
X150650000Y-79900000D01*
X135900000Y-85750000D02*
X135900000Y-86600000D01*
D19*
X124750000Y-76950000D02*
X124750000Y-77698530D01*
X124750000Y-77698530D02*
X125400735Y-78349265D01*
X137900000Y-70700000D02*
X150900000Y-70700000D01*
X150900000Y-70700000D02*
X162900000Y-82700000D01*
X128861999Y-79738001D02*
X137900000Y-70700000D01*
X128100000Y-85480000D02*
X128861999Y-84718001D01*
X128861999Y-84718001D02*
X128861999Y-79738001D01*
D18*
X125947999Y-99557999D02*
X131886001Y-99557999D01*
X131886001Y-99557999D02*
X133794000Y-97650000D01*
X133794000Y-97650000D02*
X135210000Y-97650000D01*
X124550000Y-98160000D02*
X125947999Y-99557999D01*
D20*
G36*
X165738277Y-71079043D02*
X180389728Y-84074968D01*
X188494691Y-100058211D01*
X188665503Y-101881662D01*
X188126292Y-103629133D01*
X186959398Y-105037238D01*
X185335246Y-105895426D01*
X183981054Y-106093000D01*
X167593712Y-106093000D01*
X170643356Y-103043356D01*
X170700676Y-102957570D01*
X170779272Y-102839943D01*
X170804660Y-102712308D01*
X178797727Y-102712308D01*
X179037305Y-103292132D01*
X179480535Y-103736136D01*
X180059939Y-103976725D01*
X180687308Y-103977273D01*
X181267132Y-103737695D01*
X181711136Y-103294465D01*
X181951725Y-102715061D01*
X181952273Y-102087692D01*
X181712695Y-101507868D01*
X181269465Y-101063864D01*
X180690061Y-100823275D01*
X180062692Y-100822727D01*
X179482868Y-101062305D01*
X179038864Y-101505535D01*
X178798275Y-102084939D01*
X178797727Y-102712308D01*
X170804660Y-102712308D01*
X170827000Y-102600000D01*
X170827000Y-85673669D01*
X173475697Y-85673669D01*
X173500946Y-85954632D01*
X174026446Y-86327235D01*
X174654533Y-86470374D01*
X175171643Y-86402287D01*
X175333728Y-86171138D01*
X174653810Y-84993485D01*
X173475697Y-85673669D01*
X170827000Y-85673669D01*
X170827000Y-84649953D01*
X173058067Y-84649953D01*
X173118000Y-85291351D01*
X173348697Y-85453698D01*
X174526810Y-84773515D01*
X173846892Y-83595862D01*
X173565668Y-83620657D01*
X173248148Y-84034444D01*
X173058067Y-84649953D01*
X170827000Y-84649953D01*
X170827000Y-83468862D01*
X174066862Y-83468862D01*
X174746780Y-84646515D01*
X174764101Y-84636515D01*
X174891101Y-84856485D01*
X174873780Y-84866485D01*
X175553698Y-86044138D01*
X175834922Y-86019343D01*
X176152442Y-85605556D01*
X176289227Y-85162627D01*
X176319716Y-85198128D01*
X176437385Y-85258705D01*
X176569352Y-85268728D01*
X176694821Y-85226620D01*
X178454585Y-84210620D01*
X178548128Y-84130284D01*
X178608705Y-84012615D01*
X178618728Y-83880648D01*
X178576620Y-83755179D01*
X177560620Y-81995415D01*
X177480284Y-81901872D01*
X177362615Y-81841295D01*
X177230648Y-81831272D01*
X177105179Y-81873380D01*
X175345415Y-82889380D01*
X175251872Y-82969716D01*
X175191295Y-83087385D01*
X175181272Y-83219352D01*
X175199245Y-83272906D01*
X174746057Y-83169626D01*
X174228947Y-83237713D01*
X174066862Y-83468862D01*
X170827000Y-83468862D01*
X170827000Y-82300000D01*
X170827109Y-82175829D01*
X170731855Y-81945297D01*
X170555631Y-81768765D01*
X170325265Y-81673109D01*
X170075829Y-81672891D01*
X169845297Y-81768145D01*
X169668765Y-81944369D01*
X169573109Y-82174735D01*
X169572891Y-82424171D01*
X169573000Y-82424435D01*
X169573000Y-102340288D01*
X166840288Y-105073000D01*
X124703712Y-105073000D01*
X124279642Y-104648930D01*
X124336302Y-104669144D01*
X124891368Y-104641362D01*
X125275143Y-104482397D01*
X125344608Y-104240213D01*
X124544000Y-103439605D01*
X124529858Y-103453748D01*
X124350253Y-103274143D01*
X124364395Y-103260000D01*
X124723605Y-103260000D01*
X125524213Y-104060608D01*
X125766397Y-103991143D01*
X125950301Y-103475665D01*
X127010811Y-103475665D01*
X127176252Y-103876063D01*
X127482326Y-104182671D01*
X127882434Y-104348811D01*
X128315665Y-104349189D01*
X128716063Y-104183748D01*
X129022671Y-103877674D01*
X129188811Y-103477566D01*
X129189189Y-103044335D01*
X129051999Y-102712308D01*
X138797727Y-102712308D01*
X139037305Y-103292132D01*
X139480535Y-103736136D01*
X140059939Y-103976725D01*
X140687308Y-103977273D01*
X141267132Y-103737695D01*
X141711136Y-103294465D01*
X141951725Y-102715061D01*
X141952273Y-102087692D01*
X141712695Y-101507868D01*
X141269465Y-101063864D01*
X140690061Y-100823275D01*
X140062692Y-100822727D01*
X139482868Y-101062305D01*
X139038864Y-101505535D01*
X138798275Y-102084939D01*
X138797727Y-102712308D01*
X129051999Y-102712308D01*
X129023748Y-102643937D01*
X128717674Y-102337329D01*
X128317566Y-102171189D01*
X127884335Y-102170811D01*
X127483937Y-102336252D01*
X127177329Y-102642326D01*
X127011189Y-103042434D01*
X127010811Y-103475665D01*
X125950301Y-103475665D01*
X125953144Y-103467698D01*
X125925362Y-102912632D01*
X125766397Y-102528857D01*
X125524213Y-102459392D01*
X124723605Y-103260000D01*
X124364395Y-103260000D01*
X123563787Y-102459392D01*
X123321603Y-102528857D01*
X123134856Y-103052302D01*
X123158663Y-103527951D01*
X123092824Y-103462112D01*
X123093189Y-103044335D01*
X122927748Y-102643937D01*
X122621674Y-102337329D01*
X122483099Y-102279787D01*
X123743392Y-102279787D01*
X124544000Y-103080395D01*
X125344608Y-102279787D01*
X125275143Y-102037603D01*
X124751698Y-101850856D01*
X124196632Y-101878638D01*
X123812857Y-102037603D01*
X123743392Y-102279787D01*
X122483099Y-102279787D01*
X122221566Y-102171189D01*
X121788335Y-102170811D01*
X121387937Y-102336252D01*
X121081329Y-102642326D01*
X120915189Y-103042434D01*
X120914811Y-103475665D01*
X121080252Y-103876063D01*
X121386326Y-104182671D01*
X121786434Y-104348811D01*
X122206465Y-104349177D01*
X123950288Y-106093000D01*
X122407098Y-106093000D01*
X121320027Y-105876768D01*
X120424082Y-105278116D01*
X119825430Y-104382171D01*
X119609191Y-103295064D01*
X119609191Y-98375665D01*
X123460811Y-98375665D01*
X123626252Y-98776063D01*
X123932326Y-99082671D01*
X124332434Y-99248811D01*
X124765665Y-99249189D01*
X124856406Y-99211696D01*
X125575354Y-99930644D01*
X125746324Y-100044884D01*
X125947999Y-100084999D01*
X127194686Y-100084999D01*
X127177329Y-100102326D01*
X127011189Y-100502434D01*
X127010811Y-100935665D01*
X127176252Y-101336063D01*
X127482326Y-101642671D01*
X127882434Y-101808811D01*
X128315665Y-101809189D01*
X128716063Y-101643748D01*
X129022671Y-101337674D01*
X129188811Y-100937566D01*
X129189189Y-100504335D01*
X129023748Y-100103937D01*
X129004843Y-100084999D01*
X131886001Y-100084999D01*
X132087676Y-100044884D01*
X132258646Y-99930644D01*
X133860594Y-98328696D01*
X133860594Y-98666000D01*
X133883395Y-98787179D01*
X133955012Y-98898474D01*
X134064286Y-98973138D01*
X134194000Y-98999406D01*
X136226000Y-98999406D01*
X136347179Y-98976605D01*
X136458474Y-98904988D01*
X136533138Y-98795714D01*
X136559406Y-98666000D01*
X136559406Y-98265349D01*
X136800356Y-98625955D01*
X137236056Y-98917081D01*
X137750000Y-99019311D01*
X138263944Y-98917081D01*
X138699644Y-98625955D01*
X138990770Y-98190255D01*
X139093000Y-97676311D01*
X139093000Y-97623689D01*
X138990770Y-97109745D01*
X138699644Y-96674045D01*
X138263944Y-96382919D01*
X137750000Y-96280689D01*
X137236056Y-96382919D01*
X136800356Y-96674045D01*
X136559406Y-97034651D01*
X136559406Y-96634000D01*
X136536605Y-96512821D01*
X136464988Y-96401526D01*
X136355714Y-96326862D01*
X136226000Y-96300594D01*
X134194000Y-96300594D01*
X134072821Y-96323395D01*
X133961526Y-96395012D01*
X133886862Y-96504286D01*
X133860594Y-96634000D01*
X133860594Y-97123000D01*
X133794000Y-97123000D01*
X133592325Y-97163115D01*
X133421355Y-97277355D01*
X131667711Y-99030999D01*
X128788939Y-99030999D01*
X129022671Y-98797674D01*
X129188811Y-98397566D01*
X129189189Y-97964335D01*
X129023748Y-97563937D01*
X128717674Y-97257329D01*
X128317566Y-97091189D01*
X127884335Y-97090811D01*
X127483937Y-97256252D01*
X127177329Y-97562326D01*
X127011189Y-97962434D01*
X127010811Y-98395665D01*
X127176252Y-98796063D01*
X127410779Y-99030999D01*
X126166289Y-99030999D01*
X125601855Y-98466565D01*
X125638811Y-98377566D01*
X125639189Y-97944335D01*
X125473748Y-97543937D01*
X125167674Y-97237329D01*
X124767566Y-97071189D01*
X124334335Y-97070811D01*
X123933937Y-97236252D01*
X123627329Y-97542326D01*
X123461189Y-97942434D01*
X123460811Y-98375665D01*
X119609191Y-98375665D01*
X119609191Y-95855665D01*
X127010811Y-95855665D01*
X127176252Y-96256063D01*
X127482326Y-96562671D01*
X127882434Y-96728811D01*
X128315665Y-96729189D01*
X128716063Y-96563748D01*
X129022671Y-96257674D01*
X129188811Y-95857566D01*
X129189189Y-95424335D01*
X129023748Y-95023937D01*
X128717674Y-94717329D01*
X128317566Y-94551189D01*
X127884335Y-94550811D01*
X127483937Y-94716252D01*
X127177329Y-95022326D01*
X127011189Y-95422434D01*
X127010811Y-95855665D01*
X119609191Y-95855665D01*
X119609191Y-93315665D01*
X127010811Y-93315665D01*
X127176252Y-93716063D01*
X127482326Y-94022671D01*
X127882434Y-94188811D01*
X128315665Y-94189189D01*
X128716063Y-94023748D01*
X129022671Y-93717674D01*
X129188811Y-93317566D01*
X129189189Y-92884335D01*
X129023748Y-92483937D01*
X128717674Y-92177329D01*
X128317566Y-92011189D01*
X127884335Y-92010811D01*
X127483937Y-92176252D01*
X127177329Y-92482326D01*
X127011189Y-92882434D01*
X127010811Y-93315665D01*
X119609191Y-93315665D01*
X119609191Y-90775665D01*
X127010811Y-90775665D01*
X127176252Y-91176063D01*
X127482326Y-91482671D01*
X127882434Y-91648811D01*
X128315665Y-91649189D01*
X128716063Y-91483748D01*
X129022671Y-91177674D01*
X129188811Y-90777566D01*
X129189189Y-90344335D01*
X129023748Y-89943937D01*
X128717674Y-89637329D01*
X128317566Y-89471189D01*
X127884335Y-89470811D01*
X127483937Y-89636252D01*
X127177329Y-89942326D01*
X127011189Y-90342434D01*
X127010811Y-90775665D01*
X119609191Y-90775665D01*
X119609191Y-88235665D01*
X127010811Y-88235665D01*
X127176252Y-88636063D01*
X127482326Y-88942671D01*
X127882434Y-89108811D01*
X128315665Y-89109189D01*
X128716063Y-88943748D01*
X129022671Y-88637674D01*
X129188811Y-88237566D01*
X129189189Y-87804335D01*
X129023748Y-87403937D01*
X128717674Y-87097329D01*
X128317566Y-86931189D01*
X127884335Y-86930811D01*
X127483937Y-87096252D01*
X127177329Y-87402326D01*
X127011189Y-87802434D01*
X127010811Y-88235665D01*
X119609191Y-88235665D01*
X119609191Y-85695665D01*
X127010811Y-85695665D01*
X127176252Y-86096063D01*
X127482326Y-86402671D01*
X127882434Y-86568811D01*
X128315665Y-86569189D01*
X128716063Y-86403748D01*
X129022671Y-86097674D01*
X129188811Y-85697566D01*
X129189189Y-85264335D01*
X129110347Y-85073522D01*
X129163931Y-85019938D01*
X129163934Y-85019936D01*
X129256496Y-84881407D01*
X129288999Y-84718001D01*
X129288999Y-79914871D01*
X138076869Y-71127000D01*
X150723130Y-71127000D01*
X162273020Y-82676889D01*
X162272891Y-82824171D01*
X162368145Y-83054703D01*
X162544369Y-83231235D01*
X162774735Y-83326891D01*
X163024171Y-83327109D01*
X163254703Y-83231855D01*
X163431235Y-83055631D01*
X163526891Y-82825265D01*
X163527109Y-82575829D01*
X163431855Y-82345297D01*
X163255631Y-82168765D01*
X163025265Y-82073109D01*
X162876848Y-82072979D01*
X151201935Y-70398065D01*
X151063406Y-70305503D01*
X150900000Y-70272999D01*
X150899995Y-70273000D01*
X137900005Y-70273000D01*
X137900000Y-70272999D01*
X137736594Y-70305503D01*
X137598065Y-70398065D01*
X137598063Y-70398068D01*
X128560064Y-79436066D01*
X128467502Y-79574595D01*
X128434998Y-79738001D01*
X128434999Y-79738006D01*
X128434999Y-84439952D01*
X128317566Y-84391189D01*
X127884335Y-84390811D01*
X127483937Y-84556252D01*
X127177329Y-84862326D01*
X127011189Y-85262434D01*
X127010811Y-85695665D01*
X119609191Y-85695665D01*
X119609191Y-83146750D01*
X119585822Y-83029266D01*
X119519273Y-82929668D01*
X119419675Y-82863119D01*
X119302191Y-82839750D01*
X112935669Y-82839750D01*
X111111800Y-82476960D01*
X109591233Y-81460949D01*
X108575222Y-79940382D01*
X108218446Y-78146750D01*
X108431795Y-77074171D01*
X124122891Y-77074171D01*
X124218145Y-77304703D01*
X124323000Y-77409741D01*
X124323000Y-77698525D01*
X124322999Y-77698530D01*
X124355503Y-77861936D01*
X124448065Y-78000465D01*
X124773755Y-78326154D01*
X124773626Y-78473436D01*
X124868880Y-78703968D01*
X125045104Y-78880500D01*
X125275470Y-78976156D01*
X125524906Y-78976374D01*
X125755438Y-78881120D01*
X125931970Y-78704896D01*
X126027626Y-78474530D01*
X126027844Y-78225094D01*
X125932590Y-77994562D01*
X125756366Y-77818030D01*
X125526000Y-77722374D01*
X125377584Y-77722244D01*
X125177000Y-77521660D01*
X125177000Y-77409684D01*
X125281235Y-77305631D01*
X125376891Y-77075265D01*
X125377109Y-76825829D01*
X125281855Y-76595297D01*
X125105631Y-76418765D01*
X124875265Y-76323109D01*
X124625829Y-76322891D01*
X124395297Y-76418145D01*
X124218765Y-76594369D01*
X124123109Y-76824735D01*
X124122891Y-77074171D01*
X108431795Y-77074171D01*
X108575222Y-76353118D01*
X109602459Y-74815748D01*
X110055042Y-74421098D01*
X123854827Y-67712308D01*
X138822727Y-67712308D01*
X139062305Y-68292132D01*
X139505535Y-68736136D01*
X140084939Y-68976725D01*
X140712308Y-68977273D01*
X141292132Y-68737695D01*
X141736136Y-68294465D01*
X141976725Y-67715061D01*
X141977273Y-67087692D01*
X141737695Y-66507868D01*
X141294465Y-66063864D01*
X140715061Y-65823275D01*
X140087692Y-65822727D01*
X139507868Y-66062305D01*
X139063864Y-66505535D01*
X138823275Y-67084939D01*
X138822727Y-67712308D01*
X123854827Y-67712308D01*
X127684325Y-65850591D01*
X147231303Y-64680116D01*
X165738277Y-71079043D01*
X165738277Y-71079043D01*
G37*
X165738277Y-71079043D02*
X180389728Y-84074968D01*
X188494691Y-100058211D01*
X188665503Y-101881662D01*
X188126292Y-103629133D01*
X186959398Y-105037238D01*
X185335246Y-105895426D01*
X183981054Y-106093000D01*
X167593712Y-106093000D01*
X170643356Y-103043356D01*
X170700676Y-102957570D01*
X170779272Y-102839943D01*
X170804660Y-102712308D01*
X178797727Y-102712308D01*
X179037305Y-103292132D01*
X179480535Y-103736136D01*
X180059939Y-103976725D01*
X180687308Y-103977273D01*
X181267132Y-103737695D01*
X181711136Y-103294465D01*
X181951725Y-102715061D01*
X181952273Y-102087692D01*
X181712695Y-101507868D01*
X181269465Y-101063864D01*
X180690061Y-100823275D01*
X180062692Y-100822727D01*
X179482868Y-101062305D01*
X179038864Y-101505535D01*
X178798275Y-102084939D01*
X178797727Y-102712308D01*
X170804660Y-102712308D01*
X170827000Y-102600000D01*
X170827000Y-85673669D01*
X173475697Y-85673669D01*
X173500946Y-85954632D01*
X174026446Y-86327235D01*
X174654533Y-86470374D01*
X175171643Y-86402287D01*
X175333728Y-86171138D01*
X174653810Y-84993485D01*
X173475697Y-85673669D01*
X170827000Y-85673669D01*
X170827000Y-84649953D01*
X173058067Y-84649953D01*
X173118000Y-85291351D01*
X173348697Y-85453698D01*
X174526810Y-84773515D01*
X173846892Y-83595862D01*
X173565668Y-83620657D01*
X173248148Y-84034444D01*
X173058067Y-84649953D01*
X170827000Y-84649953D01*
X170827000Y-83468862D01*
X174066862Y-83468862D01*
X174746780Y-84646515D01*
X174764101Y-84636515D01*
X174891101Y-84856485D01*
X174873780Y-84866485D01*
X175553698Y-86044138D01*
X175834922Y-86019343D01*
X176152442Y-85605556D01*
X176289227Y-85162627D01*
X176319716Y-85198128D01*
X176437385Y-85258705D01*
X176569352Y-85268728D01*
X176694821Y-85226620D01*
X178454585Y-84210620D01*
X178548128Y-84130284D01*
X178608705Y-84012615D01*
X178618728Y-83880648D01*
X178576620Y-83755179D01*
X177560620Y-81995415D01*
X177480284Y-81901872D01*
X177362615Y-81841295D01*
X177230648Y-81831272D01*
X177105179Y-81873380D01*
X175345415Y-82889380D01*
X175251872Y-82969716D01*
X175191295Y-83087385D01*
X175181272Y-83219352D01*
X175199245Y-83272906D01*
X174746057Y-83169626D01*
X174228947Y-83237713D01*
X174066862Y-83468862D01*
X170827000Y-83468862D01*
X170827000Y-82300000D01*
X170827109Y-82175829D01*
X170731855Y-81945297D01*
X170555631Y-81768765D01*
X170325265Y-81673109D01*
X170075829Y-81672891D01*
X169845297Y-81768145D01*
X169668765Y-81944369D01*
X169573109Y-82174735D01*
X169572891Y-82424171D01*
X169573000Y-82424435D01*
X169573000Y-102340288D01*
X166840288Y-105073000D01*
X124703712Y-105073000D01*
X124279642Y-104648930D01*
X124336302Y-104669144D01*
X124891368Y-104641362D01*
X125275143Y-104482397D01*
X125344608Y-104240213D01*
X124544000Y-103439605D01*
X124529858Y-103453748D01*
X124350253Y-103274143D01*
X124364395Y-103260000D01*
X124723605Y-103260000D01*
X125524213Y-104060608D01*
X125766397Y-103991143D01*
X125950301Y-103475665D01*
X127010811Y-103475665D01*
X127176252Y-103876063D01*
X127482326Y-104182671D01*
X127882434Y-104348811D01*
X128315665Y-104349189D01*
X128716063Y-104183748D01*
X129022671Y-103877674D01*
X129188811Y-103477566D01*
X129189189Y-103044335D01*
X129051999Y-102712308D01*
X138797727Y-102712308D01*
X139037305Y-103292132D01*
X139480535Y-103736136D01*
X140059939Y-103976725D01*
X140687308Y-103977273D01*
X141267132Y-103737695D01*
X141711136Y-103294465D01*
X141951725Y-102715061D01*
X141952273Y-102087692D01*
X141712695Y-101507868D01*
X141269465Y-101063864D01*
X140690061Y-100823275D01*
X140062692Y-100822727D01*
X139482868Y-101062305D01*
X139038864Y-101505535D01*
X138798275Y-102084939D01*
X138797727Y-102712308D01*
X129051999Y-102712308D01*
X129023748Y-102643937D01*
X128717674Y-102337329D01*
X128317566Y-102171189D01*
X127884335Y-102170811D01*
X127483937Y-102336252D01*
X127177329Y-102642326D01*
X127011189Y-103042434D01*
X127010811Y-103475665D01*
X125950301Y-103475665D01*
X125953144Y-103467698D01*
X125925362Y-102912632D01*
X125766397Y-102528857D01*
X125524213Y-102459392D01*
X124723605Y-103260000D01*
X124364395Y-103260000D01*
X123563787Y-102459392D01*
X123321603Y-102528857D01*
X123134856Y-103052302D01*
X123158663Y-103527951D01*
X123092824Y-103462112D01*
X123093189Y-103044335D01*
X122927748Y-102643937D01*
X122621674Y-102337329D01*
X122483099Y-102279787D01*
X123743392Y-102279787D01*
X124544000Y-103080395D01*
X125344608Y-102279787D01*
X125275143Y-102037603D01*
X124751698Y-101850856D01*
X124196632Y-101878638D01*
X123812857Y-102037603D01*
X123743392Y-102279787D01*
X122483099Y-102279787D01*
X122221566Y-102171189D01*
X121788335Y-102170811D01*
X121387937Y-102336252D01*
X121081329Y-102642326D01*
X120915189Y-103042434D01*
X120914811Y-103475665D01*
X121080252Y-103876063D01*
X121386326Y-104182671D01*
X121786434Y-104348811D01*
X122206465Y-104349177D01*
X123950288Y-106093000D01*
X122407098Y-106093000D01*
X121320027Y-105876768D01*
X120424082Y-105278116D01*
X119825430Y-104382171D01*
X119609191Y-103295064D01*
X119609191Y-98375665D01*
X123460811Y-98375665D01*
X123626252Y-98776063D01*
X123932326Y-99082671D01*
X124332434Y-99248811D01*
X124765665Y-99249189D01*
X124856406Y-99211696D01*
X125575354Y-99930644D01*
X125746324Y-100044884D01*
X125947999Y-100084999D01*
X127194686Y-100084999D01*
X127177329Y-100102326D01*
X127011189Y-100502434D01*
X127010811Y-100935665D01*
X127176252Y-101336063D01*
X127482326Y-101642671D01*
X127882434Y-101808811D01*
X128315665Y-101809189D01*
X128716063Y-101643748D01*
X129022671Y-101337674D01*
X129188811Y-100937566D01*
X129189189Y-100504335D01*
X129023748Y-100103937D01*
X129004843Y-100084999D01*
X131886001Y-100084999D01*
X132087676Y-100044884D01*
X132258646Y-99930644D01*
X133860594Y-98328696D01*
X133860594Y-98666000D01*
X133883395Y-98787179D01*
X133955012Y-98898474D01*
X134064286Y-98973138D01*
X134194000Y-98999406D01*
X136226000Y-98999406D01*
X136347179Y-98976605D01*
X136458474Y-98904988D01*
X136533138Y-98795714D01*
X136559406Y-98666000D01*
X136559406Y-98265349D01*
X136800356Y-98625955D01*
X137236056Y-98917081D01*
X137750000Y-99019311D01*
X138263944Y-98917081D01*
X138699644Y-98625955D01*
X138990770Y-98190255D01*
X139093000Y-97676311D01*
X139093000Y-97623689D01*
X138990770Y-97109745D01*
X138699644Y-96674045D01*
X138263944Y-96382919D01*
X137750000Y-96280689D01*
X137236056Y-96382919D01*
X136800356Y-96674045D01*
X136559406Y-97034651D01*
X136559406Y-96634000D01*
X136536605Y-96512821D01*
X136464988Y-96401526D01*
X136355714Y-96326862D01*
X136226000Y-96300594D01*
X134194000Y-96300594D01*
X134072821Y-96323395D01*
X133961526Y-96395012D01*
X133886862Y-96504286D01*
X133860594Y-96634000D01*
X133860594Y-97123000D01*
X133794000Y-97123000D01*
X133592325Y-97163115D01*
X133421355Y-97277355D01*
X131667711Y-99030999D01*
X128788939Y-99030999D01*
X129022671Y-98797674D01*
X129188811Y-98397566D01*
X129189189Y-97964335D01*
X129023748Y-97563937D01*
X128717674Y-97257329D01*
X128317566Y-97091189D01*
X127884335Y-97090811D01*
X127483937Y-97256252D01*
X127177329Y-97562326D01*
X127011189Y-97962434D01*
X127010811Y-98395665D01*
X127176252Y-98796063D01*
X127410779Y-99030999D01*
X126166289Y-99030999D01*
X125601855Y-98466565D01*
X125638811Y-98377566D01*
X125639189Y-97944335D01*
X125473748Y-97543937D01*
X125167674Y-97237329D01*
X124767566Y-97071189D01*
X124334335Y-97070811D01*
X123933937Y-97236252D01*
X123627329Y-97542326D01*
X123461189Y-97942434D01*
X123460811Y-98375665D01*
X119609191Y-98375665D01*
X119609191Y-95855665D01*
X127010811Y-95855665D01*
X127176252Y-96256063D01*
X127482326Y-96562671D01*
X127882434Y-96728811D01*
X128315665Y-96729189D01*
X128716063Y-96563748D01*
X129022671Y-96257674D01*
X129188811Y-95857566D01*
X129189189Y-95424335D01*
X129023748Y-95023937D01*
X128717674Y-94717329D01*
X128317566Y-94551189D01*
X127884335Y-94550811D01*
X127483937Y-94716252D01*
X127177329Y-95022326D01*
X127011189Y-95422434D01*
X127010811Y-95855665D01*
X119609191Y-95855665D01*
X119609191Y-93315665D01*
X127010811Y-93315665D01*
X127176252Y-93716063D01*
X127482326Y-94022671D01*
X127882434Y-94188811D01*
X128315665Y-94189189D01*
X128716063Y-94023748D01*
X129022671Y-93717674D01*
X129188811Y-93317566D01*
X129189189Y-92884335D01*
X129023748Y-92483937D01*
X128717674Y-92177329D01*
X128317566Y-92011189D01*
X127884335Y-92010811D01*
X127483937Y-92176252D01*
X127177329Y-92482326D01*
X127011189Y-92882434D01*
X127010811Y-93315665D01*
X119609191Y-93315665D01*
X119609191Y-90775665D01*
X127010811Y-90775665D01*
X127176252Y-91176063D01*
X127482326Y-91482671D01*
X127882434Y-91648811D01*
X128315665Y-91649189D01*
X128716063Y-91483748D01*
X129022671Y-91177674D01*
X129188811Y-90777566D01*
X129189189Y-90344335D01*
X129023748Y-89943937D01*
X128717674Y-89637329D01*
X128317566Y-89471189D01*
X127884335Y-89470811D01*
X127483937Y-89636252D01*
X127177329Y-89942326D01*
X127011189Y-90342434D01*
X127010811Y-90775665D01*
X119609191Y-90775665D01*
X119609191Y-88235665D01*
X127010811Y-88235665D01*
X127176252Y-88636063D01*
X127482326Y-88942671D01*
X127882434Y-89108811D01*
X128315665Y-89109189D01*
X128716063Y-88943748D01*
X129022671Y-88637674D01*
X129188811Y-88237566D01*
X129189189Y-87804335D01*
X129023748Y-87403937D01*
X128717674Y-87097329D01*
X128317566Y-86931189D01*
X127884335Y-86930811D01*
X127483937Y-87096252D01*
X127177329Y-87402326D01*
X127011189Y-87802434D01*
X127010811Y-88235665D01*
X119609191Y-88235665D01*
X119609191Y-85695665D01*
X127010811Y-85695665D01*
X127176252Y-86096063D01*
X127482326Y-86402671D01*
X127882434Y-86568811D01*
X128315665Y-86569189D01*
X128716063Y-86403748D01*
X129022671Y-86097674D01*
X129188811Y-85697566D01*
X129189189Y-85264335D01*
X129110347Y-85073522D01*
X129163931Y-85019938D01*
X129163934Y-85019936D01*
X129256496Y-84881407D01*
X129288999Y-84718001D01*
X129288999Y-79914871D01*
X138076869Y-71127000D01*
X150723130Y-71127000D01*
X162273020Y-82676889D01*
X162272891Y-82824171D01*
X162368145Y-83054703D01*
X162544369Y-83231235D01*
X162774735Y-83326891D01*
X163024171Y-83327109D01*
X163254703Y-83231855D01*
X163431235Y-83055631D01*
X163526891Y-82825265D01*
X163527109Y-82575829D01*
X163431855Y-82345297D01*
X163255631Y-82168765D01*
X163025265Y-82073109D01*
X162876848Y-82072979D01*
X151201935Y-70398065D01*
X151063406Y-70305503D01*
X150900000Y-70272999D01*
X150899995Y-70273000D01*
X137900005Y-70273000D01*
X137900000Y-70272999D01*
X137736594Y-70305503D01*
X137598065Y-70398065D01*
X137598063Y-70398068D01*
X128560064Y-79436066D01*
X128467502Y-79574595D01*
X128434998Y-79738001D01*
X128434999Y-79738006D01*
X128434999Y-84439952D01*
X128317566Y-84391189D01*
X127884335Y-84390811D01*
X127483937Y-84556252D01*
X127177329Y-84862326D01*
X127011189Y-85262434D01*
X127010811Y-85695665D01*
X119609191Y-85695665D01*
X119609191Y-83146750D01*
X119585822Y-83029266D01*
X119519273Y-82929668D01*
X119419675Y-82863119D01*
X119302191Y-82839750D01*
X112935669Y-82839750D01*
X111111800Y-82476960D01*
X109591233Y-81460949D01*
X108575222Y-79940382D01*
X108218446Y-78146750D01*
X108431795Y-77074171D01*
X124122891Y-77074171D01*
X124218145Y-77304703D01*
X124323000Y-77409741D01*
X124323000Y-77698525D01*
X124322999Y-77698530D01*
X124355503Y-77861936D01*
X124448065Y-78000465D01*
X124773755Y-78326154D01*
X124773626Y-78473436D01*
X124868880Y-78703968D01*
X125045104Y-78880500D01*
X125275470Y-78976156D01*
X125524906Y-78976374D01*
X125755438Y-78881120D01*
X125931970Y-78704896D01*
X126027626Y-78474530D01*
X126027844Y-78225094D01*
X125932590Y-77994562D01*
X125756366Y-77818030D01*
X125526000Y-77722374D01*
X125377584Y-77722244D01*
X125177000Y-77521660D01*
X125177000Y-77409684D01*
X125281235Y-77305631D01*
X125376891Y-77075265D01*
X125377109Y-76825829D01*
X125281855Y-76595297D01*
X125105631Y-76418765D01*
X124875265Y-76323109D01*
X124625829Y-76322891D01*
X124395297Y-76418145D01*
X124218765Y-76594369D01*
X124123109Y-76824735D01*
X124122891Y-77074171D01*
X108431795Y-77074171D01*
X108575222Y-76353118D01*
X109602459Y-74815748D01*
X110055042Y-74421098D01*
X123854827Y-67712308D01*
X138822727Y-67712308D01*
X139062305Y-68292132D01*
X139505535Y-68736136D01*
X140084939Y-68976725D01*
X140712308Y-68977273D01*
X141292132Y-68737695D01*
X141736136Y-68294465D01*
X141976725Y-67715061D01*
X141977273Y-67087692D01*
X141737695Y-66507868D01*
X141294465Y-66063864D01*
X140715061Y-65823275D01*
X140087692Y-65822727D01*
X139507868Y-66062305D01*
X139063864Y-66505535D01*
X138823275Y-67084939D01*
X138822727Y-67712308D01*
X123854827Y-67712308D01*
X127684325Y-65850591D01*
X147231303Y-64680116D01*
X165738277Y-71079043D01*
M02*
